<?xml version="1.0" encoding="UTF-8" standalone="no"?>
<!-- Created with Inkscape (http://www.inkscape.org/) -->

<svg
   xmlns:dc="http://purl.org/dc/elements/1.1/"
   xmlns:cc="http://creativecommons.org/ns#"
   xmlns:rdf="http://www.w3.org/1999/02/22-rdf-syntax-ns#"
   xmlns:svg="http://www.w3.org/2000/svg"
   xmlns="http://www.w3.org/2000/svg"
   xmlns:xlink="http://www.w3.org/1999/xlink"
   xmlns:sodipodi="http://sodipodi.sourceforge.net/DTD/sodipodi-0.dtd"
   xmlns:inkscape="http://www.inkscape.org/namespaces/inkscape"
   width="2500"
   height="2500"
   viewBox="0 0 2500 2500"
   id="svg2"
   version="1.1"
   inkscape:version="0.91 r13725"
   sodipodi:docname="brizzlebears_logo.svg"
   inkscape:export-filename="C:\Users\Dominic\OneDrive\Documents\Puffs\Logos\Brizzlebears\Brizzlebears Logo [OFFICIAL].png"
   inkscape:export-xdpi="90"
   inkscape:export-ydpi="90">
  <defs
     id="defs4">
    <linearGradient
       inkscape:collect="always"
       id="linearGradient4167">
      <stop
         style="stop-color:#a00000;stop-opacity:1;"
         offset="0"
         id="stop4169" />
      <stop
         style="stop-color:#f00000;stop-opacity:1"
         offset="1"
         id="stop4171" />
    </linearGradient>
    <clipPath
       clipPathUnits="userSpaceOnUse"
       id="clipPath4147">
      <rect
         style="opacity:1;fill:#a00000;fill-opacity:0.50967742;stroke:#000000;stroke-width:30;stroke-linecap:round;stroke-miterlimit:4;stroke-dasharray:none;stroke-opacity:0"
         id="rect4149"
         width="1440"
         height="1348.5714"
         x="-1982.8572"
         y="-1559.0664" />
    </clipPath>
    <linearGradient
       inkscape:collect="always"
       xlink:href="#linearGradient4167"
       id="linearGradient4173"
       x1="-39.742092"
       y1="-1203.3522"
       x2="2111.105"
       y2="750.93359"
       gradientUnits="userSpaceOnUse"
       gradientTransform="matrix(1.1948615,-0.26024157,0.23477123,0.72491141,293.46,203.5521)" />
  </defs>
  <sodipodi:namedview
     id="base"
     pagecolor="#000000"
     bordercolor="#666666"
     borderopacity="1.0"
     inkscape:pageopacity="0"
     inkscape:pageshadow="2"
     inkscape:zoom="0.175"
     inkscape:cx="598.22749"
     inkscape:cy="1366.5364"
     inkscape:document-units="px"
     inkscape:current-layer="layer1"
     showgrid="false"
     units="px"
     inkscape:window-width="1536"
     inkscape:window-height="801"
     inkscape:window-x="-8"
     inkscape:window-y="-8"
     inkscape:window-maximized="1" />
  <metadata
     id="metadata7">
    <rdf:RDF>
      <cc:Work
         rdf:about="">
        <dc:format>image/svg+xml</dc:format>
        <dc:type
           rdf:resource="http://purl.org/dc/dcmitype/StillImage" />
        <dc:title></dc:title>
      </cc:Work>
    </rdf:RDF>
  </metadata>
  <g
     inkscape:label="Layer 1"
     inkscape:groupmode="layer"
     id="layer1"
     transform="translate(0,1447.6378)">
    <path
       style="opacity:1;fill:url(#linearGradient4173);fill-opacity:1;stroke:#000000;stroke-width:28.88839531;stroke-linecap:round;stroke-miterlimit:4;stroke-dasharray:none;stroke-opacity:0"
       d="m 1827.209,-1311.9698 -455.5918,300.875 -84.2188,291.92966 c 12.5477,3.25514 25.2901,6.56157 38.7657,10.04687 37.043,9.58069 70.8287,18.40444 75.08,19.60742 8.182,2.31524 24.4234,13.50868 29.3926,20.25782 1.6158,2.19466 5.2299,12.60685 8.0313,23.13867 4.611,17.33834 7.8561,24.50586 11.0957,24.50586 0.6353,0 6.087,2.24267 12.1152,4.98242 23.105,10.50103 33.6973,14.36583 41.7109,15.22266 6.5747,0.70298 10.9285,2.5451 20.9532,8.86523 6.9597,4.38783 14.6749,9.68861 17.1445,11.7793 4.4821,3.79461 4.4902,3.83094 4.4902,20.12695 0,15.50029 -0.2192,16.65369 -4.332,22.86719 -3.7614,5.68302 -9.6418,20.81673 -34.5937,89.02343 -2.7103,7.40862 -6.5112,17.78112 -8.4454,23.04882 -1.9344,5.2678 -5.2001,11.1517 -7.2578,13.0762 -3.4645,3.2398 -17.909,11.8804 -51.6367,30.8926 -14.52,8.1848 -16.0416,9.535 -14.9004,13.2089 0.4098,1.3196 3.452,15.4626 6.7617,31.4297 10.8094,52.1471 23.8929,115.5422 26.8418,130.0586 6.5553,32.2715 10.6231,50.1271 11.6446,51.127 0.5516,0.5396 7.7152,2.7718 16.2695,5.1094 l 340.6797,-1161.1797 z m -491.0215,154.9023 -455.5918,300.87501 -529.72851,1777.46289 437.37304,-271.7422 80.67774,-266 -0.0566,-6.0996 3.91406,-6.6172 31.01758,-102.2637 c -3.19455,-3.0606 -5.68571,-5.9836 -6.25,-7.5058 -0.84335,-2.2745 -2.57575,-4.5366 -3.84961,-5.0254 -1.27387,-0.4888 -2.31641,-1.5376 -2.31641,-2.3301 0,-0.7926 -1.85157,-4.2662 -4.11523,-7.7207 -2.26374,-3.4546 -4.78822,-7.3771 -5.61133,-8.7168 -0.8232,-1.3397 -7.39106,-9.7439 -14.59375,-18.6758 -15.56974,-19.3073 -16.16707,-21.8918 -6.73437,-29.0937 3.49852,-2.6712 8.7184,-7.4404 11.59961,-10.5977 l 5.23828,-5.7402 9.5039,2.6133 c 8.75338,2.4074 9.65173,3.0463 11.37305,8.082 1.6649,4.8707 12.28266,21.1677 21.41211,33.0918 l 16.53906,-54.5312 c -4.19814,1.486 -11.91557,1.917 -26.00586,2.1679 -13.11368,0.2337 -25.69523,0.1917 -27.95898,-0.0937 -5.22748,-0.6596 -5.6059,-5.9121 -0.74805,-10.3809 3.10037,-2.8521 5.59383,-3.1456 31.42969,-3.6953 l 27.09765,-0.5762 26.72657,-88.1152 c -0.90899,-0.1143 -1.71044,-0.2347 -2.17969,-0.3574 -1.43573,-0.3755 -7.83427,-3.2317 -14.21875,-6.3477 -13.89711,-6.7825 -17.66885,-8.1018 -23.58008,-8.2363 -5.16783,-0.1183 -6.05047,-3.3687 -1.60742,-5.9258 17.72037,-10.1989 35.61901,-24.8342 37.45898,-30.6308 2.51722,-7.9312 9.89249,-2.8157 16.51758,10.6484 l 21.92184,-72.2754 c -2.591,-5.1 -2.20611,-14.7359 1.1777,-23.3242 1.5839,-4.0199 3.2485,-9.0339 3.6993,-11.1426 0.4506,-2.1086 2.5109,-5.8049 4.58,-8.2129 2.5073,-2.918 3.3515,-3.8759 4.4903,-3.3086 l 2.8457,-9.3847 c -0.9717,-0.5818 -1.9361,-1.2871 -2.7559,-2.0469 -2.8134,-2.6073 -4.118,-5.674 -4.7754,-11.2246 l -0.9043,-7.6368 5.1289,0 c 2.7292,0 5.9829,0.8229 9.0196,2.0743 l 18.2402,-60.1348 c -2.7739,-1.3965 -5.7622,-2.989 -8.2383,-4.4258 -4.6107,-2.6753 -8.8489,-4.8652 -9.418,-4.8652 -0.569,0 -4.713,-1.8016 -9.2109,-4.0039 -10.5701,-5.1758 -13.9831,-10.6636 -15.12886,-24.3321 -1.05949,-12.6374 0.73656,-14.2411 10.51756,-9.3906 3.433,1.7025 13.9866,6.2582 23.4531,10.1231 6.7215,2.7441 12.3243,5.2982 16.8828,7.6894 l 14.1035,-46.5019 c -4.1021,-1.6629 -9.2956,-3.6028 -14.1035,-5.211 -7.5897,-2.5386 -21.0599,-7.5831 -29.9336,-11.209 -8.8738,-3.6257 -18.567,-7.0265 -21.54096,-7.5566 -7.95672,-1.4183 -13.80258,-9.3568 -9.51172,-12.918 1.64472,-1.3649 5.37615,-0.9208 16.74998,1.9961 8.0478,2.0641 20.3564,4.5181 27.3535,5.4532 6.9968,0.935 16.4258,2.6754 20.9531,3.8671 3.0917,0.8138 9.7821,1.8676 16.9551,2.7579 l 3.0859,-10.1739 c -9.4049,-2.6456 -12.9422,-4.513 -18.1836,-9.5703 -4.5983,-4.4369 -6.4058,-7.3115 -6.0722,-9.6582 0.4189,-2.947 1.4799,-3.3934 8.998,-3.7871 6.4062,-0.3355 10.085,0.349 14.8067,2.7578 1.828,0.9326 3.7293,1.9992 5.6445,3.1367 l 10.1953,-33.6152 c -0.9153,-2.3686 -1.0058,-4.3993 -1.0058,-7.5898 0,-4.6075 0.7974,-8.681 1.871,-9.5606 0.4942,-0.4049 2.146,-0.4721 4.4278,-0.3027 l 15.6465,-51.5821 c -2.246,-2.5223 -2.1344,-5.5669 -0.9786,-9.8593 0.9305,-3.4555 3.3219,-7.9116 5.3145,-9.9043 0.8345,-0.8345 1.5396,-1.4698 2.2461,-1.9434 l 15.7949,-52.07225 c -4.2729,-2.91517 -4.036,-7.075 -0.209,-17.98633 2.0953,-5.9744 4.0479,-13.04591 4.3399,-15.71484 0.3863,-3.52794 1.2864,-4.85352 3.2949,-4.85352 0.8983,0 2.0492,1.09875 3.3437,3.04687 l 41.0977,-135.50195 -5.6641,0 c -4.4164,0 -8.478,-0.72588 -9.0253,-1.61133 -1.8962,-3.06803 1.1304,-18.65543 6.0957,-31.39062 9.8088,-25.15751 10.4822,-25.55615 19.4668,-11.52539 0.6775,1.05816 1.1766,1.86519 1.7792,2.81445 l 6.0489,-19.94531 c -32.7761,-8.49264 -40.0262,-10.16331 -42.5996,-10.17188 -1.8106,-0.008 -15.9536,3.06559 -31.4297,6.82618 -15.4763,3.76056 -30.4977,6.85986 -33.3789,6.88671 -5.5757,0.0521 -8.7007,-2.85515 -40.1289,-37.3164 -9.4822,-10.39728 -12.4727,-12.72256 -18.7735,-14.59375 -4.1218,-1.22411 -9.1782,-2.22461 -11.2363,-2.22461 -3.9317,0 -54.43484,24.04356 -58.94918,28.06445 -2.34834,2.09163 -2.61384,5.75353 -2.5664,35.40234 0.0421,25.84687 0.51954,33.88603 2.1914,36.81055 3.09115,5.4074 2.6099,13.39587 -1.1875,19.71289 -8.63423,14.36326 -25.73028,41.20454 -27.85937,43.74024 -2.75375,3.27931 -2.2042,3.11417 8.73633,-2.63282 12.68872,-6.66534 19.05843,-8.60335 20.91601,-6.36523 2.56027,3.08508 3.59677,17.61926 1.7461,24.48437 -2.08695,7.7416 -4.10244,8.8942 -26.78125,15.29493 -18.91334,5.33801 -22.0672,5.17113 -20.52344,-1.08008 1.41602,-5.73413 -0.56853,-3.36653 -9.32031,11.11523 -6.09047,10.07816 -7.6978,14.28181 -9.16016,23.94727 -14.11418,93.28222 -11.86861,83.50503 -25.41211,110.63473 -10.88697,21.8085 -16.03484,34.6782 -14.48828,36.2246 0.33184,0.3318 2.54088,-3.3335 4.91016,-8.1464 5.03976,-10.238 9.15381,-12.0544 12.35546,-5.4532 1.15501,2.3813 2.31242,11.1575 2.68555,20.3653 0.81267,20.0538 -1.20074,26.279 -11.66211,36.0644 -11.1746,10.4525 -11.79679,9.927 -12.29297,-10.4023 l -0.42187,-17.2774 -10.11719,40.1016 c -5.5638,22.056 -19.55775,77.3676 -31.09765,122.9141 l -20.98047,82.8105 0.1289,66.4824 c 0.12122,62.1356 0.76277,72.4194 3.99805,63.9883 0.52668,-1.3724 4.98496,-6.5876 9.9082,-11.5879 4.92333,-5.0003 9.83467,-11.2038 10.91406,-13.7871 2.48765,-5.9538 21.18038,-20.9741 23.37305,-18.7812 1.04941,1.0492 0.19708,8.3213 -2.6914,22.9707 L 838.4082,-4.2257 824.18555,9.6181 c -15.15065,14.748 -19.0018,16.4694 -23.4336,10.4765 -2.42122,-3.2738 -2.46163,-3.1801 -1.50586,3.3477 0.5406,3.693 4.82129,20.8681 9.51368,38.166 l 8.53125,31.4492 0,103.2715 0,103.2715 -14.48829,33.916 -14.48828,33.9141 -2.34961,23.5996 c -2.67177,26.8346 -2.8321,31.0252 -1.15429,29.9882 2.82883,-1.7484 10.77929,8.3576 10.77929,13.7012 0,4.0613 -8.30385,13.7582 -11.80468,13.7852 -1.6379,0.015 -1.87239,-1.7252 -1.10938,-8.2168 0.53207,-4.5275 0.44876,-8.2305 -0.18359,-8.2305 -1.82248,0 -5.52726,6.5071 -5.11328,8.9805 0.25252,1.5093 -0.0146,1.6798 -0.8086,0.5234 -0.65167,-0.9459 -2.80183,-1.9553 -4.77734,-2.2441 -1.97533,-0.2887 -4.90318,-2.2885 -6.50586,-4.4434 -2.88914,-3.8849 -2.88731,-4.1965 0.18945,-36.7558 2.91897,-30.8883 4.3965,-38.5099 9.75,-50.2813 1.2088,-2.6581 6.96853,-16.4322 12.79883,-30.6094 l 10.60156,-25.7773 -0.39648,-96.9512 -0.39649,-96.9512 -9.98242,-38.164 -9.98242,-38.166 -0.39453,-79.3243 -0.39453,-79.3242 7.68164,-29.9336 c 10.01999,-39.0464 36.49752,-143.7248 50.73047,-200.5566 11.12444,-44.4192 11.37893,-45.1729 23.6914,-70.3438 7.99566,-16.34596 12.81308,-28.12005 13.47266,-32.92769 0.56485,-4.11589 2.58819,-17.24754 4.49609,-29.18359 1.90782,-11.93608 3.9154,-25.40612 4.46094,-29.9336 1.91736,-15.91344 5.24306,-31.51588 7.58399,-35.56835 1.30074,-2.25185 5.86022,-9.63265 10.13085,-16.40235 4.27064,-6.7697 12.69239,-20.23979 18.71485,-29.93359 6.0228,-9.69382 14.27455,-22.67773 18.33789,-28.85156 11.94853,-18.15412 12.65382,-19.92275 10.62695,-26.6875 -2.44314,-8.15462 -2.40757,-79.48989 0.043,-84.86719 1.41425,-3.10401 9.43269,-7.74857 38.00781,-22.02149 l 36.21678,-18.08984 12.5039,2.62891 c 15.439,3.24584 23.9659,7.15072 29.1094,13.33007 16.8795,20.27941 36.7434,40.04528 39.4375,39.24415 14.206,-4.22471 53.8695,-12.79493 59.2148,-12.79493 3.7921,0 18.4743,3.04331 32.627,6.76367 4.8147,1.26564 9.7499,2.56751 15.373,4.04688 l 126.6465,-417.5547 z m 869.6074,119.5762 -455.5898,300.87498 -134.4746,450.87302 c 5.0832,-4.0566 11.1382,-8.7091 18.332,-14.0664 16.6562,-12.404 30.7986,-23.4689 31.4258,-24.5898 0.6271,-1.121 2.2414,-9.0146 3.5879,-17.541 2.941,-18.6222 3.9016,-21.4038 8.4004,-24.3516 1.9425,-1.2729 16.2693,-4.224 32.6015,-6.7148 26.5815,-4.0541 29.5455,-4.2504 33.8106,-2.2266 2.5711,1.2201 5.4048,3.8199 6.2968,5.7773 1.4601,3.2042 2.4865,3.5342 10.3086,3.2969 7.5961,-0.2304 9.5694,0.347 15.6934,4.5996 3.8526,2.6753 7.3585,4.8653 7.791,4.8653 0.4324,0 3.2683,-1.6843 6.3008,-3.7422 9.5147,-6.4568 14.0806,-5.163 28.4492,8.0586 5.024,4.623 10.8779,9.5856 13.0098,11.0293 2.1319,1.4437 9.6395,9.8191 16.6836,18.6113 l 12.8066,15.9863 0,12.2051 c 0,11.4961 0.2144,12.3012 3.6641,13.873 7.2553,3.3058 8.8169,8.014 8.4746,25.5293 l -0.3125,16.0352 9.7988,12.1914 c 10.7063,13.3209 13.391,18.6136 11.8985,23.4551 -0.9238,2.9965 -6.7576,15.2727 -33.1563,69.7734 -6.1802,12.7592 -15.777,32.6279 -21.3281,44.1524 -5.5513,11.5244 -16.6424,34.4232 -24.6465,50.8867 -8.0041,16.4635 -18.6244,38.3529 -23.5996,48.6426 -4.9752,10.2897 -14.7519,30.4948 -21.7266,44.9003 -6.9751,14.4056 -17.572,36.293 -23.5488,48.6407 -5.9766,12.3476 -17.0949,35.2483 -24.707,50.8886 -7.6121,15.6404 -18.0571,37.1913 -23.211,47.8926 -36.1728,75.1084 -33.7767,70.9479 -44.1406,76.6817 -20.8228,11.5199 -52.6339,27.3379 -54.9766,27.3379 -2.5131,0 -43.1153,-11.5744 -50.3711,-14.3594 -3.9898,-1.5314 -5.105,-6.4539 20.875,92.1875 4.4445,16.8751 9.0361,34.0501 10.2032,38.166 1.1676,4.1159 4.2846,15.9017 6.9258,26.1914 9.0426,35.2272 16.4778,63.6123 19.58,74.7461 3.9739,14.2622 5.3566,28.8619 6.6348,70.0801 0.9117,29.402 0.7461,33.761 -1.4043,37.0429 -3.3479,5.1096 -11.7908,5.2232 -15.0801,0.2032 -1.8284,-2.7904 -2.6215,-12.1366 -3.8437,-45.2735 l -1.541,-41.7597 -7.4024,-28.4356 c -10.2398,-39.3418 -20.4219,-78.2748 -24.6621,-94.291 -1.9615,-7.4086 -5.2342,-19.8693 -7.2715,-27.6895 -2.0373,-7.8201 -5.8448,-22.3015 -8.4609,-32.1796 -16.8406,-63.5871 -20.9029,-79.7533 -20.9082,-83.2071 0,-4.1313 3.298,-7.8978 8.2461,-9.3984 1.722,-0.5222 14.2338,2.3804 29.1855,6.7695 42.288,12.4138 36.1876,12.4407 60.5957,-0.2812 11.5245,-6.0068 22.8099,-12.2048 25.0801,-13.7735 2.5431,-1.7572 6.6504,-8.1247 10.6973,-16.5859 3.6127,-7.5538 12.1058,-25.1837 18.873,-39.1777 6.7672,-13.994 16.1836,-33.5262 20.9258,-43.4043 4.7421,-9.8781 14.5106,-30.0833 21.709,-44.9004 30.1973,-62.1571 38.164,-78.7264 38.164,-79.3809 0,-0.3801 -0.953,-0.6914 -2.1171,-0.6914 -2.8573,0 -9.776,-11.7538 -14.9786,-25.4433 -2.3463,-6.1739 -4.848,-11.8645 -5.5586,-12.6465 -2.0808,-2.2889 -1.4849,-10.7732 0.8946,-12.7481 3.2629,-2.7079 13.2466,-3.6144 18.9785,-1.7226 6.1038,2.0144 8.2583,5.2173 12.707,18.8847 1.8755,5.7623 3.4416,9.7158 3.4785,8.7852 0.037,-0.9305 7.7767,-17.5362 17.2012,-36.9024 9.4243,-19.3663 20.1194,-41.5041 23.7676,-49.1953 3.6485,-7.6912 13.3622,-27.7909 21.5859,-44.666 33.1063,-67.9333 40.7817,-84.2374 40.7637,-86.5918 -0.015,-1.3537 -3.817,-7.1753 -8.459,-12.9375 -11.7496,-14.5849 -12.7813,-17.5823 -11.5723,-33.6015 l 1,-13.2579 -4.4707,-2.3125 c -7.86,-4.0646 -9.5937,-8.4157 -8.5859,-21.5488 l 0.8906,-11.5976 -6.3418,-7.2637 -6.3418,-7.2617 -5.7871,19.9843 c -6.7135,23.1768 -9.1168,27.2858 -16.3164,27.9082 -4.1706,0.3606 -6.2247,-0.6199 -11.375,-5.4257 -8.5917,-8.0171 -9.0078,-10.936 -3.5351,-24.7129 4.8135,-12.1169 5.5215,-15.2108 3.1484,-13.7442 -0.7892,0.4876 -2.8818,4.8561 -4.6504,9.7071 -3.9855,10.9302 -8.6959,15.7741 -14.0371,14.4336 -4.9009,-1.2301 -5.1189,-7.2317 -0.6855,-18.8633 9.4924,-24.9051 10.246,-27.2372 8.2871,-25.6113 -1.1267,0.935 -3.2451,5.5083 -4.709,10.1621 -1.4638,4.6537 -3.5714,10.2004 -4.6817,12.3281 -1.1103,2.1276 -2.0224,4.6211 -2.0273,5.539 0,0.918 -1.4052,3.4424 -3.1113,5.6114 -6.6057,8.3977 -19.3483,2.8063 -17.4395,-7.6524 0.4134,-2.2653 3.5079,-11.8635 6.877,-21.33 3.3693,-9.4666 6.1387,-17.7753 6.1543,-18.4629 0.015,-0.6876 -4.9068,-0.7878 -10.9375,-0.2227 -10.9124,1.0226 -10.9836,1.0058 -14.8243,-3.5586 -2.1222,-2.5224 -4.1116,-5.3485 -4.4218,-6.2793 -0.6732,-2.0194 -43.2961,4.1463 -44.8262,6.4844 -0.5225,0.7987 -1.7055,7.3444 -2.6289,14.5449 -0.9234,7.2005 -2.3836,15.1156 -3.2461,17.5899 -1.5397,4.4165 -10.1245,11.523 -40.9199,33.873 -6.6667,4.8383 -13.8886,10.2255 -16.0489,11.9727 -2.1604,1.7471 -5.6983,4.4506 -7.8613,6.0078 -2.0727,1.492 -9.4573,11.1519 -16.7168,21.8105 l -30.7207,102.9961 c 1.6276,-2.6767 3.4767,-5.9081 5.2676,-9.2969 3.8855,-7.3521 9.9914,-17.8531 13.5703,-23.3359 8.1736,-12.5211 11.0265,-17.6695 25.6973,-46.3633 19.2543,-37.6589 19.6804,-38.1304 33.5058,-37.1406 8.4658,0.6061 8.8649,2.6534 2.9727,15.2559 -2.517,5.3834 -4.5762,10.2262 -4.5762,10.7636 0,0.5374 -3.2778,6.4585 -7.2851,13.1582 -7.9679,13.3211 -17.7025,31.3863 -26.3243,48.8516 -3.0478,6.1738 -8.3116,16.6119 -11.6972,23.1973 -3.3858,6.5854 -8.2153,15.9954 -10.7324,20.9101 -5.9985,11.7127 -16.1181,18.1758 -31.0801,19.8145 l -36.7207,123.123 c 7.4769,-7.8771 12.7753,-14.0766 13.8945,-16.5586 1.63,-3.6146 4.3875,-6.5547 7.5527,-8.0566 4.805,-2.2802 5.3932,-2.1949 16.3594,2.4082 8.2996,3.4838 11.9593,5.9039 13.5332,8.9472 4.4524,8.61 2.326,11.7716 -16.6543,24.7657 -15.0765,10.3215 -33.4263,23.6066 -48.5918,35.1152 l -81.8027,274.2715 c 1.2184,1.2284 1.7812,2.5065 1.7812,3.9902 0,2.4385 -0.8773,3.5282 -4.3925,4.7657 l -57.377,192.373 c 5.5305,11.2069 11.6309,26.5237 11.6309,29.875 0,4.9217 -4.478,4.3796 -12.2325,-1.4805 -1.4773,-1.1164 -3.8639,-2.7642 -6.5117,-4.541 l -24.0429,80.6094 c 5.0935,-5.4819 10.8212,-10.6638 13.4296,-12.0684 4.727,-2.5457 6.06,-2.6586 11.7325,-0.9922 3.5197,1.0341 11.1147,3.1356 16.8769,4.67 13.0183,3.4666 18.709,6.0085 18.709,8.3574 0,1.7596 -3.6402,5.2268 -21.9453,20.9043 -4.8056,4.1159 -15.8097,15.0485 -24.4531,24.2949 -8.6433,9.2464 -17.0597,18.0021 -18.7051,19.457 -1.6454,1.4549 -11.1327,10.8966 -21.082,20.9805 -0.045,0.0455 -0.088,0.0874 -0.1329,0.1328 l -67.6425,226.793 437.373,-271.7442 523.6289,-1723.6933 z m -1193.2324,282.416 c 2.3722,0.0652 4.5858,1.09718 6.3164,3.23438 1.4902,1.84041 2.7109,4.44486 2.7109,5.7871 0,3.21273 -10.36,18.19724 -12.5312,18.125 -0.9286,-0.0309 -4.2729,-2.26991 -7.4316,-4.9746 -5.71752,-4.89553 -5.73375,-4.93902 -3.56059,-10.04493 3.29189,-7.73486 9.27729,-12.27044 14.49609,-12.12695 z m -16.02734,28.2793 c 1.1361,0.026 2.29943,0.28552 3.35156,0.83203 4.09688,2.12795 8.17598,6.99138 8.98628,10.71484 0.3698,1.70033 1.3425,12.52046 2.1602,24.04492 1.3683,19.28414 1.2692,21.25172 -1.2383,24.69532 -1.4985,2.05793 -4.1171,3.94903 -5.8183,4.20312 -2.6381,0.39406 -3.3288,-0.70516 -4.70512,-7.48242 -0.88741,-4.36998 -2.9791,-17.37397 -4.64648,-28.89844 -1.66756,-11.52447 -3.39972,-22.13808 -3.85156,-23.58398 -0.80941,-2.59079 2.35339,-4.60338 5.76172,-4.52539 z m 161.52934,9.70117 c 4.9571,-0.0607 13.5476,2.89935 14.3261,5.29492 0.6985,2.14904 -20.6437,12.36328 -25.832,12.36328 -1.8543,0 -4.2722,-1.08373 -5.3731,-2.41015 -1.7399,-2.09648 -1.1274,-3.17231 4.6817,-8.22657 3.6754,-3.1978 8.3228,-6.25826 10.3281,-6.80078 0.5265,-0.14243 1.161,-0.21203 1.8692,-0.2207 z m -179.80473,10.69726 c 1.06055,-0.0304 2.12691,0.0517 3.07421,0.25977 l 4.46875,0.98242 -0.98437,12.21485 c -0.88758,10.99933 -0.60076,13.162 2.89648,21.75585 2.13634,5.24858 3.52094,10.13213 3.07618,10.85157 -1.49161,2.41368 -10.56758,1.39482 -13.16797,-1.47852 -3.65027,-4.03352 -5.17857,-10.6037 -6.31836,-27.15039 -0.96738,-14.04882 -0.87585,-14.71196 2.27539,-16.39844 1.15999,-0.62083 2.9121,-0.98641 4.67969,-1.03711 z m 303.70903,6.05469 -4.2598,14.76953 c 1.7663,3.12084 3.4218,6.94676 4.5508,10.83203 0.9566,3.29271 2.5273,6.6612 3.4882,7.48438 2.7593,2.36335 3.8281,10.54268 1.75,13.38476 -1.9329,2.64319 -10.4007,3.9865 -18.207,2.88868 -0.5634,-0.0792 -0.9896,-0.14501 -1.498,-0.21875 l -1.6035,5.55859 c 2.3524,0.6066 4.6201,1.50402 6.4472,2.70117 2.559,1.6766 3.3887,3.64756 3.3887,8.03711 0,5.35994 -0.321,5.80917 -4.1152,5.75391 -2.2636,-0.0329 -6.1379,-1.12431 -8.6075,-2.42383 -0.3328,-0.17517 -0.6693,-0.36474 -1.0078,-0.56836 l -7.2304,25.06055 c 2.208,1.85027 4.1812,3.84558 5.3203,5.58398 2.4944,3.80706 1.873,7.00473 -1.2852,6.60742 -0.9806,-0.12332 -3.8039,-0.47697 -6.2734,-0.78515 -0.3834,-0.0478 -0.6561,-0.0857 -1.0137,-0.13086 l -29.8164,103.35156 c 0.1435,0.2106 0.2794,0.39684 0.4277,0.62109 9.1165,13.78683 9.1284,13.85227 6.252,31.89258 -1.7376,10.89685 -3.3158,16.60889 -4.7422,17.15629 -1.2905,0.4952 -5.4087,-2.4229 -10.3848,-7.35941 -1.1296,-1.12068 -2.0573,-2.07822 -2.9004,-2.97266 l -13.3457,46.26567 c 0.5242,0.2014 1.0995,0.4753 1.7442,0.8203 2.22,1.1881 5.7567,4.5243 7.8593,7.414 9.7537,13.4044 14.4252,19.2266 21.0137,26.1856 3.9085,4.1284 11.2799,13.6283 16.3809,21.1113 10.4828,15.3778 11.4414,20.0083 5.4726,26.4453 -4.105,4.4271 -4.4254,4.5241 -8.9199,2.6895 -4.4901,-1.8329 -14.15,-11.2414 -26.8711,-26.1719 -6.2631,-7.3508 -13.3167,-14.538 -15.6758,-15.9727 -5.4702,-3.3266 -7.5635,-9.2209 -7.1718,-21.1445 l -11.3926,39.4883 c 1.5844,0.5522 2.888,1.2889 3.6191,2.1699 0.9534,1.1486 2.3556,2.0899 3.1172,2.0899 0.7617,0 2.8687,1.5309 4.6817,3.4023 1.8128,1.8713 9.5792,9.0852 17.2578,16.0313 7.6786,6.946 14.6192,13.8599 15.4238,15.3632 4.431,8.2795 -6.3063,13.6432 -20.4063,10.1953 -2.4695,-0.6038 -7.1837,-2.4622 -10.4765,-4.1308 -3.2926,-1.6685 -9.6914,-4.229 -14.2188,-5.6895 -3.6449,-1.1757 -6.7522,-2.2948 -9.3886,-3.4082 l -12.6368,43.8008 c 18.8896,6.3979 28.0137,10.5703 28.0137,12.8477 0,0.8403 -2.1128,2.6739 -4.6953,4.0761 -2.5823,1.4023 -7.6729,4.7637 -11.3105,7.4688 -7.9713,5.928 -12.7331,6.9213 -20.2442,4.1543 l -35.8984,124.4375 c 6.8029,-9.5831 20.7095,-26.3009 32.3828,-38.4707 7.5013,-7.8202 18.5045,-19.606 24.4512,-26.1914 10.4506,-11.5738 10.8878,-11.8739 13.1328,-8.9805 3.1796,4.0983 1.6203,30.7405 -2.5645,43.8145 -2.5841,8.0728 -3.7185,9.6873 -8.0801,11.5097 -6.5665,2.7436 -17.2533,13.7793 -20.6601,21.334 -5.0517,11.2028 -22.5995,15.744 -36.4844,9.4414 -1.995,-0.9055 -3.7282,-2.0233 -4.8867,-3.0664 l -3.6856,12.7734 c 0.8814,-0.0062 1.7315,-0.0158 2.67,-0.0156 17.415,0.0024 20.2138,0.358 23.707,2.9942 4.0488,3.0554 10.1748,11.6969 23.3535,32.9472 13.4434,21.6769 13.6629,22.3225 12.2168,35.8965 -2.36,22.1512 -5.6467,44.8616 -7.2539,50.1289 -0.8773,2.8757 -1.5937,7.6764 -1.5937,10.668 0,6.501 -2.4277,8.9517 -7.1094,7.1777 -1.8521,-0.7019 -3.3692,-2.3714 -3.3692,-3.709 0,-2.6413 -7.318,-24.4116 -9.0254,-26.8496 -1.0442,-1.491 -14.1538,-26.1764 -21.4609,-40.4101 -3.6459,-7.1019 -10.6398,-22.2762 -15.5039,-33.6407 -0.8638,-2.0183 -2.6148,-5.2127 -4.4238,-8.1679 l -27.7559,96.2109 c 3.0894,10.6167 10.4,32.4908 11.9961,35.5449 0.8188,1.5666 3.0536,6.1182 4.9649,10.1172 3.3962,7.1046 3.4112,7.3196 0.6269,9.3555 -3.2096,2.3466 -13.2095,2.6118 -18.5039,0.4902 -3.5671,-1.4293 -9.0778,-7.0919 -9.168,-9.4199 -0.01,-0.2701 -0.7915,-2.1552 -1.8711,-4.6523 l -38.8769,134.7636 c 1.9489,0.6499 4.361,1.5903 6.7441,2.6758 4.2688,1.9447 9.1879,3.9814 10.9317,4.5274 7.0771,2.2161 7.9604,5.0527 8.2343,26.4355 0.2089,16.349 -0.2757,21.676 -2.58,28.3613 l -2.836,8.2325 -7.4843,0.2207 c -4.1159,0.1212 -11.155,-0.3274 -15.6426,-0.9961 -10.4694,-1.5603 -12.5737,-4.201 -11.4336,-14.3399 0.4719,-4.197 1.873,-10.5104 3.1152,-14.0312 0.737,-2.0889 1.3213,-5.2705 1.7129,-9.0586 l -21.23632,73.6113 c -0.94518,8.4026 -2.12943,16.6617 -3.31836,22.2148 l -2.72266,12.7227 -4.04687,0.0313 -16.31836,56.5644 c 10.25836,0.2509 12.59515,1.6017 14.02148,4.7324 2.41424,5.2989 0.18716,16.9396 -4.05078,21.1778 -2.91808,2.9179 -5.10466,3.5556 -12.22656,3.5683 -1.53086,0.003 -3.79185,0.0885 -6.30664,0.2051 l -23.00391,79.7402 c -0.62405,5.0246 -1.0664,10.6621 -1.0664,14.2364 0,9.8585 -0.98754,13.6226 -3.52735,13.4433 -0.30716,-0.0215 -1.4805,-0.6338 -2.96875,-1.4687 L 802.64648,961.1669 1214.8418,705.0673 c -0.1757,-0.1447 -0.3612,-0.2887 -0.5273,-0.4336 -2.6903,-2.3467 -6.4077,-4.7402 -8.2598,-5.3184 -1.8521,-0.578 -3.3672,-2.2557 -3.3672,-3.7285 0,-2.3025 1.9231,-2.8224 13.7187,-3.7129 9.7827,-0.7384 14.2874,-0.7721 16.5176,1.959 l 7.0957,-4.4082 10.8496,-36.9805 c -2.361,2.1602 -4.0856,3.5804 -4.748,3.8203 -0.6882,0.2492 -1.7965,-0.4237 -2.4629,-1.4961 -0.6662,-1.0723 -1.4822,-10.5583 -1.8125,-21.0781 -0.5779,-18.3968 -0.4702,-19.2372 2.8008,-22.0742 2.3346,-2.0247 5.5833,-2.9512 10.3633,-2.9512 2.2799,0 5.241,0.4255 8.3808,1.0996 l 35.7696,-121.916 c -13.1454,-25.7956 -17.1485,-34.6157 -17.1485,-37.0234 0,-5.5475 4.0884,-6.7949 22.2695,-6.7949 2.954,0 5.4677,0.035 7.6973,0.1308 l 24.2403,-82.6289 c -7.3642,1.6319 -15.4807,3.1739 -17.7286,3.1739 -1.8353,0 -4.3958,-1.058 -5.6894,-2.3516 -1.8927,-1.8927 -2.3516,-6.0863 -2.3516,-21.4707 0,-25.0756 -0.056,-25.0135 22.1778,-24.3379 7.6288,0.2318 14.4487,0.6768 16.4824,1.0527 l 2.7324,-9.3125 c -8.6676,-2.194 -14.4531,-7.1777 -14.4531,-13.1933 0,-6.2478 3.1473,-7.1688 16.0039,-4.6778 1.0403,0.2016 2.2797,0.4833 3.4726,0.7461 l 14.4668,-49.3066 c -5.9685,5.5282 -12.5321,11.2328 -16.7304,14.3281 -3.2927,2.4276 -7.3343,5.6991 -8.9805,7.2695 -1.6465,1.5707 -5.9868,4.7899 -9.6465,7.1543 -7.0107,4.5296 -15.2848,5.5091 -22.4238,2.6563 -1.9988,-0.7986 -10.9256,-1.869 -19.8379,-2.3789 -18.0406,-1.0323 -21.2073,-2.5663 -17.166,-8.3184 4.1881,-5.961 5.9293,-7.6551 22.6777,-22.0625 19.2617,-16.5698 22.6869,-19.6244 47.6777,-42.5019 19.8434,-18.1651 24.741,-21.877 28.8594,-21.877 1.9447,0 3.5665,0.5057 3.6055,1.1231 0.547,8.6646 1.6546,15.8328 3.7715,24.3632 l 11.5644,-39.416 c -1.9157,-0.2896 -3.9849,-1.1494 -6.6445,-2.5547 -4.204,-2.221 -6.0077,-4.5016 -7.8574,-9.9296 -1.3205,-3.8753 -2.4004,-8.0024 -2.4004,-9.1719 0,-1.1695 -0.9423,-4.2497 -2.0938,-6.8438 -1.9711,-4.4394 -6.8867,-23.1335 -6.8867,-26.1914 0,-2.7759 4.7542,-3.1232 14.6367,-1.0703 5.5321,1.149 12.7333,2.5027 16.002,3.0078 4.6089,0.7123 7.6386,1.7183 9.6816,3.5469 l 3.6719,-12.5176 c -1.1474,-0.1767 -2.1596,-0.3537 -2.834,-0.5215 -4.1158,-1.0241 -15.1277,-2.0836 -24.4707,-2.3554 -9.3433,-0.2717 -17.683,-1.189 -18.5332,-2.0391 -2.4534,-2.4533 -0.2677,-5.7932 4.3457,-6.6406 5.897,-1.083 20.6532,-6.1179 40.9043,-13.957 3.5534,-1.3756 6.444,-2.4384 9.0566,-3.3516 l 59.6836,-203.4258 c -6.6419,-1.7189 -12.2069,-3.1452 -14.1113,-3.5996 -3.2927,-0.7856 -7.4795,-2.4011 -9.3027,-3.5898 -5.9929,-3.9073 -4.6425,1.0802 -20.8281,-76.9961 -35.8429,-172.9029 -33.6305,-161.555 -32.0743,-164.4629 2.9278,-5.4709 3.8184,-6.0436 51.8848,-33.3848 l 21.1113,-12.0098 3.8282,-9.9414 c 4.1445,-10.7632 12.9411,-34.53094 28.8808,-78.04098 5.5791,-15.22876 11.375,-29.29467 12.8809,-31.25782 2.0263,-2.64228 2.73,-6.14151 2.707,-13.4707 l -0.033,-9.90039 -9.3223,-6.11719 c -7.0711,-4.63918 -11.3183,-6.32127 -17.582,-6.96484 -5.7279,-0.58856 -16.2763,-4.38045 -34.4238,-12.375 -14.391,-6.33956 -28.2866,-12.81502 -30.8789,-14.39063 -5.5273,-3.35951 -7.2926,-7.44976 -14.0684,-32.58984 l -5,-18.55469 -8.5976,-5.55664 c -6.5978,-4.26443 -13.5818,-6.82199 -30.0176,-10.99219 -16.7276,-4.24422 -53.0863,-13.66683 -94.0488,-24.32617 z m -173.834,7.8086 c 3.9572,0.0297 7.0842,0.76129 7.3964,2.27929 0.8973,4.36191 -5.9103,10.18501 -14.6171,12.50196 -4.5275,1.20482 -9.7399,2.61912 -11.5821,3.14453 -2.4087,0.68697 -3.6339,0.21205 -4.3652,-1.69336 -1.4019,-3.65347 2.3152,-9.71267 7.9941,-13.0293 3.6234,-2.11615 10.086,-3.24128 15.1739,-3.20312 z m 210.1035,13.29296 c 2.9812,-0.0628 9.5926,0.13438 17.0683,0.53516 l 18.1231,0.97266 8.3984,10.47656 c 5.4486,6.79721 9.037,12.96963 10.2188,17.57422 1.1443,4.45665 2.8314,7.41692 4.5332,7.95703 2.8944,0.91866 5.0527,6.7944 3.7461,10.19922 -0.8058,2.1003 -7.8209,3.78538 -11.6407,2.79687 -4.63,-1.1981 -16.33,-6.92965 -16.33,-8 0,-0.62699 -1.3265,-1.5611 -2.9493,-2.07617 -3.549,-1.12645 -19.0597,-16.48364 -20.1835,-19.98437 -0.4381,-1.364 -2.8351,-3.82826 -5.3282,-5.47461 -4.0073,-2.64615 -9.1572,-13.06928 -7.3242,-14.82422 0.084,-0.0808 0.6743,-0.13143 1.668,-0.15235 z m -233.4453,12.68555 c 2.8004,-0.0267 4.1465,1.25158 4.1465,3.84766 0,4.56524 -4.6581,14.08507 -9.334,19.07422 -3.2013,3.41547 -18.2635,10.05273 -22.8125,10.05273 -1.1555,0 -2.531,-0.69925 -3.0586,-1.55273 -2.7365,-4.42772 13.1466,-25.51935 21.8359,-28.9961 3.9867,-1.59518 7.0445,-2.40502 9.2227,-2.42578 z m 38.1562,0.76758 c 0.292,0.0239 0.5718,0.077 0.8399,0.16211 4.1301,1.31086 17.9324,10.20606 20.3437,13.11133 1.0613,1.27879 1.5172,3.62455 1.0137,5.21093 -1.1109,3.50024 -21.1739,21.20508 -24.0293,21.20508 -1.1189,0 -4.4127,-4.9449 -7.3203,-10.99023 -4.6707,-9.7106 -5.1142,-11.61977 -3.8028,-16.36914 1.7607,-6.37664 8.5756,-12.6879 12.9551,-12.33008 z m -103.4785,8.27148 c 2.2496,0.0164 3.984,0.70063 4.5703,2.22852 0.473,1.23269 -1.9716,7.8005 -5.4316,14.59375 -7.1026,13.94526 -15.5645,22.6166 -24.70901,25.32226 -3.29265,0.97425 -6.7386,2.33621 -7.6582,3.0254 -0.98719,0.7396 -2.42345,0.34864 -3.50391,-0.95313 -2.94125,-3.54416 0.56388,-11.39145 10.25195,-22.95898 4.74894,-5.66978 9.63647,-11.7426 10.86327,-13.49414 3.2207,-4.5981 10.6681,-7.79981 15.6172,-7.76368 z m -27.52929,7.47071 c 3.8922,0 3.33441,3.73718 -0.98047,6.56445 -4.59743,3.01233 -5.15869,3.00768 -6.33008,-0.0449 -1.07592,-2.80414 3.08954,-6.51953 7.31055,-6.51953 z m 301.00979,11.64648 c 1.4201,-0.0356 2.8946,0.17114 4.334,0.6582 4.4657,1.51114 5.378,3.39558 6.3046,13.01563 1.0605,11.01112 -1.2452,12.80918 -10.5429,8.22266 -5.8764,-2.89892 -10.3211,-10.76146 -9.0176,-15.95508 0.8874,-3.53568 4.6615,-5.83453 8.9219,-5.94141 z m -192.5215,6.55274 c 0.4977,-0.0109 0.9538,-7.5e-4 1.3652,0.0332 5.5044,0.45425 5.8351,0.77829 7.0449,6.93555 1.656,8.42705 -1.2172,13.03434 -9.5253,15.27148 -3.3537,0.90304 -11.1845,3.95937 -17.4024,6.79297 -12.972,5.91147 -11.9492,5.64272 -13.2734,3.5 -0.5619,-0.90909 -1.3591,-5.85641 -1.7715,-10.99219 -0.72,-8.97128 -0.5806,-9.45251 3.5527,-12.26758 6.019,-4.09948 22.5435,-9.11055 30.0098,-9.27343 z m 220.5508,1.4375 c 0.9787,0.0195 1.8404,0.74383 2.9687,2.10351 1.3872,1.67136 1.5963,5.1755 0.7774,13.0957 -0.6151,5.94769 -1.3797,17.8607 -1.6993,26.47266 -0.6716,18.10039 -2.1616,23.64567 -8.039,29.9375 -3.7351,3.99861 -5.2014,4.53079 -12.2481,4.44727 -4.403,-0.0522 -9.4832,-0.68929 -11.2871,-1.41602 -1.8041,-0.72673 -4.4352,-3.08474 -5.8476,-5.24023 -3.1253,-4.76984 -3.2558,-16.67761 -0.2168,-19.7168 1.8612,-1.86096 3.3476,-1.48918 11.2636,2.80859 6.1475,3.33766 9.619,4.45854 10.6485,3.44141 0.8402,-0.82992 1.9256,-9.92213 2.414,-20.20508 1.1839,-24.91809 1.7303,-27.78688 6.1094,-32.16601 2.4487,-2.44871 3.8979,-3.58755 5.1563,-3.5625 z m 41.4179,16.44726 c 3.0362,-0.13241 6.5318,1.32554 10.6875,4.33594 8.1757,5.92259 8.1322,9.82998 -0.3359,30.87109 -3.6003,8.94575 -7.0473,17.94987 -7.6602,20.00781 -2.6941,9.04598 -8.4575,11.11898 -16.789,6.03907 -2.6424,-1.61114 -6.6174,-5.66709 -8.832,-9.01367 -3.7767,-5.70696 -3.9106,-6.47736 -2.1661,-12.40625 1.0229,-3.47675 4.2339,-10.70016 7.1348,-16.05079 2.9007,-5.35065 6.5479,-12.23322 8.1055,-15.29492 2.8072,-5.518 5.9518,-8.31804 9.8554,-8.48828 z m -71.2597,4.99024 c 0.9791,-0.002 2.2555,0.50282 3.9609,1.38476 5.6282,2.91037 8.3894,9.35806 7.0547,16.47266 -1.2356,6.58628 -4.4626,7.09247 -10.8652,1.70508 -4.0301,-3.39089 -4.3563,-4.35657 -3.6739,-10.85157 0.6574,-6.25669 1.3694,-8.70726 3.5235,-8.71093 z m -269.418,0.44726 c 4.8789,-0.26315 5.8555,3.29276 5.8555,12.60352 0,9.84121 -0.097,10.08335 -6.0821,15.20703 -3.3455,2.86354 -8.3746,5.63468 -11.1757,6.16015 -2.8009,0.52548 -7.9782,2.60523 -11.50395,4.6211 -8.18846,4.68149 -9.1062,4.62902 -13.66992,-0.79492 -2.15555,-2.56147 -4.21827,-7.39487 -4.79297,-11.22852 -1.40439,-9.36445 1.3281,-12.9498 13.0625,-17.13867 5.20685,-1.85865 13.73784,-4.95822 18.95894,-6.88672 4.1047,-1.51611 7.13,-2.42336 9.3477,-2.54297 z m 96.9844,2.34961 c 1.9892,0.018 3.8137,0.68334 7.1582,2.00977 3.8305,1.5193 9.4889,5.12453 12.5722,8.01172 4.5025,4.21586 5.4544,6.03895 4.8379,9.26367 -1.1515,6.02261 -4.9183,8.52953 -16.4296,10.92968 -5.7338,1.19549 -12.8821,3.20039 -15.8848,4.45508 -6.8312,2.85416 -6.1247,2.93393 -11,-1.25976 -3.5312,-3.03736 -4.2046,-4.91718 -4.7344,-13.23633 -0.5707,-8.96236 -0.3282,-9.92206 3.1875,-12.6875 2.0919,-1.64551 7.5563,-4.17215 12.1445,-5.61524 4.0054,-1.25987 6.1592,-1.8891 8.1485,-1.87109 z m 319.4648,5.60742 c 0.893,0.0365 1.8435,0.49091 2.9278,1.35742 0.9943,0.79454 4.1657,3.34672 7.0468,5.67188 2.8812,2.32517 7.1424,5.05257 9.4707,6.06055 2.3286,1.00798 3.9608,2.66449 3.627,3.68164 -0.9047,2.75651 -9.2928,3.13502 -11.4649,0.51758 -1.0191,-1.22788 -2.7055,-1.90401 -3.748,-1.50391 -1.0428,0.40008 -4.3658,-2.09089 -7.3848,-5.53516 -4.2759,-4.87797 -5.1162,-6.71175 -3.7988,-8.29883 1.1226,-1.35276 2.1761,-1.99808 3.3242,-1.95117 z m -355.957,17.10938 c 2.837,-0.085 3.838,0.47698 4.8574,1.83593 1.9382,2.58415 2.68,26.50478 0.9609,30.98438 -1.1749,3.06246 -2.6383,2.87689 -12.5605,-1.58398 -4.5275,-2.03546 -9.2419,-4.35282 -10.4766,-5.1504 -1.2347,-0.79754 -5.1037,-2.80933 -8.5957,-4.4707 -6.2153,-2.95736 -9.1735,-7.81105 -7.4687,-12.2539 1.0278,-2.67827 13.5077,-6.81118 25.793,-8.54297 3.4251,-0.48283 5.788,-0.76735 7.4902,-0.81836 z m 51.6523,15.04101 c 0.2652,0.0164 0.4826,0.0558 0.6426,0.11719 3.2854,1.26073 2.9517,12.73274 -0.668,23.02344 -1.5927,4.52748 -2.9166,9.29276 -2.9433,10.58984 -0.077,3.71463 -6.0297,8.21335 -15.4453,11.67188 -9.7014,3.56345 -10.0404,3.6136 -12.6934,1.92968 -2.9115,-1.84808 -4.8379,-10.39807 -4.8379,-21.48046 0,-11.73895 3.29,-16.98968 11.9746,-19.11915 2.8811,-0.70645 9.0735,-2.68509 13.7617,-4.39648 4.1022,-1.49748 8.3529,-2.45042 10.209,-2.33594 z m -118.2617,2.9336 c 4.269,0 8.0915,6.60657 17.3203,29.93359 7.8033,19.72365 7.7181,18.26638 1.1582,20.08789 -10.1927,2.83021 -20.7916,2.0562 -25.33,-1.84766 -3.475,-2.9891 -4.0152,-4.57125 -3.9493,-11.59765 0.045,-4.57555 1.5394,-12.03846 3.4161,-17.04883 1.8357,-4.90097 3.4061,-11.29953 3.4902,-14.21875 0.133,-4.62303 0.6355,-5.30859 3.8945,-5.30859 z m 447.8145,2.24609 c 14.746,0 23.127,2.7608 21.4726,7.07227 -0.5022,1.30879 -2.5888,8.33755 -4.6367,15.62109 -2.0478,7.28357 -5.0352,16.57234 -6.6387,20.64063 -1.6037,4.0683 -3.348,10.63095 -3.8769,14.58398 -0.529,3.95304 -1.2669,7.69317 -1.6387,8.31055 -0.938,1.55749 -5.4223,1.14378 -18.2891,-1.68555 -14.8805,-3.27219 -16.3014,-5.39791 -12.2558,-18.32617 1.6438,-5.25175 4.0423,-16.58607 5.3301,-25.1875 3.0732,-20.5268 3.5651,-21.0293 20.5332,-21.0293 z m -467.75784,4.87891 c 2.62649,-0.10901 4.17655,0.78851 5.35744,2.66406 1.056,1.67711 0.4112,3.8376 -2.36721,7.93164 -2.10001,3.09449 -4.61298,8.11765 -5.58398,11.16406 -1.89811,5.95612 -3.51631,9.90381 -9.33594,22.75196 -5.14137,11.35071 -11.53125,32.15495 -11.53125,37.54296 0,8.92594 -6.97238,19.33008 -12.95313,19.33008 -0.99578,0 -3.26211,-2.04005 -5.03711,-4.5332 -4.88747,-6.86362 -6.261,-13.57901 -4.47656,-21.9043 1.94176,-9.06021 8.6839,-31.13041 11.42383,-37.39648 1.13407,-2.59393 2.0625,-5.56748 2.0625,-6.60742 0,-1.03995 2.30654,-6.75347 5.12695,-12.69532 l 5.12891,-10.80273 10.37109,-4.06836 c 5.48556,-2.15222 9.18797,-3.26795 11.81446,-3.37695 z m 412.83784,4.10156 c 3.642,0 11.1364,12.55865 16.5196,27.6875 2.3648,6.64591 2.9057,21.80815 0.8574,24.02148 -0.7238,0.78202 -2.1597,4.11745 -3.1895,7.41016 -1.94,6.20253 -4.0762,9.72852 -5.8945,9.72852 -0.5789,0 -2.4677,-1.51701 -4.1972,-3.36914 -4.6982,-5.03158 -19.8307,-37.47036 -19.8008,-42.44532 0.03,-4.66352 12.5532,-23.0332 15.705,-23.0332 z m -79.3691,1.49609 c 3.0548,0 17.1412,10.49066 27.2988,20.33008 11.0448,10.69883 11.8117,14.25449 4.5352,21.0293 -10.5257,9.80011 -26.9427,20.0039 -32.1817,20.0039 -1.5235,0 -6.9229,-2.69894 -12,-5.99804 -11.8384,-7.69232 -12.9367,-9.84982 -11.8066,-23.21875 1.5001,-17.74224 3.3862,-21.54633 13.4922,-27.22266 4.8212,-2.70782 9.6195,-4.92383 10.6621,-4.92383 z m 53.8496,30.3711 c 2.6278,-0.0118 6.3787,5.2822 9.9492,15.15625 1.713,4.73781 1.6831,5.72194 -0.205,6.91601 -1.2105,0.76558 -2.5377,1.3002 -2.9493,1.18946 -0.4116,-0.11075 -2.5997,-0.48149 -4.8613,-0.82422 -4.8319,-0.73218 -6.0143,-3.9997 -5.334,-14.72852 0.3303,-5.20865 1.6025,-7.70093 3.4004,-7.70898 z m -476.17186,8.56836 c 5.38406,0.0437 26.25195,14.26344 27.34961,18.63671 1.33209,5.30723 -0.37148,10.90847 -4.60547,15.14258 -3.8263,3.82633 -5.12574,4.0705 -11.46875,2.1543 -12.98872,-3.92391 -18.60323,-12.03332 -17.27148,-24.9375 0.99292,-9.62027 1.76067,-11.03039 5.99609,-10.99609 z m 181.77146,4.68945 c 2.6003,-0.0375 3.3479,0.81247 4.5723,3.5 1.5099,3.31391 1.1399,7.40424 -2.2149,24.44922 -2.2158,11.25772 -5.0844,21.71403 -6.373,23.23633 -3.7305,4.40728 -19.6549,15.93949 -22.0098,15.93949 -1.179,0 -2.4149,-0.8422 -2.7461,-1.8711 -2.2967,-7.13291 -4.1089,-21.03302 -4.8554,-37.23832 l -0.8711,-18.90625 3.8769,-2.53906 c 3.5858,-2.34947 12.2729,-4.34581 27.3164,-6.27344 1.3649,-0.17488 2.438,-0.28438 3.3047,-0.29687 z M 1249,-500.8546 c 4.0599,0.0134 9.3978,0.10331 16.4902,0.22657 l 28.6328,0.49804 13.0274,7.56446 c 17.7452,10.30514 18.1218,10.71767 12.8262,14.04492 -2.3588,1.48213 -6.8314,4.64969 -9.9395,7.03906 -8.5453,6.56932 -27.6628,16.01633 -32.2207,15.92187 -2.2195,-0.046 -6.7289,-1.23322 -10.0215,-2.63671 -14.0072,-5.97038 -17.7373,-8.818 -28.1054,-21.47071 -7.7852,-9.50069 -9.1059,-13.72579 -5.6309,-18.00976 2.0791,-2.56313 2.7616,-3.2179 14.9414,-3.17774 z m -256.06641,2.01563 c 1.76772,0.0441 3.57719,0.87468 5.18946,2.65625 2.07035,2.28756 2.27685,4.82788 1.35547,16.7168 -0.59779,7.71068 -1.79945,14.2549 -2.66993,14.54296 -0.87064,0.28808 -3.01548,-1.00509 -4.76562,-2.87304 -5.14752,-5.49453 -7.85155,-11.93851 -7.86133,-18.73633 -0.0109,-7.39753 4.23446,-12.41937 8.75195,-12.30664 z m 479.16601,17.03515 c 1.589,-0.12267 3.8759,0.42497 7.7949,1.71485 4.3516,1.43222 8.4015,3.34632 9,4.2539 1.5291,2.31847 -0.1207,7.03074 -3.8789,11.07813 -1.7577,1.89264 -5.216,7.61829 -7.6855,12.72266 -4.3661,9.02438 -4.6652,9.29308 -10.8438,9.74028 -5.5834,0.4041 -6.566,-0.008 -8.1035,-3.3809 l 0,0 c -1.2961,-2.84478 -1.3172,-4.71018 -0.084,-7.19532 2.7039,-5.45112 9.3047,-22.91521 9.3047,-24.61719 0,-0.86357 0.9864,-2.38669 2.1914,-3.38672 0.6511,-0.54039 1.3532,-0.85608 2.3066,-0.92969 z m -567.4453,9.79102 c 3.5733,-0.0387 9.20511,1.67705 13.89453,4.5625 4.01346,2.46953 7.87056,4.49023 8.57031,4.49023 0.69967,0 3.02908,1.38173 5.17578,3.07032 6.35405,4.99808 10.16719,20.48405 9.64844,39.17575 l -0.42578,15.377 -10.47656,5.4512 c -11.6053,6.0394 -25.68798,8.9405 -26.89063,5.539 -0.99781,-2.8229 -3.6544,-75.1009 -2.81055,-76.47069 0.49175,-0.79824 1.69023,-1.17771 3.31446,-1.19531 z m 77.99023,6.06055 c 0.80643,0 2.82851,2.66643 4.49219,5.92773 1.66393,3.2613 4.26015,7.13544 5.77148,8.60742 4.093,3.9873 7.5792,14.0717 6.16407,17.832 -1.11333,2.9592 -8.81258,9.5391 -11.16211,9.5391 -0.57175,0 -3.16179,0.9622 -5.75586,2.1387 -9.38571,4.2567 -28.18668,11.332 -30.11328,11.332 -1.08459,0 -2.38124,-1.0651 -2.88086,-2.3672 -0.49988,-1.3021 -0.90821,-8.9927 -0.90821,-17.0898 0,-8.0971 0.40833,-15.7878 0.90821,-17.0899 0.94538,-2.46403 8.07226,-3.3745 8.07226,-1.03122 0,2.25882 4.32149,3.14412 8.1836,1.67582 2.0171,-0.767 5.06896,-4.14391 6.7832,-7.50395 3.34632,-6.55919 8.06865,-11.9707 10.44531,-11.9707 z m 346.42777,0.25586 c 3.1272,-0.0286 9.2631,2.62007 13.6172,6.04492 5.7743,4.54208 4.4444,15.43207 -4.0723,33.36137 -9.3764,19.739 -13.4561,20.8707 -16.1016,4.4707 -1.5479,-9.5961 -1.4331,-13.5633 0.7852,-27.08012 1.6361,-9.9706 3.3511,-16.12485 4.6289,-16.61523 0.31,-0.11896 0.6958,-0.17756 1.1426,-0.18164 z m 52.4687,8.94726 c 0.8667,-0.0264 1.7609,-1.1e-4 2.7031,0.0684 5.4404,0.39533 6.3366,0.95673 6.7168,4.21094 0.596,5.10053 -11.3778,17.20523 -27.2402,27.54103 -14.1238,9.2029 -16.8499,10.3779 -18.3887,7.9258 -2.963,-4.7211 4.8919,-18.4564 16.4492,-28.7676 9.0591,-8.08238 13.6932,-10.79401 19.7598,-10.97853 z m 21.0703,8.75586 c 2.2717,0 37.5085,10.89327 38.5645,11.92187 2.5341,2.4689 0.067,6.7863 -5.7656,10.0898 -7.4293,4.2077 -10.7694,4.161 -23.9356,-0.3339 -5.762,-1.9673 -11.6762,-3.608 -13.1426,-3.6465 -4.4395,-0.1166 -4.5877,-4.1589 -0.416,-11.2774 2.1768,-3.7144 4.2899,-6.75387 4.6953,-6.75387 z m -126.0859,5.25387 c 3.73,0.1969 9.1115,2.5589 16.8887,6.4942 15.1636,7.6728 20.1046,12.4378 22.332,21.5312 0.847,3.4584 0.4116,4.3179 -2.8106,5.543 -2.0978,0.7975 -7.7241,4.0935 -12.5039,7.3242 -17.4849,11.8187 -21.7462,12.8818 -28.4394,7.0996 -4.1903,-3.62 -4.1981,-3.6661 -3.957,-21.3281 0.2665,-19.5248 1.3693,-27.04 8.4902,-26.6641 z m -195.2227,2.1739 c 0.5205,-0.0374 0.8954,0.0503 1.1407,0.2539 1.006,0.8349 1.5637,2.3105 1.2402,3.2793 -0.3231,0.9688 -1.2807,8.9892 -2.127,17.8242 -1.761,18.3755 -3.394,22.1015 -9.6894,22.1015 -3.3884,0 -6.5507,-2.1718 -13.9785,-9.5996 -13.0044,-13.0044 -12.753,-13.9286 7.0566,-25.7636 9.1049,-5.4397 14.1021,-7.9339 16.3574,-8.0957 z m -36.2246,3.7422 c 0.2368,-0.003 0.4104,0.0264 0.5098,0.0878 5.2545,3.2476 -3.6297,13.0861 -19.4121,21.4981 -9.5536,5.092 -9.622,5.1143 -11.0723,3.6641 -0.5487,-0.5488 -0.998,-3.476 -0.998,-6.504 0,-5.3485 3.4547,-10.4589 7.0703,-10.4589 0.878,0 6.4047,-2.0462 12.2812,-4.5469 5.1421,-2.1881 9.9634,-3.7206 11.6211,-3.7402 z m -106.34177,45.6171 14.76562,4.9961 c 8.1207,2.7479 14.99444,5.6846 15.27539,6.5274 0.28094,0.8428 -1.91833,3.8353 -4.88672,6.6484 -2.96847,2.8131 -8.99674,10.6136 -13.39648,17.336 -8.69389,13.2827 -18.40205,21.9833 -32.42969,29.0644 -9.58585,4.839 -9.32888,4.7592 -10.72265,3.3652 -0.54891,-0.5487 -1.04479,-7.453 -1.10352,-15.3418 -0.0582,-7.8887 -0.61957,-19.7309 -1.24609,-26.3164 -0.62678,-6.5854 -0.89167,-12.6922 -0.58789,-13.5703 0.30395,-0.878 8.15429,-4.0961 17.44336,-7.1523 l 16.88867,-5.5567 z m 409.51167,7.625 c 1.2583,-0.0125 2.9879,1.0752 5.3438,2.752 3.8296,2.727 4.4089,4.1821 4.9805,12.4883 0.3558,5.1705 0.2827,17.8127 -0.1641,28.0937 -0.8798,20.2426 -1.4864,21.4186 -9.0449,17.5567 l -3.7422,-1.9121 -0.4063,-28.8028 c -0.3235,-22.9266 -0.1823,-30.1437 3.0332,-30.1758 z m -271.9609,9.6426 c 0.3661,-0.005 0.6394,0.0193 0.8125,0.0742 4.6886,1.4882 4.9723,6.532 0.8711,15.5176 -2.1052,4.6127 -4.2402,10.9492 -4.7441,14.082 -1.1341,7.0505 -5.3948,11.5157 -10.9883,11.5157 -2.3386,0 -7.5589,1.0426 -11.5996,2.3164 -4.041,1.2738 -16.4401,3.353 -27.5528,4.6191 -37.66825,4.2918 -35.00195,4.3216 -40.34371,-0.4512 -4.03174,-3.6024 -4.79943,-5.3931 -5.03125,-11.7285 -0.26266,-7.1716 -0.0575,-7.5826 5.00586,-10.0605 2.90383,-1.4208 10.31192,-3.9182 16.46289,-5.5508 6.15131,-1.6326 16.90921,-4.7699 23.90621,-6.9707 21.3662,-6.7203 47.7097,-13.2922 53.2012,-13.3633 z m 313.4922,5.2696 c 5.2281,0 6.038,0.4826 6.8984,4.1152 0.5362,2.2637 2.5046,10.1793 4.3731,17.5879 1.8683,7.4086 3.8273,19.1944 4.3535,26.1914 0.5262,6.997 1.3232,15.2471 1.7734,18.334 0.7069,4.8481 0.422,5.6132 -2.1015,5.6132 -1.7185,0 -4.6276,-2.4617 -7.0645,-5.9785 -3.1376,-4.5273 -4.4157,-8.6152 -5.2656,-16.8379 -0.6171,-5.9724 -2.5496,-14.1154 -4.293,-18.0937 -1.7435,-3.9783 -3.1699,-9.3229 -3.1699,-11.877 0,-2.6846 -1.3502,-6.0803 -3.2012,-8.0507 -3.0434,-3.2396 -3.0795,-3.5978 -0.7148,-7.2071 1.9699,-3.0066 3.7219,-3.7968 8.4121,-3.7968 z m -430.3125,20.9531 c 2.6014,0 5.78859,6.9101 4.60742,9.9883 -1.16642,3.0396 -3.5231,2.3786 -6.22461,-1.7442 -2.73024,-4.1671 -1.93061,-8.2441 1.61719,-8.2441 z m 325.1367,1.498 c 3.409,0 3.7534,3.9713 1.2852,14.8223 -1.3089,5.7551 -2.3932,14.0354 -2.4102,18.4004 -0.046,11.4712 -3.3639,25.6064 -7.3887,31.4804 -3.7647,5.4944 -13.987,10.1309 -22.3398,10.1309 -5.8922,0 -30.8234,4.2671 -35.6484,6.1016 -3.8842,1.4767 -7.5229,1.6116 -10.5489,0.3906 -1.029,-0.4152 -1.8711,-1.4693 -1.8711,-2.3418 0,-2.3396 76.5841,-78.9844 78.9219,-78.9844 z m 514.6211,3.7031 c -0.8024,-0.1624 -0.3568,1.4002 1.3535,4.6797 2.5041,4.8019 3.0303,11.0743 0.9297,11.0743 -1.7716,0 -4.8563,8.9105 -3.7207,10.748 1.1837,1.9149 1.2196,1.8568 5.6797,-9.1602 l 3.9004,-9.6367 -4.0156,-4.1914 c -2.1241,-2.217 -3.5029,-3.3873 -4.127,-3.5137 z m -778.2832,29.2227 c 13.9553,0 14.4676,0.1246 20.1777,4.8652 5.6433,4.6852 7.9158,10.2733 4.043,9.9434 -1.029,-0.0877 -10.1212,-2.1628 -20.2051,-4.6113 -15.5321,-3.7715 -18.334,-4.8911 -18.334,-7.3242 0,-2.6316 1.1985,-2.8731 14.3184,-2.8731 z m 299.5449,0.4805 c 2.7204,0.0444 7.9239,3.8817 7.9239,6.289 0,2.9199 -5.1533,2.831 -8.125,-0.1406 -2.7368,-2.7369 -2.9805,-4.5656 -0.7891,-5.9199 0.2649,-0.1638 0.6016,-0.2349 0.9902,-0.2285 z m -394.69919,4.3789 c 3.39223,-0.2358 15.01591,3.9484 17.91016,6.5957 3.0759,2.8133 0.83013,4.2954 -9.53907,6.2949 -10.59486,2.043 -10.95692,2.0571 -11.95312,0.4453 -1.37001,-2.2169 0.96156,-12.4395 3.01758,-13.2285 0.14794,-0.0568 0.3383,-0.0917 0.56445,-0.1074 z m 782.54489,0.5761 c 2.1357,-0.005 3.1656,0.3347 3.6328,1.0196 1.6866,2.4724 0.015,14.6829 -2.955,21.5215 -1.3593,3.1347 -3.2434,9.4041 -4.1875,13.9316 -1.8169,8.7144 -2.7225,9.34 -11.4864,7.9434 -7.0432,-1.1224 -7.9668,-3.8454 -7.9668,-23.4766 l 0,-18.0703 12.6914,-1.8125 c 4.894,-0.6989 8.1359,-1.0511 10.2715,-1.0567 z m -365.2851,5.1563 c 2.9099,-0.0214 3.8857,0.8499 5.6797,3.5879 1.4622,2.2315 2.9275,7.5315 3.2558,11.7773 0.5127,6.628 -0.05,8.7243 -3.9726,14.8282 -5.0949,7.9288 -6.3232,8.4131 -10.5762,4.1601 -3.7583,-3.7584 -12.0176,-20.0376 -12.0176,-23.6875 0,-4.6055 6.6675,-9.5592 13.9746,-10.3828 1.5021,-0.1693 2.6863,-0.2761 3.6563,-0.2832 z m -380.20315,4.377 c 2.9704,-8e-4 2.21949,5.6797 -2.76953,20.9531 -5.85401,17.9217 -11.20256,30.4751 -13.28125,31.1679 -0.8843,0.2948 -4.81821,-2.7254 -8.74024,-6.7109 -12.75234,-12.9586 -16.74023,-18.3872 -16.74023,-22.7812 0,-4.2274 3.91719,-9.1602 7.27539,-9.1602 0.99157,0 5.0804,-1.6597 9.08594,-3.6894 8.64653,-4.3815 22.53582,-9.7783 25.16992,-9.7793 z m -113.70703,0.2675 c 0.76703,-0.1467 1.65197,0.4963 2.67969,1.8887 4.66702,6.3231 1.19554,21.7891 -4.89063,21.7891 -2.04265,0 -2.23396,-1.5142 -1.36914,-10.8184 0.78006,-8.3931 1.89262,-12.5366 3.58008,-12.8594 z m 879.38668,2.5801 c 3.1161,0.0733 6.5578,1.7173 9.5977,5.1797 4.2575,4.8487 7.4889,15.8854 5.5625,19.002 -1.2467,2.0172 -9.6444,1.6274 -14.9766,-0.6954 -6.7567,-2.9431 -9.6621,-6.5197 -9.6621,-11.8906 0,-7.4745 4.2851,-11.7179 9.4785,-11.5957 z m -413.4648,11.0508 c 0.2247,10e-4 0.4118,0.0276 0.5586,0.084 1.7146,0.6579 3.8776,4.2972 11.2578,18.9433 1.4518,2.8812 3.486,8.8493 4.5215,13.2637 2.1756,9.2769 1.2987,10.5154 -7.4063,10.4434 -2.9196,-0.024 -8.5645,1.3674 -12.5429,3.0918 -8.9541,3.8812 -8.9945,3.8802 -13.4981,-0.2325 -4.6932,-4.2861 -10.4237,-21.0056 -9.164,-26.7402 0.5115,-2.3296 2.9971,-5.9738 5.5234,-8.0996 5.7144,-4.8084 17.3792,-10.7701 20.75,-10.7539 z m 93.8633,5.6309 c 0.8998,10e-4 1.7583,0.1616 2.584,0.4785 9.5343,3.6587 -1.1466,26.3886 -12.4004,26.3886 -2.4409,0 -6.2123,-1.3954 -8.3809,-3.1015 -2.1692,-1.7061 -3.944,-3.896 -3.9434,-4.8653 0,-0.9692 3.3861,-5.2885 7.5215,-9.5996 6.0541,-6.3113 10.7201,-9.3063 14.6192,-9.3007 z m -505.84963,1.5546 c 4.86633,0.05 5.20593,4.6892 1.83593,14.2774 -1.67893,4.7768 -3.05273,10.2413 -3.05273,12.1426 0,1.9012 -1.35751,7.3127 -3.01563,12.0254 -1.65811,4.7126 -3.45362,13.2785 -3.99023,19.0351 -0.81132,8.7032 -1.67039,11.1607 -5.10156,14.5918 -4.02939,4.0294 -7.33749,5.1372 -9.34571,3.1289 -0.5488,-0.5488 -0.99804,-3.6446 -0.99804,-6.8789 0,-3.2343 -0.98243,-7.6666 -2.1836,-9.8516 -3.04546,-5.5397 -11.28711,-30.6163 -11.28711,-34.3437 0,-4.594 7.09893,-10.7828 20.5293,-17.8984 7.83137,-4.1492 13.27978,-6.2628 16.60938,-6.2286 z m 70.88281,3.0977 c 1.54347,-0.1582 3.23526,0.7582 5.25586,2.6406 2.37489,2.2127 3.50283,5.6442 4.32031,13.1543 1.7605,16.1779 1.57864,16.9664 -7.40234,32.2266 -4.69821,7.9828 -12.76984,22.7839 -17.9375,32.8926 -18.59482,36.3742 -34.18341,64.3087 -45.95118,82.3437 -3.73192,5.7195 -4.64624,6.3811 -6.39453,4.6328 -2.20635,-2.2064 -0.78601,-11.5514 2.65039,-17.4433 2.00588,-3.4393 4.76611,-9.6205 6.13477,-13.7364 1.36866,-4.1158 3.37533,-9.505 4.46094,-11.9746 6.4566,-14.689 8.89354,-20.6111 12.61914,-30.6816 2.28406,-6.1738 4.61048,-13.7428 5.17187,-16.8203 1.00673,-5.5195 12.70075,-31.6529 22.94531,-51.2793 1.71854,-3.2927 4.79287,-10.3642 6.83204,-15.7149 2.56503,-6.7301 4.72246,-9.9766 7.29492,-10.2402 z m 745.25002,8.9434 c 1.3528,0.0289 2.9548,0.414 5.3574,1.0566 5.548,1.4839 19.5013,7.0611 21.0664,8.4199 0.2164,0.188 -1.3695,4.3179 -3.5254,9.1778 -2.1557,4.8598 -5.7883,14.5527 -8.0723,21.541 -5.2826,16.1642 -7.6406,18.0853 -23.0468,18.7754 -6.2987,0.2821 -12.6919,0.9058 -14.2071,1.3867 -1.515,0.4808 -3.4498,0.0183 -4.3007,-1.0293 -0.8509,-1.0476 -2.6436,-6.2181 -3.9825,-11.4903 l -2.4336,-9.5859 5.2657,-10.8027 c 2.8968,-5.9419 5.2676,-11.4462 5.2676,-12.2305 0,-1.7509 6.4279,-7.9336 8.248,-7.9336 0.7259,0 3.9306,-1.8111 7.123,-4.0234 3.422,-2.3714 4.9856,-3.31 7.2403,-3.2617 z m -866.66408,15.4453 c 1.21024,2e-4 2.14678,0.4475 3.41015,1.2832 4.17787,2.7634 11.47111,17.2584 11.51367,22.8847 0.0182,2.3873 1.36382,7.2749 2.99219,10.8633 1.62828,3.5884 2.96094,7.3467 2.96094,8.3496 0,1.003 1.68427,5.9667 3.74219,11.0313 4.04447,9.9534 4.86373,21.2308 2.05468,28.2519 -0.92717,2.3173 -3.12121,9.549 -4.87695,16.0684 -1.75591,6.5194 -3.86041,12.0535 -4.67578,12.2988 -0.81536,0.2453 -2.69937,-0.26 -4.18555,-1.123 -3.17887,-1.846 -5.65196,-7.4825 -6.49414,-14.7989 -0.70555,-6.129 -9.89578,-30.4061 -19.49219,-51.4902 -8.4487,-18.5623 -10.00934,-29.2201 -5.05273,-34.4961 1.84532,-1.9642 6.70958,-5.0151 10.81055,-6.7793 3.7298,-1.6045 5.73694,-2.3441 7.29297,-2.3437 z m 351.33398,1.0742 c 2.3851,0.0783 6.2099,1.1673 9.1172,2.6504 3.3224,1.695 7.0734,3.082 8.3359,3.082 1.2623,0 8.8655,3.0948 16.8965,6.8789 8.0312,3.7842 18.9793,8.6009 24.3301,10.7031 5.3506,2.1023 11.0763,5.0215 12.7226,6.4883 1.6463,1.4668 6.3608,4.0929 10.4766,5.836 5.5198,2.3376 12.4907,8.1519 26.5664,22.1562 17.7787,17.6889 20.8238,21.6236 17.9609,23.2188 -0.6174,0.344 -9.5804,-2.4776 -19.9179,-6.2715 -10.3373,-3.7939 -20.4411,-7.9737 -22.4512,-9.2871 -2.0101,-1.3134 -7.6957,-3.8896 -12.6348,-5.7266 -10.5166,-3.9114 -30.9513,-13.6954 -42.6562,-20.4238 -4.5274,-2.6026 -12.7692,-6.2237 -18.3164,-8.0449 -13.7097,-4.5015 -16.3686,-8.0264 -15.7949,-20.9454 0.4178,-9.4064 0.6065,-9.8401 4.4394,-10.2832 0.2752,-0.0318 0.5851,-0.0424 0.9258,-0.0312 z m 620.3867,5.6152 c 3.0134,-0.191 7.9314,3.2016 14.9317,10.2559 5.5345,5.5771 10.0625,10.6298 10.0625,11.2265 0,2.1426 -9.8798,1.029 -14.9903,-1.6894 -6.2692,-3.3348 -14.2295,-13.9815 -12.9492,-17.3184 0.599,-1.5607 1.5756,-2.3878 2.9453,-2.4746 z m -506.4472,13.8711 c 3.563,-0.0143 4.6093,1.4467 4.6093,5.1406 0,10.7977 -9.0672,16.1105 -16.1816,9.4825 -6.3735,-5.9378 -3.115,-12.4162 7.1152,-14.1446 1.802,-0.3044 3.2694,-0.4737 4.4571,-0.4785 z m 490.3847,8.8945 c 2.1805,0.0309 5.2107,0.4809 9.2246,1.127 6.3944,1.0293 15.9229,2.5085 21.1739,3.2871 12.7005,1.8833 18.9008,5.0271 21.748,11.0273 2.1335,4.496 2.1255,5.3817 -0.094,9.9883 -1.3395,2.7799 -3.9668,6.737 -5.8379,8.795 -1.8712,2.0579 -4.7373,7.8486 -6.3692,12.8691 -6.4177,19.7425 -13.3091,28.5048 -17.8359,22.6777 -0.7992,-1.0289 -3.6244,-7.2603 -6.2774,-13.8457 -2.6528,-6.5854 -6.0916,-14.7642 -7.6425,-18.1758 -1.5509,-3.4115 -5.3097,-12.7048 -8.3516,-20.6523 -5.1699,-13.5067 -6.2798,-17.1903 0.2617,-17.0977 z m -434.6113,2.8086 c 2.3857,0.2372 4.1775,4.668 5.5762,13.3536 0.8436,5.2376 1.1799,10.0967 0.7461,10.7988 -0.9723,1.573 -4.132,1.4225 -11.5782,-0.5508 -3.15,-0.8348 -6.0571,-2.3774 -6.4609,-3.4297 -0.4039,-1.0523 1.3403,-6.0259 3.8769,-11.0508 3.1678,-6.2753 5.7349,-9.3303 7.8399,-9.1211 z m -468.37892,8.1114 c 0.66758,-0.0902 1.32888,0.1123 2.00196,0.584 3.10497,2.1759 14.20442,17.3747 14.99804,20.5371 0.55928,2.228 -1.91757,9.1142 -7.45507,20.7207 -4.56162,9.5608 -8.5246,17.3828 -8.80664,17.3828 -0.28195,0 -3.56117,-1.932 -7.28711,-4.2949 -5.65699,-3.5876 -7.01469,-5.3783 -8.22266,-10.8516 -1.28144,-5.8065 -0.78069,-8.5642 4.37695,-24.1621 4.49991,-13.6091 7.50169,-19.5252 10.39453,-19.916 z m 831.96872,16.5117 c 2.4716,-0.0481 5.4215,0.3773 9.1426,0.9765 12.9029,2.078 15.0992,3.5228 14.1621,9.3165 -1.1535,7.1287 -5.8972,18.9642 -10.2949,25.6855 -2.1546,3.2927 -5.4302,10.2274 -7.2793,15.4102 -1.8966,5.3165 -4.9824,10.6976 -7.0801,12.3476 -4.394,3.4563 -4.3038,3.4492 -10.0488,0.7324 -2.4695,-1.1678 -7.0243,-3.1429 -10.1231,-4.3886 -8.9761,-3.609 -8.9799,-4.776 -0.049,-27.8438 10.012,-25.8582 12.7434,-32.0646 21.5703,-32.2363 z m -485.3945,6.791 c 2.264,-0.0584 7.081,1.6703 23.8691,7.543 10.7749,3.7691 13.8438,5.4606 13.8438,7.6308 0,1.5337 -0.528,2.7891 -1.1738,2.7891 -2.5783,0 -6.3106,9.0756 -6.3106,15.3476 0,13.3247 -4.9853,20.3104 -23.4941,32.92 -9.0762,6.1834 -10.248,6.554 -11.3809,3.6015 -0.4244,-1.1059 -0.6639,-16.6909 -0.5332,-34.6328 0.2105,-28.9575 0.523,-32.8028 2.7891,-34.2344 0.8593,-0.5429 1.3615,-0.9383 2.3906,-0.9648 z m 151.1875,4.5 c 17.2346,0.0168 26.2395,6.0507 28.2578,18.9355 0.4956,3.1635 1.8106,7.0795 2.9219,8.7032 1.1114,1.6237 2.0195,4.4865 2.0195,6.3613 0,3.8234 -2.8148,4.1544 -14.9668,1.7617 -23.5778,-4.6424 -30.4206,-7.1422 -33.0644,-12.082 -2.223,-4.1537 -0.5541,-14.0227 3.2851,-19.4141 2.7371,-3.8439 3.8975,-4.2731 11.5469,-4.2656 z m 254.8086,9.748 c 1.7504,-0.005 6.2074,1.1651 10.7227,2.8575 7.6185,2.8555 9.4672,4.1988 9.83,7.1465 0.5631,4.5768 -7.2787,26.376 -13.2168,36.7402 -5.3478,9.334 -8.33,9.9132 -20.6152,4 -4.3686,-2.1026 -8.2719,-4.6808 -8.6738,-5.7285 -0.9338,-2.4329 18.8194,-43.958 21.3769,-44.9395 0.1319,-0.0506 0.3261,-0.0754 0.5762,-0.0762 z m 151.1289,5.959 c 2.9703,0 4.5903,1.728 8.4219,8.9805 2.7205,5.1496 4.7963,11.3733 4.8652,14.5918 0.1334,6.2416 1.8715,5.7551 -16.0469,4.5078 -4.4487,-0.3097 -8.2472,-1.3635 -8.6445,-2.3984 -0.3897,-1.0154 1.19,-7.2092 3.5098,-13.7637 3.7213,-10.5147 4.6494,-11.918 7.8945,-11.918 z m -965.47656,8.2325 c 3.6248,0 8.57853,5.8215 11.14648,13.0996 1.21858,3.4541 3.93519,8.8111 6.03711,11.9043 2.10182,3.0931 3.82898,6.647 3.83594,7.8964 0.0222,4.095 -4.82568,23.0787 -7.65039,29.959 -1.52074,3.7043 -3.20032,9.43 -3.73242,12.7227 -1.03249,6.3915 -7.12234,14.249 -10.98633,14.1738 -1.28655,-0.025 -3.431,-0.6842 -4.76367,-1.4629 -1.33245,-0.7786 -3.29019,-3.6196 -4.35156,-6.3144 -1.06103,-2.6949 -5.5127,-12.1172 -9.89258,-20.9395 -9.55615,-19.2489 -15.50977,-33.6071 -15.50977,-37.3984 0,-1.5303 1.17859,-3.2127 2.61914,-3.7403 2.45861,-0.9004 11.50302,-6.6727 24.9043,-15.8945 3.20165,-2.2032 6.95584,-4.0058 8.34375,-4.0058 z m 146.02539,3.1445 c 2.31228,0.0976 2.88994,1.9961 3.25195,7.4004 0.21698,3.243 1.46101,8.4265 2.76563,11.5195 1.30445,3.093 2.75677,11.4234 3.22656,18.5117 0.77349,11.6722 0.56156,13.1788 -2.24023,15.9805 -1.88117,1.8812 -5.92177,3.4343 -10.31055,3.9629 -3.96939,0.478 -10.24689,1.6214 -13.95117,2.541 -12.08765,3.0007 -13.1075,3.0964 -14.20508,1.3203 -0.59635,-0.9652 1.96377,-7.9325 5.68945,-15.4824 10.40855,-21.0916 16.98945,-35.7621 18.0625,-40.2695 0.64532,-2.7105 2.2548,-4.4153 4.76368,-5.045 1.21257,-0.3043 2.1765,-0.4719 2.94726,-0.4394 z m 398.34767,28.375 c 25.1857,0.1759 25.5365,1.5838 19.7344,6.3828 -2.165,1.7907 -6.7971,5.613 -10.293,8.4941 -3.4961,2.8811 -8.6926,7.716 -11.5469,10.7442 -2.8543,3.0281 -8.7518,7.3089 -13.1054,9.5117 -4.3539,2.2028 -13.214,7.9747 -19.6895,12.8262 l -11.7734,8.8203 -11.9727,-0.3086 c -6.5854,-0.1694 -18.3484,-0.5327 -26.1406,-0.8067 -19.1402,-0.673 -20.1434,-1.5985 -19.0332,-17.5878 0.4569,-6.5855 2.0519,-16.6852 3.5449,-22.4434 4.0327,-15.5536 1.1396,-14.8772 66.1191,-15.4785 14.6062,-0.1352 25.761,-0.2129 34.1563,-0.1543 z m -210.1719,7.8164 c 0.087,-0.005 0.1585,10e-4 0.2149,0.0195 2.721,0.8942 2.865,14.325 0.1972,18.3965 -1.9552,2.9841 -3.6093,3.6113 -9.5156,3.6113 -3.9326,0 -7.9576,-0.8071 -8.9453,-1.7949 -3.6356,-3.6356 -1.7193,-7.2472 7.414,-13.9707 4.7489,-3.4959 9.3363,-6.1839 10.6348,-6.2617 z m 548.8945,0.9375 c 2.1761,0.0639 4.5716,0.8508 7.252,2.334 2.185,1.209 8.3506,3.9758 13.7012,6.1484 29.7767,12.0907 50.8886,25.0702 50.8886,31.2871 0,2.1412 -3.4774,13.6705 -5.8769,19.4863 -3.898,9.4487 -4.5996,11.6548 -4.5996,14.4376 0,5.8103 -4.5711,12.9848 -9.3262,14.6425 -2.5257,0.8805 -9.7952,1.6016 -16.1543,1.6016 -6.4514,0 -14.3732,0.9914 -17.9238,2.2441 -8.1931,2.8907 -14.0979,2.8525 -16.5547,-0.1074 -2.1401,-2.5782 -0.6443,-8.3395 7.8437,-30.2383 2.3217,-5.9894 4.2207,-12.8594 4.2207,-15.2656 0,-4.8269 -3.2886,-7.8038 -18.3945,-16.6582 -10.5849,-6.2043 -11.7045,-9.3593 -6.9355,-19.541 3.3491,-7.1507 7.072,-10.5116 11.8593,-10.3711 z m -453.207,0.6289 c 0.7143,0.0489 1.296,0.4503 1.9942,1.1484 1.8113,1.8113 1.9223,6.3275 0.7148,29.0625 -0.7864,14.805 -1.445,29.4444 -1.4648,32.5313 -0.022,3.5412 -0.7416,5.6133 -1.9493,5.6133 -1.0527,0 -6.014,-4.2106 -11.0254,-9.3555 -13.8016,-14.1696 -21.4843,-24.7233 -21.4843,-29.5137 0,-3.0902 1.6536,-5.5392 6.3613,-9.4277 3.4984,-2.8897 8.3801,-7.0256 10.8496,-9.1895 2.4695,-2.1638 7.0469,-5.7174 10.1719,-7.8984 3.0827,-2.1514 4.6415,-3.0523 5.832,-2.9707 z m 367.7344,3.998 c 5.0554,0 7.2871,0.9081 10.7539,4.375 5.0452,5.0452 5.3998,8.9378 1.582,17.3418 -1.4996,3.3011 -3.1945,8.5017 -3.7676,11.5567 -0.8842,4.7133 -5.5375,10.3094 -8.3652,10.0605 -0.4341,-0.0382 -4.8305,-2.2378 -9.7695,-4.8886 -7.7475,-4.1583 -9.0439,-5.4704 -9.4414,-9.5528 -0.2542,-2.6087 0.9211,-7.5926 2.6191,-11.1074 1.6943,-3.5064 3.0801,-7.4779 3.0801,-8.8262 0,-4.6121 6.4583,-8.959 13.3086,-8.959 z m -768.63478,6.0332 c 6.76679,0.0994 15.96485,11.2873 15.96485,19.418 0,6.6584 -2.49521,9.7044 -11.17774,13.6485 -7.42312,3.372 -13.28072,3.5529 -15.82422,0.4882 -1.59078,-1.9168 -1.37023,-3.6701 1.27344,-10.1035 1.75908,-4.2809 3.9462,-11.3189 4.85937,-15.6406 1.38987,-6.5778 2.18893,-7.8504 4.9043,-7.8106 z m 543.37888,1.668 c 0.163,0.006 0.32,0.0253 0.4727,0.0547 5.5413,1.0677 5.4461,11.7403 -0.3496,39.7441 -1.0629,5.1347 -1.5782,10.6872 -1.1465,12.3379 1.1225,4.2928 -2.4112,36.5154 -4.9063,44.7364 -1.1568,3.8111 -2.1101,9.0735 -2.1191,11.6953 -0.038,11.2591 -4.6502,15.1515 -11.6035,9.7929 -1.8455,-1.4223 -6.0555,-7.2083 -9.3555,-12.8574 l -6,-10.2715 0.09,-34.9062 0.092,-34.9082 10.0117,-7.9824 c 18.3479,-14.6282 22.3702,-17.5193 24.8144,-17.4356 z m -422.5195,14.7481 c 3.25902,0 3.84758,4.3501 1.24609,9.2109 -0.89078,1.6644 -1.91586,4.8182 -2.2793,7.0098 -1.90342,11.4814 -9.19028,30.083 -15.63281,39.9062 -3.76403,5.7394 -10.62745,19.5723 -12.4375,25.0684 -1.00437,3.0493 -4.44146,3.4425 -6.53516,0.748 -1.72569,-2.2212 1.28138,-34.2512 4.60157,-49.0156 1.20316,-5.3507 2.55356,-12.7586 3.00195,-16.4629 0.44813,-3.7043 0.85044,-6.8448 0.89258,-6.9785 0.28195,-0.9018 24.84395,-9.4863 27.14258,-9.4863 z m 569.1055,5.9882 c 7.534,0 13.8103,7.7272 19.0507,23.4571 2.6286,7.8903 5.1244,18.6366 5.545,23.8808 0.7,8.717 0.5155,9.5352 -2.1524,9.5352 -1.6052,0 -4.6712,-1.8515 -6.8125,-4.1152 -4.3776,-4.6279 -17.2211,-36.6409 -18.6152,-46.3985 -0.8695,-6.086 -0.7405,-6.3594 2.9844,-6.3594 z m -334.5039,5.9864 c 2.6678,0 7.908,4.3735 19.5351,16.3086 8.7385,8.97 16.723,16.5472 17.7442,16.8379 1.0213,0.2906 2.9004,4.5366 4.1757,9.4355 1.8398,7.0684 1.9868,10.4502 0.7149,16.3809 -1.1996,5.5937 -3.0059,40.5118 -3.0059,58.1054 0,2.175 -4.0627,1.1872 -8.0625,-1.959 -3.8607,-3.0367 -21.5989,-24.8003 -41.3652,-50.7519 -5.3296,-6.997 -10.5014,-13.5815 -11.4922,-14.6309 -6.3859,-6.7651 -12.3246,-15.1601 -13.2051,-18.6679 -0.853,-3.3986 -0.1658,-4.9313 4.0215,-8.9727 10.2534,-9.8958 27.3305,-22.0859 30.9395,-22.0859 z m -299.75785,4.709 c 0.34827,-0.0153 0.69461,2e-4 1.03711,0.0488 4.75981,0.6758 4.99085,5.1386 1.22851,23.6582 -1.75831,8.6551 -4.16162,20.4506 -5.33984,26.2129 -1.17839,5.7622 -2.45987,13.506 -2.84766,17.209 -0.77543,7.4051 -6.0301,13.4726 -11.66797,13.4726 -3.02029,0 -3.09624,-0.4996 -2.22265,-14.5918 0.49751,-8.0259 2.21723,-20.9923 3.82226,-28.8125 1.60486,-7.8201 3.37439,-17.5264 3.93164,-21.5703 1.12757,-8.1822 6.83446,-15.3981 12.0586,-15.6269 z m 675.01755,6.2558 c 1.0862,0.004 1.9492,0.203 2.3946,0.6485 1.3383,1.3382 10.2382,39.5726 10.2382,43.9843 0,3.4475 -5.8788,11.8198 -8.1406,11.5938 -0.8739,-0.0868 -3.5067,-1.1653 -5.8516,-2.3965 -3.9729,-2.0861 -4.196,-2.6815 -3.2871,-8.7422 0.7092,-4.7303 0.2766,-7.851 -1.5839,-11.4473 -3.3245,-6.4256 -6.8881,-18.9249 -6.711,-23.539 0.077,-1.9961 1.1828,-4.7816 2.457,-6.1895 1.9663,-2.1727 7.2258,-3.9241 10.4844,-3.9121 z m 49.084,6.084 c 2.9939,-0.2137 14.1258,6.2896 20.0488,11.877 3.7283,3.5169 4.8633,5.8389 4.8633,9.9472 0,8.151 3.1176,11.4338 11.8399,12.4668 14.6905,1.7399 18.6116,6.8719 22.8828,29.9492 3.449,18.6343 4.2155,31.1958 1.9472,31.9141 -0.8232,0.2607 -4.3171,-0.8036 -7.7636,-2.3672 -5.0931,-2.3107 -6.559,-3.9165 -7.8321,-8.5723 -0.8613,-3.1503 -2.2109,-8.0856 -2.998,-10.9668 -0.7871,-2.8811 -2.4527,-7.9319 -3.7012,-11.2246 -1.2487,-3.2927 -2.3108,-8.007 -2.3594,-10.4765 -0.049,-2.4696 -0.7518,-5.5016 -1.5625,-6.7364 -2.5569,-3.8949 -4.5347,1.3712 -3.5058,9.3301 1.159,8.9656 -0.9633,10.0514 -10.6914,5.4785 -6.1384,-2.8853 -7.6602,-4.5597 -11.293,-12.4375 l -4.1973,-9.1054 -0.1113,8.3203 c -0.2176,16.3426 -7.9721,18.4874 -9.6308,2.664 -0.8155,-7.7788 -0.5616,-9.8063 1.414,-11.2558 1.3252,-0.9724 3.3298,-1.4141 4.4551,-0.9824 1.6388,0.6289 1.8631,-0.8061 1.1289,-7.2129 -0.5041,-4.3983 -1.8267,-9.3255 -2.9394,-10.9492 -2.3677,-3.4556 -2.7286,-18.1359 -0.4805,-19.5254 0.1233,-0.0762 0.2867,-0.1206 0.4863,-0.1348 z m -782.22655,0.916 c 1.82316,-0.0024 3.88342,1.1727 4.57812,2.6133 0.69922,1.4496 0.55498,13.4245 -0.32226,26.8145 -1.54361,23.5651 -1.68822,24.2752 -5.5625,27.3144 -4.94418,3.8784 -10.4777,3.9986 -13.82422,0.3008 -2.26222,-2.4999 -2.43645,-5.2551 -1.5293,-24.3203 0.56273,-11.826 1.65042,-22.7166 2.41602,-24.2012 1.84627,-3.5808 10.09245,-8.5145 14.24414,-8.5215 z m 476.57815,24.6895 c 1.3992,0 8.2684,8.2212 16.2558,19.457 7.6074,10.7013 15.7702,21.9437 18.1407,24.9824 2.3708,3.0386 4.3105,6.3592 4.3105,7.3789 0,1.0196 -4.0416,7.8348 -8.9805,15.1446 -4.9392,7.3098 -8.9804,14.1772 -8.9804,15.2617 0,1.0846 -1.0471,2.843 -2.3282,3.9062 -2.7076,2.247 -19.0959,26.3683 -20.5429,30.2364 -1.2843,3.4326 -3.6752,3.1932 -10.0821,-1.0118 -10.2313,-6.7148 -10.2197,-6.6544 -5.3496,-30.7929 1.2455,-6.1738 2.2915,-13.8117 2.3243,-16.9746 0.034,-3.4086 1.2785,-7.301 3.0527,-9.5567 2.1831,-2.7751 2.9922,-6.0721 2.9922,-12.1758 0,-4.6035 0.9982,-13.4362 2.2168,-19.6289 1.2189,-6.1925 2.7415,-14.6263 3.3828,-18.7422 0.8442,-5.4179 1.8337,-7.4843 3.5879,-7.4843 z m -57.6797,10.8144 c 3.7936,0.1004 9.1569,0.7342 16.7519,1.7149 11.7315,1.5146 21.7449,3.1687 22.252,3.6757 0.507,0.5071 0.083,3.9227 -0.9453,7.5899 -1.0267,3.6672 -2.2967,13.2824 -2.8242,21.3691 l -0.959,14.7032 -8.9805,0.1699 c -4.9392,0.0928 -13.3918,-0.2434 -18.7832,-0.7481 -5.666,-0.5305 -11.5979,-2.0969 -14.0566,-3.7109 l -4.252,-2.791 1.1856,-13.6719 c 0.6522,-7.519 1.2522,-16.1708 1.3339,-19.2266 0.1851,-6.9341 0.9314,-9.2951 9.2774,-9.0742 z m 302.1777,17.9766 c 0.285,0.0082 0.5878,0.0303 0.9102,0.0683 5.0932,0.6017 8.0893,3.8176 5.5293,5.9356 -1.4105,1.1668 -3.1038,1.0014 -6.1543,-0.5996 -4.6179,-2.4239 -4.5603,-5.5276 -0.2852,-5.4043 z M 840.11133,9.2977 c 3.34097,-0.2054 5.15193,4.7558 9.80078,19.4395 2.87305,9.0748 6.35172,19.1784 7.73242,22.4512 3.34582,7.9305 3.1476,16.5651 -0.55664,24.1211 -1.67139,3.409 -3.50516,9.1346 -4.07422,12.7226 -1.14785,7.2372 -4.2824,15.6055 -6.31445,16.8613 -0.72563,0.4486 -2.4201,-0.4015 -3.76758,-1.8906 -1.4243,-1.5736 -3.04475,-7.391 -3.86914,-13.8926 -0.77984,-6.1516 -2.12509,-13.0467 -2.99023,-15.3222 -0.86514,-2.2754 -2.28412,-8.9721 -3.15235,-14.8828 -0.8683,-5.9107 -2.98565,-15.6291 -4.70508,-21.5957 -3.99415,-13.861 -2.81734,-18.7738 5.98047,-24.9571 2.56167,-1.8004 4.3974,-2.9613 5.91602,-3.0547 z m 73.38086,7.3282 c 6.87918,0.1614 18.74512,2.4458 20.09179,4.457 1.33142,1.9881 -2.47823,6.2645 -9.62304,10.8047 -6.39063,4.061 -8.48649,4.3327 -12.24024,1.5879 -3.68919,-2.6976 -5.67119,-13.8911 -2.87109,-16.2149 0.61055,-0.5067 2.34952,-0.6885 4.64258,-0.6347 z m 769.92771,2.4355 c 2.5178,0.0682 4.9297,0.8615 6.4278,2.3594 3.1791,3.1793 1.2517,5.0531 -6.2305,6.0566 -4.388,0.5887 -6.3888,0.1431 -7.9824,-1.7773 -1.8642,-2.2462 -1.7749,-2.8183 0.7226,-4.6445 1.9219,-1.4054 4.5447,-2.0623 7.0625,-1.9942 z m -53.6504,7.3946 c 3.8524,0 9.9512,5.6771 9.9512,9.2636 0,3.9996 -15.9004,5.9183 -17.3672,2.0957 -1.4104,-3.6755 3.6061,-11.3594 7.416,-11.3593 z m -403.6386,18.0351 c 8.9006,0.063 34.0685,4.5274 36.6582,6.8711 3.4523,3.1243 5.1009,11.7951 3.0429,15.998 -0.8749,1.7865 -2.0078,8.6354 -2.5175,15.2208 -1.8817,24.3045 -2.9596,25.5341 -24.3965,27.8359 -7.1675,0.7697 -15.1411,1.7907 -17.7188,2.2676 -2.9086,0.5379 -5.1112,0.1805 -5.8047,-0.9414 -1.8003,-2.9132 -0.9718,-16.0328 1.541,-24.4102 1.2777,-4.2594 2.7419,-15.3842 3.254,-24.7207 0.7297,-13.3043 1.4299,-17.1661 3.2363,-17.8594 0.4943,-0.1896 1.4335,-0.2707 2.7051,-0.2617 z m 326.3398,1.9277 c 1.2724,-0.0463 2.8072,0.114 4.6523,0.3907 3.709,0.5563 13.2032,3.5581 21.0977,6.6699 10.9154,4.3025 14.4661,6.3849 14.8223,8.6953 0.4597,2.9848 -0.2818,3.5582 -14.6875,11.3535 -2.0579,1.1135 -8.7931,3.598 -14.9668,5.5215 -15.1577,4.7228 -14.5903,4.6038 -15.4473,3.2168 -0.4177,-0.6758 -0.9435,-8.0689 -1.168,-16.4297 -0.4069,-15.1503 0.1834,-19.2173 5.6973,-19.418 z m 133.4297,11.6426 c 6.153,0.0659 7.2455,2.2648 3.2285,6.541 -3.8503,4.0984 -7.7582,4.8249 -10.1699,1.8907 -0.8459,-1.029 -1.7705,-3.2189 -2.0547,-4.8653 -0.442,-2.563 0.4282,-3.0604 6.0488,-3.4629 1.0854,-0.0777 2.0683,-0.1129 2.9473,-0.1035 z m -60.7832,8.8047 c 1.1317,0 3.3649,0.959 4.9629,2.1309 2.7663,2.0289 2.7796,2.2602 0.2929,4.8632 -1.4362,1.5035 -4.3586,4.9243 -6.4941,7.5997 -4.4887,5.6234 -5.9108,5.971 -8.0527,1.9687 -1.7937,-3.3512 -1.9958,-9.0908 -0.4043,-11.4746 1.4234,-2.1317 7.0569,-5.0879 9.6953,-5.0879 z m 71.1367,7.4844 c 6.6865,0 18.175,6.6088 22.2207,12.7832 2.3626,3.6061 2.4085,4.5808 0.4707,10.0879 -1.18,3.3527 -2.8194,6.2785 -3.6426,6.5039 -0.8232,0.2252 -4.5686,-1.1888 -8.3222,-3.1426 -5.0582,-2.6325 -8.2886,-5.9233 -12.4805,-12.7148 -6.6415,-10.7601 -6.2843,-13.5176 1.7539,-13.5176 z m -403.2305,3.0312 c 8.3436,-0.0092 18.0363,0.7396 22.6465,2.127 7.0875,2.1331 17.2305,10.1876 17.2305,13.6836 0,2.4235 -3.5005,3.5951 -10.9746,3.6738 -3.4311,0.0359 -8.9318,1.1156 -12.2246,2.4004 -6.6388,2.5905 -24.7216,6.3627 -30.9492,6.4551 -2.205,0.033 -5.0678,-0.9994 -6.3614,-2.293 -1.2935,-1.2936 -2.3515,-3.2885 -2.3515,-4.4336 0,-4.4927 6.3602,-18.7536 8.9921,-20.1621 1.8302,-0.9794 7.5028,-1.444 13.9922,-1.4512 z m -357.01168,7.7559 c 2.5764,0.077 3.8169,0.9265 4.66211,2.5058 4.28994,8.0158 -4.96405,18.345 -18.89453,21.0899 -4.78509,0.9428 -11.72923,2.6892 -15.4336,3.8789 -7.56766,2.4308 -10.01348,2.6595 -10.93359,1.0254 -0.34752,-0.6174 -0.48399,-3.6953 -0.30273,-6.8399 0.4622,-8.0081 8.29751,-14.3258 22.34765,-18.0214 9.72271,-2.5575 15.24217,-3.7377 18.55469,-3.6387 z m -57.72266,3.123 c 4.93784,0.0705 11.87878,1.5605 12.46875,3.1153 0.9903,2.6102 -11.26125,24.8808 -13.6875,24.8808 -1.18527,0 -2.20647,-0.5056 -2.26953,-1.123 -0.0625,-0.6174 -0.31091,-2.1324 -0.54883,-3.3672 -0.23817,-1.2348 -0.90446,-6.7028 -1.48047,-12.1504 -0.91103,-8.6166 -0.70772,-10.0335 1.55664,-10.9023 0.89119,-0.342 2.315,-0.4766 3.96094,-0.4532 z m 788.78714,4.5196 c 0.1067,0.0038 0.2013,0.0213 0.2832,0.0527 1.7509,0.6719 1.6466,1.7614 -0.6192,6.502 -1.4972,3.1329 -3.1902,7.8775 -3.7617,10.5429 -0.5715,2.6656 -3.8499,7.9001 -7.2851,11.6309 -5.1392,5.5812 -7.4392,6.9342 -12.9805,7.6426 -3.7044,0.4734 -7.2399,0.3481 -7.8574,-0.2793 -2.1913,-2.227 -1.0419,-4.9542 5.4121,-12.8516 8.5521,-10.465 23.5013,-23.3583 26.8086,-23.2402 z m -111.3809,5.5156 c 4.3806,0 8.5804,7.2391 9.8301,16.9394 0.5496,4.2662 1.6191,9.7766 2.375,12.2461 0.7563,2.4696 2.4691,9.5411 3.8066,15.7149 1.3374,6.1738 3.7221,15.1191 5.3008,19.8769 1.6043,4.8348 2.5262,10.6147 2.0879,13.1036 -0.9009,5.1126 -11.5529,35.188 -15.6191,44.0996 -1.5025,3.2927 -4.5942,11.3755 -6.8711,17.9609 -6.442,18.6325 -8.0296,19.5572 -13.4766,7.8574 -2.0123,-4.3217 -3.664,-10.6016 -3.6719,-13.9551 -0.015,-3.3534 -1.6036,-11.4363 -3.5468,-17.9609 -1.9429,-6.5246 -4.0085,-15.2298 -4.5899,-19.3457 -0.5814,-4.1159 -2.3416,-12.5352 -3.9101,-18.709 -5.0644,-19.9348 -8.6912,-37.9223 -9.75,-48.3496 -0.9368,-9.2269 -0.7248,-10.5179 2.2675,-13.7031 1.8169,-1.934 5.7738,-3.9433 8.7911,-4.4668 7.6588,-1.3291 13.684,-3.8054 19.0957,-7.8477 2.5473,-1.9026 6.0942,-3.4609 7.8808,-3.4609 z m -468.1074,5.9883 c 5.5861,0 10.5171,0.5839 10.959,1.2988 0.4421,0.7151 3.3983,1.7154 6.5703,2.2227 9.546,1.5264 15.1411,11.6023 9.4336,16.9882 -3.2787,3.0944 -6.3833,10.0114 -11.6211,25.8868 -2.0369,6.1738 -4.3348,11.8645 -5.1055,12.6464 -0.7705,0.7821 -1.4004,2.2954 -1.4004,3.3633 0,1.0678 -3.3684,11.0388 -7.4843,22.1563 -4.1159,11.1175 -7.4825,21.8235 -7.4825,23.791 0,1.9674 -0.842,3.8758 -1.8711,4.2402 -1.0289,0.3646 -9.024,-1.7533 -17.7656,-4.7051 -21.6429,-7.308 -20.9914,-6.5355 -17.6348,-20.9511 1.5112,-6.4904 4.4259,-16.0785 6.4786,-21.3067 2.053,-5.2283 5.4096,-14.8931 7.4589,-21.4785 5.0013,-16.0715 14.0828,-38.3005 16.9688,-41.5332 1.792,-2.0075 4.7117,-2.6191 12.4961,-2.6191 z m 221.3574,3.2519 c 1.1161,0.006 2.238,0.2764 3.4102,0.8106 3.3933,1.5461 4.3451,5.6952 7.4746,32.6054 0.4533,3.8971 -6.8237,4.7578 -12.916,1.5274 -2.3558,-1.2492 -8.6694,-2.9716 -14.0313,-3.8281 -5.3621,-0.8566 -11.6004,-2.5155 -13.8633,-3.6856 -2.263,-1.1701 -8.7447,-2.8654 -14.4043,-3.7676 -11.1327,-1.7749 -19.2714,-5.5928 -19.2714,-9.039 0,-1.5672 2.8784,-2.4801 10.4765,-3.3223 20.0982,-2.2277 41.4351,-6.7412 49.752,-10.5254 1.1469,-0.5219 2.2569,-0.7813 3.373,-0.7754 z m -134.6582,12.877 7.0918,1.0332 c 3.9002,0.5687 11.8555,2.6655 17.6797,4.6582 5.824,1.9927 13.2831,3.623 16.5762,3.623 4.3236,0 6.8921,0.9615 9.2422,3.4629 3.6981,3.9365 4.0865,5.4944 1.3847,5.5664 -4.1797,0.1108 -8.705,6.3183 -18.7773,25.7598 -5.8197,11.2329 -13.8847,25.3423 -17.9219,31.3555 -4.0372,6.0133 -10.8987,16.9957 -15.248,24.4043 -4.3492,7.4085 -8.6676,13.9655 -9.5977,14.5703 -2.7231,1.7709 -14.6828,1.1843 -20.873,-1.0235 -7.0849,-2.5268 -11.5001,-6.3987 -11.5,-10.0859 0,-1.5462 1.5727,-5.9884 3.4941,-9.8711 3.6477,-7.3709 4.6107,-9.8023 17.9258,-45.2246 4.4868,-11.9361 9.5499,-24.3968 11.2519,-27.6895 1.7019,-3.2927 4.4849,-9.2616 6.1836,-13.2636 l 3.0879,-7.2754 z m 499.4531,3.4765 c 4.9698,-0.0443 10.7568,2.7092 16.1289,7.8614 5.6413,5.4054 6.5159,7.0193 5.8438,10.7734 -1.4699,8.2096 -9.7444,18.6328 -14.791,18.6328 -1.7469,0 -6.8485,-2.3392 -11.3379,-5.1992 -4.4894,-2.86 -8.9584,-5.2172 -9.9317,-5.2383 -0.9736,-0.021 -2.195,-1.3797 -2.7148,-3.0176 -1.2521,-3.9443 7.7244,-20.8036 12.1504,-22.8203 1.4294,-0.6513 2.9957,-0.9774 4.6523,-0.9922 z m -394.9531,19.3516 c 3.29,-0.0247 6.9535,1.0738 11.707,3.2168 3.9783,1.7935 11.2683,3.645 16.1993,4.1152 12.3212,1.1749 12.3402,3.7236 0.096,12.7129 -5.3683,3.9412 -11.2775,9.6206 -13.1309,12.6211 -3.4465,5.5801 -48.703,52.6016 -50.627,52.6016 -0.5851,0 -1.9286,-1.0438 -2.9863,-2.3184 -2.345,-2.8256 -4.9681,-33.2547 -3.6504,-42.3437 0.7397,-5.1028 2.682,-8.3898 9.0606,-15.3282 4.4661,-4.8577 8.1211,-9.4654 8.1211,-10.2402 0,-0.7748 1.3647,-1.8415 3.0332,-2.3711 1.6685,-0.5296 6.0861,-3.6058 9.8183,-6.8359 4.5164,-3.9089 8.1294,-5.7983 12.3594,-5.8301 z m 346.7149,41.1973 0.4726,4.0644 c 0.6112,5.2592 -5.8397,17.0886 -13.916,25.5176 -5.4348,5.672 -7.3722,6.6901 -14.3789,7.5606 -4.4541,0.5533 -10.8647,1.39 -14.2461,1.8593 -4.9113,0.6818 -6.3444,0.3434 -7.1231,-1.6855 -1.1671,-3.042 5.046,-20.9247 9.8477,-28.3418 4.2449,-6.5573 8.7329,-8.0423 25.873,-8.5645 l 13.4708,-0.4101 z m 5.2441,15.6328 c 5.316,0 23.9107,13.1423 25.8242,18.2519 3.0806,8.2272 -6.013,23.6603 -24.9609,42.3633 -16.5143,16.3008 -27.7073,22.7276 -33.1992,19.0606 -4.8875,-3.2635 -4.7567,-6.9852 0.7187,-20.5567 2.989,-7.4086 7.2755,-16.548 9.5254,-20.3086 2.2499,-3.7604 4.3376,-9.0839 4.6387,-11.832 0.3654,-3.3385 2.0894,-6.2853 5.1972,-8.8789 2.5581,-2.1349 5.9997,-7.0802 7.6485,-10.9902 1.6489,-3.9101 3.722,-7.1094 4.6074,-7.1094 z m -160.3164,31.2793 c 2.6304,-0.1264 10.0025,3.9649 29.1699,15.3965 3.1938,1.9046 7.4231,5.8837 9.3984,8.8418 3.4196,5.121 3.5718,6.3664 3.1739,26.0683 -0.2456,12.155 -1.0365,20.862 -1.916,21.1055 -0.8232,0.2279 -4.8629,-0.909 -8.9786,-2.5274 -12.3142,-4.8416 -17.2128,-10.4712 -17.2128,-19.7832 0,-3.2686 -3.2363,-14.3457 -7.4825,-25.6074 -4.1158,-10.9162 -7.4843,-20.6345 -7.4843,-21.5957 0,-1.1541 0.3027,-1.849 1.332,-1.8984 z m -353.3438,9.1523 c 15.0578,0.0285 18.8749,1.9464 19.4024,9.7422 0.2216,3.2737 1.0823,10.586 1.914,16.25 1.2613,8.5895 1.1274,10.8862 -0.8105,13.8438 -2.2228,3.3924 -3.0522,3.542 -19.127,3.4511 -9.2417,-0.0522 -18.3178,-0.7026 -20.1699,-1.4472 -3.9,-1.5675 -4.3088,-7.0548 -1.8359,-24.6485 2.0643,-14.688 5.1015,-17.221 20.6269,-17.1914 z m -290.5234,18.6289 c 1.79111,0.0603 4.47231,2.5853 11.47461,10.0274 5.87737,6.2462 15.45302,15.0823 21.28125,19.6367 10.16918,7.9471 16.0953,15.9919 14.61719,19.8437 -0.38391,1.0007 -4.63052,2.2647 -9.4375,2.8086 -4.80668,0.5439 -17.24624,3.3203 -27.64258,6.17 -21.70568,5.9494 -23.31488,6.1271 -23.2793,2.5625 0.0152,-1.4406 2.02405,-9.3542 4.46485,-17.586 3.40064,-11.4689 4.44294,-17.9858 4.46289,-27.8808 0.0206,-10.0218 0.5671,-13.3598 2.4375,-14.9121 0.52638,-0.4369 1.02405,-0.6901 1.62109,-0.67 z m 387.2949,2.625 c 6.1826,-0.165 15.2009,2.5547 18.1016,5.7598 2.0537,2.2697 2.2972,4.5498 1.4199,13.2852 -1.6789,16.716 -5.2443,19.5957 -20.584,16.6191 -9.6956,-1.8815 -11.6035,-4.8471 -11.6035,-18.0254 0,-12.8752 1.6425,-15.6699 10.2168,-17.3848 0.7414,-0.1482 1.566,-0.2303 2.4492,-0.2539 z m 36.4727,10.2774 c 3.9115,-0.2861 28.9634,3.8656 33.5527,5.6699 4.0137,1.578 4.1152,1.9146 4.1152,13.627 0,11.5407 -0.1314,12 -3.3671,11.7304 -1.8522,-0.1543 -11.2598,-0.6599 -20.9063,-1.123 -23.5371,-1.13 -24.1997,-1.7541 -18.6269,-17.5625 2.2393,-6.3519 4.3734,-11.8521 4.7441,-12.2227 0.061,-0.0605 0.2275,-0.1001 0.4883,-0.1191 z m 221.2363,6.123 c 1.8893,0.0787 3.5176,1.9838 3.5176,5.0918 0,2.1706 1.0144,7.8595 2.2539,12.6426 2.5278,9.7551 4.1806,37.7721 2.8008,47.4863 -1.1323,7.9708 -4.3208,8.353 -14.711,1.7637 -8.9801,-5.695 -12.6793,-10.0091 -12.7422,-14.8594 -0.1422,-10.8899 9.4266,-41.8597 15.4961,-50.1601 1.0244,-1.4008 2.2513,-2.0121 3.3848,-1.9649 z m -363.9336,18.041 c 19.2508,-0.227 30.5857,3.2914 28.3203,9.1953 -1.5499,4.0393 -16.8277,13.6811 -37.1465,23.4434 -19.8322,9.5284 -23.5457,10.3453 -29.3652,6.459 -9.8295,-6.5641 -17.918,-16.5799 -17.918,-22.1836 0,-1.2933 1.5151,-2.9751 3.3672,-3.7383 1.852,-0.763 8.8655,-3.7384 15.586,-6.6133 10.4618,-4.4755 14.5511,-5.3724 28.4375,-6.2324 3.0566,-0.1893 5.9686,-0.2976 8.7187,-0.3301 z m 44.4844,14.627 4.3418,0 c 2.7774,0 5.5261,1.3626 7.6289,3.7812 1.8081,2.0792 6.6873,5.9445 10.8418,8.5899 4.1546,2.6454 14.3164,9.9465 22.582,16.2246 8.2659,6.2781 17.3578,12.6186 20.2051,14.0898 2.8472,1.4714 5.9664,3.7504 6.9316,5.0645 4.6002,6.2615 2.8624,18.1055 -2.6562,18.1055 -1.4656,0 -3.0812,0.6729 -3.5899,1.4961 -0.5088,0.8231 -2.5482,1.496 -4.5332,1.496 -1.985,0 -7.2896,1.6843 -11.789,3.7422 -9.5333,4.3606 -13.3994,4.5696 -19.6875,1.0606 -7.7732,-4.3378 -28.9994,-21.2262 -31.5274,-25.084 -1.9009,-2.9013 -2.1999,-5.8955 -1.4414,-14.5117 0.5258,-5.9704 1.3485,-16.0755 1.8262,-22.4551 l 0.8672,-11.5996 z m 88.8594,1.5351 c 2.6834,-0.0773 5.4593,0.8174 6.3886,2.5821 0.7587,1.4405 1.8718,14.265 2.4727,28.5 0.9958,23.5882 0.8577,26.1406 -1.5586,28.8105 -3.3341,3.6843 -5.5181,3.6992 -8.8145,0.0567 -2.1788,-2.4073 -2.6104,-5.9933 -2.6582,-22.0762 -0.032,-10.561 -0.6503,-22.4995 -1.375,-26.5293 -0.9048,-5.0322 -0.792,-7.9612 0.3633,-9.3535 1.0633,-1.2811 3.0946,-1.9301 5.1817,-1.9903 z m 274.1972,6.4063 c 2.1317,-0.1035 3.0836,1.9282 3.5664,6.9824 0.6243,6.5375 -3.3406,8.0501 -5.9707,2.2774 -2.414,-5.2981 -2.2146,-7.7273 0.7305,-8.8575 0.6262,-0.2402 1.1819,-0.3784 1.6738,-0.4023 z m -691.69919,12.418 c 1.51615,-0.0101 2.84944,0.2215 3.82227,0.7422 6.88445,3.6845 0.026,17.7056 -18.18946,37.1855 -12.19189,13.0376 -17.15389,16.0204 -18.93359,11.3828 -1.08427,-2.8254 15.20892,-39.4381 19.56055,-43.9551 3.0027,-3.1166 9.19177,-5.3251 13.74023,-5.3554 z m 232.83589,14.1836 c 0.8506,0.0275 1.9188,0.5185 3.6485,1.414 6.121,3.169 18.5043,16.0626 20.875,21.7363 2.707,6.4787 3.1714,46.2502 0.5762,49.377 -2.0231,2.438 -7.0499,2.5949 -14.92,0.4648 -2.8812,-0.7796 -10.5128,-1.9628 -16.959,-2.6289 -8.689,-0.8978 -12.5098,-2.002 -14.7734,-4.2656 l -3.0547,-3.0527 3.0235,-8.7578 c 6.9663,-20.1859 12.2485,-36.107 14.0273,-42.2774 1.0433,-3.6191 3.0299,-7.9813 4.416,-9.6933 1.3135,-1.622 2.0471,-2.3519 3.1406,-2.3164 z m 76.4317,25.0937 c 1.0619,-0.003 1.8357,0.2101 2.1426,0.7051 3.1305,5.0495 1.4151,23.4726 -2.1856,23.4726 -0.6687,0 -4.4539,-3.2878 -8.4121,-7.3066 -4.3752,-4.442 -6.9946,-8.3471 -6.6797,-9.9609 0.5502,-2.8201 10.5332,-6.8967 15.1348,-6.9102 z m -309.1504,0.4531 c 1.36853,0.0101 1.93164,1.4165 1.93164,4.1035 0,4.5643 -9.33818,18.6643 -19.19141,28.9766 -5.69595,5.9613 -11.65275,7.3851 -13.26953,3.1719 -1.44767,-3.773 3.08024,-10.6586 15.86914,-24.127 7.86239,-8.2801 12.37927,-12.1417 14.66016,-12.125 z m 670.166,10.2559 c 6.1799,0 8.4494,4.8082 17.2949,36.668 1.6,5.7622 3.6243,13.845 4.4981,17.9609 0.8742,4.1159 2.9917,11.9821 4.707,17.4824 3.0132,9.6617 2.9488,14.6953 -0.1875,14.6953 -0.8275,0 -6.5036,-7.5771 -12.6133,-16.8379 l -11.1074,-16.8378 -3.1504,-23.3145 c -4.0455,-29.9552 -4.0482,-29.8164 0.5586,-29.8164 z m -219.1191,0.8516 c 4.8161,0.003 5.0858,0.5368 4.875,3.6367 -0.4922,7.235 -8.9899,38.237 -12.166,44.3867 -5.302,10.2656 -12.4479,14.4798 -18.5332,10.9297 -3.1282,-1.8249 -5.2987,-12.4833 -6.5411,-32.1172 -0.8714,-13.7701 -0.7008,-15.2254 2.1289,-18.2109 3.847,-4.0587 18.0094,-8.428 27.8809,-8.5997 0.8855,-0.0153 1.6674,-0.0258 2.3555,-0.0253 z m -99.3516,20.5605 c 3.2805,-0.1276 4.4917,3.9989 5.3906,16.4863 0.7376,10.2436 0.4823,12.0665 -2.0429,14.5918 -3.2905,3.2905 -4.9414,3.3652 -16.3575,0.7461 -15.6036,-3.5797 -19.457,-6.5286 -19.457,-14.8965 0,-5.1077 7.4009,-10.3574 18.709,-13.2695 4.9392,-1.2719 10.437,-2.7812 12.2187,-3.3555 0.5583,-0.1799 1.0705,-0.2845 1.5391,-0.3027 z m 251.9414,2.5332 c 7.0102,0 25.5774,12.6464 28.332,19.2969 2.487,6.0041 2.9705,51.2833 0.5567,52.1133 -0.9653,0.3318 -4.6683,-2.3051 -8.2305,-5.8594 -10.5814,-10.5575 -25.3412,-28.3516 -26.957,-32.5 -1.6431,-4.2192 -0.4636,-23.4309 1.8047,-29.3965 0.8567,-2.2535 2.5794,-3.6543 4.4941,-3.6543 z m -391.3398,19.3281 c 2.4932,-0.088 6.4533,0.7566 11.9843,2.3594 15.1849,4.4004 38.7688,8.2461 50.5606,8.2461 4.4088,0 13.1688,0.4364 19.4668,0.9687 9.2738,0.784 11.4492,1.4386 11.4492,3.4473 0,4.1084 -9.3692,11.8846 -18.041,14.9707 -4.4821,1.5952 -16.0854,6.9785 -25.7832,11.9629 -19.6661,10.1076 -26.1848,11.3324 -29.9258,5.6231 -1.2395,-1.8917 -4.3202,-8.3008 -6.8476,-14.2403 -2.5275,-5.9393 -6.6406,-13.7693 -9.1387,-17.4004 -7.5972,-11.0421 -9.2097,-15.7439 -3.7246,-15.9375 z m 115.8925,19.6934 c 4.3176,-0.007 9.2911,0.6954 13.9454,2.1074 3.9548,1.1999 13.7198,2.9018 21.7011,3.7832 18.1362,2.0029 34.6212,6.2628 37.0411,9.5723 2.84,3.8839 4.1914,15.6646 2.0878,18.1992 -0.9821,1.1834 -2.2081,2.0485 -2.7246,1.9238 -0.5169,-0.1242 -11.0409,-0.7381 -23.3886,-1.3652 -12.3476,-0.6271 -27.1655,-1.8489 -32.9278,-2.7149 -5.7622,-0.8658 -13.5066,-1.9692 -17.2109,-2.4511 -8.723,-1.1345 -12.9706,-4.0184 -14.207,-9.6485 -1.2743,-5.8024 1.541,-14.3689 5.6738,-17.2636 2.0304,-1.4222 5.6922,-2.1362 10.0097,-2.1426 z m -165.90425,1.6445 c 1.80129,-0.0788 4.33501,2.4371 6.9043,7.2285 13.23445,24.6812 18.22315,35.2185 19.81645,41.8594 2.1837,9.1025 1.3165,12.0215 -3.5723,12.0215 -2.0225,0 -9.24772,2.6936 -16.05665,5.9863 -11.99765,5.8019 -14.95939,6.5856 -18.89844,4.9961 -2.24133,-0.9044 -2.40891,-7.3408 -0.41406,-15.9316 0.80137,-3.4514 3.20307,-16.0425 5.33789,-27.9785 2.13464,-11.9361 4.19804,-23.2612 4.58398,-25.168 0.40177,-1.9849 1.21806,-2.9664 2.29883,-3.0137 z m 506.61715,7.2285 c 2.9269,0 3.4769,0.6137 18.7071,20.9532 7.0887,9.4665 16.0272,20.4234 19.8633,24.3476 11.241,11.4983 11.5631,15.2578 3.2148,37.4258 -2.0995,5.5753 -3.8184,11.3853 -3.8184,12.9121 0,5.7456 -3.4724,6.1482 -10.0019,1.1602 -3.4225,-2.6143 -8.881,-8.1205 -12.1289,-12.2364 -3.2478,-4.1158 -7.7421,-9.1666 -9.9883,-11.2246 -7.1238,-6.5266 -8.0412,-10.0691 -9.1543,-35.4004 -1.1772,-26.7852 -0.2053,-37.9375 3.3066,-37.9375 z m -60.7402,18.1661 c 1.8662,-0.0934 2.8894,0.7197 4.3086,2.9277 1.2731,1.9807 7.3742,9.0228 13.5586,15.6484 9.903,10.6096 22.3549,26.4132 28.1484,35.7266 1.4391,2.3136 1.7172,7.7277 1.0801,21.0742 -0.4715,9.8781 -0.1447,24.696 0.7266,32.9277 2.4039,22.708 4.2372,56.273 3.3711,61.7383 -0.9024,5.6963 -3.3641,6.0376 -13.7754,1.916 -8.6325,-3.4174 -12.8719,-9.6652 -14.0215,-20.664 -0.494,-4.7277 -1.9012,-11.4394 -3.127,-14.9141 -1.226,-3.4745 -2.609,-9.1925 -3.0742,-12.707 -0.4653,-3.5144 -1.5231,-10.4301 -2.3496,-15.3692 -0.8267,-4.939 -2.5294,-15.3719 -3.7832,-23.1836 -2.4775,-15.4365 -6.2658,-33.1636 -11.8379,-55.3925 -1.9604,-7.8202 -4.0233,-17.3874 -4.584,-21.2598 -0.9847,-6.7984 -0.8762,-7.0772 3.166,-8.0918 0.8555,-0.2147 1.5714,-0.3458 2.1934,-0.3769 z m -373.709,24.2343 c 2.4133,-0.003 4.6198,0.5472 6.7266,1.6367 6.0814,3.1449 20.1141,20.0209 19.0195,22.8731 -0.4607,1.2005 -0.8379,2.4924 -0.8379,2.8711 0,1.1824 -19.5962,9.543 -22.3672,9.543 -1.4471,0 -5.9181,1.7486 -9.9355,3.8847 -17.2052,9.148 -34.3091,15.2978 -45.5254,16.3692 -6.17375,0.5896 -15.18477,2.3346 -20.02539,3.8789 -10.97886,3.5022 -14.33447,3.5447 -14.61719,0.1875 -0.12134,-1.4406 -0.0986,-6.6586 0.0527,-11.5977 0.24783,-8.1179 0.7662,-9.4441 5.38672,-13.7988 2.81146,-2.6496 6.9948,-5.2795 9.29882,-5.8457 2.3041,-0.5662 10.20627,-3.9675 17.55864,-7.5586 7.3521,-3.591 18.1266,-8.2425 23.9453,-10.336 5.8185,-2.0932 13.4889,-5.4261 17.043,-7.4062 5.6607,-3.1537 10.2552,-4.6965 14.2773,-4.7012 z m 79.7891,31.1485 c 3.0171,-0.1109 7.9879,0.3155 17.2012,1.1953 12.8787,1.2298 27.4996,1.5131 42.2812,0.8203 30.0936,-1.4103 29.2308,-2.0555 31.1738,23.3301 2.2737,29.7065 2.2204,34.9426 -0.3593,35.3906 -1.2348,0.2145 -7.6313,-1.5249 -14.2168,-3.8652 -28.9251,-10.2794 -33.6747,-12.0375 -38.4004,-14.2168 -2.7528,-1.2697 -13.0868,-5.4326 -22.9649,-9.252 -9.8781,-3.8194 -19.1375,-8.3058 -20.5781,-9.9687 -3.8476,-4.4419 -3.6113,-17.7932 0.3789,-21.4043 1.4033,-1.2701 2.4673,-1.9185 5.4844,-2.0293 z m -45.0625,4.2793 c 7.0609,0 16.6971,7.0729 19.1914,14.0879 1.7755,4.9933 -20.2917,24.0738 -53.5996,46.3437 -8.1533,5.4515 -15.6924,9.9121 -16.752,9.9121 -1.0597,0 -2.3248,-2.1899 -2.8125,-4.8652 -3.4924,-19.1534 -6.1497,-41.0375 -5.1386,-42.3203 0.6659,-0.8449 3.7791,-2.42 6.9179,-3.502 3.1391,-1.0818 10.7579,-4.2058 16.9317,-6.9414 17.9112,-7.9366 31.163,-12.7148 35.2617,-12.7148 z m 476.1035,16.6464 c 1.0523,0.004 2.2025,0.8446 3.5098,2.459 1.9359,2.3913 2.8105,7.7233 3.6562,22.3262 0.6111,10.5513 1.2125,20.8467 1.3379,22.8789 0.3305,5.3605 -3.0641,5.0691 -12.1191,-1.041 -8.3324,-5.6224 -8.9614,-7.2539 -6.502,-16.8731 0.7365,-2.8811 2.5334,-10.5245 3.9922,-16.9843 1.9732,-8.7391 3.8099,-12.7748 6.125,-12.7657 z m -617.21289,4.1504 c 3.71219,-0.1778 5.91144,3.2808 4.24023,7.9532 -0.8436,2.3586 -1.29646,2.3193 -5.77929,-0.5196 -5.80531,-3.6764 -5.96089,-4.5128 -1.24414,-6.6992 0.98873,-0.4583 1.92654,-0.6933 2.7832,-0.7344 z m 170.78519,9.627 c 2.8173,-0.0129 7.7815,1.9042 17.3808,6.2676 6.1738,2.8063 14.2485,5.8715 17.9453,6.8105 8.1844,2.0792 14.4367,6.3273 15.8809,10.791 1.6297,5.0385 0.9351,29.2031 -1.0098,35.0957 -1.9474,5.9006 -8.306,9.3926 -17.1015,9.3926 -2.9338,0 -7.84,1.0837 -10.9004,2.4102 -7.0791,3.0682 -25.4619,8.0073 -29.9317,8.041 -1.8778,0.015 -3.8112,-1.0098 -4.2968,-2.2754 -1.1446,-2.9821 6.8245,-70.924 8.7421,-74.5352 0.6834,-1.2868 1.6006,-1.9903 3.2911,-1.998 z m -19.9239,10.5195 c 3.8365,-0.0893 5.7122,6.2366 2.9707,13.4473 -1.2562,3.3042 -2.4838,11.2506 -5.2988,34.3183 -1.6798,13.7637 -4.7363,16.6296 -19.2246,18.0176 -5.3933,0.5167 -7.4326,0.143 -8.0527,-1.4726 -0.4569,-1.1902 -3.4564,-3.2138 -6.666,-4.4981 -3.2098,-1.2843 -6.508,-3.5927 -7.3301,-5.1289 -0.9119,-1.7037 -2.892,-2.6767 -5.0762,-2.4961 -3.7084,0.307 -11.3027,-3.0066 -11.3027,-4.9316 0,-0.6027 4.2085,-4.6983 9.3535,-9.1016 5.1449,-4.4031 11.3763,-9.8765 13.8457,-12.164 2.4697,-2.2876 10.4582,-8.3497 17.7539,-13.4707 7.2958,-5.1211 14.5363,-10.2357 16.0898,-11.3653 1.0615,-0.7717 2.0522,-1.1337 2.9375,-1.1543 z m 440.1094,23.8008 c 1.7093,0.0497 3.3747,0.9078 5.3516,2.334 6.2341,4.4975 14.9537,14.0704 15.998,17.5644 0.6488,2.1711 -1.046,5.9089 -5.7695,12.7227 -3.6785,5.3064 -9.1287,13.1719 -12.1113,17.4805 -6.3412,9.1606 -13.3365,15.4463 -16.877,15.166 -1.3773,-0.1093 -7.893,-1.5079 -14.4785,-3.1094 -6.5853,-1.6016 -12.8995,-3.2075 -14.0313,-3.5684 -3.6161,-1.1532 -0.8317,-12.7288 4.1055,-17.0703 2.3405,-2.0579 10.4305,-11.9833 17.9785,-22.0566 10.8184,-14.4379 15.4658,-19.5899 19.834,-19.4629 z m -147.5879,6.3984 c 3.5416,0.0889 8.2264,2.439 18.6758,8.959 5.3508,3.3387 12.4221,6.9635 15.7148,8.0547 5.6526,1.8734 17.211,11.2637 17.211,13.9824 0,0.6896 -1.4723,3.2475 -3.2735,5.6836 -3.9532,5.3472 -8.7028,5.6644 -20.6152,1.3809 -4.4959,-1.6166 -10.0255,-2.9395 -12.2871,-2.9395 -4.6978,0 -17.2031,-7.0454 -18.5469,-10.4492 -0.4933,-1.2497 -1.2685,-7.0531 -1.7226,-12.8965 -0.7821,-10.0656 -0.6496,-10.6698 2.5176,-11.498 0.7523,-0.1968 1.5088,-0.2979 2.3261,-0.2774 z M 1222.875,622.37 c 0.5979,-6e-4 1.1846,0.0163 1.7559,0.0527 l 7.2421,0.461 -0.096,7.1523 c -0.1555,11.4977 -1.0529,11.8837 -30.8554,13.2774 -14.2131,0.6645 -26.5411,1.4784 -27.3965,1.8066 -0.8552,0.3281 -3.9043,-0.1637 -6.7754,-1.0918 -7.8283,-2.5301 -6.6093,-5.645 3.0117,-7.6953 11.4669,-2.4438 30.7089,-7.9622 39.9024,-11.4453 4.2635,-1.6153 9.0254,-2.5134 13.2109,-2.5176 z m 233.8672,28.5156 c 5.1001,-0.15 11.1921,3.8377 15.4004,10.6661 2.4055,3.902 2.4396,4.9888 0.4179,13.4707 -1.2097,5.0741 -2.9926,13.8355 -3.9609,19.4687 l -1.7598,10.2422 -8.8535,3.6016 c -4.8697,1.9811 -10.4719,3.6015 -12.4492,3.6015 -3.5014,0 -3.5678,-0.2239 -2.5391,-8.6054 0.5811,-4.7333 1.716,-10.2897 2.5215,-12.3477 0.8053,-2.0579 1.9799,-11.1004 2.6114,-20.0938 0.9401,-13.3902 1.6563,-16.7258 3.9492,-18.4257 1.3731,-1.018 2.9621,-1.5281 4.6621,-1.5782 z m 36.3691,34.5176 c 0.4789,-0.0447 0.9484,0.0432 1.3653,0.3008 2.3449,1.4492 1.8785,4.8369 -0.8067,5.8672 -3.1745,1.2182 -3.1796,1.2168 -4.1172,-1.2266 -0.7944,-2.0703 1.4835,-4.7476 3.5586,-4.9414 z"
       id="path4155"
       inkscape:connector-curvature="0" />
  </g>
</svg>
