<?xml version="1.0" encoding="UTF-8" standalone="no"?>
<!-- Created with Inkscape (http://www.inkscape.org/) -->

<svg
   xmlns:dc="http://purl.org/dc/elements/1.1/"
   xmlns:cc="http://creativecommons.org/ns#"
   xmlns:rdf="http://www.w3.org/1999/02/22-rdf-syntax-ns#"
   xmlns:svg="http://www.w3.org/2000/svg"
   xmlns="http://www.w3.org/2000/svg"
   xmlns:xlink="http://www.w3.org/1999/xlink"
   xmlns:sodipodi="http://sodipodi.sourceforge.net/DTD/sodipodi-0.dtd"
   xmlns:inkscape="http://www.inkscape.org/namespaces/inkscape"
   width="2500"
   height="2500"
   viewBox="0 0 2500 2500"
   id="svg2"
   version="1.1"
   inkscape:version="0.91 r13725"
   sodipodi:docname="brizzlebears.svg"
   inkscape:export-filename="C:\Users\Dominic\OneDrive\Documents\Puffs\Logos\Brizzlebears\Brizzlebears Logo [OFFICIAL].png"
   inkscape:export-xdpi="90"
   inkscape:export-ydpi="90">
  <defs
     id="defs4">
    <linearGradient
       inkscape:collect="always"
       id="linearGradient4167">
      <stop
         style="stop-color:#a00000;stop-opacity:1;"
         offset="0"
         id="stop4169" />
      <stop
         style="stop-color:#f00000;stop-opacity:1"
         offset="1"
         id="stop4171" />
    </linearGradient>
    <clipPath
       clipPathUnits="userSpaceOnUse"
       id="clipPath4147">
      <rect
         style="opacity:1;fill:#a00000;fill-opacity:0.50967742;stroke:#000000;stroke-width:30;stroke-linecap:round;stroke-miterlimit:4;stroke-dasharray:none;stroke-opacity:0"
         id="rect4149"
         width="1440"
         height="1348.5714"
         x="-1982.8572"
         y="-1559.0664" />
    </clipPath>
    <linearGradient
       inkscape:collect="always"
       xlink:href="#linearGradient4167"
       id="linearGradient4173"
       x1="-39.742092"
       y1="-1203.3522"
       x2="2111.105"
       y2="750.93359"
       gradientUnits="userSpaceOnUse"
       gradientTransform="matrix(1.2532427,-0.27295703,0.2462422,0.76033073,245.32078,212.10941)" />
  </defs>
  <sodipodi:namedview
     id="base"
     pagecolor="#000000"
     bordercolor="#666666"
     borderopacity="1.0"
     inkscape:pageopacity="0"
     inkscape:pageshadow="2"
     inkscape:zoom="0.175"
     inkscape:cx="-256.05822"
     inkscape:cy="1366.5364"
     inkscape:document-units="px"
     inkscape:current-layer="layer1"
     showgrid="false"
     units="px"
     inkscape:window-width="2560"
     inkscape:window-height="1377"
     inkscape:window-x="84"
     inkscape:window-y="-8"
     inkscape:window-maximized="1" />
  <metadata
     id="metadata7">
    <rdf:RDF>
      <cc:Work
         rdf:about="">
        <dc:format>image/svg+xml</dc:format>
        <dc:type
           rdf:resource="http://purl.org/dc/dcmitype/StillImage" />
        <dc:title />
      </cc:Work>
    </rdf:RDF>
  </metadata>
  <g
     inkscape:label="Layer 1"
     inkscape:groupmode="layer"
     id="layer1"
     transform="translate(0,1447.6378)">
    <path
       style="opacity:1;fill:url(#linearGradient4173);fill-opacity:1;stroke:#000000;stroke-width:30.29988861;stroke-linecap:round;stroke-miterlimit:4;stroke-dasharray:none;stroke-opacity:0"
       d="m 1854.0091,-1377.4612 -477.8521,315.5758 -88.3338,306.19342 c 13.1608,3.41419 26.5258,6.88217 40.6598,10.53776 38.8529,10.04881 74.2894,19.30369 78.7484,20.56544 8.5818,2.42837 25.6168,14.16872 30.8288,21.24762 1.6947,2.3019 5.4854,13.22283 8.4237,24.26923 4.8363,18.1855 8.2399,25.70323 11.6378,25.70323 0.6663,0 6.3844,2.35224 12.7072,5.22586 24.2339,11.01411 35.3437,15.06775 43.7489,15.96644 6.8959,0.73733 11.4624,2.66945 21.9769,9.29839 7.2998,4.60222 15.392,10.16199 17.9822,12.35484 4.7011,3.98001 4.7096,4.01812 4.7096,21.11035 0,16.25764 -0.2299,17.4674 -4.5437,23.98449 -3.9451,5.96069 -10.1129,21.83384 -36.2839,93.37313 -2.8427,7.77061 -6.8293,18.64991 -8.8581,24.17499 -2.0289,5.52519 -5.4541,11.69657 -7.6124,13.71511 -3.6337,3.39809 -18.784,12.46087 -54.1596,32.40201 -15.2295,8.58472 -16.8254,10.00089 -15.6285,13.85429 0.4298,1.38408 3.6207,16.21811 7.0921,32.96536 11.3375,54.69502 25.0603,121.18762 28.1533,136.41329 6.8756,33.8483 11.1421,52.57632 12.2135,53.62508 0.5786,0.56596 8.0922,2.90723 17.0645,5.35905 l 357.3254,-1217.91518 z m -515.013,162.4709 -477.85206,315.57579 -555.61114,1864.31007 458.74317,-285.01958 84.61967,-278.99681 -0.0594,-6.39763 4.1053,-6.94051 32.53311,-107.26033 c -3.35064,-3.21014 -5.96352,-6.27596 -6.55538,-7.87253 -0.88455,-2.38564 -2.7016,-4.75826 -4.0377,-5.27094 -1.33611,-0.51269 -2.42959,-1.61273 -2.42959,-2.44395 0,-0.83133 -1.94204,-4.47465 -4.3163,-8.09794 -2.37435,-3.62339 -5.02217,-7.73755 -5.8855,-9.1427 -0.86342,-1.40516 -7.75219,-10.21999 -15.30681,-19.58831 -16.33048,-20.25066 -16.95699,-22.96143 -7.06341,-30.51522 3.66946,-2.80172 9.14439,-7.80394 12.16637,-11.11551 l 5.49422,-6.02066 9.96827,2.74098 c 9.18107,2.52503 10.12331,3.19515 11.92874,8.47689 1.74624,5.10868 12.88279,22.20196 22.45831,34.70867 l 17.34716,-57.1956 c -4.40326,1.5586 -12.49777,2.01066 -27.27651,2.27382 -13.75442,0.24512 -26.95071,0.20107 -29.32506,-0.0983 -5.4829,-0.69182 -5.87981,-6.20096 -0.7846,-10.88811 3.25185,-2.99145 5.86714,-3.29929 32.96535,-3.87585 l 28.42164,-0.60436 28.03244,-92.420522 c -0.9534,-0.119884 -1.79401,-0.246167 -2.28619,-0.374862 -1.50588,-0.393847 -8.21706,-3.389602 -14.91348,-6.65785 -14.57613,-7.113894 -18.53216,-8.497656 -24.73221,-8.638727 -5.42033,-0.12408 -6.3461,-3.533296 -1.68596,-6.215336 18.58619,-10.69722 37.35936,-26.047604 39.28923,-32.127427 2.64022,-8.31872 10.37584,-2.953276 17.32464,11.168683 l 22.99294,-75.80679 c -2.71759,-5.349187 -2.3139,-15.455899 1.23524,-24.463825 1.66129,-4.216313 3.40723,-9.475298 3.88005,-11.68703 0.47262,-2.211626 2.63359,-6.088528 4.80378,-8.614184 2.62981,-3.06057 3.51527,-4.06528 4.70977,-3.47026 l 2.9847,-9.84324 c -1.0192,-0.61022 -2.0307,-1.34998 -2.8906,-2.14691 -2.95085,-2.73469 -4.31919,-5.95123 -5.00871,-11.77303 l -0.94848,-8.00994 5.37949,0 c 2.8626,0 6.2753,0.86311 9.4603,2.17565 l 19.1315,-63.073 c -2.9095,-1.46473 -6.0438,-3.13504 -8.6409,-4.64204 -4.836,-2.80602 -9.2812,-5.10292 -9.8781,-5.10292 -0.5968,0 -4.9433,-1.88962 -9.661,-4.19953 -11.08657,-5.42869 -14.66633,-11.18462 -15.86807,-25.52097 -1.11126,-13.25487 0.77255,-14.93692 11.03145,-9.84943 3.60072,1.78569 14.67002,6.56398 24.59902,10.61772 7.0499,2.87818 12.9265,5.55707 17.7077,8.06511 l 14.7926,-48.774 c -4.3025,-1.74415 -9.7498,-3.77883 -14.7926,-5.46561 -7.9605,-2.66263 -22.0889,-7.95361 -31.3961,-11.75667 -9.30744,-3.80285 -19.47425,-7.36982 -22.59352,-7.92582 -8.34549,-1.4876 -14.47697,-9.81397 -9.97646,-13.54917 1.72508,-1.43159 5.63883,-0.96579 17.56838,2.09363 8.4411,2.16495 21.3511,4.73885 28.69,5.71964 7.3387,0.98068 17.2284,2.80612 21.9769,4.05605 3.2428,0.85356 10.2601,1.95885 17.7835,2.89265 l 3.2367,-10.671 c -9.8644,-2.77486 -13.5745,-4.73351 -19.072,-10.03791 -4.823,-4.65368 -6.7188,-7.66874 -6.3689,-10.1301 0.4393,-3.09099 1.5522,-3.5592 9.4376,-3.97214 6.7192,-0.35189 10.5778,0.36606 15.5302,2.89255 1.9173,0.97817 3.9115,2.09688 5.9203,3.28996 l 10.6934,-35.25765 c -0.96,-2.48433 -1.0549,-4.61425 -1.0549,-7.96063 0,-4.83263 0.8363,-9.10516 1.9624,-10.02774 0.5183,-0.42468 2.2508,-0.49516 4.6441,-0.31749 l 16.411,-54.10241 c -2.3557,-2.64554 -2.2387,-5.8389 -1.0264,-10.34103 0.976,-3.62433 3.4842,-8.29816 5.5742,-10.38822 0.8752,-0.87528 1.6148,-1.54162 2.3558,-2.03836 l 16.5667,-54.61651 c -4.4817,-3.0576 -4.2332,-7.42068 -0.2193,-18.86514 2.1977,-6.26631 4.2457,-13.68334 4.552,-16.48267 0.4052,-3.70032 1.3492,-5.09067 3.4559,-5.09067 0.9422,0 2.1493,1.15244 3.5071,3.19574 l 43.1057,-142.1226 -5.9409,0 c -4.6321,0 -8.8922,-0.76134 -9.4662,-1.69006 -1.9889,-3.21793 1.1856,-19.56694 6.3935,-32.92437 10.2881,-26.38671 10.9944,-26.80483 20.418,-12.08852 0.7106,1.10986 1.234,1.95632 1.8661,2.95196 l 6.3444,-20.91984 c -34.3775,-8.90759 -41.9818,-10.65989 -44.681,-10.66888 -1.8991,-0.008 -16.7331,3.21538 -32.9653,7.15971 -16.2325,3.9443 -31.9879,7.19503 -35.0098,7.22319 -5.8482,0.0547 -9.1259,-2.99465 -42.0897,-39.13968 -9.9455,-10.9053 -13.0821,-13.34419 -19.6907,-15.30681 -4.3232,-1.28392 -9.6267,-2.3333 -11.7853,-2.3333 -4.1238,0 -57.0946,25.21833 -61.82951,29.43568 -2.46308,2.19383 -2.74156,6.03465 -2.6918,37.13211 0.0442,27.10975 0.54493,35.54171 2.29847,38.60912 3.24219,5.67161 2.73742,14.05039 -1.24552,20.67607 -9.0561,15.06505 -26.98747,43.2178 -29.22058,45.87739 -2.8883,3.43954 -2.3119,3.26633 9.16319,-2.76146 13.30869,-6.99101 19.98962,-9.02371 21.93797,-6.67623 2.68536,3.23581 3.77251,18.48014 1.83141,25.68068 -2.18892,8.11985 -4.30288,9.32877 -28.08979,16.04224 -19.83745,5.59883 -23.1454,5.42379 -21.52622,-1.13285 1.48521,-6.0143 -0.5963,-3.53102 -9.7757,11.65832 -6.38805,10.57058 -8.07391,14.97962 -9.60772,25.11734 -14.80381,97.84001 -12.44852,87.5851 -26.65376,116.04036 -11.4189,22.87407 -16.8183,36.37259 -15.19618,37.99454 0.34806,0.34802 2.66503,-3.49637 5.15008,-8.54443 5.286,-10.73823 9.60106,-12.64338 12.95915,-5.71965 1.21144,2.49766 2.4254,11.70266 2.81676,21.36036 0.85238,21.03363 -1.25941,27.56299 -12.23192,37.82651 -11.72059,10.96321 -12.37318,10.41204 -12.89361,-10.91056 l -0.44248,-18.12157 -10.61152,42.06097 c -5.83565,23.13366 -20.51334,81.14779 -32.61709,128.9197 l -22.00558,86.85664 0.1352,69.730744 c 0.12715,65.171558 0.80004,75.957827 4.1934,67.1147814 0.55241,-1.4394558 5.22852,-6.9094714 10.39232,-12.1540874 5.16388,-5.244615 10.31519,-11.75122 11.44732,-14.46074 2.6092,-6.244704 22.21526,-21.998899 24.51506,-19.698853 1.10068,1.100464 0.20671,8.72788 -2.8229,24.093053 l -4.4331,22.4828624 -14.91757,14.5202106 c -15.89091,15.46859 -19.93023,17.274098 -24.57857,10.988384 -2.53952,-3.433758 -2.5819,-3.33548 -1.57943,3.511269 0.56701,3.873441 5.05686,21.88772 9.97852,40.030799 l 8.94809,32.985817 0,108.31736 0,108.31737 -15.1962,35.57314 -15.19618,35.57115 -2.46441,24.75268 c -2.80231,28.14574 -2.97048,32.5411 -1.21069,31.45343 2.96705,-1.83383 11.30597,8.76595 11.30597,14.37064 0,4.25974 -8.70958,14.43043 -12.38146,14.45875 -1.71793,0.0157 -1.96387,-1.80949 -1.16358,-8.61827 0.55806,-4.74872 0.47068,-8.63265 -0.19256,-8.63265 -1.91153,0 -5.79733,6.82504 -5.36312,9.41929 0.26486,1.58305 -0.0153,1.76188 -0.84811,0.54898 -0.68351,-0.99212 -2.93872,-2.05084 -5.01076,-2.35375 -2.07184,-0.30281 -5.14275,-2.40032 -6.82374,-4.66051 -3.0303,-4.07471 -3.02838,-4.40154 0.19871,-38.55169 3.06159,-32.39751 4.61131,-40.3915 10.22639,-52.73806 1.26786,-2.78797 7.30901,-17.23508 13.42418,-32.10498 l 11.11955,-27.03678 -0.41585,-101.68826 -0.41586,-101.68825 -10.47016,-40.028702 -10.47017,-40.030798 -0.4138,-83.200101 -0.41381,-83.199999 8.05697,-31.39616 c 10.50957,-40.95421 38.28079,-150.74722 53.20917,-210.35583 11.66798,-46.58953 11.9349,-47.38006 24.84896,-73.78082 8.38633,-17.14462 13.43913,-29.494 14.13094,-34.53654 0.59245,-4.31699 2.71465,-18.09026 4.71577,-30.6095 2.00104,-12.51928 4.10671,-26.64747 4.6789,-31.39617 2.01105,-16.69097 5.49924,-33.05575 7.95455,-37.30622 1.36429,-2.36188 6.14655,-10.10331 10.62584,-17.20377 4.47931,-7.10047 13.31255,-21.22871 19.62927,-31.39616 6.31707,-10.16746 14.972,-23.78576 19.23388,-30.26125 12.53234,-19.04113 13.27209,-20.89618 11.14618,-27.99146 -2.56251,-8.55305 -2.5252,-83.37378 0.0451,-89.01381 1.48335,-3.25568 9.89358,-8.12717 39.86488,-23.09747 l 37.98636,-18.97371 13.1148,2.75736 c 16.1934,3.40443 25.1369,7.5001 30.5317,13.98138 17.7043,21.27026 38.5387,42.0019 41.3644,41.16163 14.9001,-4.43113 56.5016,-13.4201 62.1081,-13.4201 3.9774,0 19.3769,3.19201 34.2211,7.09415 5.05,1.32748 10.2263,2.69296 16.1242,4.24461 l 132.8344,-437.95647 z m 912.0966,125.4187 -477.85,315.57577 -141.045,472.90277 c 5.3315,-4.25481 11.6824,-9.13463 19.2277,-14.75369 17.47,-13.01006 32.3034,-24.6156 32.9613,-25.79126 0.6577,-1.17578 2.3509,-9.45506 3.7632,-18.39806 3.0847,-19.53209 4.0922,-22.44959 8.8108,-25.54142 2.0374,-1.3351 17.0642,-4.43039 34.1944,-7.04289 27.8803,-4.25219 30.9891,-4.45808 35.4626,-2.33539 2.6967,1.27971 5.6689,4.00654 6.6045,6.05958 1.5314,3.36075 2.608,3.70688 10.8123,3.45798 7.9672,-0.24165 10.0369,0.36396 16.4601,4.82434 4.0409,2.80602 7.7181,5.10302 8.1717,5.10302 0.4535,0 3.428,-1.76659 6.6087,-3.92504 9.9796,-6.77228 14.7685,-5.41527 29.8392,8.45234 5.2695,4.84888 11.4094,10.05396 13.6455,11.56819 2.236,1.51424 10.1104,10.29887 17.4987,19.52066 l 13.4324,16.76739 0,12.80144 c 0,12.05781 0.2248,12.90224 3.8431,14.55084 7.6098,3.46732 9.2477,8.40557 8.8887,26.77667 l -0.3278,16.81868 10.2776,12.78707 c 11.2294,13.97177 14.0452,19.52307 12.4798,24.60113 -0.9689,3.14291 -7.0878,16.01892 -34.7763,73.18254 -6.4822,13.38261 -16.5479,34.2221 -22.3702,46.309693 -5.8225,12.087484 -17.4555,36.105124 -25.8507,53.373034 -8.3952,17.26791 -19.5344,40.22683 -24.7527,51.019287 -5.2183,10.792457 -15.4727,31.984782 -22.7882,47.094137 -7.3159,15.109461 -18.4305,38.066279 -24.6994,51.017299 -6.2686,12.9509 -17.9301,36.97053 -25.9142,53.37502 -7.984,16.4046 -18.9393,39.00848 -24.3451,50.23264 -37.9402,78.77822 -35.427,74.41443 -46.2973,80.42839 -21.8402,12.08276 -55.2056,28.67363 -57.6627,28.67363 -2.6359,0 -45.222,-12.13993 -52.8323,-15.061 -4.1847,-1.60623 -5.3544,-6.76924 21.895,96.6918 4.6616,17.69962 9.4776,35.71379 10.7017,40.0308 1.2246,4.317 4.4939,16.67866 7.2642,27.47111 9.4844,36.94841 17.2829,66.72041 20.5367,78.39821 4.168,14.95906 5.6183,30.2721 6.959,73.50423 0.9562,30.83859 0.7825,35.41057 -1.473,38.85282 -3.5114,5.35926 -12.3669,5.47841 -15.8169,0.21313 -1.9177,-2.92674 -2.7496,-12.72959 -4.0315,-47.48557 l -1.6163,-43.80009 -7.7641,-29.82497 c -10.7401,-41.26404 -21.4197,-82.09932 -25.8671,-98.89807 -2.0573,-7.77059 -5.4899,-20.84012 -7.6267,-29.04242 -2.1369,-8.20219 -6.1304,-23.39115 -8.8743,-33.7519 -17.6635,-66.69398 -21.9243,-83.65006 -21.9298,-87.27261 0,-4.33316 3.4591,-8.28369 8.649,-9.85761 1.8061,-0.54772 14.9293,2.4967 30.6115,7.10026 44.3542,13.02034 37.9557,13.04855 63.5564,-0.29494 12.0876,-6.3003 23.9244,-12.80113 26.3055,-14.44648 2.6674,-1.84306 6.9754,-8.52167 11.22,-17.39629 3.7892,-7.92288 12.6973,-26.41418 19.7951,-41.09193 7.0979,-14.67775 16.9744,-35.1643 21.9483,-45.52504 4.9738,-10.36075 15.2196,-31.55318 22.7697,-47.09424 31.6727,-65.194112 40.0287,-82.572991 40.0287,-83.25947 0,-0.398672 -0.9996,-0.725182 -2.2206,-0.725182 -2.9969,0 -10.2536,-12.328093 -15.7104,-26.686465 -2.461,-6.475557 -5.0849,-12.4442013 -5.8302,-13.26441 -2.1825,-2.4007361 -1.5575,-11.299581 0.9383,-13.370975 3.4223,-2.840208 13.8938,-3.791 19.9058,-1.806766 6.402,2.112824 8.6618,5.472218 13.3279,19.80741 1.9671,6.043847 3.6097,10.190516 3.6484,9.214447 0.039,-0.975965 8.1567,-18.3930226 18.0417,-38.705459 9.8848,-20.312541 21.1024,-43.531998 24.9289,-51.598992 3.8267,-8.066994 14.015,-29.148768 22.6406,-46.848388 34.7238,-71.25254 42.7743,-88.35326 42.7554,-90.82269 -0.016,-1.41985 -4.0035,-7.52589 -8.8723,-13.56963 -12.3237,-15.29752 -13.4058,-18.44138 -12.1377,-35.24328 l 1.0488,-13.90568 -4.6891,-2.42549 c -8.2441,-4.2632 -10.0625,-8.82689 -9.0054,-22.60168 l 0.9341,-12.16426 -6.6517,-7.61861 -6.6516,-7.6165 -6.0699,20.96073 c -7.0415,24.30923 -9.5623,28.61899 -17.1136,29.2718 -4.3744,0.37822 -6.5289,-0.65019 -11.9308,-5.6908 -9.0115,-8.40882 -9.4479,-11.47033 -3.7078,-25.92038 5.0487,-12.70893 5.7912,-15.954 3.3022,-14.41574 -0.8278,0.51142 -3.0226,5.09337 -4.8776,10.18139 -4.1803,11.46425 -9.1208,16.54483 -14.723,15.13883 -5.1403,-1.2902 -5.369,-7.58504 -0.719,-19.78497 9.9562,-26.12196 10.7466,-28.56801 8.692,-26.86267 -1.1817,0.98069 -3.4036,5.77744 -4.939,10.65862 -1.5354,4.88108 -3.7459,10.6988 -4.9105,12.93046 -1.1645,2.23155 -2.1212,4.84689 -2.1264,5.80963 0,0.96286 -1.4738,3.6106 -3.2633,5.88558 -6.9284,8.80801 -20.2936,2.94341 -18.2916,-8.0263 0.4336,-2.37598 3.6793,-12.44315 7.213,-22.37219 3.534,-9.92914 6.4387,-18.6438 6.455,-19.365 0.016,-0.72119 -5.1465,-0.82629 -11.4719,-0.23358 -11.4455,1.07256 -11.5202,1.05494 -15.5486,-3.73247 -2.2259,-2.64565 -4.3125,-5.60983 -4.6378,-6.58611 -0.7061,-2.11807 -45.4116,4.34889 -47.0164,6.80123 -0.5481,0.83772 -1.7889,7.70325 -2.7574,15.25556 -0.9685,7.55232 -2.5001,15.85416 -3.4047,18.44935 -1.6149,4.63229 -10.6192,12.08602 -42.9193,35.52804 -6.9924,5.0747 -14.5672,10.72512 -16.833,12.55769 -2.266,1.83246 -5.9767,4.66806 -8.2454,6.30134 -2.174,1.5649 -9.9194,11.69679 -17.5336,22.87617 l -32.2217,108.02851 c 1.7071,-2.80749 3.6466,-6.19677 5.525,-9.75115 4.0753,-7.71133 10.4795,-18.72541 14.2333,-24.4761 8.573,-13.13288 11.5653,-18.53283 26.9529,-48.62862 20.195,-39.49892 20.642,-39.99346 35.1429,-38.95529 8.8794,0.63571 9.298,2.78304 3.1179,16.0013 -2.64,5.64644 -4.7998,10.72586 -4.7998,11.28951 0,0.56366 -3.4379,6.77407 -7.641,13.80112 -8.3572,13.97197 -18.5675,32.91984 -27.6105,51.23849 -3.1967,6.47546 -8.7177,17.42356 -12.2688,24.33073 -3.5512,6.90716 -8.6167,16.77694 -11.2567,21.93177 -6.2916,12.28499 -16.9057,19.06387 -32.5987,20.78264 l -38.5149,129.138815 c 7.8422,-8.261977 13.3995,-14.764386 14.5734,-17.367657 1.7096,-3.7912099 4.6019,-6.8749638 7.9217,-8.4502469 5.0398,-2.3916111 5.6567,-2.3021431 17.1587,2.5258651 8.7052,3.6540192 12.5437,6.1923658 14.1945,9.3843618 4.6699,9.030686 2.4396,12.346763 -17.4681,25.975757 -15.8131,10.825811 -35.0595,24.760023 -50.966,36.830936 l -85.7996,287.672459 c 1.278,1.28842 1.8683,2.62897 1.8683,4.18516 0,2.55765 -0.9202,3.70059 -4.6072,4.99855 l -60.1804,201.77239 c 5.8007,11.75447 12.1992,27.81965 12.1992,31.3347 0,5.16217 -4.6968,4.59358 -12.8302,-1.55284 -1.5495,-1.17095 -4.0527,-2.89926 -6.8299,-4.76288 l -25.2176,84.548 c 5.3424,-5.74975 11.3499,-11.18484 14.0858,-12.65807 4.9579,-2.67008 6.3561,-2.7885 12.3057,-1.04068 3.6917,1.08463 11.6578,3.28881 17.7015,4.89818 13.6544,3.63598 19.6232,6.30208 19.6232,8.76574 0,1.84558 -3.8181,5.48219 -23.0176,21.92569 -5.0404,4.317 -16.5822,15.78377 -25.6479,25.48195 -9.0656,9.69819 -17.8932,18.88169 -19.619,20.40768 -1.7258,1.52598 -11.6767,11.42901 -22.1121,22.00561 -0.047,0.0477 -0.092,0.0917 -0.1394,0.13929 l -70.9475,237.8741 458.7431,-285.02163 549.2135,-1807.91327 z M 999.55877,-793.35672 c 2.48813,0.0684 4.80983,1.15079 6.62503,3.39241 1.563,1.93034 2.8433,4.66204 2.8433,6.06986 0,3.36971 -10.86615,19.08636 -13.14343,19.01059 -0.97397,-0.0324 -4.48168,-2.38081 -7.79471,-5.21766 -5.99688,-5.13472 -6.0139,-5.18034 -3.73456,-10.53572 3.45273,-8.11279 9.73058,-12.86998 15.20437,-12.71948 z m -16.81044,29.66103 c 1.19161,0.0273 2.41178,0.29947 3.51532,0.87269 4.29705,2.23192 8.57546,7.33298 9.42535,11.23837 0.38787,1.7834 1.40809,13.13221 2.26575,25.21976 1.43515,20.22636 1.33121,22.29008 -1.29881,25.90193 -1.57171,2.15848 -4.31826,4.14198 -6.10258,4.40849 -2.767,0.41331 -3.49145,-0.73962 -4.93501,-7.84801 -0.93077,-4.5835 -3.12466,-18.22287 -4.87351,-30.31043 -1.74904,-12.08755 -3.56583,-23.21975 -4.03975,-24.73629 -0.84896,-2.71738 2.46838,-4.82831 6.04324,-4.74651 z m 169.42167,10.17517 c 5.1993,-0.0637 14.2096,3.04102 15.0261,5.55364 0.7326,2.25404 -21.6524,12.96735 -27.0942,12.96735 -1.9449,0 -4.4809,-1.13668 -5.6356,-2.52791 -1.8249,-2.19892 -1.1825,-3.32731 4.9105,-8.62852 3.8549,-3.35405 8.7294,-6.56404 10.8327,-7.13307 0.5522,-0.14939 1.2177,-0.22239 1.9605,-0.23149 z m -188.59,11.21994 c 1.11237,-0.0319 2.23083,0.0542 3.22442,0.27246 l 4.68709,1.03042 -1.03247,12.81167 c -0.93094,11.53676 -0.63011,13.8051 3.03801,22.81884 2.24072,5.50503 3.69297,10.62719 3.22648,11.38178 -1.56449,2.53162 -11.08391,1.46297 -13.81136,-1.55076 -3.82862,-4.2306 -5.4316,-11.1218 -6.62708,-28.47696 -1.01464,-14.73525 -0.91864,-15.43079 2.38657,-17.19967 1.21667,-0.65117 3.05438,-1.03461 4.90834,-1.08778 z m 318.5483,6.35052 -4.4679,15.49117 c 1.8526,3.27333 3.589,7.28618 4.7731,11.36129 1.0034,3.45359 2.6508,6.98666 3.6587,7.85006 2.8941,2.47883 4.0151,11.0578 1.8355,14.03875 -2.0274,2.77233 -10.9089,4.18128 -19.0966,3.02982 -0.591,-0.0831 -1.038,-0.1521 -1.5712,-0.22944 l -1.6819,5.83018 c 2.4674,0.63624 4.8459,1.57751 6.7622,2.83315 2.6841,1.75852 3.5543,3.82578 3.5543,8.42981 0,5.62183 -0.3367,6.093 -4.3163,6.03504 -2.3742,-0.0345 -6.4378,-1.17924 -9.028,-2.54225 -0.3491,-0.18373 -0.702,-0.38257 -1.0571,-0.59613 l -7.5836,26.28501 c 2.3158,1.94067 4.3855,4.03347 5.5802,5.85681 2.6163,3.99308 1.9645,7.34699 -1.348,6.93026 -1.0285,-0.12934 -3.9897,-0.50027 -6.5799,-0.82351 -0.4021,-0.0501 -0.6882,-0.0899 -1.0632,-0.13725 l -31.2733,108.40133 c 0.1505,0.22089 0.2931,0.41623 0.4486,0.65144 9.562,14.46046 9.5744,14.5291 6.5575,33.45086 -1.8225,11.42927 -3.4778,17.4204 -4.9739,17.99455 -1.3536,0.51939 -5.673,-2.54128 -10.8922,-7.71899 -1.1848,-1.17544 -2.1578,-2.17977 -3.0421,-3.11791 l -13.9978,48.52622 c 0.5498,0.21124 1.1532,0.49852 1.8294,0.86038 2.3285,1.24615 6.038,4.74536 8.2433,7.77625 10.2303,14.05934 15.1301,20.16602 22.0405,27.46503 4.0994,4.33012 11.831,14.29419 17.1812,22.14281 10.995,16.12916 12.0005,20.98591 5.74,27.73742 -4.3055,4.64341 -4.6416,4.74515 -9.3557,2.82091 -4.7095,-1.92246 -14.8414,-11.79066 -28.184,-27.45067 -6.5691,-7.70996 -13.9674,-15.24833 -16.4417,-16.75312 -5.7375,-3.48914 -7.9331,-9.67144 -7.5223,-22.17763 l -11.9492,41.41771 c 1.6618,0.57918 3.0291,1.35187 3.7959,2.27592 1,1.20472 2.4707,2.19201 3.2695,2.19201 0.799,0 3.0089,1.6057 4.9105,3.56854 1.9014,1.96273 10.0472,9.5291 18.101,16.81459 8.0538,7.28538 15.3335,14.5371 16.1774,16.11385 4.6475,8.68404 -6.6144,14.30981 -21.4033,10.69344 -2.5902,-0.6333 -7.5347,-2.5825 -10.9884,-4.33263 -3.4535,-1.75002 -10.1649,-4.43563 -14.9136,-5.96749 -3.8229,-1.23314 -7.0821,-2.40692 -9.8473,-3.57472 l -13.2542,45.94091 c 19.8125,6.71051 29.3824,11.08677 29.3824,13.47544 0,0.88136 -2.216,2.80455 -4.9247,4.27526 -2.7085,1.47082 -8.0478,4.99646 -11.8631,7.83373 -8.3608,6.21764 -13.3553,7.25948 -21.2333,4.35728 l -37.6525,130.51754 c 7.1353,-10.05133 21.7214,-27.58597 33.9651,-40.35039 7.8678,-8.20229 19.4086,-20.56395 25.6459,-27.47111 10.9612,-12.1393 11.4197,-12.45406 13.7744,-9.41929 3.335,4.29854 1.6995,32.24249 -2.6898,45.95528 -2.7103,8.46724 -3.9001,10.16063 -8.4749,12.07207 -6.8873,2.87765 -18.0963,14.45256 -21.6695,22.37638 -5.2985,11.75017 -23.7037,16.51326 -38.267,9.90271 -2.0925,-0.94974 -3.9104,-2.12216 -5.1255,-3.21622 l -3.8657,13.397508 c 0.9245,-0.0065 1.8161,-0.01657 2.8005,-0.01636 18.2659,0.0025 21.2014,0.375492 24.8653,3.140497 4.2466,3.204687 10.6719,12.268413 24.4945,34.557007 14.1003,22.736037 14.3305,23.413181 12.8138,37.65041 -2.4753,23.233512 -5.9226,47.053546 -7.6084,52.578207 -0.9201,3.016208 -1.6715,8.051471 -1.6715,11.189241 0,6.81864 -2.5464,9.389082 -7.4568,7.528404 -1.9426,-0.736195 -3.5338,-2.487267 -3.5338,-3.890223 0,-2.770354 -7.6756,-25.604355 -9.4664,-28.161476 -1.0952,-1.563851 -14.8454,-27.455384 -22.5095,-42.384546 -3.824,-7.4489 -11.1596,-23.364619 -16.2614,-35.284391 -0.906,-2.116914 -2.7426,-5.467393 -4.64,-8.566985 l -29.112,100.911783 c 3.2403,11.135434 10.9081,34.078307 12.5822,37.281631 0.8588,1.643145 3.2028,6.417137 5.2075,10.611529 3.5621,7.451732 3.5779,7.677237 0.6575,9.812614 -3.3664,2.46125 -13.8549,2.73941 -19.408,0.51415 -3.7414,-1.499138 -9.5213,-7.438413 -9.6159,-9.88016 -0.011,-0.283297 -0.8302,-2.260503 -1.9625,-4.879612 L 1007.1548,217.2098 c 2.0441,0.68166 4.5741,1.668 7.0736,2.80654 4.4774,2.03972 9.6369,4.17593 11.4659,4.74861 7.4229,2.32438 8.3493,5.29958 8.6366,27.72715 0.2191,17.14781 -0.2892,22.73509 -2.7061,29.74703 l -2.9745,8.63475 -7.85,0.23148 c -4.317,0.12712 -11.7001,-0.3434 -16.4069,-1.04477 -10.98095,-1.63654 -13.18807,-4.40626 -11.99226,-15.04055 0.49495,-4.40207 1.96451,-11.02394 3.26741,-14.71677 0.77301,-2.19096 1.38585,-5.52802 1.79659,-9.5012 l -22.27393,77.20796 c -0.99136,8.81315 -2.23348,17.47579 -3.4805,23.30022 l -2.85569,13.34433 -4.2446,0.0328 -17.11568,59.32815 c 10.75959,0.26316 13.21055,1.67996 14.70657,4.96363 2.53221,5.5578 0.19631,17.76727 -4.2487,22.21255 -3.06065,3.06047 -5.35407,3.72932 -12.82395,3.74264 -1.60566,0.003 -3.97712,0.0928 -6.61478,0.21513 l -24.12789,83.63632 c -0.65454,5.2701 -1.1185,11.18305 -1.1185,14.93199 0,10.34019 -1.03579,14.2882 -3.6997,14.10014 -0.32217,-0.0226 -1.55284,-0.66476 -3.1138,-1.54046 L 779.38621,1006.7414 1211.7215,738.12874 c -0.1843,-0.15177 -0.3789,-0.30281 -0.5531,-0.45479 -2.8217,-2.46136 -6.7208,-4.97181 -8.6634,-5.57826 -1.9426,-0.60624 -3.5317,-2.36591 -3.5317,-3.91067 0,-2.415 2.0171,-2.96031 14.389,-3.89432 10.2607,-0.77448 14.9855,-0.80982 17.3247,2.05472 l 7.4424,-4.62359 11.3797,-38.78737 c -2.4764,2.26575 -4.2852,3.75534 -4.98,4.00696 -0.7218,0.26138 -1.8843,-0.4444 -2.5833,-1.5692 -0.6987,-1.12469 -1.5546,-11.07418 -1.901,-22.10798 -0.6061,-19.29567 -0.4932,-20.17713 2.9376,-23.15275 2.4487,-2.12363 5.8561,-3.09539 10.8697,-3.09539 2.3913,0 5.4971,0.44629 8.7903,1.15332 l 37.5173,-127.87284 c -13.7877,-27.05598 -17.9864,-36.30703 -17.9864,-38.83237 0,-5.81855 4.2882,-7.1269 23.3576,-7.1269 3.0983,0 5.7349,0.0367 8.0734,0.13719 l 25.4247,-86.66616 c -7.724,1.71163 -16.2371,3.32898 -18.5948,3.32898 -1.925,0 -4.6106,-1.1097 -5.9674,-2.4665 -1.9852,-1.98518 -2.4665,-6.38368 -2.4665,-22.51977 0,-26.3008 -0.059,-26.23566 23.2614,-25.52705 8.0015,0.24312 15.1546,0.70987 17.2877,1.10413 l 2.8659,-9.76751 c -9.0911,-2.3012 -15.1593,-7.5284 -15.1593,-13.83792 0,-6.55307 3.3011,-7.51907 16.7859,-4.90636 1.0911,0.21145 2.3911,0.50691 3.6423,0.78255 l 15.1736,-51.71573 c -6.2601,5.79831 -13.1444,11.78164 -17.5478,15.02818 -3.4536,2.54621 -7.6927,5.97756 -9.4193,7.62469 -1.727,1.64744 -6.2793,5.02393 -10.1179,7.50386 -7.3532,4.75091 -16.0316,5.77827 -23.5194,2.78608 -2.0964,-0.83762 -11.4594,-1.96032 -20.8072,-2.49513 -18.922,-1.08274 -22.2435,-2.69169 -18.0047,-8.72484 4.3927,-6.25225 6.219,-8.02913 23.7857,-23.14048 20.2029,-17.3794 23.7954,-20.58325 50.0073,-44.57855 20.8129,-19.05265 25.9498,-22.94591 30.2695,-22.94591 2.0397,0 3.7407,0.53041 3.7816,1.17797 0.5737,9.08796 1.7355,16.6064 3.9558,25.55359 l 12.1294,-41.34187 c -2.0093,-0.30375 -4.1796,-1.20556 -6.9691,-2.67952 -4.4094,-2.32952 -6.3013,-4.72155 -8.2413,-10.41477 -1.3851,-4.06464 -2.5177,-8.39339 -2.5177,-9.62004 0,-1.22664 -0.9884,-4.45734 -2.1961,-7.17819 -2.0674,-4.65631 -7.2232,-24.2638 -7.2232,-27.47111 0,-2.91153 4.9865,-3.2758 15.3518,-1.1226 5.8024,1.20514 13.3555,2.62498 16.7839,3.15476 4.8341,0.74711 8.0118,1.80226 10.1547,3.72021 l 3.8513,-13.12922 c -1.2035,-0.18533 -2.2652,-0.37098 -2.9725,-0.54698 -4.3169,-1.07414 -15.8669,-2.1854 -25.6664,-2.47048 -9.7998,-0.28498 -18.5469,-1.2471 -19.4387,-2.13873 -2.5733,-2.57317 -0.2808,-6.07626 4.558,-6.96506 6.1852,-1.13592 21.6624,-6.416826 42.9029,-14.638946 3.7271,-1.442812 6.7589,-2.557541 9.4991,-3.51536 l 62.5998,-213.365224 c -6.9664,-1.80289 -12.8033,-3.29888 -14.8008,-3.77548 -3.4536,-0.82398 -7.8449,-2.51842 -9.7572,-3.7652 -6.2857,-4.09821 -4.8694,1.13298 -21.8458,-80.75814 -37.5942,-181.35097 -35.2737,-169.44861 -33.6414,-172.49859 3.0708,-5.73821 4.0049,-6.33889 54.4199,-35.01599 l 22.1428,-12.5966 4.0152,-10.42714 c 4.347,-11.28909 13.5734,-36.21813 30.2919,-81.85408 5.8517,-15.97284 11.9308,-30.72601 13.5103,-32.78508 2.1253,-2.77138 2.8634,-6.44158 2.8393,-14.12888 l -0.035,-10.38412 -9.7777,-6.41608 c -7.4166,-4.86585 -11.8714,-6.63013 -18.4411,-7.30515 -6.0078,-0.61731 -17.0716,-4.59447 -36.1058,-12.97964 -15.0941,-6.64931 -29.6686,-13.44116 -32.3876,-15.09376 -5.7974,-3.52366 -7.6489,-7.81376 -14.7558,-34.18219 l -5.2443,-19.46127 -9.0177,-5.82814 c -6.9201,-4.47279 -14.2454,-7.15531 -31.4842,-11.52927 -17.5449,-4.45159 -55.6801,-14.33459 -98.6441,-25.51475 z m -182.3276,8.19013 c 4.1506,0.0312 7.4304,0.79849 7.7578,2.39065 0.9412,4.57504 -6.199,10.68266 -15.3313,13.11281 -4.7487,1.26369 -10.2157,2.74709 -12.148,3.29818 -2.5263,0.72053 -3.8114,0.22241 -4.5784,-1.7761 -1.4704,-3.83198 2.4283,-10.18724 8.3846,-13.66592 3.8005,-2.21954 10.5789,-3.39965 15.9153,-3.35962 z m 220.3692,13.94245 c 3.1269,-0.0659 10.0613,0.14095 17.9023,0.56131 l 19.0086,1.02019 8.8088,10.98844 c 5.7148,7.12933 9.4785,13.60333 10.718,18.4329 1.2003,4.67441 2.9698,7.77932 4.7547,8.34582 3.0359,0.96354 5.2996,7.12637 3.9292,10.69755 -0.8452,2.20292 -8.2031,3.97034 -12.2095,2.93353 -4.8562,-1.25664 -17.1279,-7.26824 -17.1279,-8.39088 0,-0.65763 -1.3913,-1.63738 -3.0934,-2.17762 -3.7224,-1.18148 -19.9909,-17.28903 -21.1697,-20.96081 -0.4595,-1.43064 -2.9736,-4.01531 -5.5885,-5.7421 -4.2031,-2.77544 -9.6046,-13.70784 -7.6821,-15.54853 0.088,-0.0847 0.7073,-0.13785 1.7495,-0.1598 z m -244.8514,13.30537 c 2.9372,-0.028 4.3491,1.31274 4.3491,4.03566 0,4.7883 -4.8857,14.77327 -9.7901,20.00619 -3.3577,3.58235 -19.1559,10.54391 -23.9271,10.54391 -1.212,0 -2.6547,-0.73342 -3.2081,-1.6286 -2.8702,-4.64406 13.789,-26.76623 22.9028,-30.41285 4.1815,-1.67312 7.3887,-2.52253 9.6734,-2.54431 z m 40.0205,0.80509 c 0.3063,0.0251 0.5997,0.0808 0.8809,0.17003 4.3319,1.37491 18.8086,10.70473 21.3377,13.75195 1.1132,1.34127 1.5913,3.80165 1.0632,5.46554 -1.1651,3.67126 -22.2084,22.24116 -25.2033,22.24116 -1.1736,0 -4.6283,-5.18651 -7.678,-11.52721 -4.8989,-10.18506 -5.3641,-12.18752 -3.9886,-17.16894 1.8467,-6.68821 8.9946,-13.30784 13.5881,-12.93253 z m -108.5345,8.67562 c 2.3595,0.0172 4.1787,0.73487 4.7936,2.33741 0.4961,1.29292 -2.0679,8.18163 -5.697,15.3068 -7.44961,14.62663 -16.32496,23.72165 -25.91628,26.55951 -3.45353,1.02186 -7.06785,2.45036 -8.03238,3.17323 -1.03542,0.77573 -2.54186,0.36567 -3.67511,-0.9997 -3.08496,-3.71733 0.59143,-11.94804 10.75286,-24.08077 4.98098,-5.9468 10.10731,-12.31634 11.39405,-14.15346 3.37807,-4.82277 11.18936,-8.18091 16.38026,-8.14302 z m -28.87437,7.83573 c 4.08237,0 3.49733,3.91978 -1.02838,6.88519 -4.82206,3.15952 -5.41074,3.15464 -6.63937,-0.0471 -1.12849,-2.94115 3.2405,-6.83808 7.66775,-6.83808 z m 315.71717,12.21553 c 1.4895,-0.0373 3.036,0.17951 4.5458,0.69036 4.6839,1.58498 5.6407,3.56149 6.6126,13.65158 1.1123,11.54912 -1.306,13.43504 -11.058,8.62442 -6.1635,-3.04056 -10.8254,-11.28727 -9.4582,-16.73465 0.9307,-3.70843 4.8893,-6.1196 9.3578,-6.23171 z m -201.9281,6.87291 c 0.522,-0.0114 1.0004,-7.9e-4 1.4319,0.0348 5.7733,0.47645 6.1202,0.81632 7.3891,7.27443 1.7369,8.83879 -1.2767,13.6712 -9.9907,16.01764 -3.5176,0.94717 -11.731,4.15283 -18.2527,7.12488 -13.6058,6.2003 -12.533,5.91842 -13.9219,3.67101 -0.5894,-0.95351 -1.4255,-6.14256 -1.8581,-11.52927 -0.7552,-9.40962 -0.609,-9.91436 3.7263,-12.86698 6.3131,-4.29978 23.645,-9.55569 31.4761,-9.72653 z m 231.3269,1.50774 c 1.0266,0.0204 1.9304,0.78017 3.1138,2.20629 1.455,1.75302 1.6743,5.42837 0.8154,13.73555 -0.6452,6.2383 -1.4471,18.73338 -1.7824,27.76612 -0.7044,18.98478 -2.2672,24.80101 -8.4317,31.40026 -3.9176,4.19398 -5.4556,4.75216 -12.8466,4.66456 -4.6181,-0.0547 -9.9465,-0.72297 -11.8386,-1.48521 -1.8922,-0.76223 -4.6519,-3.23546 -6.1333,-5.49627 -3.278,-5.00289 -3.4149,-17.49248 -0.2274,-20.68016 1.9521,-1.95189 3.5112,-1.56194 11.814,2.94582 6.4478,3.50073 10.0889,4.67638 11.1687,3.60955 0.8813,-0.87047 2.0197,-10.40692 2.532,-21.1923 1.2417,-26.13559 1.8148,-29.14455 6.4079,-33.73765 2.5683,-2.56835 4.0883,-3.76284 5.4082,-3.73656 z m 43.4416,17.25087 c 3.1846,-0.13888 6.851,1.39031 11.2097,4.5478 8.5752,6.21197 8.5296,10.31027 -0.3523,32.37946 -3.7762,9.38284 -7.3916,18.8269 -8.0345,20.98539 -2.8257,9.48797 -8.8707,11.66226 -17.6093,6.33414 -2.7715,-1.68986 -6.9407,-5.94398 -9.2635,-9.45408 -3.9613,-5.9858 -4.1017,-6.79384 -2.272,-13.01242 1.0729,-3.64662 4.4408,-11.22297 7.4834,-16.83503 3.0425,-5.61209 6.8679,-12.83094 8.5016,-16.04224 2.9443,-5.78761 6.2426,-8.72446 10.3369,-8.90302 z m -74.7414,5.23407 c 1.0269,-0.002 2.3657,0.52739 4.1544,1.45242 5.9032,3.05257 8.7993,9.81529 7.3994,17.27752 -1.296,6.90808 -4.6807,7.439 -11.3961,1.78839 -4.227,-3.55657 -4.5691,-4.56944 -3.8534,-11.38178 0.6895,-6.5624 1.4363,-9.1327 3.6957,-9.13655 z m -282.5819,0.46911 c 5.1173,-0.27601 6.1416,3.45365 6.1416,13.21933 0,10.32206 -0.1017,10.57603 -6.3792,15.95005 -3.509,3.00345 -8.7838,5.90999 -11.72178,6.46114 -2.93775,0.55115 -8.36802,2.73252 -12.06603,4.84688 -8.58855,4.91023 -9.55114,4.8552 -14.33784,-0.83376 -2.26087,-2.68662 -4.42438,-7.75618 -5.02715,-11.77714 -1.47301,-9.822 1.39299,-13.58253 13.70073,-17.97607 5.46126,-1.94947 14.40907,-5.20048 19.88528,-7.22321 4.30529,-1.59019 7.47839,-2.54176 9.80439,-2.66722 z m 101.7231,2.46441 c 2.0864,0.0189 4.0001,0.71673 7.508,2.10797 4.0176,1.59354 9.9525,5.37492 13.1864,8.40318 4.7225,4.42184 5.721,6.33401 5.0743,9.71629 -1.2077,6.31688 -5.1586,8.94629 -17.2323,11.46371 -6.014,1.2539 -13.5115,3.35676 -16.661,4.67275 -7.1649,2.99362 -6.4239,3.07729 -11.5374,-1.32131 -3.7038,-3.18577 -4.4101,-5.15743 -4.9657,-13.88306 -0.5986,-9.40026 -0.3443,-10.40685 3.3432,-13.30741 2.1941,-1.72591 7.9255,-4.376 12.7379,-5.8896 4.2011,-1.32143 6.4601,-1.98141 8.5466,-1.96252 z m 335.0739,5.8814 c 0.9367,0.0383 1.9336,0.5149 3.0709,1.42375 1.0429,0.83336 4.3692,3.51024 7.3911,5.94901 3.022,2.43877 7.4914,5.29944 9.9334,6.35667 2.4424,1.05723 4.1544,2.79467 3.8042,3.86152 -0.9489,2.8912 -9.7468,3.2882 -12.025,0.54287 -1.0689,-1.28787 -2.8377,-1.99704 -3.9312,-1.57739 -1.0937,0.41963 -4.5791,-2.19305 -7.7456,-5.80561 -4.4848,-5.11631 -5.3662,-7.03969 -3.9844,-8.70431 1.1775,-1.41886 2.2824,-2.09571 3.4866,-2.04651 z m -373.3491,17.94535 c 2.9756,-0.0892 4.0255,0.50029 5.0947,1.92564 2.0329,2.71041 2.811,27.7998 1.0079,32.49828 -1.2323,3.21209 -2.7672,3.01745 -13.1742,-1.66138 -4.7487,-2.13491 -9.6935,-4.5655 -10.9885,-5.40205 -1.295,-0.8365 -5.3531,-2.94659 -9.0157,-4.68913 -6.519,-3.10186 -9.6217,-8.1927 -7.8336,-12.85263 1.078,-2.80913 14.1677,-7.14398 27.0532,-8.96038 3.5925,-0.50642 6.0708,-0.80485 7.8562,-0.85835 z m 54.176,15.77592 c 0.2782,0.0172 0.5062,0.0585 0.674,0.12291 3.446,1.32233 3.096,13.35487 -0.7006,24.14837 -1.6705,4.7487 -3.0591,9.74681 -3.0871,11.10727 -0.081,3.89612 -6.3243,8.61465 -16.2,12.24217 -10.1754,3.73756 -10.5309,3.79016 -13.3136,2.02396 -3.0537,-1.93838 -5.0743,-10.90612 -5.0743,-22.53 0,-12.31252 3.4508,-17.8198 12.5597,-20.05331 3.0219,-0.74097 9.5169,-2.81629 14.4341,-4.6113 4.3027,-1.57064 8.7611,-2.57015 10.7078,-2.45007 z m -124.0399,3.07693 c 4.4775,0 8.4868,6.92937 18.1665,31.39616 8.1846,20.68735 8.0952,19.15887 1.2148,21.06938 -10.6907,2.9685 -21.8075,2.15667 -26.56761,-1.93793 -3.64479,-3.13515 -4.21139,-4.79461 -4.14227,-12.16432 0.0472,-4.79911 1.61462,-12.62666 3.58301,-17.88184 1.9254,-5.14043 3.57253,-11.85162 3.66074,-14.91348 0.13949,-4.84891 0.66655,-5.56797 4.08483,-5.56797 z m 469.6948,2.35584 c 15.4664,0 24.2569,2.89569 22.5217,7.41782 -0.5267,1.37274 -2.7153,8.74493 -4.8632,16.38434 -2.1479,7.63945 -5.2813,17.38207 -6.9631,21.64914 -1.6821,4.26707 -3.5116,11.15038 -4.0663,15.29655 -0.5549,4.14619 -1.3288,8.06906 -1.7188,8.71661 -0.9838,1.63359 -5.6872,1.19966 -19.1827,-1.76791 -15.6076,-3.43207 -17.0979,-5.66165 -12.8546,-19.22159 1.7241,-5.50835 4.2398,-17.39647 5.5905,-26.41817 3.2234,-21.52974 3.7393,-22.05679 21.5365,-22.05679 z m -490.61262,5.11729 c 2.75482,-0.11433 4.38061,0.82704 5.6192,2.79423 1.1076,1.75905 0.43129,4.02511 -2.48287,8.31918 -2.20262,3.24569 -4.83837,8.51428 -5.85681,11.70954 -1.99086,6.24714 -3.68812,10.38771 -9.7921,23.86362 -5.39258,11.90531 -12.09467,33.72605 -12.09467,39.37732 0,9.36206 -7.31305,20.27455 -13.58602,20.27455 -1.04444,0 -3.4215,-2.13972 -5.28323,-4.75469 -5.12627,-7.19898 -6.56691,-14.24248 -4.69528,-22.97455 2.03663,-9.50289 9.10819,-32.65145 11.982,-39.22368 1.18948,-2.72067 2.16327,-5.83951 2.16327,-6.93026 0,-1.09076 2.41924,-7.08344 5.37746,-13.31561 l 5.37951,-11.33056 10.87782,-4.26714 c 5.75358,-2.25738 9.6369,-3.42762 12.39172,-3.54195 z m 433.00922,4.30197 c 3.8199,0 11.6805,13.17226 17.3267,29.04031 2.4803,6.97063 3.0477,22.8737 0.8993,25.19518 -0.7592,0.82023 -2.2652,4.31863 -3.3453,7.77222 -2.0348,6.50559 -4.2754,10.20386 -6.1825,10.20386 -0.6072,0 -2.5883,-1.59114 -4.4023,-3.53376 -4.9278,-5.27742 -20.7997,-39.30117 -20.7683,-44.51921 0.031,-4.89138 13.1666,-24.1586 16.4724,-24.1586 z m -83.2471,1.56919 c 3.204,0 17.9787,11.00323 28.6326,21.32341 11.5844,11.22157 12.3888,14.95096 4.7568,22.05679 -11.04,10.27895 -28.2591,20.9813 -33.7541,20.9813 -1.598,0 -7.2612,-2.83081 -12.5863,-6.29111 -12.4169,-8.06817 -13.5688,-10.33108 -12.3835,-24.35322 1.5734,-18.60913 3.5516,-22.59909 14.1514,-28.55277 5.0568,-2.84012 10.0895,-5.1644 11.1831,-5.1644 z m 56.4807,31.85503 c 2.7562,-0.0124 6.6903,5.54029 10.4353,15.89679 1.7967,4.9693 1.7653,6.00152 -0.215,7.25393 -1.2697,0.80298 -2.6617,1.36373 -3.0934,1.24758 -0.4317,-0.11617 -2.7268,-0.50502 -5.0989,-0.8645 -5.0679,-0.76795 -6.3081,-4.19512 -5.5946,-15.44815 0.3465,-5.46315 1.6808,-8.0772 3.5666,-8.08565 z m -499.43774,8.98702 c 5.64712,0.0458 27.53462,14.96035 28.68591,19.5473 1.39718,5.56654 -0.38963,11.44146 -4.83049,15.88245 -4.01325,4.01328 -5.37619,4.26938 -12.02912,2.25956 -13.62335,-4.11564 -19.51218,-12.62127 -18.11536,-26.15595 1.04143,-10.09032 1.84669,-11.56934 6.28906,-11.53336 z m 190.65284,4.91857 c 2.7274,-0.0393 3.5115,0.85217 4.7957,3.67101 1.5837,3.47583 1.1956,7.76602 -2.3231,25.64382 -2.3241,11.80777 -5.3328,22.77498 -6.6844,24.37166 -3.9128,4.62262 -20.6152,16.7183 -23.0852,16.7183 -1.2366,0 -2.5329,-0.88335 -2.8803,-1.96253 -2.4089,-7.48142 -4.3096,-22.06069 -5.0926,-39.05779 l -0.9137,-19.83001 4.0664,-2.66312 c 3.761,-2.46427 12.8725,-4.55815 28.651,-6.57996 1.4316,-0.18343 2.5572,-0.29828 3.4662,-0.31138 z m 168.2602,8.68177 c 4.2582,0.0141 9.8569,0.10836 17.2959,0.23765 l 30.0318,0.52237 13.6639,7.93406 c 18.6122,10.80865 19.0072,11.24134 13.4529,14.73116 -2.4741,1.55455 -7.1652,4.87687 -10.4252,7.38299 -8.9628,6.8903 -29.0144,16.79889 -33.795,16.69981 -2.3279,-0.0482 -7.0576,-1.29347 -10.5111,-2.76554 -14.6916,-6.26209 -18.604,-9.24885 -29.4787,-22.51977 -8.1655,-9.9649 -9.5508,-14.39643 -5.906,-18.88972 2.1807,-2.68837 2.8965,-3.37513 15.6715,-3.33301 z m -268.57791,2.11412 c 1.85409,0.0462 3.75197,0.91742 5.44301,2.78603 2.17151,2.39933 2.3881,5.06378 1.4217,17.53359 -0.627,8.08743 -1.88737,14.9514 -2.80038,15.25353 -0.91318,0.30216 -3.16282,-1.0542 -4.99847,-3.01342 -5.39903,-5.76299 -8.23518,-12.52182 -8.24544,-19.65179 -0.0114,-7.75897 4.44136,-13.02618 9.17958,-12.90794 z m 502.57811,17.86749 c 1.6667,-0.12866 4.0653,0.44573 8.1758,1.79864 4.5642,1.5022 8.812,3.50982 9.4397,4.46174 1.6039,2.43176 -0.1266,7.37427 -4.0684,11.61941 -1.8436,1.98512 -5.4708,7.99052 -8.061,13.3443 -4.5794,9.46531 -4.8931,9.74714 -11.3736,10.21619 -5.8562,0.42384 -6.8868,-0.008 -8.4995,-3.54609 l 0,0 c -1.3594,-2.98378 -1.3815,-4.94032 -0.088,-7.54689 2.836,-5.71746 9.7594,-24.03485 9.7594,-25.81999 0,-0.90576 1.0346,-2.5033 2.2984,-3.5522 0.6829,-0.56679 1.4194,-0.8979 2.4193,-0.97511 z m -595.17075,10.26941 c 3.74789,-0.0406 9.65488,1.75899 14.57342,4.78543 4.20956,2.59019 8.25512,4.70962 8.98906,4.70962 0.73385,0 3.17708,1.44924 5.42867,3.22034 6.66451,5.24228 10.66396,21.4849 10.11986,41.08988 l -0.44658,16.12832 -10.98845,5.71755 c -12.17233,6.33449 -26.9431,9.37733 -28.20451,5.80964 -1.04656,-2.96083 -3.83295,-78.77035 -2.94787,-80.20707 0.51577,-0.83724 1.77281,-1.23525 3.4764,-1.25371 z m 81.80085,6.35667 c 0.84583,0 2.96671,2.79671 4.71168,6.21736 1.74523,3.42065 4.4683,7.48408 6.05347,9.02798 4.29299,4.18212 7.94953,14.75925 6.46525,18.70328 -1.16772,3.10378 -9.24316,10.00518 -11.70749,10.00518 -0.59969,0 -3.31628,1.00921 -6.03709,2.2432 -9.8443,4.46468 -29.56389,11.88568 -31.58462,11.88568 -1.13759,0 -2.49759,-1.11714 -3.02162,-2.48286 -0.52431,-1.36572 -0.95259,-9.43209 -0.95259,-17.92481 0,-8.49273 0.42828,-16.5592 0.95259,-17.92492 0.99157,-2.58442 8.46667,-3.53938 8.46667,-1.08161 0,2.36919 4.53264,3.29775 8.58345,1.75771 2.11566,-0.80448 5.31663,-4.34639 7.11463,-7.8706 3.50982,-6.87967 8.46289,-12.55559 10.95567,-12.55559 z m 363.3543,0.26836 c 3.28,-0.03 9.7157,2.74809 14.2825,6.34028 6.0565,4.764 4.6616,16.18608 -4.2712,34.99141 -9.8346,20.70345 -14.1136,21.89045 -16.8884,4.68914 -1.6235,-10.06497 -1.5031,-14.22601 0.8236,-28.40326 1.716,-10.45777 3.5148,-16.91271 4.8551,-17.42705 0.3251,-0.12478 0.7298,-0.18624 1.1984,-0.19052 z m 55.0323,9.38443 c 0.9091,-0.0277 1.847,-1.2e-4 2.8352,0.0717 5.7062,0.41464 6.6462,1.00347 7.045,4.41669 0.6251,5.34974 -11.9337,18.04588 -28.5712,28.88669 -14.8139,9.65255 -17.6732,10.88496 -19.2871,8.31305 -3.1078,-4.95177 5.1309,-19.35818 17.2529,-30.17319 9.5017,-8.47728 14.3622,-11.32141 20.7252,-11.51494 z m 22.0998,9.18367 c 2.3827,0 39.3412,11.42552 40.4488,12.50437 2.6579,2.58954 0.07,7.11788 -6.0473,10.58279 -7.7923,4.41329 -11.2956,4.36431 -25.1051,-0.35021 -6.0435,-2.06342 -12.2467,-3.78429 -13.7848,-3.82467 -4.6564,-0.1223 -4.8118,-4.3621 -0.4363,-11.82841 2.2832,-3.89589 4.4995,-7.08387 4.9247,-7.08387 z m -132.2465,5.51058 c 3.9123,0.20652 9.5567,2.68392 17.7139,6.8115 15.9045,8.0477 21.0869,13.04552 23.4232,22.58322 0.8884,3.62738 0.4317,4.52888 -2.9479,5.81383 -2.2003,0.83647 -8.1015,4.29351 -13.1149,7.68207 -18.3392,12.39616 -22.8087,13.5112 -29.8289,7.44648 -4.3951,-3.79687 -4.4033,-3.84522 -4.1504,-22.37019 0.2795,-20.47879 1.4362,-28.36118 8.905,-27.96691 z m -204.7613,2.28011 c 0.546,-0.0392 0.9392,0.0528 1.1965,0.26631 1.0551,0.87569 1.6401,2.42339 1.3008,3.43953 -0.3389,1.01613 -1.3433,9.42841 -2.231,18.69509 -1.847,19.27333 -3.5598,23.18138 -10.1628,23.18138 -3.554,0 -6.8708,-2.27791 -14.6615,-10.06864 -13.6398,-13.63979 -13.3761,-14.60915 7.4014,-27.02241 9.5498,-5.70549 14.7911,-8.32155 17.1566,-8.49126 z m -37.9945,3.92505 c 0.2484,-0.003 0.4304,0.0277 0.5347,0.0921 5.5112,3.40628 -3.8071,13.72549 -20.3606,22.5485 -10.0204,5.34079 -10.0921,5.36418 -11.6133,3.84313 -0.5755,-0.57562 -1.0467,-3.64584 -1.0467,-6.82179 0,-5.60983 3.6235,-10.96992 7.4157,-10.96992 0.9209,0 6.7177,-2.14618 12.8813,-4.76907 5.3933,-2.29501 10.4502,-3.90239 12.1889,-3.92294 z m -111.53766,47.84596 15.48707,5.24021 c 8.51748,2.88216 15.72707,5.96235 16.02175,6.84633 0.29466,0.88398 -2.01206,4.02269 -5.12549,6.97324 -3.11351,2.95055 -9.43632,11.13218 -14.05103,18.18304 -9.11868,13.9317 -19.30118,23.05741 -34.01422,30.48449 -10.05421,5.07544 -9.78469,4.99174 -11.24656,3.52963 -0.57573,-0.57551 -1.09583,-7.81716 -1.15743,-16.09141 -0.0611,-8.27414 -0.64985,-20.69495 -1.30698,-27.60222 -0.6574,-6.90716 -0.93524,-13.31234 -0.61661,-14.23335 0.3188,-0.9209 8.55271,-4.29623 18.29564,-7.50176 l 17.71386,-5.8282 z m 429.52046,7.99756 c 1.3198,-0.0131 3.1339,1.12773 5.6049,2.88646 4.0167,2.86024 4.6243,4.38644 5.2239,13.09848 0.3732,5.42313 0.2965,18.68303 -0.1721,29.46636 -0.9228,21.23166 -1.5591,22.46512 -9.4869,18.41453 l -3.925,-2.00553 -0.4262,-30.21011 c -0.3393,-24.0468 -0.1912,-31.61653 3.1814,-31.65019 z m -285.2489,10.11374 c 0.384,-0.005 0.6706,0.0202 0.8522,0.0778 4.9176,1.56091 5.2152,6.85116 0.9136,16.27579 -2.208,4.83808 -4.4474,11.48418 -4.9759,14.77005 -1.1895,7.39499 -5.6584,12.07836 -11.5252,12.07836 -2.4528,0 -7.9282,1.09354 -12.1663,2.42958 -4.2385,1.33604 -17.2434,3.51683 -28.8991,4.84479 -39.50868,4.5015 -36.71211,4.53276 -42.31487,-0.47324 -4.22873,-3.77842 -5.03393,-5.65661 -5.27708,-12.30156 -0.27549,-7.52201 -0.0603,-7.95309 5.25045,-10.55206 3.04571,-1.49022 10.81576,-4.10964 17.26727,-5.82201 6.45187,-1.71237 17.73543,-5.00296 25.07423,-7.31129 22.4102,-7.04866 50.0408,-13.94166 55.8007,-14.01623 z m 328.8095,5.52707 c 5.4835,0 6.333,0.50618 7.2354,4.31627 0.5624,2.3743 2.627,10.67666 4.5868,18.44725 1.9596,7.77058 4.0143,20.13224 4.5662,27.47111 0.5519,7.33888 1.3878,15.99208 1.86,19.22981 0.7415,5.08498 0.4427,5.88746 -2.2041,5.88746 -1.8025,0 -4.8537,-2.58198 -7.4097,-6.27061 -3.2909,-4.74851 -4.6315,-9.03614 -5.5229,-17.6606 -0.6472,-6.26422 -2.6742,-14.80509 -4.5027,-18.97777 -1.8287,-4.17268 -3.3248,-9.77842 -3.3248,-12.45731 0,-2.81577 -1.4162,-6.37738 -3.3576,-8.44406 -3.1921,-3.39789 -3.23,-3.77359 -0.7498,-7.55924 2.0662,-3.1535 3.9038,-3.98231 8.8232,-3.98231 z m -451.3377,21.97687 c 2.72851,0 6.07142,7.24773 4.83254,10.47633 -1.22341,3.18812 -3.69524,2.49482 -6.52874,-1.82942 -2.86364,-4.37071 -2.02494,-8.64691 1.6962,-8.64691 z m 341.0229,1.57119 c 3.5756,0 3.9368,4.16534 1.348,15.54652 -1.3728,6.0363 -2.5101,14.72118 -2.5279,19.29945 -0.048,12.03169 -3.5283,26.85754 -7.7497,33.01854 -3.9487,5.76286 -14.6704,10.6259 -23.4314,10.6259 -6.1801,0 -32.3294,4.47559 -37.3902,6.39972 -4.0739,1.54886 -7.8904,1.69035 -11.0643,0.40969 -1.0792,-0.43549 -1.9625,-1.54109 -1.9625,-2.45622 0,-2.45392 80.326,-82.8436 82.778,-82.8436 z m 539.7656,3.88404 c -0.8416,-0.17034 -0.3742,1.46861 1.4197,4.90835 2.6264,5.03652 3.1783,11.61539 0.9751,11.61539 -1.8582,0 -5.0936,9.34587 -3.9025,11.27315 1.2415,2.00846 1.2792,1.94753 5.9572,-9.60777 l 4.091,-10.10755 -4.2118,-4.39619 c -2.2279,-2.32532 -3.6741,-3.55281 -4.3287,-3.68538 z m -816.3102,30.65053 c 14.6371,0 15.1745,0.13068 21.1635,5.10291 5.9191,4.91412 8.3026,10.77526 4.2406,10.42924 -1.0793,-0.092 -10.6157,-2.26848 -21.1923,-4.83661 -16.29104,-3.95578 -19.22984,-5.13008 -19.22984,-7.68206 0,-2.76018 1.25706,-3.01348 15.01804,-3.01348 z m 314.1807,0.50397 c 2.8533,0.0466 8.311,4.07136 8.311,6.59628 0,3.06257 -5.405,2.96933 -8.5219,-0.14747 -2.8706,-2.87062 -3.1262,-4.78867 -0.8277,-6.20914 0.2778,-0.17181 0.631,-0.24638 1.0386,-0.23967 z m -413.98428,4.59286 c 3.55797,-0.24732 15.74959,4.14132 18.78525,6.91796 3.22619,2.95076 0.87069,4.50528 -10.00515,6.60247 -11.11253,2.14283 -11.49228,2.15761 -12.53715,0.46706 -1.43695,-2.32522 1.00854,-13.04729 3.16502,-13.87485 0.15516,-0.0596 0.35483,-0.0962 0.59203,-0.11264 z m 820.78018,0.60425 c 2.2401,-0.005 3.3203,0.35105 3.8103,1.06941 1.769,2.5932 0.016,15.40031 -3.0994,22.57305 -1.4257,3.28786 -3.4019,9.86358 -4.3921,14.6123 -1.9057,9.14019 -2.8555,9.79635 -12.0476,8.33151 -7.3873,-1.17724 -8.3561,-4.03328 -8.3561,-24.62367 l 0,-18.95322 13.3115,-1.90105 c 5.1332,-0.73305 8.5335,-1.10246 10.7734,-1.10833 z m -383.133,5.40823 c 3.0521,-0.0224 4.0756,0.89143 5.9572,3.76321 1.5337,2.34053 3.0705,7.89949 3.4149,12.35274 0.5377,6.95184 -0.053,9.15057 -4.1667,15.55271 -5.3438,8.3162 -6.6322,8.82416 -11.093,4.36336 -3.9419,-3.94203 -12.6047,-21.01664 -12.6047,-24.84487 0,-4.83053 6.9932,-10.02627 14.6574,-10.89011 1.5754,-0.17757 2.8175,-0.28959 3.8349,-0.29704 z m -398.77995,4.59086 c 3.11553,-8.4e-4 2.32793,5.95722 -2.90485,21.97688 -6.14004,18.79735 -11.74992,31.96412 -13.93017,32.69077 -0.92751,0.3092 -5.05363,-2.85857 -9.16729,-7.0388 -13.37543,-13.59176 -17.55817,-19.2856 -17.55817,-23.89429 0,-4.43396 4.10859,-9.60777 7.63087,-9.60777 1.04002,0 5.32863,-1.7408 9.52988,-3.86967 9.069,-4.59558 23.63693,-10.25607 26.39973,-10.25712 z m -119.26278,0.28057 c 0.80451,-0.15386 1.73269,0.52055 2.81062,1.98099 4.89505,6.63204 1.25396,22.85372 -5.12958,22.85372 -2.14246,0 -2.34312,-1.58819 -1.43604,-11.34699 0.81817,-8.80319 1.98509,-13.14914 3.755,-13.48772 z m 922.35373,2.70617 c 3.2683,0.0769 6.8782,1.80121 10.0666,5.43278 4.4655,5.08561 7.8548,16.66156 5.8343,19.93044 -1.3076,2.11576 -10.1156,1.70692 -15.7084,-0.72938 -7.0868,-3.0869 -10.1342,-6.83825 -10.1342,-12.47157 0,-7.83971 4.4945,-12.29044 9.9417,-12.16227 z m -433.6668,11.59074 c 0.2357,10e-4 0.4319,0.0289 0.5859,0.0881 1.7984,0.69004 4.067,4.50716 11.8078,19.86887 1.5228,3.02198 3.6564,9.28168 4.7425,13.91177 2.2819,9.73017 1.3621,11.02918 -7.7682,10.95366 -3.0623,-0.0252 -8.983,1.43422 -13.1558,3.24287 -9.3916,4.07084 -9.4339,4.06979 -14.1576,-0.24386 -4.9225,-4.49552 -10.933,-22.03194 -9.6117,-28.04673 0.5365,-2.44343 3.1435,-6.26568 5.7932,-8.49535 5.9936,-5.04334 18.2284,-11.29633 21.7639,-11.27934 z m 98.4495,5.90603 c 0.9437,10e-4 1.8442,0.1695 2.7102,0.50188 10.0002,3.83746 -1.2026,27.67795 -13.0063,27.67795 -2.5601,0 -6.5158,-1.46358 -8.7904,-3.25304 -2.2751,-1.78946 -4.1367,-4.08636 -4.136,-5.10302 0,-1.01655 3.5515,-5.5469 7.889,-10.06864 6.3499,-6.61967 11.2439,-9.761 15.3335,-9.75513 z m -530.56558,1.63056 c 5.1041,0.0524 5.4603,4.91831 1.92564,14.97499 -1.76097,5.0102 -3.20189,10.7417 -3.20189,12.73589 0,1.9941 -1.42384,7.67 -3.16297,12.61297 -1.73913,4.94286 -3.62237,13.92729 -4.1852,19.96516 -0.85096,9.12844 -1.752,11.70601 -5.35082,15.30475 -4.22627,4.22628 -7.696,5.38821 -9.80234,3.28178 -0.57562,-0.57561 -1.04681,-3.82267 -1.04681,-7.215 0,-3.39233 -1.03043,-8.04119 -2.29029,-10.33295 -3.19426,-5.81037 -11.8386,-32.11222 -11.8386,-36.02174 0,-4.81847 7.44579,-11.30965 21.53237,-18.77292 8.21401,-4.35193 13.92863,-6.5688 17.42091,-6.53293 z m 74.34616,3.24905 c 1.61889,-0.16593 3.39334,0.79525 5.51266,2.76962 2.49093,2.32081 3.67398,5.91998 4.53141,13.79702 1.84651,16.96836 1.65577,17.79539 -7.76402,33.8012 -4.92777,8.37284 -13.39378,23.89713 -18.81393,34.49974 -19.50337,38.15145 -35.85362,67.45084 -48.19637,86.36703 -3.91426,5.99896 -4.87325,6.69288 -6.70697,4.85916 -2.31415,-2.31421 -0.82441,-12.1158 2.77989,-18.29558 2.10389,-3.60735 4.99899,-10.09056 6.43452,-14.40757 1.43553,-4.3169 3.54025,-9.96941 4.6789,-12.55968 6.77207,-15.40671 9.32808,-21.61816 13.23571,-32.18071 2.39566,-6.47545 4.83575,-14.41427 5.42457,-17.64214 1.05592,-5.78918 13.32131,-33.19947 24.06643,-53.78482 1.8025,-3.45358 5.02705,-10.87059 7.16585,-16.48273 2.69036,-7.05893 4.9532,-10.46406 7.65135,-10.74054 z m 781.66312,9.38038 c 1.4189,0.0303 3.0991,0.43423 5.6191,1.10822 5.8191,1.55641 20.4542,7.40611 22.0957,8.8313 0.227,0.19719 -1.4364,4.52888 -3.6976,9.62623 -2.261,5.09725 -6.0711,15.26375 -8.4667,22.5935 -5.5407,16.95398 -8.014,18.96895 -24.1729,19.69277 -6.6065,0.29588 -13.312,0.95006 -14.9013,1.45445 -1.589,0.50429 -3.6183,0.0192 -4.5108,-1.07959 -0.8925,-1.09879 -2.7728,-6.52192 -4.1771,-12.05172 l -2.5525,-10.05427 5.523,-11.33052 c 3.0383,-6.23222 5.525,-12.00546 5.525,-12.82808 0,-1.83645 6.7419,-8.32124 8.651,-8.32124 0.7613,0 4.1226,-1.89959 7.471,-4.21998 3.5892,-2.48727 5.2292,-3.47173 7.5941,-3.42107 z m -909.00949,16.19996 c 1.26937,2.1e-4 2.25167,0.46936 3.57677,1.3459 4.382,2.89842 12.03159,18.10164 12.07623,24.00285 0.0191,2.50394 1.43045,7.63035 3.13839,11.39408 1.70783,3.76373 3.10561,7.70566 3.10561,8.75756 0,1.05201 1.76656,6.25824 3.92503,11.57029 4.24209,10.43973 5.10138,22.26815 2.15508,29.6323 -0.97248,2.43052 -3.27372,10.01556 -5.11524,16.8535 -1.84171,6.83794 -4.04903,12.64244 -4.90424,12.89972 -0.8552,0.25729 -2.83126,-0.2727 -4.39006,-1.17787 -3.33419,-1.93619 -5.92812,-7.84809 -6.81144,-15.52197 -0.74003,-6.42847 -10.37929,-31.89175 -20.44459,-54.00602 -8.8615,-19.46926 -10.4984,-30.6478 -5.2996,-36.18159 1.93548,-2.06017 7.03741,-5.26014 11.33875,-7.11054 3.91204,-1.68289 6.01725,-2.45863 7.64931,-2.45821 z m 368.50019,1.12668 c 2.5017,0.0821 6.5134,1.22434 9.5627,2.7799 3.4847,1.77782 7.419,3.23259 8.7432,3.23259 1.324,0 9.2987,3.24601 17.7221,7.215 8.4236,3.9691 19.9066,9.02115 25.5188,11.22606 5.6121,2.20502 11.6175,5.26685 13.3443,6.80532 1.7267,1.53847 6.6716,4.29288 10.9885,6.12115 5.7895,2.45181 13.101,8.5502 27.8644,23.23875 18.6474,18.55319 21.8412,22.68014 18.8385,24.35328 -0.6476,0.36081 -10.0485,-2.59866 -20.8911,-6.57793 -10.8424,-3.97927 -21.4399,-8.36329 -23.5482,-9.74087 -2.1083,-1.37757 -8.0717,-4.07964 -13.2521,-6.0064 -11.0305,-4.10251 -32.4636,-14.36456 -44.7404,-21.42171 -4.7486,-2.72976 -13.3931,-6.52779 -19.2114,-8.43798 -14.3795,-4.72144 -17.1683,-8.41857 -16.5666,-21.96879 0.4382,-9.866 0.6361,-10.32089 4.6563,-10.78564 0.2886,-0.0334 0.6137,-0.0445 0.971,-0.0327 z m 650.6989,5.88956 c 3.1607,-0.20033 8.319,3.35803 15.6613,10.75701 5.8049,5.8496 10.5542,11.14917 10.5542,11.77503 0,2.24729 -10.3626,1.07928 -15.7228,-1.77195 -6.5755,-3.49774 -14.9247,-14.66464 -13.5819,-18.16458 0.6283,-1.63695 1.6526,-2.50447 3.0892,-2.59551 z m -531.1923,14.54885 c 3.7371,-0.015 4.8346,1.51738 4.8346,5.39177 0,11.32528 -9.5103,16.89766 -16.9723,9.94582 -6.6849,-6.22793 -3.2672,-13.02286 7.4629,-14.83571 1.89,-0.31927 3.4291,-0.49685 4.6748,-0.50188 z m 514.345,9.32909 c 2.2871,0.0324 5.4653,0.50439 9.6753,1.18206 6.7069,1.07959 16.7009,2.63107 22.2085,3.44771 13.3211,1.97532 19.8243,5.27272 22.8106,11.5661 2.2378,4.71567 2.2294,5.64465 -0.099,10.47633 -1.4049,2.91572 -4.1606,7.06617 -6.1231,9.22472 -1.9626,2.15845 -4.9688,8.23209 -6.6804,13.49789 -6.7313,20.70712 -13.9594,29.89755 -18.7074,23.78573 -0.8382,-1.07917 -3.8015,-7.61504 -6.5841,-14.5222 -2.7824,-6.90716 -6.3892,-15.48558 -8.0159,-19.06387 -1.6267,-3.57819 -5.5691,-13.32556 -8.7597,-21.66138 -5.4225,-14.16664 -6.5866,-18.03022 0.2745,-17.93309 z m -455.8465,2.94582 c 2.5023,0.24879 4.3817,4.89608 5.8487,14.00606 0.8848,5.49351 1.2375,10.59003 0.7825,11.32644 -1.0198,1.64985 -4.3338,1.492 -12.1439,-0.57772 -3.3039,-0.87559 -6.353,-2.49356 -6.7765,-3.59727 -0.4237,-1.10372 1.4057,-6.32033 4.0663,-11.59075 3.3226,-6.58191 6.0151,-9.78618 8.2229,-9.56676 z m -491.26397,8.50773 c 0.7002,-0.0946 1.39381,0.11779 2.09978,0.61253 3.25668,2.28222 14.89845,18.22363 15.73085,21.54055 0.5866,2.33686 -2.01127,9.55952 -7.81933,21.73312 -4.7845,10.02794 -8.94111,18.23212 -9.23693,18.23212 -0.29573,0 -3.73517,-2.02639 -7.64316,-4.50475 -5.93339,-3.76289 -7.35743,-5.64108 -8.62442,-11.38181 -1.34405,-6.0902 -0.81884,-8.98265 4.59081,-25.34266 4.71977,-14.27404 7.86822,-20.47921 10.9024,-20.8891 z m 872.61887,17.31846 c 2.5924,-0.0505 5.6864,0.39574 9.5893,1.02422 13.5334,2.17953 15.837,3.69492 14.8541,9.7717 -1.2099,7.47701 -6.1854,19.8908 -10.7979,26.9405 -2.2599,3.45358 -5.6956,10.72711 -7.635,16.16315 -1.9893,5.57626 -5.2258,11.22028 -7.426,12.9509 -4.6087,3.62518 -4.5141,3.61773 -10.5398,0.76819 -2.5902,-1.22486 -7.3675,-3.29647 -10.6177,-4.60303 -9.4147,-3.78534 -9.4187,-5.00936 -0.051,-29.20425 10.5012,-27.12164 13.366,-33.63129 22.6242,-33.81138 z m -509.111,7.12281 c 2.3747,-0.0613 7.427,1.75191 25.0354,7.91156 11.3014,3.95325 14.5202,5.7274 14.5202,8.00364 0,1.60864 -0.5538,2.92537 -1.2312,2.92537 -2.7042,0 -6.6189,9.51904 -6.6189,16.09749 0,13.97575 -5.2289,21.30277 -24.642,34.52848 -9.5197,6.48552 -10.7487,6.87423 -11.937,3.77747 -0.4451,-1.15994 -0.6963,-17.50642 -0.5592,-36.32497 0.2207,-30.37237 0.5485,-34.40555 2.9253,-35.9071 0.9013,-0.56942 1.4281,-0.98414 2.5074,-1.01194 z m 158.5746,4.71987 c 18.0767,0.0176 27.5216,6.34634 29.6385,19.8607 0.5198,3.31807 1.899,7.4254 3.0646,9.12844 1.1657,1.70303 2.1182,4.70571 2.1182,6.67211 0,4.01021 -2.9523,4.35739 -15.6981,1.84778 -24.7298,-4.86923 -31.9069,-7.49117 -34.6799,-12.67233 -2.3316,-4.35665 -0.5812,-14.70785 3.4456,-20.36268 2.8708,-4.03171 4.0879,-4.48188 12.1111,-4.47402 z m 267.2586,10.22429 c 1.8359,-0.005 6.5107,1.22203 11.2466,2.99712 7.9907,2.99502 9.9298,4.40396 10.3103,7.49568 0.5906,4.80042 -7.6343,27.66474 -13.8626,38.53533 -5.6091,9.79007 -8.737,10.39757 -21.6224,4.19544 -4.5821,-2.20533 -8.6761,-4.9095 -9.0976,-6.00839 -0.9795,-2.55177 19.7389,-46.1058 22.4213,-47.13525 0.1384,-0.0531 0.3421,-0.0791 0.6044,-0.0799 z m 158.5131,6.25016 c 3.1154,0 4.8146,1.81243 8.8334,9.41929 2.8534,5.40121 5.0306,11.929 5.1029,15.30476 0.1399,6.54656 1.9629,6.03629 -16.831,4.72805 -4.666,-0.32483 -8.6501,-1.43012 -9.0668,-2.51559 -0.4088,-1.06501 1.2481,-7.56144 3.6812,-14.43619 3.9032,-11.02845 4.8766,-12.50032 8.2803,-12.50032 z m -1012.64996,8.63474 c 3.80191,0 8.99768,6.10594 11.6911,13.73965 1.27812,3.62287 4.12746,9.24161 6.33208,12.48595 2.20452,3.24423 4.01607,6.97177 4.02337,8.28222 0.0233,4.29508 -5.06146,24.20633 -8.02419,31.4228 -1.59504,3.885293 -3.35669,9.890752 -3.91479,13.344334 -1.08293,6.70379 -7.47034,14.945209 -11.52312,14.866335 -1.34941,-0.02622 -3.59864,-0.71763 -4.99643,-1.534378 -1.39755,-0.816642 -3.45094,-3.796454 -4.56417,-6.622923 -1.11288,-2.826573 -5.78205,-12.709248 -10.37594,-21.962608 -10.02306,-20.1894 -16.26758,-35.24915 -16.26758,-39.22569 0,-1.60507 1.23618,-3.36968 2.74711,-3.92305 2.57874,-0.9444 12.06506,-6.99873 26.12113,-16.67111 3.35809,-2.31085 7.29571,-4.20153 8.75143,-4.20153 z m 153.16022,3.29814 c 2.42526,0.10237 3.03114,2.09363 3.41084,7.76199 0.22758,3.40145 1.5324,8.83822 2.90076,12.08234 1.36819,3.24413 2.89147,11.98155 3.38421,19.41619 0.81128,12.24251 0.589,13.82272 -2.34969,16.76131 -1.97308,1.97311 -6.21111,3.6021 -10.81432,4.15653 -4.16334,0.50135 -10.74756,1.70062 -14.63283,2.66515 -12.67825,3.147316 -13.74793,3.247692 -14.89914,1.38481 -0.62549,-1.01236 2.05972,-8.32008 5.96743,-16.23887 10.91712,-22.12214 17.81956,-37.50944 18.94504,-42.23708 0.67685,-2.84293 2.36497,-4.63103 4.99644,-5.2915 1.27181,-0.31917 2.28284,-0.49495 3.09126,-0.46087 z m 417.81104,29.76141 c 26.4163,0.1845 26.7842,1.66119 20.6986,6.69467 -2.2708,1.87819 -7.1292,5.88725 -10.7959,8.90912 -3.6669,3.02187 -9.1173,8.093 -12.1111,11.26916 -2.9938,3.17606 -9.1794,7.66602 -13.7457,9.976447 -4.5667,2.31043 -13.8597,8.364346 -20.6516,13.452891 l -12.3486,9.251262 -12.5577,-0.323679 c -6.9072,-0.177677 -19.2449,-0.558728 -27.4178,-0.846115 -20.0754,-0.705883 -21.1276,-1.676603 -19.9632,-18.447144 0.4792,-6.907272 2.1522,-17.500442 3.7181,-23.539992 4.2297,-16.31355 1.1953,-15.6041 69.3497,-16.23478 15.3199,-0.1418 27.0197,-0.2233 35.8252,-0.16184 z m -220.441,8.19831 c 0.091,-0.005 0.1663,0.001 0.2254,0.0205 2.854,0.93789 3.005,15.02492 0.2069,19.29535 -2.0508,3.12991 -3.7857,3.78775 -9.9806,3.78775 -4.1247,0 -8.3464,-0.84653 -9.3823,-1.8826 -3.8133,-3.81323 -1.8033,-7.6013 7.7762,-14.65331 4.9809,-3.66671 9.7925,-6.48605 11.1544,-6.56765 z m 575.7136,0.98331 c 2.2825,0.067 4.795,0.89237 7.6064,2.44804 2.2917,1.26807 8.7586,4.17006 14.3706,6.44881 31.2316,12.68145 53.375,26.295136 53.375,32.815795 0,2.245819 -3.6473,14.338443 -6.164,20.438404 -4.0885,9.910365 -4.8244,12.224256 -4.8244,15.143024 0,6.094192 -4.7944,13.61924 -9.7818,15.357935 -2.6491,0.923522 -10.2738,1.679855 -16.9436,1.679855 -6.7667,0 -15.0755,1.03984 -18.7996,2.353747 -8.5934,3.03194 -14.7867,2.991874 -17.3636,-0.112647 -2.2446,-2.704172 -0.6757,-8.74697 8.227,-31.71575 2.4351,-6.282043 4.4269,-13.487713 4.4269,-16.01148 0,-5.062743 -3.4493,-8.185095 -19.2932,-17.472123 -11.1021,-6.50744 -12.2764,-9.8166 -7.2744,-20.49578 3.5127,-7.50008 7.4175,-11.0252 12.4387,-10.87783 z m -475.3508,0.65963 c 0.7492,0.0513 1.3594,0.4723 2.0917,1.20451 1.8998,1.8998 2.0162,6.63666 0.7497,30.482498 -0.8248,15.528375 -1.5156,30.883059 -1.5364,34.120785 -0.023,3.714224 -0.7778,5.887567 -2.0445,5.887567 -1.1041,0 -6.3079,-4.41633 -11.5641,-9.812611 -14.476,-14.86193 -22.534,-25.931285 -22.534,-30.955745 0,-3.241188 1.7344,-5.809844 6.6721,-9.888344 3.6693,-3.03089 8.7895,-7.36887 11.3797,-9.6385 2.5902,-2.26952 7.3912,-5.99675 10.6689,-8.28431 3.2333,-2.25652 4.8683,-3.20144 6.1169,-3.11585 z m 385.702,4.19334 c 5.3024,0 7.6432,0.95247 11.2794,4.58876 5.2917,5.29171 5.6636,9.37451 1.6593,18.189127 -1.5729,3.462393 -3.3506,8.917095 -3.9517,12.121363 -0.9274,4.943593 -5.8081,10.813119 -8.774,10.552058 -0.4553,-0.04007 -5.0665,-2.347139 -10.2468,-5.127458 -8.126,-4.361475 -9.4858,-5.737685 -9.9027,-10.019552 -0.2666,-2.736161 0.9661,-7.963576 2.7471,-11.650108 1.777,-3.67773 3.2306,-7.84327 3.2306,-9.25745 0,-4.83745 6.7738,-9.39674 13.9588,-9.39674 z m -806.19041,6.32798 c 7.09742,0.10426 16.7449,11.8388 16.7449,20.366771 0,6.983731 -2.61713,10.178559 -11.72389,14.315368 -7.78581,3.536757 -13.92962,3.726496 -16.59739,0.512054 -1.66851,-2.010455 -1.43718,-3.849422 1.33566,-10.597159 1.84503,-4.490066 4.13901,-11.871944 5.0968,-16.404804 1.45778,-6.89919 2.29588,-8.23397 5.14392,-8.19223 z m 569.92851,1.7495 c 0.1709,0.006 0.3356,0.0265 0.4958,0.0574 5.812,1.11986 5.7122,12.31393 -0.3667,41.686 -1.1148,5.385582 -1.6553,11.209378 -1.2025,12.940732 1.1773,4.502547 -2.529,38.299549 -5.1461,46.922229 -1.2133,3.9973112 -2.2132,9.5168331 -2.2226,12.266735 -0.04,11.809222 -4.8774,15.891805 -12.1704,10.271383 -1.9357,-1.491794 -6.3514,-7.560499 -9.8127,-13.4856153 l -6.2931,-10.7733677 0.094,-36.611724 0.097,-36.613821 10.5009,-8.372422 c 19.2443,-15.342939 23.4632,-18.375299 26.0268,-18.287509 z m -443.16391,15.468698 c 3.41825,0 4.03557,4.562646 1.30697,9.660946 -0.9343,1.745723 -2.00947,5.053618 -2.39067,7.3523 -1.99642,12.042384 -9.63931,31.552861 -16.39663,41.856025 -3.94794,6.019828 -11.14671,20.528606 -13.0452,26.293247 -1.05344,3.1982892 -4.65847,3.610701 -6.85447,0.784547 -1.81,-2.329728 1.34399,-35.92472 4.82641,-51.410512 1.26194,-5.612136 2.67833,-13.381987 3.14862,-17.26728 0.47003,-3.885293 0.892,-7.179238 0.9362,-7.319471 0.29572,-0.945862 26.05783,-9.949802 28.46877,-9.949802 z m 596.91211,6.280784 c 7.9021,0 14.4851,8.104753 19.9815,24.603219 2.757,8.275821 5.3748,19.547188 5.8159,25.04762 0.7342,9.142915 0.5407,10.001092 -2.2575,10.001092 -1.6837,0 -4.8995,-1.941965 -7.1454,-4.31627 -4.5915,-4.85402 -18.0625,-38.431181 -19.5247,-48.665539 -0.912,-6.383363 -0.7767,-6.670122 3.1302,-6.670122 z m -350.8478,6.278897 c 2.7981,0 8.2944,4.58719 20.4896,17.105441 9.1654,9.408276 17.54,17.3557 18.6111,17.660603 1.0712,0.304799 3.0422,4.758259 4.3798,9.896521 1.9297,7.413763 2.0838,10.960798 0.7498,17.181274 -1.2582,5.867009 -3.1528,42.491214 -3.1528,60.944441 0,2.281271 -4.2612,1.245207 -8.4564,-2.054717 -4.0493,-3.185074 -22.6542,-26.012048 -43.3863,-53.231648 -5.59,-7.338875 -11.0145,-14.245095 -12.0537,-15.345769 -6.6979,-7.095644 -12.9268,-15.900825 -13.8503,-19.580017 -0.8947,-3.564656 -0.1739,-5.172244 4.218,-9.411108 10.7543,-10.379311 28.6658,-23.165021 32.4512,-23.165021 z m -314.40411,4.939082 c 0.36529,-0.01605 0.72855,2.1e-4 1.08778,0.05119 4.99238,0.70882 5.23471,5.389673 1.28854,24.814144 -1.84422,9.07799 -4.36496,21.44982 -5.60075,27.493668 -1.23596,6.043742 -2.58006,14.165905 -2.98679,18.049835 -0.81332,7.7669143 -6.32474,14.130874 -12.23807,14.130874 -3.16787,0 -3.24753,-0.524011 -2.33125,-15.304759 0.52182,-8.418047 2.32556,-22.017988 4.00901,-30.220284 1.68328,-8.202192 3.53927,-18.382743 4.12374,-22.624229 1.18267,-8.581984 7.1684,-16.150454 12.64779,-16.390434 z m 707.99901,6.56146 c 1.1393,0.0042 2.0445,0.212919 2.5116,0.680186 1.4037,1.403585 10.7385,41.506125 10.7385,46.133381 0,3.615946 -6.1661,12.397318 -8.5384,12.160276 -0.9166,-0.09104 -3.678,-1.222237 -6.1375,-2.513594 -4.167,-2.188027 -4.401,-2.812518 -3.4477,-9.169345 0.7439,-4.961424 0.2901,-8.234602 -1.6613,-12.006618 -3.4869,-6.739556 -7.2246,-19.849574 -7.0389,-24.68912 0.081,-2.09363 1.2406,-5.01523 2.5771,-6.49192 2.0623,-2.278858 7.5788,-4.115832 10.9966,-4.103246 z m 51.4823,6.381266 c 3.1402,-0.224142 14.816,6.596911 21.0284,12.457312 3.9104,3.688736 5.1009,6.12419 5.1009,10.433222 0,8.54926 3.2699,11.992458 12.4184,13.07593 15.4083,1.824912 19.521,7.207663 24.0009,31.412524 3.6175,19.544776 4.4214,32.720033 2.0423,33.473429 -0.8634,0.273438 -4.528,-0.842864 -8.1429,-2.482861 -5.342,-2.423602 -6.8795,-4.107861 -8.2148,-8.991145 -0.9034,-3.304224 -2.3189,-8.480664 -3.1445,-11.50264 -0.8256,-3.021871 -2.5725,-8.319454 -3.882,-11.773036 -1.3098,-3.4535818 -2.4237,-8.3982234 -2.4747,-10.988384 -0.051,-2.590265 -0.7886,-5.770409 -1.6389,-7.065542 -2.6818,-4.085205 -4.7562,1.438198 -3.6771,9.785971 1.2157,9.403661 -1.0103,10.542513 -11.2137,5.7461806 -6.4384,-3.0262763 -8.0345,-4.7824878 -11.8448,-13.0451986 l -4.4024,-9.550292 -0.1167,8.726832 c -0.2283,17.141102 -8.3617,19.390698 -10.1014,2.794163 -0.8553,-8.158873 -0.589,-10.285437 1.4831,-11.80576 1.3899,-1.019912 3.4925,-1.483193 4.6728,-1.0304 1.7188,0.659628 1.9541,-0.845487 1.184,-7.565324 -0.5287,-4.613202 -1.9159,-9.781146 -3.083,-11.48418 -2.4834,-3.624442 -2.8619,-19.022024 -0.504,-20.479415 0.1293,-0.07992 0.3007,-0.126493 0.5101,-0.141386 z m -820.44631,0.960755 c 1.91224,-0.0025 4.07317,1.229999 4.80181,2.740987 0.73338,1.520428 0.5821,14.080424 -0.33801,28.124662 -1.61903,24.716495 -1.7707,25.461291 -5.83428,28.6489865 -5.18576,4.0678994 -10.98964,4.1939723 -14.49968,0.3154971 -2.37275,-2.6220456 -2.55549,-5.5118656 -1.60402,-25.5085946 0.59023,-12.403821 1.73106,-23.826538 2.53407,-25.383675 1.93648,-3.755759 10.58557,-8.930521 14.94011,-8.937863 z m 499.86381,25.895834 c 1.4676,0 8.6724,8.62289 17.0501,20.407673 7.9791,11.2241677 16.5407,23.015874 19.0271,26.203045 2.4866,3.187067 4.5211,6.669912 4.5211,7.739435 0,1.069417 -4.2391,8.217609 -9.4193,15.884568 -5.1805,7.666958 -9.4192,14.8699 -9.4192,16.007389 0,1.137594 -1.0983,2.98191 -2.442,4.097058 -2.8398,2.356789 -20.0289,27.65666 -21.5466,31.713756 -1.347,3.600318 -3.8548,3.349221 -10.5747,-1.061236 -10.7312,-7.042887 -10.719,-6.979536 -5.611,-32.297447 1.3064,-6.475453 2.4035,-14.486543 2.4379,-17.803983 0.036,-3.575145 1.341,-7.657728 3.2018,-10.023642 2.2898,-2.910692 3.1384,-6.368784 3.1384,-12.770712 0,-4.828428 1.047,-14.0926953 2.3252,-20.587972 1.2784,-6.495067 2.8754,-15.340944 3.548,-19.657947 0.8855,-5.68262 1.9233,-7.849985 3.7632,-7.849985 z m -60.4979,11.342794 c 3.979,0.105306 9.6043,0.770073 17.5704,1.79869 12.3047,1.588604 22.8074,3.323524 23.3392,3.855296 0.5318,0.531877 0.087,4.114364 -0.9914,7.960744 -1.0769,3.84638 -2.409,13.93138 -2.9622,22.413198 l -1.0059,15.421601 -9.4193,0.178202 c -5.1805,0.09733 -14.0461,-0.255293 -19.7009,-0.784653 -5.9429,-0.55642 -12.1646,-2.199355 -14.7434,-3.892215 l -4.4598,-2.927369 1.2435,-14.339911 c 0.6841,-7.8863802 1.3134,-16.960909 1.3991,-20.166016 0.1941,-7.272901 0.9769,-9.74926 9.7307,-9.517567 z m 316.9422,18.85494 c 0.2989,0.0086 0.6165,0.03178 0.9546,0.07164 5.3421,0.6310994 8.4846,4.0041289 5.7995,6.2256148 -1.4794,1.2238101 -3.2555,1.0503286 -6.455,-0.6288966 -4.8435,-2.5423322 -4.7831,-5.7976792 -0.2991,-5.6683552 z M 818.6816,8.363696 c 3.50421,-0.215436 5.40365,4.98817 10.27965,20.389318 3.01343,9.518197 6.66206,20.115461 8.11023,23.54817 3.50929,8.317986 3.30139,17.374474 -0.58384,25.299662 -1.75306,3.575564 -3.67642,9.580918 -4.27329,13.344224 -1.20393,7.59082 -4.49164,16.36799 -6.62297,17.68515 -0.76109,0.47052 -2.53835,-0.42112 -3.95167,-1.98297 -1.49389,-1.65049 -3.19352,-7.75213 -4.05819,-14.5714 -0.81794,-6.452168 -2.22892,-13.684164 -3.13633,-16.070845 -0.90741,-2.386576 -2.39572,-9.410478 -3.30637,-15.609976 -0.91073,-6.199498 -3.13153,-16.392741 -4.93497,-22.650871 -4.18931,-14.538251 -2.955,-19.691091 6.27267,-26.176508 2.68684,-1.888368 4.61226,-3.10599 6.20508,-3.203954 z m 76.96626,7.686258 c 7.2153,0.169286 19.66101,2.565302 21.07348,4.67477 1.39648,2.085239 -2.59931,6.570584 -10.09322,11.332619 -6.70288,4.259422 -8.90114,4.544397 -12.8383,1.665485 -3.86945,-2.829405 -5.94829,-14.569821 -3.01137,-17.007163 0.64038,-0.531457 2.46431,-0.72214 4.86941,-0.665711 z m 807.54654,2.554499 c 2.6408,0.07153 5.1706,0.903593 6.7419,2.47468 3.3344,3.334642 1.3128,5.299996 -6.535,6.352527 -4.6024,0.617464 -6.7009,0.150092 -8.3724,-1.864139 -1.9553,-2.35595 -1.8616,-2.956003 0.7579,-4.871431 2.0158,-1.474068 4.7668,-2.163065 7.4076,-2.091637 z m -56.2718,7.755901 c 4.0407,0 10.4374,5.954484 10.4374,9.716222 0,4.195021 -16.6773,6.207469 -18.2157,2.198096 -1.4793,-3.855086 3.7823,-11.914423 7.7783,-11.914318 z m -423.3604,18.916299 c 9.3354,0.06608 35.7331,4.748609 38.4493,7.206823 3.621,3.276954 5.3501,12.371411 3.1916,16.779666 -0.9177,1.873788 -2.1059,9.057327 -2.6405,15.964491 -1.9737,25.492027 -3.1042,26.781697 -25.5886,29.195967 -7.5177,0.80731 -15.8809,1.87819 -18.5845,2.3784 -3.0507,0.56418 -5.3609,0.18931 -6.0883,-0.9874 -1.8883,-3.05554 -1.0193,-16.81617 1.6163,-25.60289 1.3401,-4.467514 2.8758,-16.135873 3.413,-25.928557 0.7653,-13.95435 1.4997,-18.004839 3.3944,-18.732013 0.5184,-0.198864 1.5035,-0.283927 2.8373,-0.274487 z m 342.2848,2.021888 c 1.3346,-0.04856 2.9443,0.11957 4.8796,0.409789 3.8902,0.583481 13.8483,3.73195 22.1285,6.995793 11.4488,4.512721 15.173,6.696867 15.5466,9.120154 0.4821,3.130638 -0.2956,3.732054 -15.4052,11.908234 -2.1584,1.167906 -9.2227,3.773799 -15.6981,5.791282 -15.8983,4.953557 -15.3031,4.828742 -16.202,3.373973 -0.4381,-0.708819 -0.9896,-8.463148 -1.2251,-17.232458 -0.4268,-15.890547 0.1924,-20.156261 5.9757,-20.366767 z M 1705.7961,59.51 c 6.4536,0.06912 7.5995,2.375459 3.3862,6.860595 -4.0384,4.298648 -8.1372,5.060645 -10.6668,1.98308 -0.8872,-1.079277 -1.857,-3.376176 -2.1551,-5.10302 -0.4636,-2.688228 0.4492,-3.209931 6.3444,-3.632098 1.1384,-0.0815 2.1693,-0.118416 3.0913,-0.108557 z m -63.7531,9.2349 c 1.187,0 3.5293,1.005857 5.2054,2.235016 2.9015,2.128032 2.9154,2.370634 0.3072,5.100817 -1.5064,1.576961 -4.5716,5.164902 -6.8114,7.971023 -4.708,5.89816 -6.1996,6.262744 -8.4461,2.064891 -1.8814,-3.514941 -2.0934,-9.534979 -0.4241,-12.035252 1.4929,-2.235855 7.4017,-5.336495 10.169,-5.336495 z m 74.6125,7.850089 c 7.0132,0 19.063,6.931707 23.3064,13.407791 2.478,3.78229 2.5262,4.80462 0.4937,10.5808 -1.2377,3.51651 -2.9572,6.58526 -3.8206,6.82168 -0.8634,0.2362 -4.7918,-1.24689 -8.7288,-3.29615 -5.3054,-2.76113 -8.6936,-6.21271 -13.0903,-13.33605 -6.966,-11.285839 -6.5914,-14.178071 1.8396,-14.178071 z m -422.9325,3.179305 c 8.7513,-0.0096 18.9176,0.775737 23.7531,2.230926 7.4338,2.237323 18.0723,10.68537 18.0723,14.35218 0,2.54192 -3.6715,3.77076 -11.5108,3.85331 -3.5987,0.0376 -9.3682,1.1701 -12.8219,2.51768 -6.9632,2.71707 -25.9295,6.67358 -32.4614,6.7705 -2.3127,0.0346 -5.3154,-1.04823 -6.6722,-2.40504 -1.3567,-1.3568 -2.4664,-3.44918 -2.4664,-4.65023 0,-4.71221 6.671,-19.669901 9.4315,-21.14722 1.9196,-1.027254 7.8694,-1.514554 14.6758,-1.522106 z m -374.4553,8.134855 c 2.70229,0.08076 4.0034,0.971769 4.8899,2.628231 4.49955,8.40746 -5.20659,19.24134 -19.81772,22.12036 -5.01889,0.98886 -12.30232,2.82059 -16.18769,4.06842 -7.93741,2.54957 -10.50274,2.78945 -11.4678,1.0755 -0.3645,-0.64756 -0.50764,-3.87585 -0.31752,-7.17409 0.48478,-8.39938 8.70292,-15.02577 23.43956,-18.90193 10.19776,-2.682464 15.9869,-3.920328 19.46127,-3.816491 z m -60.543,3.275591 c 5.17911,0.0739 12.45918,1.63675 13.07798,3.26751 1.03868,2.73774 -11.81148,26.09648 -14.35628,26.09648 -1.24318,0 -2.31428,-0.5303 -2.38042,-1.17787 -0.0655,-0.64756 -0.3261,-2.23659 -0.57564,-3.53172 -0.24981,-1.29513 -0.94865,-7.0303 -1.55281,-12.74407 -0.95554,-9.03761 -0.7423,-10.52374 1.6327,-11.43499 0.93473,-0.35871 2.42811,-0.49988 4.15447,-0.47534 z m 827.3274,4.74043 c 0.1119,0.004 0.2112,0.0223 0.2971,0.0553 1.8364,0.70473 1.727,1.84746 -0.6495,6.81969 -1.5703,3.28598 -3.3461,8.2624 -3.9455,11.05803 -0.5994,2.79584 -4.038,8.2861 -7.641,12.19919 -5.3903,5.8539 -7.8027,7.273 -13.6148,8.01602 -3.8854,0.49653 -7.5936,0.3651 -8.2413,-0.29295 -2.2983,-2.33581 -1.0928,-5.19626 5.6766,-13.47953 8.9699,-10.97632 24.6495,-24.49959 28.1184,-24.37572 z m -116.823,5.78509 c 4.5947,0 8.9997,7.5928 10.3104,17.76706 0.5765,4.47465 1.6983,10.25429 2.4911,12.84445 0.7932,2.59027 2.5897,10.00728 3.9926,16.48273 1.4027,6.47546 3.9039,15.85783 5.5598,20.84809 1.6827,5.07103 2.6496,11.13334 2.1899,13.74385 -0.9449,5.3624 -12.1174,36.90729 -16.3823,46.25431 -1.5759,3.45358 -4.8186,11.93131 -7.2068,18.83848 -6.7567,19.54288 -8.4219,20.51276 -14.1351,8.24131 -2.1106,-4.53286 -3.843,-11.1196 -3.8513,-14.63695 -0.016,-3.51725 -1.6819,-11.99508 -3.7201,-18.83847 -2.0378,-6.8434 -4.2043,-15.97393 -4.8141,-20.29094 -0.6098,-4.317 -2.456,-13.14767 -4.1012,-19.62312 -5.3118,-20.90882 -9.1158,-39.77519 -10.2264,-50.71197 -0.9825,-9.67773 -0.7602,-11.03181 2.3783,-14.37264 1.9057,-2.0285 6.0559,-4.13597 9.2207,-4.68505 8.033,-1.39404 14.3526,-3.99133 20.0287,-8.23114 2.6717,-1.99556 6.3919,-3.63 8.2658,-3.63 z m -490.9792,6.28089 c 5.8591,0 11.031,0.61243 11.4945,1.36226 0.4637,0.75004 3.5643,1.79921 6.8913,2.3313 10.0124,1.60098 15.8809,12.16919 9.8945,17.81825 -3.4389,3.24559 -6.6952,10.50056 -12.1889,27.15163 -2.1364,6.47546 -4.5466,12.4442 -5.3549,13.26431 -0.8082,0.82031 -1.4689,2.40755 -1.4689,3.52763 0,1.11997 -3.5329,11.57816 -7.8499,23.23886 -4.317,11.6607 -7.8481,22.8898 -7.8481,24.95343 0,2.06353 -0.8832,4.06518 -1.9626,4.44738 -1.0791,0.38242 -9.4649,-1.83897 -18.6336,-4.93499 -22.7004,-7.66507 -22.017,-6.85483 -18.4964,-21.97478 1.585,-6.80752 4.6421,-16.86409 6.7951,-22.34775 2.1533,-5.48375 5.6739,-15.62078 7.8234,-22.52794 5.2456,-16.85676 14.7709,-40.17187 17.7979,-43.56252 1.8795,-2.10559 4.9419,-2.74707 13.1066,-2.74707 z m 232.173,3.41079 c 1.1706,0.006 2.3473,0.2899 3.5768,0.85021 3.5591,1.62164 4.5574,5.97346 7.8398,34.1985 0.4755,4.08751 -7.1571,4.99027 -13.5471,1.60203 -2.4709,-1.31024 -9.0929,-3.11679 -14.7168,-4.01514 -5.6241,-0.89846 -12.1672,-2.63841 -14.5407,-3.86568 -2.3736,-1.22727 -9.172,-3.0054 -15.1081,-3.95169 -11.6766,-1.86162 -20.213,-5.86606 -20.213,-9.48064 0,-1.64378 3.019,-2.60128 10.9884,-3.48463 21.0802,-2.33655 43.4596,-7.07058 52.1829,-11.03967 1.2029,-0.5474 2.3672,-0.81948 3.5378,-0.81329 z m -141.2376,13.50617 7.4383,1.08368 c 4.0907,0.59649 12.4347,2.79574 18.5435,4.8858 6.1086,2.09007 13.9321,3.80003 17.3861,3.80003 4.5349,0 7.2289,1.00847 9.6938,3.63209 3.8788,4.12884 4.2862,5.76286 1.4524,5.83838 -4.384,0.11621 -9.1304,6.62701 -19.6948,27.01843 -6.1041,11.78174 -14.5631,26.58053 -18.7976,32.88753 -4.2344,6.30711 -11.4312,17.82612 -15.993,25.5967 -4.5617,7.77048 -9.0911,14.64786 -10.0666,15.28221 -2.8562,1.85743 -15.4002,1.24216 -21.8929,-1.07351 -7.4311,-2.65026 -12.062,-6.71134 -12.0619,-10.5787 0,-1.62175 1.6495,-6.28099 3.6648,-10.3534 3.826,-7.73105 4.836,-10.28124 18.8017,-47.43428 4.706,-12.5193 10.0165,-25.58884 11.8017,-29.04242 1.785,-3.45358 4.704,-9.71412 6.4857,-13.91166 l 3.2388,-7.63088 z m 523.8564,3.64636 c 5.2127,-0.0465 11.2824,2.84158 16.917,8.24551 5.9169,5.66951 6.8343,7.36227 6.1293,11.29979 -1.5417,8.61073 -10.2205,19.54321 -15.5137,19.54321 -1.8322,0 -7.1831,-2.4535 -11.8918,-5.45324 -4.7088,-2.99974 -9.3961,-5.47211 -10.417,-5.49424 -1.0212,-0.022 -2.3022,-1.44711 -2.8474,-3.16504 -1.3133,-4.13702 8.1018,-21.82007 12.744,-23.93531 1.4993,-0.68312 3.1421,-1.02515 4.8796,-1.04068 z m -414.2505,20.29713 c 3.4507,-0.0259 7.2932,1.12626 12.279,3.37397 4.1726,1.88113 11.8188,3.8231 16.9908,4.31627 12.9232,1.23231 12.9431,3.90554 0.1007,13.33405 -5.6306,4.13377 -11.8286,10.09067 -13.7725,13.23777 -3.6149,5.85275 -51.0827,55.17173 -53.1007,55.17173 -0.6137,0 -2.0228,-1.0948 -3.1322,-2.43168 -2.4596,-2.96366 -5.2108,-34.87953 -3.8287,-44.41262 0.7758,-5.35212 2.813,-8.79973 9.5033,-16.07714 4.6843,-5.09505 8.5179,-9.92788 8.5179,-10.74054 0,-0.81265 1.4313,-1.93147 3.1814,-2.48695 1.75,-0.55548 6.3834,-3.78198 10.298,-7.1699 4.7371,-4.09989 8.5266,-6.08161 12.9633,-6.11496 z m 363.6554,43.21021 0.4957,4.26298 c 0.6411,5.51617 -6.125,17.92356 -14.5959,26.7644 -5.7004,5.94913 -7.7324,7.01698 -15.0815,7.93001 -4.6717,0.58033 -11.3955,1.45792 -14.9422,1.95015 -5.1512,0.71511 -6.6543,0.36017 -7.4711,-1.76786 -1.2241,-3.19063 5.2926,-21.94708 10.3289,-29.72658 4.4523,-6.87769 9.1596,-8.43525 27.1371,-8.98297 l 14.129,-0.43013 z m 5.5003,16.39662 c 5.5758,0 25.079,13.78443 27.086,19.14369 3.2311,8.62918 -6.3068,24.81635 -26.1805,44.43318 -17.3212,17.09726 -29.0611,23.83807 -34.8213,19.9919 -5.1263,-3.42295 -4.9891,-7.3265 0.7538,-21.5611 3.1351,-7.77059 7.631,-17.35654 9.9908,-21.30088 2.3599,-3.94414 4.5496,-9.52775 4.8654,-12.41012 0.3832,-3.50162 2.1915,-6.5924 5.4511,-9.31272 2.6831,-2.23921 6.2929,-7.42614 8.0222,-11.52719 1.7295,-4.10114 3.9039,-7.45676 4.8325,-7.45676 z m -168.1495,32.80761 c 2.759,-0.13258 10.4913,4.15863 30.5952,16.14878 3.3498,1.99765 7.7858,6.17117 9.8576,9.27381 3.5867,5.37121 3.7463,6.67746 3.329,27.342 -0.2576,12.7489 -1.0872,21.88132 -2.0096,22.13672 -0.8635,0.23903 -5.1005,-0.95342 -9.4173,-2.65089 -12.9159,-5.07816 -18.0539,-10.98283 -18.0539,-20.74981 0,-3.42831 -3.3944,-15.04664 -7.848,-26.85858 -4.3169,-11.44957 -7.85,-21.64271 -7.85,-22.65087 0,-1.21049 0.3175,-1.93935 1.397,-1.99116 z m -370.6082,9.59948 c 15.7935,0.0299 19.7971,2.0415 20.3504,10.21821 0.2324,3.43365 1.1352,11.10323 2.0075,17.04398 1.323,9.00918 1.1825,11.4181 -0.8501,14.52021 -2.3314,3.55815 -3.2013,3.71506 -20.0615,3.61972 -9.6933,-0.0547 -19.2128,-0.73693 -21.1554,-1.51791 -4.0906,-1.64409 -4.5194,-7.3995 -1.9256,-25.85283 2.1651,-15.40566 5.3507,-18.06242 21.6347,-18.03138 z m -304.71843,19.53911 c 1.87863,0.0632 4.69083,2.71162 12.03526,10.51735 6.16454,6.55139 16.20806,15.81922 22.32106,20.59615 10.66605,8.3354 16.88172,16.77327 15.33139,20.81327 -0.40267,1.04959 -4.85677,2.37535 -9.89862,2.94582 -5.04154,0.57048 -18.08889,3.48253 -28.9932,6.47147 -22.76623,6.24009 -24.45405,6.42647 -24.41673,2.68771 0.0159,-1.51099 2.12294,-9.81125 4.683,-18.44526 3.5668,-12.02927 4.66002,-18.86459 4.68095,-29.24306 0.0216,-10.51147 0.59481,-14.01256 2.55659,-15.64071 0.5521,-0.45825 1.07409,-0.72382 1.7003,-0.70274 z m 406.21823,2.75326 c 6.4847,-0.17306 15.9436,2.67953 18.986,6.04123 2.1541,2.3806 2.4095,4.7721 1.4893,13.93432 -1.7609,17.53274 -5.5005,20.55314 -21.5897,17.43111 -10.1694,-1.97343 -12.1705,-5.08393 -12.1705,-18.90613 0,-13.50428 1.7228,-16.43553 10.716,-18.23422 0.7776,-0.15544 1.6425,-0.24155 2.5689,-0.26631 z m 38.2547,10.77956 c 4.1027,-0.30008 30.3786,4.05447 35.1921,5.94693 4.2098,1.6551 4.3163,2.00815 4.3163,14.29282 0,12.10458 -0.1378,12.58632 -3.5316,12.30355 -1.9427,-0.16184 -11.81,-0.69214 -21.9278,-1.17787 -24.6871,-1.18521 -25.3821,-1.83981 -19.537,-18.42061 2.3487,-6.66225 4.5871,-12.43119 4.9759,-12.8199 0.064,-0.0635 0.2386,-0.10499 0.5121,-0.12492 z m 232.046,6.42217 c 1.9816,0.0825 3.6895,2.08073 3.6895,5.34059 0,2.27665 1.0639,8.24351 2.364,13.26032 2.6513,10.23173 4.3848,39.61765 2.9376,49.80649 -1.1876,8.36025 -4.5319,8.76112 -15.4297,1.84987 -9.4189,-5.97326 -13.2989,-10.49815 -13.3648,-15.58543 -0.1492,-11.42199 9.8871,-43.90498 16.2532,-52.61094 1.0745,-1.46924 2.3613,-2.11041 3.5502,-2.0609 z m -381.7155,18.92249 c 20.1914,-0.2381 32.0801,3.45221 29.7041,9.64458 -1.6257,4.23666 -17.6499,14.34956 -38.9615,24.58885 -20.8012,9.99396 -24.6962,10.85077 -30.8,6.77459 -10.3098,-6.88483 -18.7935,-17.39 -18.7935,-23.2675 0,-1.35649 1.5891,-3.12046 3.5317,-3.92095 1.9425,-0.80028 9.2987,-3.92106 16.3476,-6.93643 10.9729,-4.69417 15.262,-5.6349 29.8269,-6.53692 3.206,-0.19854 6.2603,-0.31214 9.1447,-0.34622 z m 46.6579,15.34167 4.554,0 c 2.9131,0 5.7961,1.42918 8.0016,3.96595 1.8965,2.18079 7.0141,6.23495 11.3716,9.00961 4.3576,2.77465 15.0159,10.43249 23.6853,17.01734 8.6698,6.58484 18.2059,13.23514 21.1923,14.77823 2.9864,1.54329 6.258,3.93364 7.2703,5.31195 4.825,6.56744 3.0023,18.99014 -2.786,18.99014 -1.5372,0 -3.2317,0.70577 -3.7653,1.5692 -0.5336,0.86331 -2.6727,1.56909 -4.7547,1.56909 -2.0819,0 -7.6457,1.7666 -12.365,3.92505 -9.9991,4.57366 -14.0541,4.79287 -20.6494,1.11242 -8.153,-4.54975 -30.4163,-22.26332 -33.0678,-26.30961 -1.9938,-3.04306 -2.3074,-6.18356 -1.5119,-15.22075 0.5515,-6.26211 1.4144,-16.86095 1.9155,-23.55226 l 0.9095,-12.16636 z m 93.2011,1.61011 c 2.8145,-0.0811 5.7261,0.85734 6.7008,2.70826 0.7957,1.51088 1.9632,14.96199 2.5935,29.89252 1.0444,24.74072 0.8996,27.41783 -1.6348,30.21818 -3.497,3.86432 -5.7877,3.87995 -9.2451,0.0595 -2.2853,-2.52492 -2.738,-6.28613 -2.7881,-23.15484 -0.034,-11.07702 -0.6821,-23.59883 -1.4422,-27.82553 -0.949,-5.27807 -0.8307,-8.35019 0.381,-9.81051 1.1153,-1.3437 3.2458,-2.02441 5.4349,-2.08755 z m 287.5946,6.71931 c 2.2358,-0.10855 3.2342,2.02241 3.7406,7.32356 0.6548,6.85693 -3.5038,8.44343 -6.2624,2.38868 -2.532,-5.55697 -2.3228,-8.10486 0.7662,-9.29028 0.6568,-0.25194 1.2396,-0.39689 1.7556,-0.42196 z m -725.49579,13.02475 c 1.59023,-0.0106 2.98866,0.23232 4.00902,0.77846 7.22083,3.86453 0.0273,18.5707 -19.0782,39.00239 -12.78759,13.67462 -17.99203,16.80316 -19.85869,11.93897 -1.13724,-2.96345 15.95203,-41.36505 20.51629,-46.10276 3.14941,-3.26887 9.64088,-5.58528 14.41158,-5.61706 z m 244.21229,14.87661 c 0.8922,0.0289 2.0126,0.54384 3.8268,1.48309 6.42,3.32384 19.4084,16.84742 21.8949,22.79834 2.8393,6.79525 3.3264,48.50999 0.6044,51.78957 -2.122,2.55712 -7.3944,2.72169 -15.649,0.48751 -3.022,-0.81769 -11.0265,-2.0587 -17.7876,-2.75735 -9.1136,-0.94166 -13.1211,-2.09982 -15.4953,-4.47402 l -3.2039,-3.20185 3.1712,-9.18571 c 7.3067,-21.17219 12.847,-37.87119 14.7127,-44.34308 1.0943,-3.79593 3.1779,-8.37127 4.6318,-10.16692 1.3776,-1.70125 2.1471,-2.46681 3.294,-2.42958 z m 80.1662,26.31979 c 1.1138,-0.003 1.9254,0.22036 2.2473,0.73955 3.2834,5.29622 1.4842,24.61947 -2.2924,24.61947 -0.7014,0 -4.6715,-3.44844 -8.8231,-7.6636 -4.589,-4.65904 -7.3364,-8.75494 -7.0061,-10.44759 0.5771,-2.95789 11.0478,-7.23368 15.8743,-7.24783 z m -324.25558,0.47523 c 1.4354,0.0106 2.02602,1.48571 2.02602,4.304 0,4.78731 -9.79444,19.57624 -20.1291,30.3924 -5.97426,6.25257 -12.22211,7.74594 -13.91789,3.32688 -1.5184,-3.95735 3.23075,-11.17938 16.64451,-25.30585 8.24655,-8.68466 12.98413,-12.73494 15.37646,-12.71743 z m 702.91048,10.75701 c 6.4818,0 8.8622,5.04313 18.1399,38.4596 1.6782,6.04375 3.8014,14.52147 4.7179,18.83848 0.9169,4.317 3.1378,12.56755 4.937,18.33659 3.1604,10.13377 3.0928,15.41332 -0.1967,15.41332 -0.8679,0 -6.8214,-7.94732 -13.2296,-17.66061 l -11.6501,-17.66049 -3.3043,-24.45366 c -4.2432,-31.41881 -4.246,-31.27323 0.5859,-31.27323 z m -229.8253,0.89321 c 5.0514,0.003 5.3343,0.56303 5.1132,3.81439 -0.5163,7.5885 -9.4292,40.10527 -12.7605,46.55544 -5.561,10.76718 -13.0561,15.18729 -19.4387,11.46373 -3.2811,-1.91407 -5.5576,-13.09324 -6.8607,-33.68645 -0.914,-14.44291 -0.7351,-15.96932 2.2329,-19.10069 4.035,-4.25701 18.8893,-8.8398 29.2432,-9.01989 0.9287,-0.016 1.7488,-0.0271 2.4706,-0.0265 z m -104.206,21.56509 c 3.4408,-0.13384 4.7112,4.19429 5.654,17.29182 0.7736,10.74411 0.5059,12.65607 -2.1427,15.30476 -3.4513,3.45127 -5.1828,3.52962 -17.1567,0.78255 -16.366,-3.7546 -20.4077,-6.84758 -20.4077,-15.62434 0,-5.35726 7.7625,-10.86347 19.6231,-13.91785 5.1805,-1.33405 10.947,-2.91709 12.8157,-3.51945 0.5856,-0.18869 1.1228,-0.2984 1.6143,-0.31749 z m 264.2513,2.65697 c 7.3527,0 26.8271,13.26431 29.7163,20.23975 2.6086,6.29746 3.1157,53.78901 0.5839,54.65957 -1.0124,0.34801 -4.8964,-2.41773 -8.6326,-6.14569 -11.0984,-11.07335 -26.5794,-29.73687 -28.2741,-34.08796 -1.7234,-4.42535 -0.4863,-24.57574 1.8928,-30.83282 0.8986,-2.36361 2.7055,-3.83285 4.7137,-3.83285 z m -410.4607,20.27248 c 2.615,-0.0923 6.7686,0.79356 12.5698,2.47468 15.9269,4.6154 40.6631,8.649 53.031,8.649 4.6243,0 13.8123,0.45773 20.418,1.01603 9.7269,0.82231 12.0086,1.50889 12.0086,3.61574 0,4.30914 -9.827,12.46528 -18.9225,15.70217 -4.7011,1.67314 -16.8713,7.31947 -27.043,12.54741 -20.6269,10.60146 -27.4641,11.8861 -31.3879,5.89785 -1.3001,-1.98413 -4.5313,-8.70638 -7.1822,-14.93609 -2.651,-6.22949 -6.9651,-14.44207 -9.5852,-18.25058 -7.9684,-11.58162 -9.6597,-16.51315 -3.9066,-16.71621 z m 121.555,20.65562 c 4.5286,-0.007 9.7451,0.72938 14.6268,2.21037 4.148,1.25852 14.3901,3.04358 22.7614,3.96804 19.0224,2.10077 36.3128,6.56881 38.851,10.04001 2.9787,4.07367 4.3961,16.42997 2.1898,19.08842 -1.0301,1.24122 -2.316,2.14859 -2.8578,2.01779 -0.5421,-0.13027 -11.5803,-0.77416 -24.5313,-1.4319 -12.9509,-0.65774 -28.4928,-1.93924 -34.5367,-2.84755 -6.0437,-0.9081 -14.1665,-2.06542 -18.0518,-2.57086 -9.1492,-1.18993 -13.6044,-4.21474 -14.9012,-10.11993 -1.3365,-6.08591 1.6163,-15.07097 5.951,-18.1071 2.1297,-1.49169 5.9704,-2.24058 10.4988,-2.24729 z m -174.01034,1.72485 c 1.8893,-0.0827 4.54682,2.55618 7.24164,7.58169 13.88109,25.88712 19.11354,36.93928 20.78469,43.90465 2.29041,9.54725 1.38081,12.60888 -3.74685,12.60888 -2.12132,0 -9.69956,2.82521 -16.84118,6.27879 -12.58385,6.08538 -15.69031,6.90737 -19.82182,5.24021 -2.35084,-0.94859 -2.52661,-7.69947 -0.43429,-16.71002 0.84053,-3.62004 3.35957,-16.82634 5.5987,-29.34554 2.23894,-12.5193 4.40316,-24.39774 4.80796,-26.39771 0.4214,-2.08188 1.27757,-3.11134 2.41115,-3.16095 z m 531.37054,7.58169 c 3.0699,0 3.6468,0.64368 19.6212,21.97697 7.435,9.92904 16.8102,21.42129 20.8338,25.53723 11.7902,12.06011 12.1281,16.0033 3.3719,39.25443 -2.2021,5.84771 -4.005,11.94159 -4.005,13.54299 0,6.02633 -3.6421,6.4486 -10.4906,1.21689 -3.5897,-2.74204 -9.3149,-8.51727 -12.7215,-12.83427 -3.4065,-4.3169 -8.1204,-9.61449 -10.4764,-11.77304 -7.4718,-6.84549 -8.4341,-10.56108 -9.6015,-37.13007 -1.2348,-28.09393 -0.2154,-39.79113 3.4681,-39.79113 z m -63.708,19.05369 c 1.9574,-0.098 3.0306,0.75487 4.5192,3.07075 1.3353,2.07748 7.7345,9.46366 14.221,16.41299 10.3869,11.12798 23.4472,27.70375 29.5238,37.47221 1.5094,2.42664 1.8011,8.10527 1.1328,22.10388 -0.4945,10.36075 -0.1517,25.90266 0.7621,34.53656 2.5214,23.81752 4.4443,59.02251 3.5359,64.75484 -0.9465,5.97463 -3.5285,6.3326 -14.4485,2.00962 -9.0543,-3.58437 -13.5008,-10.13744 -14.7066,-21.67365 -0.5181,-4.95869 -1.9941,-11.99833 -3.2798,-15.6428 -1.2859,-3.64427 -2.7365,-9.64165 -3.2244,-13.32787 -0.488,-3.68611 -1.5975,-10.93972 -2.4644,-16.12014 -0.8671,-5.18032 -2.653,-16.12298 -3.968,-24.31636 -2.5986,-16.19073 -6.572,-34.78398 -12.4163,-58.09898 -2.0562,-8.2023 -4.2199,-18.23696 -4.808,-22.29856 -1.0328,-7.13057 -0.919,-7.423 3.3207,-8.48717 0.8973,-0.22519 1.6482,-0.3627 2.3005,-0.39532 z m -391.9685,25.4184 c 2.5313,-0.003 4.8456,0.57393 7.0553,1.71667 6.3785,3.29856 21.0969,20.99912 19.9488,23.99068 -0.4832,1.25916 -0.8788,2.61418 -0.8788,3.01138 0,1.24018 -20.5537,10.00928 -23.4601,10.00928 -1.5178,0 -6.2073,1.83403 -10.4209,4.0745 -18.0459,9.59498 -35.9855,16.04526 -47.74983,17.16901 -6.4754,0.6184 -15.9267,2.44867 -21.00383,4.06842 -11.51529,3.67332 -15.03486,3.71789 -15.33139,0.19666 -0.12727,-1.51099 -0.10342,-6.98394 0.0553,-12.16436 0.25994,-8.51455 0.80364,-9.90555 5.64992,-14.47302 2.94883,-2.77906 7.33657,-5.53745 9.75316,-6.13132 2.41668,-0.59386 10.70495,-4.16135 18.41656,-7.92791 7.71132,-3.76646 19.01221,-8.64523 25.11521,-10.84102 6.1028,-2.19548 14.148,-5.69122 17.8758,-7.76807 5.9372,-3.30779 10.7562,-4.92597 14.9748,-4.9309 z m 83.6877,32.67042 c 3.1645,-0.11632 8.3781,0.33091 18.0416,1.2537 13.508,1.28989 28.8432,1.58703 44.3471,0.86038 31.564,-1.47921 30.659,-2.15593 32.6969,24.47002 2.3848,31.15796 2.3289,36.6499 -0.3768,37.11979 -1.2952,0.22498 -8.0042,-1.59941 -14.9115,-4.05406 -30.3383,-10.78165 -35.32,-12.62565 -40.2766,-14.91143 -2.8873,-1.33174 -13.7262,-5.69804 -24.087,-9.70406 -10.3607,-4.00601 -20.0725,-8.71162 -21.5835,-10.45577 -4.0356,-4.65893 -3.7878,-18.66258 0.3974,-22.45012 1.4719,-1.33216 2.5878,-2.01224 5.7524,-2.12845 z m -47.2643,4.48839 c 7.4059,0 17.5129,7.41848 20.1291,14.77623 1.8622,5.23728 -21.2832,25.25005 -56.2185,48.60807 -8.5517,5.71786 -16.4591,10.3964 -17.5705,10.3964 -1.1115,0 -2.4384,-2.2969 -2.9499,-5.10291 -3.6631,-20.08924 -6.4502,-43.0426 -5.3897,-44.38808 0.6984,-0.88618 3.9638,-2.53824 7.2559,-3.67311 3.2925,-1.13465 11.2835,-4.41129 17.759,-7.28056 18.7863,-8.32438 32.6856,-13.33604 36.9846,-13.33604 z m 499.366,17.45974 c 1.1037,0.004 2.3101,0.88587 3.6813,2.57915 2.0305,2.50814 2.9478,8.10066 3.8348,23.41706 0.641,11.06684 1.2718,21.86528 1.4033,23.99677 0.3467,5.62242 -3.2138,5.31678 -12.7112,-1.09186 -8.7396,-5.89711 -9.3993,-7.60833 -6.8197,-17.69753 0.7725,-3.02187 2.6572,-11.03873 4.1872,-17.81415 2.0696,-9.1661 3.9961,-13.39898 6.4243,-13.38944 z m -647.37003,4.35319 c 3.89357,-0.18648 6.20028,3.4411 4.44741,8.3418 -0.88482,2.47384 -1.3598,2.43262 -6.06167,-0.54499 -6.08895,-3.85603 -6.25214,-4.7333 -1.30492,-7.02652 1.03703,-0.4807 2.02067,-0.72718 2.91918,-0.77029 z m 179.12983,10.09738 c 2.9549,-0.0135 8.1617,1.99724 18.23,6.57384 6.4754,2.94341 14.9447,6.15838 18.8221,7.14326 8.5843,2.18079 15.1421,6.63645 16.6568,11.31825 1.7094,5.28468 0.9808,30.62997 -1.0591,36.81048 -2.0425,6.18891 -8.7118,9.85153 -17.9371,9.85153 -3.0771,0 -8.223,1.13665 -11.433,2.52796 -7.425,3.21811 -26.7059,8.39854 -31.3941,8.43388 -1.9696,0.0157 -3.9975,-1.05914 -4.5068,-2.38657 -1.2005,-3.12781 7.158,-74.38936 9.1693,-78.17701 0.7167,-1.34967 1.6788,-2.08754 3.4519,-2.09562 z m -20.8974,11.03348 c 4.0239,-0.0937 5.9913,6.54133 3.1158,14.10434 -1.3176,3.46565 -2.6051,11.80031 -5.5577,35.9951 -1.7619,14.4362 -4.9677,17.44213 -20.1639,18.89794 -5.6568,0.54195 -7.7958,0.14999 -8.4462,-1.54455 -0.4792,-1.24835 -3.6252,-3.37082 -6.9917,-4.71788 -3.3666,-1.34705 -6.8259,-3.76824 -7.6882,-5.37949 -0.9565,-1.78695 -3.0333,-2.80749 -5.3242,-2.61806 -3.8896,0.322 -11.855,-3.15351 -11.855,-5.17256 0,-0.63215 4.4141,-4.92786 9.8105,-9.54631 5.3963,-4.61824 11.9322,-10.35907 14.5222,-12.75833 2.5904,-2.39938 10.9692,-8.75767 18.6214,-14.12889 7.6523,-5.37131 15.2465,-10.73581 16.8759,-11.92061 1.1134,-0.8094 2.1525,-1.18909 3.0811,-1.2107 z m 461.6132,24.96372 c 1.7928,0.0521 3.5396,0.95215 5.6131,2.44804 6.5387,4.71724 15.6843,14.75788 16.7797,18.4226 0.6805,2.27718 -1.0972,6.19761 -6.0514,13.34433 -3.8583,5.56567 -9.5748,13.81548 -12.7031,18.3346 -6.651,9.60819 -13.9881,16.20101 -17.7016,15.90701 -1.4446,-0.11464 -8.2787,-1.58157 -15.1859,-3.26132 -6.9071,-1.67986 -13.5298,-3.36422 -14.7169,-3.74275 -3.7928,-1.20955 -0.8724,-13.35074 4.3061,-17.90436 2.4548,-2.15845 10.9401,-12.56881 18.8569,-23.13429 11.347,-15.14334 16.2215,-20.54707 20.8031,-20.41386 z m -154.7991,6.71102 c 3.7147,0.0933 8.6284,2.55817 19.5883,9.39674 5.6123,3.50183 13.0291,7.30374 16.4827,8.44826 5.9288,1.96493 18.0519,11.81404 18.0519,14.66558 0,0.72329 -1.5442,3.40617 -3.4334,5.9613 -4.1464,5.60847 -9.1281,5.94116 -21.6225,1.44837 -4.7156,-1.69559 -10.5154,-3.08312 -12.8875,-3.08312 -4.9273,0 -18.0436,-7.38964 -19.4531,-10.95975 -0.5174,-1.31076 -1.3304,-7.39772 -1.8067,-13.52663 -0.8203,-10.55741 -0.6814,-11.19113 2.6406,-12.05979 0.789,-0.20642 1.5825,-0.31246 2.4397,-0.29096 z m -180.5821,21.3849 c 0.6271,-6.3e-4 1.2425,0.0171 1.8417,0.0553 l 7.5959,0.48353 -0.1007,7.50176 c -0.1631,12.05948 -1.1043,12.46434 -32.363,13.92614 -14.9075,0.69697 -27.8379,1.55063 -28.7351,1.89487 -0.897,0.34413 -4.095,-0.1717 -7.1064,-1.14515 -8.2108,-2.65372 -6.9322,-5.92081 3.1588,-8.07129 12.0272,-2.56321 32.2094,-8.35124 41.8521,-12.00452 4.4718,-1.69422 9.4664,-2.63621 13.8564,-2.64061 z m 245.294,29.90888 c 5.3493,-0.15733 11.7389,4.02521 16.1528,11.18724 2.5231,4.09266 2.5588,5.23256 0.4384,14.12889 -1.2688,5.32202 -3.1389,14.5115 -4.1545,20.41994 l -1.8458,10.74264 -9.286,3.77757 c -5.1077,2.0779 -10.9836,3.77747 -13.0575,3.77747 -3.6725,0 -3.7421,-0.23484 -2.6632,-9.02586 0.6095,-4.96457 1.7999,-10.79246 2.6447,-12.95101 0.8447,-2.15845 2.0767,-11.64277 2.739,-21.07559 0.9861,-14.04445 1.7373,-17.54302 4.1422,-19.32598 1.4402,-1.06774 3.1068,-1.60277 4.8899,-1.65531 z m 38.1461,36.20413 c 0.5023,-0.0469 0.9947,0.0453 1.432,0.3155 2.4595,1.52001 1.9703,5.07323 -0.8461,6.15387 -3.3296,1.27772 -3.335,1.27626 -4.3184,-1.28653 -0.8332,-2.17145 1.556,-4.97957 3.7325,-5.18284 z"
       id="path4155"
       inkscape:connector-curvature="0" />
  </g>
</svg>
