<?xml version="1.0" encoding="UTF-8" standalone="no"?>
<!-- Created with Inkscape (http://www.inkscape.org/) -->

<svg
   xmlns:dc="http://purl.org/dc/elements/1.1/"
   xmlns:cc="http://creativecommons.org/ns#"
   xmlns:rdf="http://www.w3.org/1999/02/22-rdf-syntax-ns#"
   xmlns:svg="http://www.w3.org/2000/svg"
   xmlns="http://www.w3.org/2000/svg"
   xmlns:sodipodi="http://sodipodi.sourceforge.net/DTD/sodipodi-0.dtd"
   xmlns:inkscape="http://www.inkscape.org/namespaces/inkscape"
   width="2500"
   height="2500"
   viewBox="0 0 2500 2500"
   id="svg2"
   version="1.1"
   inkscape:version="0.91 r13725"
   sodipodi:docname="brizzlebees.svg"
   inkscape:export-filename="C:\Users\domay\Documents\GitHub\brizzlepuffs\media\teams\brizzlebees.png"
   inkscape:export-xdpi="18"
   inkscape:export-ydpi="18">
  <defs
     id="defs4" />
  <sodipodi:namedview
     id="base"
     pagecolor="#000000"
     bordercolor="#666666"
     borderopacity="1.0"
     inkscape:pageopacity="0"
     inkscape:pageshadow="2"
     inkscape:zoom="0.16"
     inkscape:cx="-1814.0066"
     inkscape:cy="1418.3863"
     inkscape:document-units="px"
     inkscape:current-layer="layer1"
     showgrid="false"
     units="px"
     inkscape:window-width="1563"
     inkscape:window-height="979"
     inkscape:window-x="-8"
     inkscape:window-y="1432"
     inkscape:window-maximized="1" />
  <metadata
     id="metadata7">
    <rdf:RDF>
      <cc:Work
         rdf:about="">
        <dc:format>image/svg+xml</dc:format>
        <dc:type
           rdf:resource="http://purl.org/dc/dcmitype/StillImage" />
        <dc:title></dc:title>
      </cc:Work>
    </rdf:RDF>
  </metadata>
  <g
     inkscape:label="Layer 1"
     inkscape:groupmode="layer"
     id="layer1"
     transform="translate(0,1447.6378)">
    <path
       style="fill:#ffdb19;fill-opacity:1;stroke-width:30;stroke-miterlimit:4;stroke-dasharray:none"
       d="M 1129.25 114.34375 L 991.75 352.5 L 1129.25 590.65625 L 1160.0918 590.65625 C 1165.8198 583.22726 1171.6497 575.66429 1175.9492 570.06641 C 1196.1813 543.72421 1208.1133 528.25973 1246.9961 477.98633 C 1259.594 461.69793 1272.2522 445.19329 1275.125 441.30859 L 1280.3477 434.24609 L 1286.127 437.86719 C 1289.3057 439.85899 1293.7035 443.14617 1295.8984 445.17188 C 1299.5593 448.55075 1299.774 449.39881 1298.4941 455.44141 C 1296.762 463.61831 1291.2731 490.93301 1282.957 532.75781 C 1279.4529 550.38201 1276.2028 566.59255 1275.7363 568.78125 C 1275.334 570.66914 1273.6217 579.18874 1271.3281 590.65625 L 1404.25 590.65625 L 1541.75 352.5 L 1404.25 114.34375 L 1129.25 114.34375 z M 689.25 374.34375 L 551.75 612.5 L 689.25 850.65625 L 964.25 850.65625 L 1101.75 612.5 L 964.25 374.34375 L 689.25 374.34375 z M 1569.25 374.34375 L 1431.75 612.5 L 1541.2246 802.11328 C 1543.7836 801.85045 1546.4852 801.58222 1548.8105 801.33789 C 1559.895 800.1732 1575.898 798.57042 1584.373 797.77734 C 1592.8479 796.98416 1606.4404 795.57444 1614.5801 794.64453 C 1622.72 793.71468 1637.0244 792.20757 1646.3672 791.29492 C 1655.7097 790.3822 1674.7149 788.45138 1688.5996 787.00586 C 1715.6092 784.19402 1717.7013 783.98571 1741.8828 781.70508 C 1750.5599 780.88663 1762.6043 779.66649 1768.6465 778.99219 C 1774.6888 778.31795 1780.7792 777.68153 1782.1816 777.57812 C 1783.5841 777.47474 1796.6106 776.17536 1811.1289 774.68945 L 1837.5254 771.98633 L 1846.1367 778.13086 C 1856.0003 785.16819 1855.9833 784.52804 1846.5996 797.18945 C 1842.1494 803.19402 1837.6644 806.52612 1813.4746 821.79297 C 1798.0863 831.50485 1782.3668 841.5132 1778.543 844.03516 C 1776.9076 845.11364 1773.0427 847.60808 1768.3047 850.65625 L 1844.25 850.65625 L 1981.75 612.5 L 1844.25 374.34375 L 1569.25 374.34375 z M 1262.623 634.34375 C 1257.5131 660.05639 1252.5942 684.91016 1251.707 689.61133 C 1250.6628 695.14453 1248.8816 704.16304 1247.75 709.65234 C 1246.6186 715.14164 1244.8671 723.84363 1243.8574 728.99023 C 1242.8477 734.13683 1240.1734 745.34885 1237.9141 753.90625 C 1228.8508 788.23494 1216.9131 833.28502 1209.2383 862.12305 C 1204.7825 878.86562 1199.3038 899.57516 1197.0645 908.14258 C 1193.6064 921.37185 1189.2046 938.01129 1181.4609 967.12109 C 1180.608 970.32729 1178.0386 979.94259 1175.752 988.48633 C 1173.4656 997.03017 1169.4615 1012.1996 1166.8535 1022.1973 C 1164.2455 1032.1949 1158.7123 1053.1759 1154.5566 1068.8203 C 1150.401 1084.4648 1147.0955 1097.5484 1147.2109 1097.8965 C 1147.3263 1098.2446 1153.4955 1093.1125 1160.9199 1086.4922 C 1168.3445 1079.8719 1184.0078 1066.0546 1195.7285 1055.7871 C 1207.4493 1045.5196 1219.1541 1035.2079 1221.7383 1032.8711 C 1226.2954 1028.7501 1296.1473 967.49958 1337.2754 931.56055 C 1348.4279 921.81535 1371.2013 901.86321 1387.8848 887.22266 C 1404.5683 872.58216 1426.6326 853.26314 1436.916 844.29297 C 1447.1993 835.32281 1460.4596 823.63935 1466.3828 818.33008 L 1477.1523 808.67773 L 1489.8145 807.27539 C 1493.4777 806.86972 1498.3672 806.35944 1503.2773 805.86328 L 1404.25 634.34375 L 1262.623 634.34375 z M 1082.3887 715.50781 L 991.75 872.5 L 1090.2148 1043.0449 C 1089.9842 1035.8115 1089.781 1025.4065 1089.7422 1017.9824 C 1089.6982 1009.4796 1089.4554 1000.1078 1089.2031 997.1543 C 1088.9507 994.20071 1088.6146 982.79706 1088.457 971.81445 C 1088.2993 960.83183 1087.9204 943.46192 1087.6152 933.21289 C 1086.9437 910.6546 1086.5736 895.60089 1086.2051 875.9668 C 1086.0521 867.81333 1085.7996 858.43554 1085.6445 855.12695 C 1085.4891 851.8183 1085.2358 843.10013 1085.082 835.75391 C 1084.4331 804.78419 1083.7552 775.04417 1083.252 755.53711 C 1082.9565 744.08139 1082.5813 726.71255 1082.4199 716.93945 C 1082.4117 716.44183 1082.3978 715.99913 1082.3887 715.50781 z M 689.25 894.34375 L 551.75 1132.5 L 642.45703 1289.6094 C 723.27185 1327.0093 769.89481 1348.2012 770.84375 1347.8867 C 771.05935 1347.8152 772.71639 1340.2441 774.52539 1331.0625 C 777.27179 1317.1223 778.54954 1313.165 782.27734 1307.0664 C 790.30264 1293.9371 792.03293 1292.6925 802.45312 1292.5645 C 807.54692 1292.502 815.09687 1292.2971 819.23047 1292.1074 C 823.36407 1291.9177 832.43753 1291.6126 839.39453 1291.4297 C 846.35153 1291.2468 855.07736 1290.9761 858.78516 1290.8301 C 862.49296 1290.6841 872.20729 1290.4235 880.37109 1290.25 C 888.53489 1290.0765 895.92768 1289.8274 896.80078 1289.6973 C 897.67378 1289.5672 905.07088 1289.3136 913.23828 1289.1328 C 921.40578 1288.9519 934.48965 1288.5566 942.31445 1288.2539 C 950.13925 1287.9511 965.57438 1287.4825 976.61328 1287.2129 C 987.65218 1286.9432 996.85731 1286.6665 997.07031 1286.5977 C 997.45841 1286.472 1028.1655 1245.9767 1048.3691 1218.9473 C 1051.7595 1214.4113 1057.3393 1207.0005 1063.2832 1199.125 L 1092.9688 1147.709 C 1092.9165 1146.0784 1092.8563 1144.6601 1092.8164 1142.8789 C 1092.6737 1136.5136 1092.3514 1124.9218 1092.0684 1115.7305 L 964.25 894.34375 L 689.25 894.34375 z M 1699.9453 894.34375 C 1684.8809 903.93263 1672.1417 912.02076 1670.375 913.07031 C 1667.7965 914.60224 1641.3403 931.38403 1611.584 950.36328 L 1557.4824 984.87109 L 1507.3965 1006.709 C 1506.4399 1007.1261 1504.3721 1008.0321 1503.3574 1008.4746 L 1431.75 1132.5 L 1440.4062 1147.4922 C 1456.0811 1142.4947 1476.0476 1136.1149 1498.0723 1129.0508 C 1530.9517 1118.505 1558.9166 1109.9504 1560.2168 1110.041 C 1561.517 1110.1315 1573.2873 1113.8885 1586.373 1118.3887 C 1599.4588 1122.8888 1611.8877 1127.0861 1613.9941 1127.7168 C 1616.1004 1128.3475 1632.7192 1134.0759 1650.9238 1140.4453 C 1705.5068 1159.5429 1748.528 1174.2936 1758.6621 1177.3867 C 1763.9146 1178.9899 1773.1958 1182.878 1779.2871 1186.0273 C 1790.7449 1191.9513 1793.2141 1193.9589 1816.3086 1216.1172 C 1822.8492 1222.3926 1837.6023 1236.4385 1849.0938 1247.3301 C 1860.2251 1257.8803 1879.0916 1275.8123 1891.9414 1288.0527 L 1981.75 1132.5 L 1844.25 894.34375 L 1699.9453 894.34375 z M 1449.7129 1031.9141 C 1428.474 1041.194 1409.4362 1049.5 1391.0703 1057.5371 C 1354.6389 1073.48 1321.4816 1087.931 1317.3867 1089.6523 C 1313.2917 1091.3737 1306.5294 1094.3131 1302.3594 1096.1836 C 1298.1895 1098.0542 1292.2299 1100.6336 1289.1172 1101.916 C 1286.0046 1103.1985 1281.3484 1105.2342 1278.7695 1106.4395 C 1277.9428 1106.8259 1273.9531 1108.5833 1269.2305 1110.6562 L 1404.25 1110.6562 L 1449.7129 1031.9141 z M 1552.3027 1145.5645 C 1551.1352 1145.6241 1532.9074 1151.2069 1511.7969 1157.9707 C 1442.3668 1180.2156 1343.0358 1211.8884 1316.7832 1220.1543 C 1302.6004 1224.6199 1290.9202 1229.0321 1290.8281 1229.959 C 1290.7361 1230.8859 1292.0545 1243.8136 1293.7578 1258.6855 C 1295.4612 1273.5575 1298.2833 1298.6284 1300.0273 1314.4004 C 1301.7715 1330.1725 1304.2944 1352.7372 1305.6348 1364.543 C 1306.9751 1376.3489 1308.8547 1393.6587 1309.8125 1403.0098 C 1311.4843 1419.3316 1311.7519 1420.2041 1316.4883 1424.8086 C 1319.2019 1427.4468 1339.0157 1451.1569 1360.5176 1477.498 C 1382.0194 1503.839 1399.9684 1525.0914 1400.4062 1524.7246 C 1400.8439 1524.3578 1406.6901 1510.4186 1413.3965 1493.75 C 1420.1029 1477.0813 1427.9788 1457.3752 1430.8984 1449.957 C 1433.8182 1442.5389 1444.4328 1416.1495 1454.4863 1391.3145 C 1464.5395 1366.4793 1475.3856 1339.5448 1478.5879 1331.4609 C 1497.425 1283.9084 1549.6504 1154.9653 1551.834 1150.6172 C 1553.8932 1146.5165 1553.9893 1145.4784 1552.3027 1145.5645 z M 249.25 1154.3438 L 111.75 1392.5 L 249.25 1630.6562 L 524.25 1630.6562 L 652.69141 1408.1914 C 641.63696 1405.2604 634.09123 1403.3105 633.88477 1403.3789 C 633.32987 1403.5628 608.37594 1437.5329 578.43164 1478.8691 C 548.48724 1520.2052 522.14488 1556.24 519.89258 1558.9453 C 515.19708 1564.5851 514.60353 1564.472 503.07812 1555.7539 L 496.30273 1550.6289 L 512.33984 1518.1855 C 521.15954 1500.3415 529.08828 1484.1186 529.95898 1482.1328 C 530.82988 1480.1471 546.82415 1447.5389 565.50195 1409.6699 C 602.10605 1335.4558 604.72593 1330.9776 609.98633 1333.6191 C 615.57103 1336.4236 611.29725 1332.6948 602.53125 1327.1152 L 593.17773 1321.1621 L 575.79102 1322.8828 C 566.22832 1323.8292 555.65673 1324.876 552.29883 1325.209 C 548.94103 1325.542 541.47568 1326.2644 535.70898 1326.8145 C 519.84308 1328.3279 519.73362 1328.3407 511.66602 1329.4023 C 507.52412 1329.9473 503.84543 1330.2468 503.49023 1330.0684 C 503.13493 1329.89 500.91143 1330.0278 498.54883 1330.375 C 496.18623 1330.7221 487.60497 1331.7818 479.48047 1332.7305 L 464.70898 1334.4551 L 456.05078 1328.459 C 451.28938 1325.1603 447.25333 1322.0382 447.08203 1321.5215 C 446.91083 1321.0048 449.57509 1316.5598 452.99219 1311.6387 C 460.13879 1301.3625 454.90531 1303.5668 501.97461 1290.998 C 517.29231 1286.9079 533.66322 1282.4994 538.35352 1281.2012 C 543.04382 1279.9029 557.18841 1276.079 569.78711 1272.7031 L 589.53125 1267.4121 L 524.25 1154.3438 L 249.25 1154.3438 z M 1172.5332 1154.3438 C 1174.1433 1155.1286 1177.6703 1156.5647 1181.7129 1158.0547 C 1187.1644 1160.0641 1196.9088 1163.689 1203.3652 1166.1113 C 1209.8217 1168.5336 1220.111 1172.3887 1226.2305 1174.6777 C 1232.3503 1176.9668 1248.1833 1182.9395 1261.416 1187.9512 L 1285.4746 1197.0645 L 1292.8184 1194.498 C 1298.6428 1192.4629 1353.4049 1175.0144 1406.5059 1158.252 L 1404.25 1154.3438 L 1172.5332 1154.3438 z M 2009.25 1154.3438 L 1917.832 1312.6816 C 1937.2909 1331.1868 1957.1906 1350.0904 1967.8574 1360.1797 C 1977.3305 1369.1399 1976.6205 1367.73 1980.0098 1384.2812 C 1981.3926 1391.0331 1982.7082 1396.9811 1982.9336 1397.498 C 1983.1589 1398.015 1984.2269 1403.1777 1985.3086 1408.9707 C 1986.3902 1414.7637 1990.2985 1433.9054 1993.9922 1451.5098 C 1997.6858 1469.114 2001.1914 1486.0732 2001.7832 1489.1973 C 2002.3751 1492.3213 2004.376 1501.9164 2006.2285 1510.5195 C 2010.4231 1529.9992 2010.2251 1529.046 2012.541 1541.1426 C 2013.6007 1546.6771 2014.7897 1552.2295 2015.1836 1553.4824 C 2015.5777 1554.7354 2017.2999 1563.0716 2019.0117 1572.0078 C 2020.7235 1580.9441 2022.7246 1590.5393 2023.457 1593.3301 C 2024.9517 1599.0247 2024.902 1602.2192 2022.8262 1630.6562 L 2284.25 1630.6562 L 2421.75 1392.5 L 2284.25 1154.3438 L 2009.25 1154.3438 z M 1771.5332 1212.7402 C 1768.8846 1213.0963 1763.8695 1218.9205 1737.459 1250.7324 C 1722.936 1268.2257 1692.1654 1305.0231 1680.3809 1318.9902 C 1669.4839 1331.9054 1606.0304 1407.7557 1567.9238 1453.418 C 1556.7619 1466.7929 1542.7339 1483.539 1536.752 1490.6309 C 1525.5918 1503.8619 1461.9916 1579.9269 1450.0723 1594.2988 C 1446.4136 1598.7104 1443.5559 1602.6136 1443.7227 1602.9727 C 1443.8894 1603.3317 1451.5711 1614.2609 1460.793 1627.2598 C 1470.0148 1640.2587 1479.4129 1653.7845 1481.6777 1657.3164 C 1485.1254 1662.6931 1491.5976 1670.1256 1494.3848 1671.9082 C 1494.7778 1672.1599 1502.8547 1675.2856 1512.332 1678.8555 C 1521.8091 1682.4252 1539.6718 1688.7787 1552.0254 1692.9727 C 1564.379 1697.1665 1593.6394 1707.1981 1617.0488 1715.2656 C 1640.4582 1723.3331 1669.4985 1733.2722 1681.584 1737.3516 C 1702.8426 1744.5268 1804.5107 1779.2491 1859.582 1798.1426 C 1929.6417 1822.1782 1975.2438 1837.3549 1976.3262 1836.9961 C 1976.9147 1836.8011 1977.2603 1832.4084 1980.2227 1787.4863 C 1980.9962 1775.7597 1982.1085 1760.4587 1982.6953 1753.4844 C 1983.2817 1746.5099 1983.7974 1738.8399 1983.8418 1736.4395 C 1983.8868 1734.039 1984.4048 1726.3683 1984.9922 1719.3945 C 1985.5801 1712.4207 1986.1535 1704.7788 1986.2656 1702.4121 C 1986.3771 1700.0453 1986.9277 1692.3906 1987.4863 1685.4023 C 1988.0456 1678.4142 1988.5906 1670.7591 1988.6992 1668.3906 C 1989.2218 1657.0056 1991.6377 1621.7771 1992.4473 1613.7363 C 1992.7956 1610.2767 1992.9226 1606.8342 1992.7285 1606.0859 C 1992.3821 1604.7496 1983.1103 1605.1362 1902.7441 1609.8398 C 1880.6929 1611.1305 1853.4881 1612.6673 1842.2891 1613.2559 C 1831.09 1613.8444 1811.3618 1614.9681 1798.4492 1615.752 C 1785.5368 1616.5359 1763.4195 1617.8125 1749.2988 1618.5898 C 1735.1782 1619.3672 1715.1025 1620.5247 1704.6875 1621.1602 C 1660.1069 1623.8804 1644.9969 1624.7655 1621.4707 1626.041 C 1607.7713 1626.7837 1582.954 1628.1724 1566.3223 1629.125 C 1549.6907 1630.0775 1524.8603 1631.4942 1511.1426 1632.2734 C 1497.4249 1633.0525 1482.0899 1633.9787 1477.0664 1634.332 C 1472.0431 1634.6855 1467.84 1634.6969 1467.7266 1634.3594 C 1467.6132 1634.0216 1470.0875 1632.5136 1473.2227 1631.0059 C 1479.3583 1628.0551 1492.3762 1621.1996 1537.9141 1596.9453 C 1573.4867 1577.9987 1649.0449 1537.8609 1671.9551 1525.7402 C 1681.2172 1520.8403 1696.2479 1512.8604 1705.3574 1508.0059 C 1714.4669 1503.1513 1727.352 1496.2904 1733.9922 1492.7598 C 1740.6323 1489.2291 1749.8923 1484.2976 1754.5703 1481.8008 C 1768.5788 1474.3241 1870.5346 1420.3887 1901.9648 1403.8281 C 1945.1335 1381.0828 1945.8969 1380.6462 1946.1055 1378.5469 C 1946.2879 1376.7062 1939.5836 1370.1391 1872.8418 1306.7754 C 1858.3485 1293.0156 1830.4444 1266.4502 1810.832 1247.7422 C 1791.2196 1229.0342 1774.005 1213.3391 1772.5781 1212.8633 C 1772.2408 1212.7508 1771.9116 1212.6894 1771.5332 1212.7402 z M 1004.1367 1318.1484 C 1003.9868 1318.1393 1003.84 1318.1505 1003.6875 1318.1719 C 1002.3642 1318.3573 996.62585 1318.608 990.93555 1318.7305 C 985.24535 1318.8529 978.18841 1319.0891 975.25391 1319.2539 C 972.31961 1319.4186 965.57147 1319.654 960.25977 1319.7773 C 954.94807 1319.9005 946.89287 1320.1501 942.35938 1320.332 C 937.82587 1320.5139 930.42797 1320.773 925.91797 1320.9082 C 921.40797 1321.0433 909.99293 1321.4024 900.55273 1321.7051 C 891.11263 1322.0079 879.0364 1322.3689 873.7168 1322.5078 C 861.9265 1322.8155 807.49621 1324.4678 807.07031 1324.5312 C 806.90201 1324.5569 804.92699 1333.4279 802.67969 1344.2441 C 800.43229 1355.0603 797.41441 1366.2558 795.97461 1369.123 L 793.35742 1374.3359 L 816.90234 1385.2031 L 840.44727 1396.0703 L 835.69336 1418.4863 C 833.07826 1430.815 830.84572 1441.5555 830.73242 1442.3535 C 830.60772 1443.2308 821.6589 1441.2871 808.0957 1437.4355 C 795.7585 1433.9321 784.81504 1431.1407 783.77734 1431.2324 C 782.30784 1431.3624 781.66072 1432.8598 780.85742 1438.002 C 780.29002 1441.6339 777.50848 1459.3022 774.67578 1477.2637 C 767.40578 1523.36 764.31082 1543.4409 763.85742 1547.4688 C 763.60692 1549.6934 766.88371 1557.0897 772.91211 1567.9043 C 778.10811 1577.2254 789.54603 1597.8314 798.32812 1613.6953 C 807.11032 1629.5591 825.76766 1663.1673 839.78906 1688.3809 C 853.81036 1713.5944 867.70858 1738.8977 870.67578 1744.6113 C 873.64258 1750.325 876.3338 1755.1367 876.6543 1755.3027 C 876.9767 1755.4646 887.9582 1748.0711 901.0625 1738.8633 L 924.88867 1722.1211 L 952.01172 1695.1777 C 952.01172 1695.1777 964.14423 1683.6642 983.39453 1663.5762 C 990.97123 1655.6698 1007.9854 1637.7802 1021.2031 1623.8223 C 1034.4206 1609.8642 1047.8226 1595.8157 1050.9863 1592.6035 C 1058.2928 1585.1859 1058.6663 1584.3776 1059.3809 1574.4395 C 1060.1931 1563.1444 1070.3624 1462.3866 1072.1523 1447.9004 C 1072.9243 1441.6523 1072.2747 1440.1071 1057.0176 1411.9629 C 1048.2492 1395.7882 1037.6563 1376.2016 1033.4785 1368.4375 C 1009.0585 1323.0537 1006.3861 1318.2856 1004.1367 1318.1484 z M 687.42383 1417.5078 L 551.75 1652.5 L 689.25 1890.6562 L 964.25 1890.6562 L 1101.75 1652.5 L 1074.5098 1605.3203 C 1054.9782 1627.1776 1013.9802 1671.1273 994.05078 1691.2266 L 988.52344 1696.7988 L 910.99609 1767.957 L 893.09961 1780.3809 C 875.75251 1792.4241 875.08746 1792.747 871.41016 1790.9004 C 862.85956 1786.6065 854.95807 1779.393 851.41797 1772.6484 C 849.45647 1768.9112 847.3691 1765.6126 846.7793 1765.3164 C 846.1896 1765.0202 845.74311 1764.2665 845.78711 1763.6426 C 845.83111 1763.0189 840.83499 1753.4503 834.68359 1742.3789 C 828.53209 1731.3075 814.32122 1705.6541 803.10352 1685.3711 C 791.88592 1665.0881 778.01871 1640.0665 772.28711 1629.7676 C 766.55541 1619.4685 754.99902 1598.515 746.60742 1583.2031 L 731.34961 1555.3633 L 732.85938 1545.8418 C 736.05908 1525.6568 744.10708 1474.3219 746.51758 1458.7168 C 747.90688 1449.7225 749.42784 1440.7406 749.89844 1438.7559 C 750.36884 1436.771 750.40778 1434.9904 749.98438 1434.8008 C 748.54964 1434.1576 717.21285 1425.559 687.42383 1417.5078 z M 1291.4492 1446.7168 C 1284.9033 1446.7815 1265.4234 1448.878 1259.707 1450.1934 C 1258.7813 1450.4063 1251.1334 1451.802 1242.7109 1453.2949 C 1234.2885 1454.7877 1227.1162 1456.0916 1226.7734 1456.1934 C 1226.1652 1456.3736 1226.2781 1463.9754 1227.3809 1497.541 C 1227.6778 1506.5744 1228.0576 1518.3294 1228.2266 1523.6641 C 1228.6991 1538.5651 1230.293 1582.0272 1231.0723 1601.2695 L 1231.3359 1607.8281 L 1219.3945 1630.6562 L 1347.6953 1630.6562 C 1350.315 1629.3199 1352.3394 1628.2917 1356.4453 1626.2266 C 1373.4881 1617.6546 1387.0515 1610.3507 1387.4688 1609.5195 C 1387.7085 1609.0422 1387.5251 1606.7874 1387.0605 1604.5098 C 1386.0894 1599.7468 1382.4911 1573.05 1380.5996 1556.5664 L 1379.3125 1545.3438 L 1355.1348 1515.9941 C 1341.8377 1499.8521 1328.5082 1483.6321 1325.5117 1479.9492 C 1322.5152 1476.2663 1315.2405 1467.3485 1309.3457 1460.1328 L 1298.627 1447.0137 L 1292.5781 1446.7324 C 1292.2646 1446.7179 1291.8856 1446.7125 1291.4492 1446.7168 z M 886.1543 1456.2246 C 886.6011 1455.8241 894.36876 1466.4192 903.41406 1479.7695 C 912.45936 1493.1199 920.85537 1505.3483 922.07227 1506.9434 C 924.22417 1509.7644 924.03983 1510.4606 915.36133 1532.5098 C 904.78793 1559.3735 893.01382 1589.7733 886.60352 1606.7578 C 884.06462 1613.4849 881.69529 1619.0867 881.33789 1619.2051 C 880.98069 1619.3235 879.02343 1615.6401 876.99023 1611.0195 C 874.95723 1606.3989 868.64152 1592.0838 862.95312 1579.209 L 852.60938 1555.8008 L 856.43164 1544.627 C 859.90034 1534.482 869.02575 1506.85 880.87305 1470.6211 C 883.33175 1463.1025 885.7077 1456.625 886.1543 1456.2246 z M 1102.8008 1457.3398 C 1102.2336 1457.3715 1099.6727 1480.0385 1099.2246 1488.9883 C 1099.1063 1491.3519 1097.7656 1505.2153 1096.2441 1519.7969 C 1094.7226 1534.3784 1092.9445 1551.9879 1092.293 1558.9297 C 1092.0727 1561.2763 1091.906 1563.0526 1091.6699 1565.5664 L 1129.25 1630.6562 L 1137.7715 1630.6562 C 1143.5187 1612.3708 1143.8684 1610.1052 1143.6504 1596.4688 C 1143.5198 1588.3266 1143.3098 1559.1441 1143.1816 1531.6191 C 1143.0532 1504.0941 1142.8041 1476.1298 1142.6289 1469.4746 L 1142.3105 1457.373 L 1122.8516 1457.3398 C 1112.1491 1457.3211 1103.1261 1457.3215 1102.8008 1457.3398 z M 249.25 1674.3438 L 111.75 1912.5 L 249.25 2150.6562 L 524.25 2150.6562 L 661.75 1912.5 L 524.25 1674.3438 L 249.25 1674.3438 z M 1196.5449 1674.3438 L 1193.2402 1680.6602 C 1172.2868 1720.7182 1142.9196 1777.0926 1127.9805 1805.9355 C 1093.8868 1871.7609 1089.5243 1879.7579 1082.8555 1888.6387 C 1076.6887 1896.8511 1076.8878 1896.8576 1064.8887 1887.9648 L 1058.3457 1883.1152 L 1066.6309 1856.9004 C 1071.1872 1842.4817 1078.5758 1818.976 1083.0508 1804.666 C 1087.5259 1790.3561 1092.8983 1773.2288 1094.9883 1766.6055 C 1105.9152 1731.9763 1111.9521 1712.7783 1117.793 1694.1895 L 991.75 1912.5 L 1129.25 2150.6562 L 1404.25 2150.6562 L 1541.75 1912.5 L 1493.7832 1829.4199 C 1488.7849 1831.4753 1484.2534 1833.3468 1481.5586 1834.4746 C 1475.9345 1836.8282 1467.2123 1840.379 1462.1758 1842.3672 C 1448.3614 1847.8203 1445.2887 1849.0732 1398.4746 1868.3438 C 1374.611 1878.1671 1354.6374 1886.3106 1354.0898 1886.4395 C 1353.5425 1886.5684 1333.588 1894.7204 1309.7461 1904.5547 C 1285.9042 1914.389 1264.5584 1923.1359 1262.3105 1923.9922 C 1258.2599 1925.5357 1258.1453 1925.4952 1249.332 1919.334 C 1244.4417 1915.9152 1240.3279 1912.7763 1240.1895 1912.3594 C 1240.0514 1911.9425 1242.6378 1907.7787 1245.9375 1903.1074 C 1251.6569 1895.0102 1255.6872 1891.9119 1332.332 1836.6523 C 1376.5491 1804.7725 1412.8035 1777.9063 1412.8984 1776.9512 C 1412.9934 1775.9961 1411.1401 1764.1382 1408.7793 1750.5996 C 1402.9763 1717.3209 1400.9367 1704.8803 1400.5547 1700.4316 C 1400.3777 1698.3715 1399.7973 1696.4657 1399.2656 1696.1973 C 1398.4977 1695.8116 1385.6321 1697.7324 1375.1387 1699.8008 C 1374.2211 1699.9817 1369.9302 1700.6297 1365.6035 1701.2422 C 1361.2766 1701.8547 1357.3106 1702.5448 1356.791 1702.7754 C 1355.9897 1703.1311 1330.5575 1707.4462 1281.3965 1715.5684 C 1275.3456 1716.5681 1264.4349 1718.2917 1257.1504 1719.3984 C 1249.8661 1720.5052 1242.4702 1721.9132 1240.7168 1722.5273 C 1237.0354 1723.817 1233.9907 1722.4955 1224.5859 1715.5254 C 1217.942 1710.6016 1217.8462 1710.431 1219.6875 1706.8242 C 1220.7212 1704.8014 1223.8342 1700.3196 1226.6055 1696.8652 C 1231.0347 1691.345 1235.2128 1688.7568 1263.1465 1674.3438 L 1196.5449 1674.3438 z M 2019.834 1674.3438 C 2018.4136 1696.7774 2017.4087 1711.0927 2016.668 1719.1484 C 2016.1001 1725.3246 2015.5425 1732.3133 2015.4297 1734.6797 C 2014.9395 1744.9568 2014.0763 1757.7675 2012.2227 1782.2617 C 2011.1331 1796.6564 2010.1631 1810.3775 2010.0664 1812.752 C 2009.9694 1815.1264 2009.4689 1822.731 2008.9551 1829.6504 C 2007.9114 1843.697 2011.694 1833.7337 1970.2754 1931.541 C 1961.673 1951.8549 1952.9314 1972.5758 1950.8496 1977.5879 C 1943.5533 1995.1535 1937.9647 2008.4739 1933.3633 2019.2168 L 2009.25 2150.6562 L 2284.25 2150.6562 L 2421.75 1912.5 L 2284.25 1674.3438 L 2019.834 1674.3438 z M 1496.4512 1707.0156 C 1496.1102 1707.1404 1495.1605 1709.426 1494.3398 1712.0957 C 1492.8717 1716.8747 1493.1525 1717.4328 1512.4277 1748.1445 C 1523.1957 1765.3017 1533.1373 1781.0369 1534.5195 1783.1094 C 1543.5461 1796.6447 1543.5503 1795.3763 1534.4375 1807.9746 C 1531.6743 1811.7945 1530.2147 1813.5871 1526.043 1815.8203 L 1569.25 1890.6562 L 1637.9961 1890.6562 C 1608.8918 1871.0406 1603.8896 1867.503 1599.4082 1864.1445 C 1594.9851 1860.8297 1590.7963 1855.7871 1585.3145 1847.1777 C 1581.0249 1840.4406 1576.8629 1833.933 1576.0645 1832.7168 C 1575.266 1831.5005 1569.5786 1822.4268 1563.4277 1812.5527 C 1527.9965 1755.6748 1496.9904 1706.8181 1496.4512 1707.0156 z M 1971.5449 1844.8906 C 1965.249 1844.837 1950.8564 1845.2993 1918.2969 1846.4414 C 1901.0317 1847.0471 1876.4793 1847.9074 1863.7363 1848.3535 C 1850.9935 1848.7996 1825.4564 1849.6474 1806.9883 1850.2363 C 1788.5202 1850.8251 1758.9379 1851.8329 1741.25 1852.4766 C 1691.8055 1854.2758 1661.1528 1855.3093 1645.6504 1855.6992 L 1631.5215 1856.0547 L 1642.5391 1863.3574 C 1662.9921 1876.9144 1855.4784 2006.19 1874.791 2019.3398 C 1885.3239 2026.5116 1894.5724 2032.7713 1895.3418 2033.25 C 1896.2356 2033.8061 1897.5338 2032.5313 1898.9414 2029.7188 C 1900.1561 2027.3 1909.6447 2005.1376 1920.0332 1980.4707 C 1930.4213 1955.8037 1944.5875 1922.2765 1951.5137 1905.9668 C 1972.7604 1855.9345 1976.6321 1846.492 1976.3066 1845.5098 C 1976.1841 1845.1403 1975.3224 1844.9228 1971.5449 1844.8906 z M 689.25 1934.3438 L 551.75 2172.5 L 689.25 2410.6562 L 964.25 2410.6562 L 1101.75 2172.5 L 964.25 1934.3438 L 689.25 1934.3438 z M 1569.25 1934.3438 L 1431.75 2172.5 L 1569.25 2410.6562 L 1844.25 2410.6562 L 1981.75 2172.5 L 1915.2695 2057.3516 C 1913.9735 2059.4631 1912.7279 2061.2953 1911.4355 2063.0391 C 1905.5294 2071.0084 1906.8564 2071.2818 1887.3516 2058.0801 C 1880.5394 2053.4692 1849.2609 2032.4564 1817.8438 2011.3848 C 1768.8838 1978.5467 1731.9189 1953.7533 1703 1934.3438 L 1569.25 1934.3438 z "
       transform="translate(0,-1447.6378)"
       id="path3356" />
  </g>
</svg>
