<?xml version="1.0" encoding="UTF-8" standalone="no"?>
<!-- Created with Inkscape (http://www.inkscape.org/) -->

<svg
   xmlns:dc="http://purl.org/dc/elements/1.1/"
   xmlns:cc="http://creativecommons.org/ns#"
   xmlns:rdf="http://www.w3.org/1999/02/22-rdf-syntax-ns#"
   xmlns:svg="http://www.w3.org/2000/svg"
   xmlns="http://www.w3.org/2000/svg"
   xmlns:sodipodi="http://sodipodi.sourceforge.net/DTD/sodipodi-0.dtd"
   xmlns:inkscape="http://www.inkscape.org/namespaces/inkscape"
   id="svg2"
   version="1.1"
   inkscape:version="0.91 r13725"
   width="989"
   height="989"
   viewBox="0 0 989 989"
   sodipodi:docname="cambridge.svg"
   inkscape:export-filename="C:\Users\domay\Documents\GitHub\brizzlepuffs\media\teams\cambridge.png"
   inkscape:export-xdpi="45"
   inkscape:export-ydpi="45">
  <metadata
     id="metadata8">
    <rdf:RDF>
      <cc:Work
         rdf:about="">
        <dc:format>image/svg+xml</dc:format>
        <dc:type
           rdf:resource="http://purl.org/dc/dcmitype/StillImage" />
        <dc:title></dc:title>
      </cc:Work>
    </rdf:RDF>
  </metadata>
  <defs
     id="defs6" />
  <sodipodi:namedview
     pagecolor="#ffffff"
     bordercolor="#666666"
     borderopacity="1"
     objecttolerance="10"
     gridtolerance="10"
     guidetolerance="10"
     inkscape:pageopacity="0"
     inkscape:pageshadow="2"
     inkscape:window-width="2560"
     inkscape:window-height="1377"
     id="namedview4"
     showgrid="false"
     inkscape:zoom="0.33746653"
     inkscape:cx="-681.27702"
     inkscape:cy="973.12621"
     inkscape:window-x="84"
     inkscape:window-y="-8"
     inkscape:window-maximized="1"
     inkscape:current-layer="svg2" />
  <path
     style="fill:#7d090a;fill-opacity:1"
     d="m 510.43099,966.91877 c -13.74298,-4.1805 -18.59739,-18.58931 -10.12962,-30.0669 5.06096,-6.85958 13.2544,-9.74731 21.82352,-7.69155 4.37329,1.04878 4.99071,0.99066 6.13987,-0.58105 1.39332,-1.90562 1.41767,-1.84473 3.03868,7.57212 0.77265,4.48845 0.18307,4.57068 -2.43185,0.33745 -3.6932,-5.97562 -12.97287,-7.85607 -19.1471,-3.87991 -5.78089,3.7224 -8.32182,17.15573 -4.68604,24.77281 4.36131,9.13752 19.35606,10.06534 26.0182,1.61043 1.58073,-2.00648 2.57249,-2.68215 2.57909,-1.75748 0.0155,2.55104 -6.23416,7.71602 -11.12174,9.18725 -5.03225,1.51427 -8.29284,1.6477 -12.08301,0.4949 z m -41.57682,-1.03054 c -2.94769,-0.45848 -3.48599,-0.72379 -1.6684,-0.82234 3.72088,-0.20164 4.19986,-2.03751 5.01899,-19.24405 l 0.70197,-14.74774 -4.77754,0 c -4.7624,0 -6.95309,1.28269 -8.25947,4.83562 -0.73861,2.00879 -0.81055,-2.82136 -0.0823,-5.53771 0.57082,-2.12943 0.72683,-2.14721 14.25079,-1.6306 18.64663,0.71218 18.04177,0.52669 17.94899,5.49428 -0.0426,2.25 -0.3165,3.43891 -0.6097,2.64103 -1.28483,-3.49441 -3.50945,-4.8353 -8.02137,-4.8353 l -4.53954,0 -0.62431,9.42886 c -0.34328,5.18554 -0.62665,12.57103 -0.62949,16.41176 l -0.008,6.98375 3.14287,0.90757 c 2.8707,0.82851 2.6822,0.90218 -2.17586,0.84908 -2.92531,-0.0424 -7.27704,-0.36457 -9.6705,-0.73421 z m -26.59379,-2.40328 c -4.25504,-0.65666 -7.05802,-1.25482 -6.22885,-1.32926 3.95982,-0.35687 4.72883,-2.31599 6.69659,-17.05911 2.40098,-17.98932 2.44141,-16.78455 -0.60191,-17.94159 -4.1522,-1.57862 -2.29269,-1.71128 5.93643,-0.42391 4.25503,0.66599 7.02815,1.26289 6.16243,1.32611 -2.95223,0.2172 -3.78041,2.77562 -5.68365,17.55986 -1.93204,15.00766 -1.72588,17.36983 1.51664,17.36983 0.70132,0 1.54409,0.43485 1.87282,0.96741 0.69065,1.11744 0.58696,1.11237 -9.6705,-0.46973 z m 98.39722,0.38942 c 3.13441,-1.23657 3.26834,-2.85015 1.63856,-19.74519 -1.26159,-13.07757 -1.94762,-14.96262 -5.48605,-15.0724 l -2.68011,-0.0814 2.47834,-0.75213 c 1.36317,-0.41499 5.49731,-1.03639 9.18701,-1.38469 6.51355,-0.61401 6.61536,-0.59037 3.50332,0.81495 -3.13175,1.41418 -3.19128,1.553 -2.5971,6.06132 1.4936,11.33332 0.49935,10.63747 12.6272,8.83424 l 7.38727,-1.09889 -0.67044,-5.36625 c -0.99983,-8.00218 -1.93035,-9.84344 -4.97546,-9.84344 -4.30084,0 -1.86948,-1.08566 5.63745,-2.51731 8.77761,-1.67412 9.6985,-1.64924 6.34613,0.17059 -1.46263,0.79364 -2.65939,1.894 -2.65939,2.44519 0,3.10653 5.22426,29.59295 6.0369,30.60646 0.53314,0.66483 2.07644,1.20939 3.42963,1.20939 4.32988,0 1.68365,0.967 -6.66645,2.43663 -9.91482,1.74469 -10.94463,1.74308 -6.91004,0 3.51426,-1.52783 3.60712,-2.0208 2.05652,-10.92411 l -1.08636,-6.23854 -4.47417,0.65349 c -2.46073,0.36079 -6.75547,0.90689 -9.54379,1.21678 l -5.06968,0.56319 0.63131,5.42559 c 1.0367,8.9111 1.6044,10.20347 4.74193,10.79809 2.43589,0.46155 2.56141,0.62408 0.89789,1.16048 -1.06375,0.34139 -5.19789,0.86385 -9.18694,1.15703 -5.81052,0.42823 -6.72401,0.32584 -4.59348,-0.51584 z m -143.365,-8.4068 c -8.92579,-2.24191 -9.74458,-2.61393 -6.76935,-3.07626 l 3.38466,-0.52594 3.54401,-13.53842 c 4.23879,-16.19295 4.4411,-18.49501 1.70186,-19.36423 -1.10378,-0.35302 -1.79672,-0.84715 -1.53975,-1.1043 0.61582,-0.61554 17.33999,3.03085 22.87398,4.98767 8.05288,2.84738 12.5854,9.08524 12.5854,17.32094 0,5.40775 -1.32728,8.98401 -4.65501,12.54272 -5.75043,6.15054 -14.5263,6.92785 -31.1258,2.75782 z m 20.34485,-1.42626 c 10.58503,-5.33752 11.72682,-21.89594 1.95579,-28.36216 -3.54573,-2.34624 -12.62049,-4.29537 -12.6417,-2.71472 -0.008,0.47126 -1.53148,7.34592 -3.38948,15.27681 -1.85793,7.9313 -3.12706,14.67684 -2.82029,14.98905 1.10881,1.13145 6.76963,2.84159 9.64284,2.91335 1.61594,0.0424 4.87967,-0.90533 7.25284,-2.10233 z m 193.14475,-3.62237 c -4.82007,-1.45138 -9.00356,-4.6921 -11.27625,-8.73609 -3.18135,-5.66026 -2.65846,-15.36174 1.13708,-21.0977 3.57339,-5.39956 10.44538,-8.85203 17.61924,-8.85203 4.69576,0 5.48582,-0.27932 6.19534,-2.17601 0.76107,-2.03635 0.9196,-1.92772 2.47063,1.69227 4.09391,9.55497 4.04178,9.81289 -1.0763,5.31859 -6.31788,-5.54701 -16.79298,-3.11932 -20.94615,4.85463 -3.56811,6.85101 -0.0232,20.28428 6.3854,24.19136 4.01652,2.44942 10.55473,2.44595 15.61199,0 3.75374,-1.82107 5.11003,-3.30739 7.96549,-8.72992 1.11246,-2.11272 1.27339,-2.17362 1.27543,-0.48327 0.008,5.35461 -7.51541,12.14126 -15.46319,13.95072 -5.04902,1.14963 -6.29895,1.15896 -9.89871,0.0775 z m -244.43516,-3.90087 c -4.32329,-0.75789 -20.43356,-6.16679 -23.2092,-7.792 -0.94886,-0.55581 -0.42853,-0.65936 1.50472,-0.29866 1.88026,0.35301 3.34581,0.0814 4.02874,-0.74311 1.22642,-1.47786 10.90639,-27.67178 10.90639,-29.51227 0,-0.66675 -1.19671,-1.86104 -2.65939,-2.65428 -4.2911,-2.328 -1.90335,-1.76673 10.16438,2.38935 6.24377,2.15077 12.96911,5.02762 14.94487,6.39408 8.5868,5.93643 9.95515,19.00399 2.80355,26.77198 -4.66079,5.06289 -10.63211,6.82191 -18.48406,5.44576 z m 9.28115,-4.8647 c 3.68667,-2.27873 6.35948,-7.49414 6.94467,-13.55153 0.81551,-8.44136 -5.97607,-16.51345 -14.09333,-16.7512 l -3.47108,-0.10472 -5.07532,14.50614 c -2.79133,7.97779 -4.77478,14.79008 -4.40769,15.13762 0.36732,0.34516 2.6258,1.32572 5.01929,2.17363 5.15801,1.82647 10.67804,1.30947 15.08346,-1.41302 z m 268.98711,-0.93899 c 3.56791,-1.43443 3.41009,-2.53949 -2.75165,-19.26931 -2.63612,-7.15744 -5.32207,-13.34018 -5.96871,-13.74007 -0.64671,-0.39834 -2.26732,-0.51468 -3.60146,-0.256 -1.33408,0.256 0.83817,-0.85099 4.82722,-2.4665 10.58693,-4.28797 11.63276,-4.53542 8.46169,-2.00255 -1.46264,1.16827 -2.65938,2.59447 -2.65938,3.16928 0,2.46496 10.18099,28.08252 11.33697,28.52631 1.96423,0.75359 12.51366,-3.53976 15.13255,-6.1587 1.28584,-1.28586 2.69329,-3.9563 3.1277,-5.93453 l 0.78984,-3.59634 0.52099,5.31858 c 0.51323,5.23934 0.47262,5.3453 -2.71652,7.0829 -4.44427,2.42117 -25.43711,10.33343 -27.22448,10.2609 -0.82378,-0.0424 -0.51038,-0.43715 0.72524,-0.93397 z m -313.44266,-6.27783 c -9.04502,-3.89423 -9.44073,-4.19173 -5.31374,-3.99625 l 3.16816,0.1513 6.28444,-14.87001 6.28449,-14.8703 -2.1302,-1.72454 c -3.62694,-2.93699 -2.39947,-2.89273 4.88085,0.17455 8.45162,3.56225 9.2983,4.22745 5.36552,4.21851 -3.29806,0 -3.77473,0.87625 -11.63132,21.55927 l -3.10037,8.1625 2.86986,2.29581 c 3.81258,3.05063 2.43756,2.82374 -6.67769,-1.10084 z m -28.78883,-12.44221 c -8.7932,-3.14142 -14.36774,-8.72915 -14.36774,-14.40183 0,-2.71472 3.34442,-10.10144 9.07225,-20.03566 2.92978,-5.08152 3.14446,-7.39136 0.91612,-9.85355 -0.90991,-1.00543 1.49959,-0.0739 5.51313,2.1329 8.27853,4.55014 9.13881,5.21572 5.59739,4.32669 -2.25946,-0.56742 -2.8939,-0.16676 -4.97454,3.12749 -4.70825,7.45849 -10.32208,19.61753 -10.32208,22.35673 0,8.02475 13.18371,13.90607 19.69337,8.78574 2.60649,-2.05066 12.21927,-21.01393 12.21927,-24.10529 0,-0.93475 -0.97915,-2.40868 -2.17586,-3.27523 -2.06822,-1.49794 -2.00846,-1.5111 1.20877,-0.26761 4.60086,1.77919 11.64324,5.67505 8.98179,4.96873 -3.72124,-0.98796 -5.64553,1.11237 -9.92592,10.8341 -4.99568,11.34609 -7.12442,14.40451 -10.95545,15.73993 -3.72352,1.29823 -6.12598,1.22185 -10.4805,-0.33354 z m 383.10057,-2.23808 c -2.86008,-1.47315 -4.30042,-3.63122 -9.46408,-14.18107 l -6.09057,-12.44377 -3.10757,0.5608 c -2.14503,0.38981 -0.75536,-0.64463 4.48646,-3.3322 4.17672,-2.14144 7.82919,-3.65887 8.11656,-3.37099 0.28742,0.28703 -0.19276,0.79663 -1.0665,1.13217 -2.62195,1.00612 -1.84472,4.56106 3.35139,15.33118 5.27805,10.93958 8.11424,14.08291 12.70706,14.08291 4.01199,0 10.11248,-3.66303 12.47982,-7.49336 2.71658,-4.39576 1.96472,-7.37233 -4.82441,-19.10045 -5.24763,-9.06546 -5.79101,-9.67015 -8.68107,-9.66083 -1.69571,0 -3.08305,-0.0814 -3.08305,-0.1978 0,-0.36463 11.68756,-7.06713 12.32228,-7.06713 0.33783,0 -0.33824,0.88709 -1.50243,1.97199 -1.16402,1.08449 -2.11642,2.42269 -2.11642,2.97379 0,0.55158 1.76388,4.02265 3.91972,7.7141 5.19326,8.89245 8.63085,16.37687 8.64245,18.81736 0.0155,3.82093 -4.91726,9.8369 -10.187,12.41705 -7.03075,3.44313 -11.73814,3.98854 -15.90264,1.84356 z m -422.48074,-9.13559 c -3.00879,-2.97733 -6.39047,-7.74273 -8.40734,-11.84646 -1.85576,-3.77636 -4.45173,-8.81724 -5.76875,-11.20265 -3.4439,-6.23702 -3.28468,-12.73858 0.45664,-18.63775 9.40465,-14.82966 33.11697,-10.24265 37.84649,7.32113 1.87409,6.96043 -1.31534,16.05921 -7.06887,20.16524 -2.48493,1.77374 -4.8453,2.36096 -11.01279,2.74152 l -7.85001,0.48329 1.18523,4.64945 c 0.72397,2.84036 2.44063,5.94536 4.4112,7.97817 5.15726,5.32088 1.75819,3.83995 -3.7918,-1.65194 z m 10.43233,-17.09013 c 4.93388,-3.9897 8.7778,-11.78564 8.7778,-17.80267 0,-4.3311 -0.3935,-5.23212 -3.75447,-8.59305 -3.34445,-3.34429 -4.27424,-3.75426 -8.51557,-3.75426 -5.63982,0 -9.91707,2.70157 -14.07167,8.88784 -5.89854,8.7822 -5.71073,16.76784 0.50439,21.45024 5.71988,4.31005 11.5769,4.24531 17.05952,-0.1901 z m 450.47736,9.81397 c 1.19677,-0.83467 2.17586,-2.30822 2.17586,-3.27369 0,-1.94595 -13.7688,-25.2045 -16.03352,-27.0841 -1.0935,-0.90726 -2.05053,-0.92744 -4.06135,-0.0854 l -2.63076,1.10199 2.27138,-1.68497 c 7.12522,-5.28401 20.17708,-12.84751 23.12593,-13.40061 4.38398,-0.82197 7.74382,0.39403 10.20417,3.70106 1.83532,2.46496 1.86349,2.84892 0.46979,6.39646 l -1.48254,3.77443 3.38408,-0.76337 c 9.27433,-2.09178 14.00331,7.14737 7.73619,15.11507 -2.20042,2.79703 -24.49009,17.86089 -26.29823,17.77204 -0.57029,-0.0424 -0.0578,-0.7338 1.139,-1.56816 z m 13.37036,-9.59601 c 5.51353,-3.23102 8.14648,-6.63228 8.14648,-10.52421 0,-6.24247 -5.56988,-8.42895 -12.82079,-5.03232 -9.06407,4.24648 -8.99554,4.06377 -4.32955,11.54088 2.24054,3.59013 4.21868,6.52751 4.39584,6.52751 0.17723,0 2.25078,-1.13062 4.60802,-2.51186 z m -9.20796,-15.69419 c 7.52068,-4.78133 8.71275,-11.21468 2.70302,-14.58759 -3.09214,-1.73577 -8.40887,-0.44063 -12.82509,3.12432 l -2.81671,2.27371 3.67947,5.96162 c 2.02372,3.27837 3.96761,5.96092 4.31976,5.96092 0.35185,0 2.57491,-1.22957 4.93955,-2.73298 z m -168.4758,-43.21514 c -10.86465,-3.48465 -22.40649,-11.96011 -25.5582,-18.76731 -0.88137,-1.90369 -2.47379,-4.41824 -3.53887,-5.58814 -2.4988,-2.74421 -1.70198,-4.64751 2.59695,-6.20205 4.29474,-1.55307 4.38302,-3.48279 0.3134,-6.85263 -2.61993,-2.16978 -2.97201,-2.90398 -2.08699,-4.35158 0.58545,-0.958 2.21232,-1.8792 3.6151,-2.0472 2.51724,-0.29864 7.21765,-4.28174 9.91331,-8.39593 1.21444,-1.85365 1.181,-2.66198 -0.27229,-6.58378 -0.91134,-2.45873 -1.40627,-4.7212 -1.09978,-5.02762 1.11848,-1.11823 10.15058,-1.91725 16.34979,-1.44598 5.01886,0.38011 7.23622,1.09536 10.50649,3.38455 9.15888,6.40999 11.0104,7.22111 16.49531,7.22226 6.63072,0 19.39771,-3.88068 23.79834,-7.23736 3.76863,-2.87417 7.94155,-10.5483 10.83304,-19.92202 2.19658,-7.12065 5.44448,-28.34361 6.93861,-45.33834 1.26909,-14.43632 1.80576,-17.66034 4.0023,-24.04479 3.04225,-8.8428 6.98784,-13.75285 22.3236,-27.78149 8.08657,-7.39719 15.98223,-14.75559 17.54587,-16.35131 2.61543,-2.66854 8.8697,-14.80364 8.05143,-15.62168 -0.19471,-0.19394 -3.28778,2.33309 -6.87283,5.61801 l -6.51832,5.97292 -2.72707,-1.61089 c -1.77973,-1.05155 -4.85887,-1.60774 -8.86369,-1.6015 -11.19165,0 -18.40288,5.06327 -27.32101,19.11909 -4.59621,7.24359 -10.39671,12.02646 -16.10594,13.2805 -3.78541,0.8316 -8.85758,-1.76094 -13.28319,-6.78865 -3.10646,-3.52882 -4.40511,-6.66524 -9.14113,-22.07664 -7.96765,-25.92715 -11.58142,-34.66361 -18.44137,-44.58235 -3.28747,-4.75339 -6.41238,-8.7652 -6.94428,-8.91494 -0.53188,-0.15122 -2.85479,2.32729 -5.162,5.50436 -2.30727,3.17705 -4.58102,5.53769 -5.05284,5.24635 -1.04761,-0.64734 2.8055,-11.12267 6.95482,-18.90728 3.08733,-5.79254 6.62632,-9.44826 16.76693,-17.3198 7.16706,-5.56333 13.37038,-12.83249 17.42173,-20.41501 l 3.19838,-5.9861 2.44502,2.44479 c 2.42824,2.42809 3.42591,5.2041 5.4209,15.08289 1.437,7.11556 8.6732,25.31622 10.05926,25.30067 1.29757,0 7.93066,-9.73213 11.54225,-16.91051 5.19778,-10.33113 7.05257,-23.56112 4.56086,-32.53227 -1.14121,-4.10879 -0.32853,-6.80335 3.31298,-10.985 1.38952,-1.59573 4.108,-6.70912 6.04109,-11.36279 1.93309,-4.65415 4.02792,-8.46192 4.65523,-8.46192 0.62731,0 3.15381,0.68576 5.61446,1.52474 2.46059,0.83821 5.47554,1.382 6.69983,1.20861 2.183,-0.30642 2.22745,-0.5488 2.30142,-12.4038 0.1152,-18.44772 4.14378,-30.55373 14.89312,-44.75305 4.95949,-6.5516 5.00507,-7.64227 0.2145,-5.13233 -3.63036,1.90168 -8.01401,6.7416 -12.61102,13.92391 -6.17696,9.65074 -7.28355,14.1074 -7.30803,29.43389 -0.0272,15.46691 -0.51863,16.07007 -7.72356,9.42884 -2.30809,-2.1275 -4.61909,-3.86828 -5.13559,-3.86828 -0.51644,0 -2.5327,5.1529 -4.48053,11.4505 -1.94783,6.29753 -4.34335,12.17614 -5.32343,13.06286 -1.66541,1.50688 -1.88255,1.50141 -3.32211,-0.0893 -0.84716,-0.93599 -2.02191,-2.96841 -2.61055,-4.51679 -0.58864,-1.54845 -1.41063,-2.41807 -1.82659,-1.93242 -12.02618,14.03718 -16.11904,17.80616 -19.3372,17.80616 -0.50629,0 -1.37559,-1.30555 -1.93184,-2.90089 -1.27425,-3.65533 -2.40398,-3.65303 -13.26044,0.0424 -31.21932,10.59712 -64.29109,14.27377 -100.66132,11.19057 -17.06053,-1.44598 -19.3125,-1.44714 -28.52797,0 -14.32647,2.23538 -15.17185,3.18406 -17.80955,19.99033 -1.84031,11.72466 -3.75836,16.5153 -8.87066,22.15309 -2.08553,2.29967 -6.68779,9.05183 -10.22721,15.00497 -5.3791,9.04674 -6.33823,11.30845 -5.84377,13.78042 0.53235,2.66159 0.3518,2.95709 -1.80405,2.95709 -1.3175,0 -3.87417,-1.07673 -5.6814,-2.39275 -5.60394,-4.08125 -7.6397,-4.60833 -15.37404,-3.98231 -3.98907,0.32191 -7.39601,1.01353 -7.57094,1.53445 -0.17532,0.52046 -1.14826,1.93156 -2.16309,3.13517 l -1.84513,2.1888 -3.63912,-3.93189 c -2.00159,-2.16209 -5.32243,-6.0055 -7.37983,-8.54029 l -3.74062,-4.60872 -3.07472,2.98003 c -4.61575,4.47338 -5.78377,3.94821 -9.13838,-4.10949 -5.13369,-12.33213 -5.62985,-15.29978 -3.75379,-22.45291 2.61212,-9.9587 5.50706,-15.70273 12.96486,-25.7235 6.49934,-8.73338 7.47326,-9.61617 14.05209,-12.73895 8.60481,-4.08433 13.93525,-9.46303 27.50355,-27.75054 10.75744,-14.49952 13.84457,-17.51682 21.63182,-21.14112 5.14645,-2.39513 6.14886,-2.49637 30.94556,-3.11462 26.45207,-0.65944 30.54946,-1.16326 44.48426,-5.47217 15.296,-4.72936 39.30889,-18.63081 42.16449,-24.40933 0.39436,-0.79748 0.77529,-7.54264 0.84677,-14.98912 0.092,-9.59053 0.53724,-14.38471 1.52672,-16.43962 0.76823,-1.59572 6.2925,-9.34162 12.27617,-17.21355 5.98359,-7.87116 10.87923,-14.72995 10.87923,-15.24155 0,-1.60036 -13.15568,8.55422 -18.05422,13.936 -2.56925,2.82252 -6.79977,9.01418 -9.40101,13.75947 -5.17712,9.44395 -5.51504,11.47368 -4.09161,24.58388 0.72905,6.71529 0.6192,7.49883 -1.48153,10.57079 -1.24787,1.82494 -5.45976,5.25145 -9.35966,7.61354 -6.30932,3.82217 -7.36156,4.17203 -9.54808,3.17637 -2.29199,-1.04454 -2.35165,-1.23695 -0.88746,-2.85477 2.29386,-2.53479 1.97095,-3.03324 -1.96454,-3.03324 -3.28682,0 -3.4305,-0.12018 -2.0507,-1.69227 4.88687,-5.57334 5.78127,-11.76886 2.41933,-16.75736 -5.12383,-7.60309 -12.66176,-9.55182 -21.17208,-5.47249 -8.88591,4.25963 -21.86315,18.99651 -22.78591,25.87586 -0.40933,3.05103 -1.00665,3.99864 -2.80616,4.4505 -1.25744,0.31805 -2.88579,0.3413 -3.61864,0.0624 -0.78522,-0.29865 -1.77035,0.45033 -2.39905,1.82963 -1.44068,3.16274 -3.40542,2.949 -8.71492,-0.94608 -2.46468,-1.80822 -6.79418,-4.0432 -9.62109,-4.96672 -6.84525,-2.23721 -8.26156,-3.76082 -7.54173,-8.11237 0.31457,-1.90138 0.57685,-4.62389 0.58275,-6.04893 0.008,-2.30088 0.59705,-2.76129 5.25318,-4.11458 4.02343,-1.16942 6.03018,-2.47189 8.62882,-5.60052 1.86246,-2.24191 3.17654,-4.41592 2.92027,-4.83022 -0.25599,-0.41537 -1.94355,-0.75444 -3.7495,-0.75444 -3.66562,0 -14.51009,-3.67388 -18.43419,-6.24517 -3.43292,-2.24885 -1.96777,-3.53776 5.11385,-4.49815 5.32612,-0.7218 14.78399,-4.35742 14.78399,-5.68275 0,-1.30478 -6.99519,-3.88185 -10.53547,-3.88185 -4.44909,0 -8.989,2.8276 -16.7837,10.45477 -4.61808,4.51833 -5.56054,5.99964 -5.56054,8.73769 l 0,3.29694 -16.19809,-0.46626 c -14.32592,-0.41114 -17.03632,-0.76176 -23.45092,-3.02193 -9.91329,-3.49357 -14.51645,-8.21522 -14.48096,-14.85405 0.0232,-3.61192 0.77075,-5.80071 3.41628,-9.9494 1.86534,-2.92575 4.48974,-8.80013 5.83183,-13.05546 3.45495,-10.95321 6.37716,-16.49205 12.96638,-24.57617 7.02985,-8.62514 7.74998,-11.50046 4.9539,-19.77775 -3.69311,-10.93343 -2.39202,-16.50638 6.37717,-27.31608 6.53752,-8.05887 8.10213,-12.41043 9.0011,-25.03466 1.147,-16.10687 4.03693,-22.0778 16.80163,-34.71358 4.354,-4.31044 8.49221,-9.24383 9.19605,-10.9633 1.78547,-4.36287 0.68107,-8.89167 -3.30327,-13.5462 l -3.36609,-3.93265 3.04113,-1.06041 c 3.43829,-1.19814 10.02933,-1.29284 12.8636,-0.18232 1.64849,0.64466 2.42663,-0.38981 6.06246,-8.04608 5.49149,-11.56644 7.36078,-18.11727 6.80899,-23.86014 l -0.44582,-4.63937 3.69327,1.8843 c 4.93395,2.51731 9.13964,6.75831 12.90883,13.0175 l 3.11036,5.16529 8.30615,-6.68464 c 8.53402,-6.86773 11.79365,-10.49742 14.72292,-16.39429 0.92477,-1.8618 2.35227,-4.14991 3.17231,-5.08506 1.38445,-1.57863 1.61624,-1.58679 3.24473,-0.11248 0.96457,0.87308 2.26492,4.18556 2.88976,7.36108 l 1.13587,5.77392 3.96441,-0.62102 c 5.90045,-0.92466 15.35096,-5.6622 20.18823,-10.12115 4.526,-4.17203 5.52667,-4.20383 5.54797,-0.17455 0.0272,5.1044 1.06743,6.66054 5.81863,8.70428 7.43874,3.20039 7.97556,2.91568 11.69477,-6.20636 2.20136,-5.3985 4.1045,-5.38217 7.5588,0.0663 1.58694,2.50253 3.03697,5.00476 3.22231,5.56056 0.58949,1.76834 8.99478,-3.05957 14.13443,-8.11899 7.71146,-7.59077 10.1517,-12.48419 9.94609,-19.94606 -0.1664,-6.04161 -0.10938,-6.19943 2.0064,-5.53077 5.52574,1.7474 10.48135,7.2242 12.22721,13.51241 0.58349,2.10148 1.06329,8.71676 1.06623,14.70046 l 0.004,10.87915 7.97812,0 c 10.74631,0 18.52049,1.36452 31.14853,5.42828 9.14628,2.94325 11.36609,3.32143 16.19805,2.76093 5.31388,-0.61716 5.59936,-0.54225 5.59936,1.46691 0,1.16481 -1.82533,4.71929 -4.05631,7.89988 -3.31742,4.72937 -3.80188,5.94376 -2.6594,6.66677 4.96085,3.13912 37.36571,16.57583 42.07466,17.44623 3.15214,0.58259 6.54928,1.49718 7.54926,2.03251 1.72724,0.92427 1.69411,1.09688 -0.66265,3.4536 l -2.48073,2.48082 6.46968,7.23036 c 8.0886,9.03943 13.42134,13.14508 19.83251,15.27029 2.75615,0.91341 6.46244,2.26516 8.23633,3.00405 l 3.22526,1.34357 -4.30299,3.78761 c -5.27584,4.64405 -6.87896,8.27267 -6.3006,14.261 1.01521,10.51066 8.48586,19.33058 20.59286,24.31239 4.25501,1.75087 8.38184,3.802 9.17062,4.55837 2.20127,2.11003 0.173,4.34225 -5.35322,5.89178 -2.63142,0.73773 -5.34175,1.52944 -6.02291,1.7598 -0.7127,0.24052 2.77686,4.12967 8.21994,9.16008 8.67556,8.01851 14.63895,11.88056 23.79125,15.4087 4.31068,1.66202 2.97079,4.11381 -3.45954,6.32971 -3.05503,1.05309 -5.54725,2.14106 -5.53824,2.41761 0.008,0.27933 3.29078,4.56922 7.29295,9.53826 11.81598,14.67135 23.22266,41.13491 27.45328,63.69221 3.57702,19.07182 7.78762,59.13423 7.78762,74.09732 0,15.75894 -1.30948,24.56563 -6.26235,42.11817 -5.0411,17.86474 -6.66185,30.68284 -6.00635,47.50112 0.30066,7.71208 1.20377,17.60211 2.00696,21.97854 2.22666,12.13195 3.79684,31.33327 3.24488,39.68193 -1.08127,16.35709 -14.44578,46.35879 -27.43981,61.59958 -10.73655,12.59313 -18.22713,17.11308 -52.62852,31.76033 -9.33576,3.97462 -20.01183,8.75634 -23.72453,10.62624 -14.07559,7.08845 -30.9416,22.01503 -38.94533,34.46696 -1.93719,3.01384 -5.03526,9.08523 -6.88451,13.49185 -3.56797,8.50303 -8.17539,14.75051 -12.54428,17.00991 -1.46149,0.75551 -8.0542,2.0693 -14.65039,2.91952 -29.94287,3.85935 -47.23322,7.17369 -53.70235,10.29338 -7.58153,3.65649 -16.68704,4.5285 -23.72348,2.2718 z m -134.061,-493.80862 c 2.62928,-1.87227 5.60034,-6.90999 5.60034,-9.49559 0,-0.54888 -1.89955,-0.99798 -4.22121,-0.99798 -5.90279,0 -9.31742,2.80119 -9.31742,7.64497 0,2.00031 0.29013,3.92726 0.64469,4.2818 1.245,1.24503 4.40417,0.62402 7.2936,-1.4332 z m 181.38575,-17.64254 c 1.44933,-0.75397 3.72305,-2.53596 5.05277,-3.96061 l 2.41758,-2.58906 -10.63751,0.65127 c -10.67722,0.65358 -18.73801,3.11307 -19.60138,5.98063 -0.73924,2.45448 18.02227,2.38697 22.76854,-0.0814 z M 480.5407,314.96489 c 1.37473,-0.95684 3.55063,-3.74562 4.83525,-6.19782 2.29676,-4.38452 2.30436,-4.48191 0.45858,-5.85074 -2.50583,-1.85712 -4.75034,-1.75471 -6.59198,0.29872 -2.01672,2.25201 -6.6334,12.81495 -6.02838,13.79397 0.65884,1.06587 4.32452,0.0424 7.32653,-2.04643 z m -18.02781,-8.15232 c 1.24824,-1.34712 2.5706,-4.06685 2.93845,-6.04422 1.04673,-5.62616 4.35494,-12.54972 6.745,-14.11557 1.1971,-0.7843 4.30754,-2.06353 6.91185,-2.84237 l 4.73526,-1.41573 -2.90111,-1.19197 c -1.59564,-0.6559 -4.88858,-1.40333 -7.31746,-1.66203 -7.12651,-0.75829 -9.00192,1.5969 -12.50261,15.6989 -1.58443,6.38206 -2.88637,12.14819 -2.89323,12.81339 -0.0232,1.93866 1.83508,1.40179 4.28385,-1.2404 z m 108.62637,-6.13538 c 15.32888,-13.98484 16.11635,-15.29661 15.13666,-25.20843 -1.04377,-10.55947 -1.40624,-10.84035 -3.73206,-2.89157 -2.50959,8.57709 -6.45672,14.70746 -13.16866,20.45266 -2.66242,2.27871 -5.55767,5.22503 -6.43392,6.5469 -1.85323,2.79617 -3.32424,9.68485 -2.06791,9.68485 0.47122,0 5.09094,-3.86283 10.26589,-8.58441 z m 26.60392,0.0424 c 12.01263,-5.54932 17.83522,-12.66066 16.64762,-20.33125 -0.21682,-1.40063 -0.90297,-6.14469 -1.52477,-10.54245 -0.62179,-4.39731 -1.56996,-8.26713 -2.10706,-8.59918 -0.63639,-0.39367 -0.75197,0.89363 -0.33202,3.69528 0.82307,5.48843 -0.85956,13.52912 -4.08964,19.54269 -1.40635,2.61818 -6.14556,8.09267 -10.67485,12.33021 -4.48016,4.19133 -7.65441,7.62093 -7.05398,7.62093 0.60035,0 4.71094,-1.67249 9.13458,-3.71623 z M 378.45692,802.50137 c -0.31689,-0.51275 0.34676,-1.85441 1.47416,-2.98204 2.87862,-2.87841 1.97219,-3.13286 -2.78243,-0.78039 -5.09419,2.52002 -15.91749,3.56618 -18.10632,1.74972 -0.8433,-0.69971 -1.32609,-2.06468 -1.07298,-3.03201 0.33824,-1.29392 -0.092,-1.76949 -1.6251,-1.79467 -3.26216,-0.0508 -5.52753,-1.68958 -16.95162,-12.24366 -7.48339,-6.91315 -11.84593,-10.21162 -14.59662,-11.03582 -4.77905,-1.43166 -6.84972,-3.49556 -4.80519,-4.78949 0.76361,-0.48289 2.14998,-0.88479 3.08077,-0.89287 0.93075,0 1.6923,-0.41121 1.6923,-0.89219 0,-1.33618 -17.87557,-20.81489 -20.97286,-22.85433 -1.49593,-0.98441 -5.76293,-2.91643 -9.48216,-4.29297 -4.134,-1.5302 -6.88117,-3.11931 -7.06789,-4.08941 -0.45241,-2.34855 5.61806,-6.04891 17.21494,-10.49433 15.34479,-5.88169 14.95374,-5.68314 13.68574,-6.95111 -1.85524,-1.85519 -1.32107,-2.43702 3.7981,-4.13783 9.70829,-3.22441 19.67889,-3.51259 32.97113,-0.95378 3.37723,0.64966 3.56869,0.54764 3.8682,-2.06931 0.23466,-2.05152 0.80787,-2.72449 2.24917,-2.64104 5.12546,0.29473 35.65362,7.1516 37.6359,8.45021 1.24139,0.8138 5.24845,6.27466 8.90449,12.13581 6.59539,10.57349 6.67668,10.65687 10.41359,10.69374 l 3.76623,0.0424 -0.59881,6.41278 c -0.50114,5.36585 -0.3006,6.83162 1.22767,8.97814 1.00459,1.41064 2.12783,4.17118 2.49616,6.13422 0.58846,3.13634 1.09653,3.66035 4.19293,4.31901 1.9379,0.41113 16.14344,0.7358 31.56786,0.71833 24.62569,-0.0424 29.49452,-0.29095 39.93953,-2.17131 39.75137,-7.15091 72.30778,-20.71374 104.63429,-43.58979 6.11659,-4.32909 12.52006,-9.00417 14.22997,-10.38963 l 3.10892,-2.51963 -0.54929,5.1746 c -2.08302,19.623 -4.27954,33.91772 -5.60604,36.48316 -1.88523,3.64562 -9.51992,8.67564 -25.93002,17.08281 -13.39476,6.86226 -12.48757,6.77341 -19.63068,1.92579 -1.84996,-1.25557 -4.98966,-2.55534 -6.97708,-2.88926 -5.05433,-0.84868 -21.47979,1.17019 -24.24122,2.97926 -2.08596,1.36722 -2.22311,1.90678 -1.52606,6.00935 2.00981,11.8309 0.74376,13.18503 -15.24709,16.3062 -42.76086,8.34558 -68.83559,9.09764 -105.53637,3.04409 l -12.38554,-2.04258 -2.60369,2.43902 c -3.08113,2.88572 -9.18833,6.06092 -16.48899,8.57315 -6.0656,2.08641 -6.5855,2.14884 -7.368,0.8828 z m -10.6593,-22.82684 c -12.44265,-11.00671 -20.81943,-12.46009 -9.69103,-1.68143 4.72859,4.58001 5.74226,5.13041 9.42874,5.11764 l 4.13048,0 -3.86819,-3.42227 z m 27.05792,1.85672 c 4.28853,-1.46106 4.52835,-1.70236 2.88855,-2.90127 -2.56995,-1.87928 -7.2051,-1.60467 -10.89514,0.64504 -6.03961,3.68211 -0.64243,5.20294 8.00659,2.25623 z m -15.53412,-9.6639 c 0.3708,-4.09326 1.30244,-8.9451 2.06997,-10.78213 2.25915,-5.40697 1.77829,-7.20903 -2.98586,-11.19173 -5.40481,-4.51795 -11.94767,-8.32455 -14.33454,-8.34011 -1.51663,0 -1.3334,0.51161 1.19069,3.38617 5.19722,5.91934 6.13305,8.75048 6.67561,20.19588 0.45106,9.51724 0.74305,10.87214 2.78369,12.91272 1.25388,1.25365 2.65021,2.05068 3.10284,1.77104 0.45282,-0.27924 1.12664,-3.85782 1.4976,-7.95184 z m 24.60764,-11.09279 c 1.26672,-13.39291 0.85599,-15.82878 -3.20807,-19.0257 -3.0674,-2.41253 -9.93543,-3.75773 -11.45094,-2.24191 -0.77895,0.77883 -0.61116,1.06786 0.62018,1.06786 0.92835,0 2.75605,1.0678 4.06156,2.37335 2.18005,2.18024 2.37376,3.10769 2.37376,11.36943 0,4.94732 0.42002,10.46022 0.93362,12.25105 1.22125,4.25809 3.89056,8.28036 4.79894,7.23073 0.39434,-0.45533 1.23647,-6.31692 1.87095,-13.02481 z m -47.77948,-1.01044 c -5.31789,-10.50441 -8.2612,-14.22335 -13.20754,-16.6883 -2.73945,-1.36491 -5.15142,-2.31176 -5.35981,-2.10311 -0.20868,0.20949 1.17394,2.41338 3.07184,4.90006 1.89796,2.48629 3.45082,5.13895 3.45082,5.89416 0,3.02661 11.72538,13.1858 13.34713,11.56368 0.18346,-0.18225 -0.4025,-1.78882 -1.30244,-3.56649 z m 127.40378,-91.91163 c -0.63829,-0.63802 -1.16048,-1.77689 -1.16048,-2.53048 0,-0.75405 -1.74118,-3.06033 -3.86929,-5.12579 -4.494,-4.36127 -7.4258,-4.75646 -11.72163,-1.58017 -2.82152,2.086 -2.99354,2.10225 -4.23215,0.40643 -2.00243,-2.73836 -2.69979,-10.59435 -1.46736,-16.53116 1.43363,-6.90577 5.82208,-13.33711 12.88098,-18.87788 7.14629,-5.60907 8.92016,-8.6768 11.28643,-19.51868 1.47749,-6.76878 2.90569,-10.33727 6.19645,-15.48086 5.88927,-9.20502 10.69113,-24.21815 9.80549,-30.65728 -0.85457,-6.21337 0.79398,-12.07373 5.01657,-17.83331 5.21122,-7.10856 6.31717,-7.42817 29.07993,-8.4138 16.93292,-0.73342 21.90931,-1.31564 32.12489,-3.75619 6.64848,-1.58834 15.69094,-3.73872 20.09444,-4.77779 l 8.00632,-1.89015 -0.63421,2.0596 c -2.76446,8.97623 -14.73642,23.41369 -29.76859,35.8998 -7.62433,6.33248 -10.62005,10.71853 -13.75466,20.13807 -1.44813,4.35195 -4.74551,12.83827 -7.32751,18.85848 -4.66156,10.86866 -4.68987,10.99902 -4.05609,18.599 0.90611,10.86551 -0.79537,14.91227 -9.17071,21.81025 -3.53243,2.90944 -8.0711,7.73573 -10.08577,10.72432 -4.31592,6.40308 -13.67802,16.7349 -15.16409,16.7349 -0.57134,0 -1.53063,-1.07951 -2.13187,-2.39907 -1.90001,-4.17002 -4.27326,-3.99039 -11.30024,0.85415 -7.18661,4.95549 -7.03496,4.89766 -8.64685,3.28607 z M 219.06453,589.69373 c -6.74575,-5.30611 -17.92497,-24.4004 -22.09641,-37.74096 -1.87356,-5.99233 -2.25461,-9.33384 -2.26263,-19.84643 -0.008,-12.36547 0.0543,-12.74365 2.89149,-17.33681 1.59564,-2.5833 5.97774,-7.3386 9.73799,-10.5681 3.76021,-3.22979 10.75174,-9.21281 15.5368,-13.29474 20.46587,-17.46102 21.34336,-19.01485 11.76626,-20.83516 -8.12486,-1.54407 -12.8617,-5.07845 -17.04734,-12.72109 -2.7204,-4.96673 -3.46279,-7.51238 -3.82158,-13.10243 -0.38747,-6.03691 -0.12759,-7.56049 2.00074,-11.72581 4.91069,-9.61233 13.97309,-15.32495 24.37729,-15.36722 7.35279,-0.0424 12.94296,2.59407 19.63602,9.21705 l 4.94904,4.89766 0.63209,-2.51808 c 1.2123,-4.83022 -2.58694,-15.24273 -14.17955,-38.86236 -7.33673,-14.94868 -12.33225,-26.42473 -13.51418,-31.04623 -2.5215,-9.85862 -2.48128,-23.29427 0.10201,-34.07024 2.26717,-9.45749 11.05373,-28.70078 13.76835,-30.15337 1.60899,-0.86146 1.76022,-0.72179 1.18465,1.09151 -0.36304,1.14378 -2.556,6.16488 -4.87353,11.15801 -10.01555,21.57897 -11.60498,37.36708 -5.59654,55.58985 0.78925,2.39313 6.60944,14.83734 12.93367,27.65315 6.3243,12.81578 12.1634,25.85338 12.97592,28.97269 1.83093,7.02987 1.8904,12.94182 0.15554,15.44559 -0.72704,1.04917 -1.52194,5.38873 -1.76639,9.64413 -0.67171,11.68901 -4.77416,18.46635 -14.41468,23.81241 -3.02596,1.67796 -4.36013,3.13902 -4.94633,5.41628 -0.46072,1.79044 -2.25953,4.26233 -4.22251,5.80262 -26.47357,20.77341 -37.00386,29.81708 -40.12459,34.4596 -6.67207,9.92567 -7.26082,21.82025 -1.89315,38.24602 4.38579,13.42087 10.60661,24.71423 18.42772,33.45223 4.75927,5.31704 4.55201,8.15933 -0.31613,4.33023 z m -1.33047,-9.36602 c -5.92212,-7.11633 -13.17856,-21.64342 -15.91503,-31.86158 -1.23747,-4.6215 -2.06957,-10.79999 -2.12857,-15.80707 -0.0853,-7.25869 0.23312,-8.87844 2.72502,-13.85563 1.68655,-3.36831 5.01205,-7.64811 8.26588,-10.63747 6.51831,-5.9884 14.47651,-11.76308 14.47651,-10.50365 0,0.4976 -0.95775,3.02654 -2.12836,5.62069 -2.81461,6.23663 -2.96991,20.14778 -0.37662,33.72801 2.03448,10.65456 2.62022,42.42229 0.8631,46.81421 -0.9096,2.27332 -1.04963,2.18878 -5.78178,-3.49751 z m -3.21371,-88.62317 c 0,-2.24307 5.61623,-9.18177 9.52746,-11.7697 2.05708,-1.36143 5.43301,-2.74813 7.50207,-3.08166 l 3.76201,-0.60739 -2.49896,3.30541 c -2.21422,2.92853 -15.68475,13.19165 -17.56729,13.38482 -0.39904,0.0424 -0.72529,-0.51314 -0.72529,-1.23148 z m 43.76483,-71.57153 c -1.7253,-1.96498 -3.9609,-5.19324 -4.96802,-7.17292 -3.40477,-6.69279 -8.28159,-25.14752 -6.0623,-22.94088 3.68067,3.66034 15.08373,28.96185 14.47287,32.1122 -0.23001,1.1849 -1.08361,0.68883 -3.44255,-1.9984 z m -7.82817,-45.46476 c -9.83068,-16.24183 -11.48994,-40.72724 -3.95144,-58.31388 1.96513,-4.5847 7.77201,-13.85294 8.67925,-13.85294 0.30953,0 1.40446,5.11371 2.43309,11.36318 2.65487,16.1302 2.49048,36.12476 -0.36769,44.72588 -1.14885,3.45715 -2.11947,8.02669 -2.15703,10.15418 -0.0389,2.12751 -0.36963,5.53069 -0.73772,7.56312 l -0.66959,3.6953 -3.22883,-5.33484 z M 146.09642,230.95977 c -4.64376,-1.09813 -9.66701,-4.87718 -11.59491,-8.72299 -2.64675,-5.2797 -2.22201,-14.76368 0.93397,-20.85294 2.4587,-4.74407 8.13664,-10.73402 12.27294,-12.94837 1.20955,-0.64703 2.01963,-2.03674 2.01963,-3.46417 0,-3.05525 0.35878,-3.00713 5.17964,0.6897 6.13195,4.70256 6.30572,4.98728 2.62312,4.29682 -5.72041,-1.07317 -9.68422,0.31035 -14.62459,5.09438 -7.97479,7.7265 -8.43218,16.70147 -1.21874,23.91482 7.84535,7.84553 16.75403,8.22331 24.35676,1.03484 4.21631,-3.98693 6.82936,-9.7054 6.93304,-15.17173 0.0737,-3.86943 0.1885,-4.08664 1.03686,-1.96029 2.13796,5.35732 -1.22514,14.35755 -7.84171,20.98599 -6.1861,6.19782 -13.28538,8.71006 -20.07601,7.10394 z m 687.10939,-6.04738 c -0.8001,-1.22186 -3.46539,-4.57616 -5.92281,-7.45494 -2.45734,-2.87888 -4.27581,-5.42637 -4.04097,-5.66142 0.23466,-0.23668 1.13162,0.27925 1.99269,1.13877 2.52271,2.52232 3.17575,2.29621 9.97549,-3.45868 2.86532,-2.4254 3.22056,-3.4343 5.09714,-14.48405 1.58004,-9.30242 1.79392,-12.60476 0.98689,-15.23417 -0.56674,-1.84664 -0.88093,-3.50719 -0.69816,-3.68982 0.43316,-0.4333 12.54277,13.95103 13.04315,15.49325 0.21056,0.64889 -0.53471,0.36848 -1.6564,-0.6291 -3.41535,-3.03046 -4.585,-1.47354 -6.19599,8.24656 -0.82365,4.96951 -1.37683,9.16978 -1.22924,9.33346 0.14737,0.16292 4.12329,0.51663 8.8351,0.78424 10.03955,0.57058 11.93192,-0.16677 10.19692,-3.97531 -1.68157,-3.69058 0.13303,-2.16977 4.94455,4.14446 5.84989,7.67683 6.23947,8.53052 2.69855,5.91234 -2.31783,-1.71359 -4.95286,-2.4548 -10.53383,-2.96332 -15.52896,-1.41419 -16.8195,-1.23303 -22.30569,3.13517 -5.03179,4.00641 -6.23454,6.96119 -3.81717,9.37842 0.62933,0.62956 0.90588,1.38276 0.61447,1.67449 -0.29165,0.29088 -1.18452,-0.46934 -1.98469,-1.69035 z M 182.57882,201.54174 c 0.89489,-2.3715 0.53825,-4.39189 -2.30422,-13.05546 -4.49132,-13.68972 -8.30445,-26.52252 -8.30445,-27.94871 0,-1.98439 2.79686,-1.34213 21.05833,4.83715 16.0441,5.42906 18.00794,5.88715 20.76193,4.84808 3.01161,-1.13687 2.9991,-1.10428 -1.25707,3.26938 -2.36435,2.42961 -5.53547,5.31079 -7.04698,6.40223 l -2.74824,1.98439 1.23948,-1.98439 c 1.63315,-2.61541 0.23855,-4.30382 -4.97493,-6.02482 l -3.94061,-1.30055 -6.40129,6.40147 -6.40138,6.40107 1.26172,3.82333 c 2.01241,6.09696 2.43726,6.51086 5.33348,5.19093 2.26895,-1.03368 2.42639,-0.98057 1.59637,0.53878 -0.50645,0.92698 -2.72308,3.42605 -4.92582,5.55394 -3.88988,3.75659 -3.97471,3.78723 -2.94632,1.06318 z m 9.69257,-29.55837 c -0.008,-0.67221 -14.5053,-5.18439 -15.0157,-4.67392 -0.33978,0.33744 2.36946,10.18404 3.90431,14.18384 0.4106,1.07048 1.91107,0.0969 5.83554,-3.77675 2.90551,-2.86917 5.2796,-5.4493 5.27585,-5.73317 z m 606.07878,13.72298 c -3.57587,-3.60336 -6.50162,-6.89838 -6.50162,-7.32151 0,-0.42391 0.68384,-0.0853 1.51959,0.74896 0.83582,0.83591 2.24099,1.52012 3.12253,1.52012 0.88157,0 6.47561,-5.11377 12.43131,-11.36318 l 10.82839,-11.36242 -2.58807,-2.74622 c -3.98023,-4.22236 -7.30742,-5.65402 -10.40425,-4.47643 -3.72609,1.41657 -3.72685,0.7579 0,-2.85123 l 3.27284,-3.17206 14.24113,14.18771 14.24114,14.18808 -3.19839,3.29962 c -3.47171,3.58203 -4.62704,3.75389 -2.84438,0.42392 1.49217,-2.78802 -0.0116,-6.42665 -4.43719,-10.71268 l -3.33805,-3.23566 -10.62867,10.59598 c -5.84583,5.82741 -10.86514,11.3407 -11.15417,12.25144 -0.28895,0.91035 0.2005,2.76277 1.08752,4.11688 0.88716,1.35368 1.44251,2.46182 1.2341,2.46182 -0.20865,0 -3.30472,-2.94824 -6.88059,-6.5516 z m -23.67891,-21.77838 c -6.56568,-5.43569 -8.73707,-8.1896 -4.24608,-5.38449 1.67919,1.04841 2.29166,0.95032 4.09887,-0.65866 2.89027,-2.57236 19.25862,-22.61462 19.25862,-23.5816 0,-0.42395 -0.94577,-1.97622 -2.10158,-3.44588 -1.88729,-2.39901 -1.91193,-2.56385 -0.24206,-1.61822 1.02292,0.57987 4.6884,3.68404 8.14564,6.89913 4.24762,3.9505 5.44353,5.48921 3.68805,4.74566 -1.42874,-0.6051 -3.20271,-0.86846 -3.94205,-0.58491 -2.07415,0.79631 -20.05407,22.49365 -20.05407,24.20032 0,0.83082 0.70463,2.21513 1.56569,3.07619 0.86116,0.86147 1.40511,1.70083 1.20878,1.86645 -0.19587,0.16684 -3.5173,-2.316 -7.38004,-5.51399 z m -555.79562,2.21589 c 2.38202,-2.63173 1.60752,-4.04283 -9.1561,-16.67784 -6.66454,-7.82266 -9.42591,-10.39544 -11.1576,-10.39544 -1.2658,0 -2.57034,0.4356 -2.89906,0.96738 -0.32892,0.53177 -1.11596,0.95765 -1.74938,0.9468 -1.98729,-0.0426 8.41668,-8.60928 10.45283,-8.61471 1.06375,0 8.24409,2.53011 15.95633,5.62962 7.71219,3.0999 14.12888,5.55398 14.2592,5.45313 0.13073,-0.10085 -0.38205,-5.15254 -1.13918,-11.22743 -0.75698,-6.07491 -1.64708,-13.47129 -1.97789,-16.43697 l -0.60148,-5.39109 5.35229,-3.55371 c 5.9365,-3.94197 7.82932,-4.59321 4.59744,-1.58213 -1.16414,1.08449 -2.11876,2.49868 -2.12159,3.14295 -0.008,1.75008 16.55325,25.93293 18.18943,26.56128 0.77707,0.29867 2.26791,0 3.31299,-0.64503 1.0451,-0.65241 2.07172,-1.01507 2.28125,-0.80522 0.46537,0.46505 -11.75679,9.33691 -13.97238,10.14215 -1.39953,0.50809 -1.38708,0.35296 0.10628,-1.35601 0.93078,-1.06316 1.69233,-2.49986 1.69233,-3.1926 0,-1.07984 -12.16732,-19.0082 -14.79254,-21.79703 -1.07422,-1.14112 -0.29168,8.86062 1.84338,23.55681 0.80042,5.50974 1.27146,10.20191 1.04664,10.42649 -0.22498,0.22497 -7.45411,-2.43354 -16.06513,-5.90771 -8.61109,-3.47422 -16.09821,-6.31697 -16.63816,-6.31697 -1.21749,0 16.34295,20.28508 18.16613,20.98441 0.72656,0.27932 1.97874,-0.0424 2.78269,-0.70633 0.8039,-0.66675 1.663,-1.01113 1.90924,-0.76484 0.2463,0.24438 -1.91107,2.48391 -4.79407,4.97251 -5.38057,4.6456 -8.00388,6.03537 -4.88364,2.58753 z m 534.10163,-18.6164 c -1.96568,-1.1943 -5.13741,-4.00057 -7.04827,-6.23628 -2.3524,-2.75275 -3.97331,-3.87371 -5.01962,-3.47266 -0.84999,0.32581 -1.37723,0.17455 -1.17166,-0.33744 0.76338,-1.9002 6.19613,-9.94551 6.73907,-9.98002 0.30951,0 0.36926,2.30242 0.13227,5.15951 -0.4059,4.8973 -0.22535,5.4221 3.15119,9.15967 4.3177,4.77938 9.1858,6.18233 12.14844,3.50094 2.83258,-2.56346 2.37033,-4.94616 -2.93985,-15.15503 -5.49951,-10.5727 -6.00205,-14.19313 -2.46159,-17.73366 4.58355,-4.58312 13.02021,-2.5398 19.55787,4.73674 1.98168,2.20623 4.58909,4.22822 5.79431,4.4947 2.13143,0.4701 2.08394,0.62332 -1.74094,5.62652 -2.16269,2.82914 -4.09972,4.97604 -4.30444,4.77125 -0.2048,-0.20557 0.0531,-1.85716 0.57412,-3.67241 2.09171,-7.29322 -6.90552,-17.44546 -12.99979,-14.66905 -1.39686,0.6365 -2.8038,1.84513 -3.12648,2.68603 -0.34169,0.89095 1.73116,5.99384 4.96766,12.22776 4.70011,9.05378 5.46825,11.23675 4.99498,14.19468 -0.30758,1.92189 -1.49118,4.25611 -2.62995,5.18702 -3.00522,2.45603 -10.1635,2.21675 -14.6174,-0.48827 z m -22.02729,-16.17055 -4.32631,-2.86987 -1.72206,-10.90628 c -1.36576,-8.65 -2.14977,-11.26118 -3.78884,-12.623 -2.03835,-1.6923 -2.11012,-1.64459 -5.20926,3.50057 -4.45292,7.39173 -4.82741,9.00413 -2.43817,10.4959 1.09247,0.68227 1.98633,1.56701 1.98633,1.96614 0,0.69934 -8.81536,-3.90475 -13.59466,-7.10044 l -2.32997,-1.5581 2.99668,0.43946 c 3.55786,0.52246 4.25154,-0.32581 12.04767,-14.721018 7.18711,-13.270755 7.05214,-12.78319 4.29807,-15.53711 -3.1851,-3.184842 -2.31102,-2.987019 5.19269,1.176817 16.28464,9.035932 20.38985,12.932137 20.39739,19.358061 0.008,4.87249 -3.93851,7.42393 -10.45507,6.7626 l -5.13995,-0.52208 0.52784,2.59605 c 0.61732,3.03629 2.48114,14.86841 2.49183,15.81909 0,0.36073 1.13394,1.99019 2.51093,3.62624 3.14687,3.7399 2.09078,3.76937 -3.44514,0.097 z m 5.0515,-28.17717 c 2.41352,-2.90674 2.09632,-6.72692 -0.82005,-9.872195 -3.66103,-3.948183 -7.23143,-5.107152 -8.89883,-2.888117 -1.48894,1.980878 -5.99565,10.576572 -5.99565,11.434942 0,0.3103 1.84941,1.42001 4.10997,2.46688 4.84023,2.24231 9.14675,1.81875 11.60456,-1.14151 z m -469.8939,27.35295 c 0.88031,-0.97279 1.60045,-2.51693 1.60045,-3.43115 0,-1.868 -13.62892,-23.81436 -16.02169,-25.80028 -1.18954,-0.98676 -2.18475,-1.03485 -4.37057,-0.20945 -1.55678,0.58801 -2.59458,0.68693 -2.30628,0.22109 0.73852,-1.19505 17.55364,-11.51136 22.2126,-13.627988 5.34398,-2.427715 12.49415,-2.364105 14.99168,0.131869 2.32896,2.328804 2.54451,7.401433 0.44202,10.403197 -1.47776,2.109652 -1.44911,2.127882 3.00801,1.933952 3.88534,-0.166789 4.82773,0.1823 6.90007,2.59488 1.86451,2.16744 2.2698,3.45674 1.81614,5.77507 -1.1217,5.73395 -2.70135,7.14466 -21.58334,19.27855 -7.52337,4.83487 -9.22122,5.52799 -6.68909,2.72986 z m 13.77308,-9.77485 c 7.94896,-4.55908 10.18417,-9.84388 6.03274,-14.26293 -2.89525,-3.08167 -6.97476,-2.86329 -14.22927,0.76178 -5.69696,2.84701 -5.93651,3.10611 -4.69569,5.0769 0.71927,1.1423 2.58968,4.14366 4.15658,6.66873 1.56682,2.52583 3.06641,4.58895 3.33236,4.58469 0.26606,0 2.69738,-1.27728 5.40328,-2.82917 z m -8.48798,-16.07353 c 5.44227,-3.66503 7.32551,-6.825831 6.35972,-10.67394 -1.47983,-5.896469 -10.4752,-5.642413 -18.38955,0.518592 -1.97169,1.53482 -1.99142,1.724497 -0.46261,4.456681 3.64502,6.513977 5.47729,9.127477 6.40304,9.132907 0.53902,0 3.27924,-1.54219 6.0894,-3.43424 z m 32.82143,3.9695 c 1.19676,-0.8828 2.17588,-2.2392 2.17588,-3.01417 0,-2.22485 -13.31716,-28.222557 -14.7068,-28.710893 -0.68727,-0.240483 -2.289,-0.05428 -3.55948,0.415417 -5.40535,2.001042 -2.35234,-0.162907 6.00438,-4.258097 16.94087,-8.300909 22.66563,-9.122817 26.81305,-3.850434 2.61406,3.323703 2.01626,8.144986 -1.45972,11.773168 -1.34965,1.408762 -2.45388,2.79193 -2.45388,3.073527 0,0.283145 3.91516,2.372627 8.70052,4.646349 6.51231,3.094855 9.55252,4.035453 12.08814,3.739505 4.8949,-0.571725 4.16305,0.62448 -1.68944,2.761281 l -5.07704,1.854042 -9.67051,-4.619981 c -9.90667,-4.732849 -11.63784,-5.21032 -13.83496,-3.816296 -0.9997,0.633395 -0.74067,1.992897 1.24152,6.512419 3.00303,6.847153 4.65256,8.342803 7.85834,7.123713 1.27467,-0.48446 2.30262,-0.56552 2.28435,-0.17843 -0.0156,0.384 -3.33867,2.22447 -7.37869,4.08588 -8.98435,4.13979 -10.12808,4.52379 -7.33566,2.4634 z m 9.31355,-26.678418 c 3.03846,-3.611506 3.2194,-6.595431 0.57193,-9.437005 -2.71526,-2.914878 -5.8871,-3.493585 -9.74818,-1.779953 -6.21025,2.756238 -6.17747,2.615828 -2.37378,10.168526 l 3.48447,6.919303 2.76638,-1.430481 c 1.52151,-0.786608 3.90617,-2.785333 5.29918,-4.44039 z m 372.88238,24.153748 c -3.97251,-2.02664 -10.67626,-5.12616 -14.89727,-6.888663 -7.45503,-3.111915 -7.57977,-3.217423 -4.35917,-3.687134 3.2304,-0.470881 3.47,-0.830446 9.34666,-14.02207 3.31723,-7.446426 6.04037,-14.286604 6.05151,-15.200047 0.0116,-0.913836 -1.1765,-2.310957 -2.63914,-3.104555 -4.71978,-2.560364 -0.70815,-1.608901 6.15204,1.459191 13.56632,6.067529 24.55059,11.561002 24.51122,12.258785 -0.0232,0.394081 -0.87443,2.241533 -1.89357,4.103334 l -1.85303,3.384205 -0.0389,-3.105325 c -0.0523,-3.994724 -2.31988,-6.058991 -10.74375,-9.779494 l -6.72927,-2.972283 -2.88836,6.370068 c -1.58858,3.50368 -2.88835,6.554702 -2.88835,6.780448 0,0.539142 12.25797,6.091181 13.44841,6.091181 0.50554,0 1.62376,-0.70438 2.48491,-1.565462 2.68956,-2.689523 2.6382,-0.813762 -0.13226,4.834865 -2.72374,5.55398 -4.68805,7.24667 -3.66124,3.155754 0.81661,-3.253495 -2.64999,-6.269617 -10.74347,-9.347017 -2.37911,-0.904136 -2.60641,-0.677226 -5.32534,5.319318 -1.56208,3.445112 -2.84017,6.921627 -2.84017,7.726082 0,1.819134 11.74408,7.283519 15.65455,7.283519 1.54848,0 4.09935,-0.66405 5.66857,-1.47547 3.93666,-2.03558 3.54332,-0.57678 -0.8209,3.04481 l -3.6392,3.0196 -7.22269,-3.68364 z m -341.98729,-15.560379 2.73553,-2.303981 -2.07273,-5.989567 c -1.13993,-3.293831 -3.69071,-10.030834 -5.66832,-14.970806 l -3.59569,-8.982408 -3.6627,0.116357 c -4.85535,0.155154 -3.6954,-0.653181 6.19238,-4.310843 8.85561,-3.275599 11.75091,-3.873707 7.446,-1.537923 -1.66545,0.903358 -2.66074,2.243858 -2.66284,3.587455 0,2.324151 8.44952,26.517464 9.95723,28.496786 0.50633,0.665208 2.28163,1.23306 3.94507,1.263309 2.44256,0.04265 1.62892,0.573672 -4.22834,2.756245 -3.98906,1.485561 -8.1232,3.034347 -9.18698,3.440447 -1.36702,0.522079 -1.13213,0.0659 0.80139,-1.565071 z M 639.20231,78.893334 c -0.64549,-4.931835 -2.05014,-13.75366 -3.12154,-19.603982 -1.66169,-9.074721 -2.33225,-10.969099 -4.56393,-12.893349 -2.92946,-2.525839 -3.31067,-2.567346 8.0215,0.868064 6.56384,1.989802 11.49553,4.630837 6.21406,3.327577 -4.36414,-1.07635 -4.64404,0.704381 -2.46868,15.708554 1.09894,7.579074 2.23665,13.780423 2.52825,13.780423 0.29169,0 5.03358,-4.518744 10.53767,-10.041695 l 10.00742,-10.041312 -2.04654,-2.046815 c -1.12559,-1.125224 -2.04655,-2.215933 -2.04655,-2.423055 0,-0.205575 3.0462,0.764888 6.76935,2.15969 3.72317,1.395189 6.76837,2.760895 6.76713,3.035894 -7.6e-4,0.275391 -1.27665,0.544576 -2.83434,0.599272 -3.234,0.112477 -5.07509,1.552273 -20.15808,15.746557 -5.99852,5.645523 -11.24977,10.383024 -11.66933,10.527706 -0.4196,0.147393 -1.29092,-3.771309 -1.93639,-8.703529 z m -275.00457,4.517189 c 3.03229,-2.12439 2.7,-4.740217 -2.51115,-19.769599 l -4.52656,-13.055093 -3.10138,0 c -4.6673,0 -2.70698,-1.077906 7.95183,-4.41208 16.31112,-5.102494 25.94348,-5.044704 31.90768,0.193933 3.86016,3.38964 6.52961,10.802321 5.62938,15.632142 -1.76312,9.46027 -7.21928,13.864205 -23.55622,19.014796 -13.73249,4.329844 -14.89897,4.566063 -11.79358,2.390858 z m 19.50588,-7.459222 c 6.49544,-3.256213 8.2702,-6.313056 8.2702,-14.244706 0,-7.395611 -1.50445,-10.358202 -7.24302,-14.264107 -3.6736,-2.499855 -10.8505,-2.842738 -16.44966,-0.784283 -4.40486,1.618602 -4.33241,3.19027 0.91384,19.830499 l 4.04855,12.84138 3.07926,-0.611683 c 1.69369,-0.333573 5.01503,-1.580975 7.38083,-2.7671 z m 222.47153,0.866125 c -5.86289,-1.661656 -6.6969,-2.115861 -4.35172,-2.371465 1.59563,-0.174548 3.23022,-0.633786 3.63244,-1.021663 1.12089,-1.081007 8.20616,-29.434283 7.71655,-30.879113 -0.23662,-0.699346 -1.53339,-1.690752 -2.88107,-2.203138 -5.51182,-2.095295 -0.97852,-1.619372 8.02401,0.843634 8.04066,2.199251 9.06318,2.681764 6.23369,2.941257 -1.86156,0.170659 -3.67794,0.606247 -4.03646,0.966967 -1.172,1.18069 -8.47164,29.19186 -7.95682,30.53313 0.27577,0.719125 1.45531,1.767935 2.62099,2.331522 1.97979,0.956496 1.99201,1.020499 0.1854,0.9693 -1.06374,-0.04265 -5.19791,-0.979772 -9.18697,-2.110431 z M 585.32547,65.874312 c -5.7423,-9.263236 -16.70307,-25.228163 -17.77503,-25.891046 -0.85045,-0.525182 -3.92544,17.516825 -3.92544,23.032016 0,2.775632 0.46603,3.547119 2.65937,4.400832 2.21957,0.863798 1.81068,0.940983 -2.47235,0.465837 -2.82252,-0.314179 -6.30389,-0.923143 -7.73639,-1.355236 l -2.60466,-0.785838 2.68011,-0.08145 c 3.5279,-0.112485 4.11583,-1.670964 6.40291,-17.006378 2.17112,-14.558116 1.77782,-16.054924 -4.73021,-18.004774 -4.53074,-1.35717 -8.68448,-0.0465 -8.73597,2.752749 -0.10046,5.483394 -2.80386,22.584025 -3.94261,24.94153 -0.73965,1.531718 -2.78003,3.620423 -4.53412,4.641308 -4.47786,2.607689 -15.05514,2.470768 -20.41692,-0.26375 -6.06066,-3.091751 -6.85573,-5.555151 -6.85573,-21.243525 l 0,-13.55895 -3.1429,-0.907238 c -2.59396,-0.749375 -1.70733,-0.920042 5.07704,-0.980165 4.52096,-0.04265 8.87264,0.352968 9.67046,0.864962 1.13522,0.733861 0.88649,0.940599 -1.14365,0.95224 -3.39014,0.04265 -3.59479,0.866125 -3.9111,16.184855 -0.26297,12.736263 -0.25406,12.795224 2.3326,15.387777 3.37231,3.380716 11.43452,4.301151 16.17882,1.847836 4.15134,-2.146502 5.40267,-5.579195 6.81558,-18.696351 1.26518,-11.746014 0.92775,-13.236617 -3.17736,-14.036028 -1.53469,-0.298666 -1.30232,-0.445281 0.85706,-0.541474 5.02564,-0.221089 24.79199,2.693405 26.20623,3.867111 0.73525,0.610126 5.53469,7.466982 10.66547,15.236895 5.13069,7.7703 9.62815,14.478984 9.99434,14.908366 0.36615,0.42976 1.63113,-3.922198 2.811,-9.670505 1.17988,-5.748307 2.35611,-11.203377 2.61385,-12.122256 0.3169,-1.130651 -0.56711,-2.319102 -2.73273,-3.673953 l -3.20134,-2.00182 3.73645,0.658224 c 2.05507,0.364602 5.75405,1.215212 8.21992,1.895156 4.20081,1.157806 4.28401,1.241197 1.31984,1.322269 -3.96355,0.108604 -4.10536,0.442562 -8.03286,18.94381 -1.69366,7.978199 -3.39627,14.857943 -3.78368,15.288095 -0.38749,0.43093 -2.81101,-2.615057 -5.386,-6.768807 z m -172.0766,0.835482 c -14.33763,-8.404864 -11.47542,-27.800169 5.06116,-34.29591 3.3815,-1.328081 6.48841,-1.72488 11.77926,-1.504177 5.0585,0.209449 7.3038,-0.05043 7.58339,-0.891339 0.77888,-2.336556 1.95682,-1.126002 3.02234,3.105324 1.71768,6.821563 1.42114,7.859517 -1.31624,4.606408 -3.3348,-3.96292 -7.25744,-5.355781 -13.60324,-4.829428 -8.70795,0.722219 -14.02026,5.960858 -14.70558,14.502257 -0.34094,4.245286 0.0589,6.010895 2.34826,10.364793 4.46418,8.491363 13.54293,11.917071 22.10385,8.34009 3.7061,-1.548402 4.10076,-3.481953 2.45279,-12.013652 -0.89925,-4.655281 -2.44373,-6.178852 -5.38502,-5.31195 -1.28701,0.380115 -1.61061,0.248237 -0.967,-0.393696 1.21206,-1.209392 15.95627,-3.025037 15.95627,-1.965356 0,0.428212 -0.62342,0.778462 -1.38537,0.778462 -1.81122,0 -2.70907,2.985087 -2.09635,6.968947 0.26919,1.751643 0.73673,4.759619 1.03862,6.683863 0.54081,3.448214 0.47519,3.530826 -4.54815,5.733186 -3.73492,1.636824 -7.42242,2.33035 -13.80027,2.595655 -8.20388,0.341327 -8.98103,0.197815 -13.53872,-2.472701 z m 41.82487,-2.488608 c 3.69995,-1.712077 3.66008,-1.238486 1.71282,-20.31767 -1.39824,-13.700129 -1.85512,-14.892066 -5.82277,-15.193835 -2.99831,-0.224969 9.39778,-1.523186 22.00034,-2.298546 l 11.36287,-0.698952 -0.0272,4.216591 -0.0272,4.21736 -1.64886,-2.660044 c -1.61639,-2.606912 -1.8345,-2.659274 -11.09533,-2.659274 l -9.44651,0 0.008,2.659274 c 0.008,1.462678 0.27732,4.898082 0.60605,7.634154 l 0.59763,4.974111 5.92155,-0.492215 c 6.48057,-0.537987 10.21181,-2.293502 10.38445,-4.885285 0.15011,-2.257047 1.69708,5.380987 1.76716,8.725633 0.0309,1.462678 -0.37973,2.660051 -0.91162,2.660051 -0.53189,0 -0.96705,-0.637667 -0.96705,-1.416906 0,-2.397072 -3.81848,-3.654954 -9.78547,-3.223246 -3.10568,0.221089 -5.83806,0.600041 -6.07207,0.833935 -0.23426,0.236602 -0.13459,3.688297 0.22149,7.67643 l 0.64685,7.250551 8.56157,0 8.56164,0 3.2704,-3.868664 c 3.74292,-4.426825 3.83764,-4.342264 1.80796,1.613943 l -1.49099,4.376395 -12.77299,0.632239 c -7.02501,0.349087 -14.51354,0.872715 -16.64107,1.16556 l -3.86817,0.532165 3.14288,-1.453755 z"
     id="path3706"
     inkscape:connector-curvature="0"
     inkscape:export-xdpi="120.00366"
     inkscape:export-ydpi="120.00366" />
</svg>
