<?xml version="1.0" encoding="UTF-8" standalone="no"?>
<!-- Created with Inkscape (http://www.inkscape.org/) -->

<svg
   xmlns:dc="http://purl.org/dc/elements/1.1/"
   xmlns:cc="http://creativecommons.org/ns#"
   xmlns:rdf="http://www.w3.org/1999/02/22-rdf-syntax-ns#"
   xmlns:svg="http://www.w3.org/2000/svg"
   xmlns="http://www.w3.org/2000/svg"
   xmlns:sodipodi="http://sodipodi.sourceforge.net/DTD/sodipodi-0.dtd"
   xmlns:inkscape="http://www.inkscape.org/namespaces/inkscape"
   id="svg2"
   version="1.1"
   inkscape:version="0.91 r13725"
   width="506.25"
   height="506.25"
   viewBox="0 0 506.25 506.25"
   sodipodi:docname="derby.svg"
   inkscape:export-filename="C:\Users\domay\Documents\GitHub\brizzlepuffs\media\teams\derby.png"
   inkscape:export-xdpi="220.07018"
   inkscape:export-ydpi="220.07018">
  <metadata
     id="metadata8">
    <rdf:RDF>
      <cc:Work
         rdf:about="">
        <dc:format>image/svg+xml</dc:format>
        <dc:type
           rdf:resource="http://purl.org/dc/dcmitype/StillImage" />
        <dc:title></dc:title>
      </cc:Work>
    </rdf:RDF>
  </metadata>
  <defs
     id="defs6" />
  <sodipodi:namedview
     pagecolor="#ffffff"
     bordercolor="#666666"
     borderopacity="1"
     objecttolerance="10"
     gridtolerance="10"
     guidetolerance="10"
     inkscape:pageopacity="0"
     inkscape:pageshadow="2"
     inkscape:window-width="2560"
     inkscape:window-height="1377"
     id="namedview4"
     showgrid="false"
     inkscape:zoom="0.46617284"
     inkscape:cx="-88.196504"
     inkscape:cy="253.125"
     inkscape:window-x="84"
     inkscape:window-y="-8"
     inkscape:window-maximized="1"
     inkscape:current-layer="svg2" />
  <path
     style="fill:#04338d;fill-opacity:1"
     d="M 228.99291,482.74621 C 201.04108,479.25151 166.22087,461.82996 142.29957,439.371 120.95248,419.32886 109.11018,402.39996 91.56804,366.84933 69.192675,321.50332 71.256054,339.19172 69.905129,181.14632 69.277562,107.74862 69.116983,44.376806 69.54826,40.319754 c 0.431278,-4.057265 1.47708,-7.820098 2.324456,-8.362136 0.847161,-0.541824 81.981564,-0.994484 180.298464,-1.005817 l 178.75808,-0.02138 -0.39621,136.467589 c -0.39365,135.5441 -0.41652,136.55676 -3.38223,149.6281 -4.24821,18.72372 -6.58999,26.51987 -12.76601,42.49983 -23.50755,60.82519 -67.16907,103.13365 -123.69624,119.86328 -15.5305,4.59609 -40.78561,5.97011 -61.69566,3.35593 z m 58.34251,-29.79155 c 20.29338,-3.59712 38.13466,-12.14678 50.47623,-24.18879 l 8.53682,-8.32921 0,-47.11623 0,-47.11582 5.01541,-1.65518 c 7.77092,-2.56458 18.15132,-14.05579 21.06506,-23.31939 5.58075,-17.74292 -2.52009,-36.59129 -19.09769,-44.43385 -26.64153,-12.60329 -56.48184,7.82737 -53.50843,36.63535 1.37893,13.36171 8.46883,23.70277 20.70755,30.20337 4.40238,2.33836 5.69343,3.7917 5.67141,6.383 -0.0214,1.8455 0.33698,20.70713 0.78387,41.91482 l 0.8123,38.55931 -6.30859,5.87517 c -7.29987,6.79846 -21.91201,14.79753 -33.4834,18.32986 -4.42589,1.35114 -13.78079,3.07903 -20.78859,3.83981 -55.99325,6.07809 -107.84435,-30.85318 -122.16634,-87.013 -2.49979,-9.80244 -2.79572,-13.74788 -2.16259,-28.8362 1.59704,-38.06196 14.77914,-63.54201 44.15117,-85.34113 16.0687,-11.92569 26.36229,-16.24638 55.36547,-23.23921 34.77275,-8.38372 63.93502,-17.19297 77.94269,-23.54432 8.06642,-3.65742 21.54445,-12.69202 26.41531,-17.70657 10.9342,-11.25621 27.15021,-40.68384 34.60297,-62.79407 3.7763,-11.20297 4.37136,-14.96687 4.92837,-31.174121 0.46656,-13.571259 0.1903,-18.965338 -1.04345,-20.453536 -1.4743,-1.776216 -18.49044,-2.020614 -140.73012,-2.020614 -106.36407,0 -139.43137,0.378464 -140.66234,1.609435 -1.22991,1.229688 -1.6073,32.163691 -1.60003,131.103026 0,124.58745 0.11119,129.91481 2.67534,140.61423 3.25586,13.5813 19.54522,46.38283 29.50417,59.41162 11.77302,15.40221 14.44836,18.59671 20.11805,24.02287 17.69866,16.93766 47.31018,34.34445 67.48959,39.67267 11.12792,2.93855 14.31173,3.19728 33.10087,2.68945 11.43369,-0.30918 25.91882,-1.47152 32.18892,-2.58275 z m 38.85652,-145.23043 c -8.66597,-5.38296 -12.24706,-19.55591 -6.96482,-27.56545 4.71178,-7.14422 9.65,-9.82597 17.99952,-9.77572 6.6693,0.0385 8.26185,0.57924 11.88441,4.02348 8.19065,7.78782 10.04086,15.93591 5.61795,24.73917 -3.47716,6.92097 -10.03785,10.76378 -18.30249,10.72079 -3.82655,-0.0214 -8.33819,-0.96433 -10.23457,-2.14227 z m -152.52367,-205.3699 -16.42983,-0.42166 0,-17.988385 0,-17.988172 16.76746,-0.412034 16.76747,-0.412035 -9.1e-4,4.023696 -9e-4,4.023481 -12.07151,-0.468697 -12.07152,-0.468697 0,4.276219 0,4.276219 8.04974,-0.454585 8.04975,-0.454371 0,4.406222 c -0.002,4.020702 -0.24205,4.277716 -2.74162,2.939834 -1.50659,-0.806108 -4.97691,-1.279936 -7.71212,-1.052858 -4.37095,0.362856 -5.02631,0.882228 -5.41546,4.290972 -0.24333,2.132871 0.29636,4.334811 1.19932,4.892881 0.90319,0.55807 6.68514,0.76014 12.84898,0.4486 l 11.20617,-0.5662 0,4.05577 c 0,2.2308 -0.45266,3.92555 -1.00582,3.76582 -0.55337,-0.15822 -8.39934,-0.47981 -17.43565,-0.71202 z m -62.07562,-1.00988 c -0.0257,-0.36884 -0.0577,-8.36556 -0.0748,-17.770718 l -0.0299,-17.100599 13.84708,0.124017 c 7.8866,0.07057 15.12874,0.808673 16.82498,1.71656 4.33247,2.318681 7.5045,9.328182 7.41983,16.395629 -0.15822,13.205411 -6.03639,17.295391 -24.86702,17.302451 -7.19233,0 -13.09701,-0.29679 -13.12159,-0.66542 z m 23.28603,-6.67359 c 6.51515,-1.33211 8.42029,-13.423079 2.97319,-18.869972 -2.62531,-2.625515 -4.66259,-3.292212 -10.05903,-3.292212 l -6.76702,0 0,11.301757 c 0,13.484657 0.20954,13.649307 13.85286,10.860427 z m 64.01969,-10.761855 0.15395,-18.106417 11.61736,0.02139 c 18.92129,0.02138 24.38722,2.62637 24.33825,11.640021 -0.0257,4.564237 -1.03148,6.22221 -5.06928,8.349093 l -3.07796,1.621623 2.94838,4.949975 c 1.62162,2.72259 3.76112,5.62008 4.75454,6.43923 3.00783,2.47969 2.08369,3.20497 -4.08399,3.20497 -4.97178,0 -6.01759,-0.4704 -6.70781,-3.01744 -0.44967,-1.65969 -2.53357,-5.06822 -4.63116,-7.574421 -3.16798,-3.785498 -4.41605,-4.405367 -7.37492,-3.662765 -3.258,0.817868 -3.56141,1.462755 -3.56141,7.574416 l 0,6.68021 -4.72995,0 -4.72973,0 0.15395,-18.105981 z m 26.14996,-3.945223 c 2.08091,-1.545076 2.30628,-2.420248 1.12278,-4.358755 -1.11807,-1.831596 -3.49962,-2.523523 -9.72375,-2.824797 l -8.24304,-0.399632 0,3.864184 c 0,2.125387 0.40219,4.266383 0.8942,4.758173 1.66589,1.665884 13.3305,0.906175 15.94981,-1.039173 z m 18.02731,3.941801 0,-18.333922 15.28717,0.450736 c 12.74612,0.376113 15.75566,0.8756 18.1062,3.005905 3.08245,2.793793 3.63283,7.501077 1.37103,11.727474 -1.11936,2.091176 -0.96712,3.23726 0.67054,5.046832 2.862,3.162209 2.6702,8.527632 -0.44218,12.375782 -2.39331,2.95886 -3.623,3.19535 -18.77697,3.61401 l -16.21579,0.44753 0,-18.334347 z m 27.08264,10.573267 c 2.41726,-1.49419 0.95493,-5.990642 -2.3576,-7.250051 -3.88856,-1.478363 -10.04961,-1.708648 -13.21503,-0.493928 -2.98538,1.145656 -2.80769,8.203909 0.22558,8.971739 2.65908,0.67311 13.70083,-0.20954 15.34705,-1.22776 z m -0.25851,-15.934631 c 3.04332,-3.667041 -0.70561,-6.035543 -9.5527,-6.035543 -7.36423,0 -7.88296,0.205269 -7.88296,3.129494 0,4.41563 0.89591,4.917897 8.77716,4.917897 4.576,0 7.56522,-0.694706 8.6585,-2.011848 z m 27.85818,16.428341 c 0.56234,-6.783061 0.30661,-7.429229 -6.93103,-17.517334 -4.13339,-5.760996 -7.5152,-10.772547 -7.5152,-11.1369 0,-0.364565 2.81219,-0.478746 6.24936,-0.25402 4.53624,0.296785 6.33511,1.004962 6.56198,2.583607 0.40263,2.799353 4.60187,9.225548 6.02849,9.225548 1.64193,0 6.64322,-7.47606 6.64322,-9.930945 0,-1.641937 1.40395,-2.139928 6.03533,-2.139928 3.31958,0 6.03554,0.403482 6.03554,0.896555 0,0.492859 -3.16712,5.170634 -7.03793,10.394297 -6.57053,8.866969 -7.03815,10.01006 -7.04136,17.20986 l 0,7.71191 -4.80457,0 -4.80458,0 0.58416,-7.04265 z"
     id="path4676"
     inkscape:connector-curvature="0" />
</svg>
