<?xml version="1.0" encoding="UTF-8" standalone="no"?>
<!-- Created with Inkscape (http://www.inkscape.org/) -->

<svg
   xmlns:dc="http://purl.org/dc/elements/1.1/"
   xmlns:cc="http://creativecommons.org/ns#"
   xmlns:rdf="http://www.w3.org/1999/02/22-rdf-syntax-ns#"
   xmlns:svg="http://www.w3.org/2000/svg"
   xmlns="http://www.w3.org/2000/svg"
   xmlns:sodipodi="http://sodipodi.sourceforge.net/DTD/sodipodi-0.dtd"
   xmlns:inkscape="http://www.inkscape.org/namespaces/inkscape"
   id="svg2"
   version="1.1"
   inkscape:version="0.91 r13725"
   width="640"
   height="640"
   viewBox="0 0 640 640"
   sodipodi:docname="leeds.svg"
   inkscape:export-filename="C:\Users\domay\Documents\GitHub\brizzlepuffs\media\teams\leeds.png"
   inkscape:export-xdpi="70.3125"
   inkscape:export-ydpi="70.3125">
  <metadata
     id="metadata8">
    <rdf:RDF>
      <cc:Work
         rdf:about="">
        <dc:format>image/svg+xml</dc:format>
        <dc:type
           rdf:resource="http://purl.org/dc/dcmitype/StillImage" />
        <dc:title></dc:title>
      </cc:Work>
    </rdf:RDF>
  </metadata>
  <defs
     id="defs6" />
  <sodipodi:namedview
     pagecolor="#ffffff"
     bordercolor="#666666"
     borderopacity="1"
     objecttolerance="10"
     gridtolerance="10"
     guidetolerance="10"
     inkscape:pageopacity="0"
     inkscape:pageshadow="2"
     inkscape:window-width="2560"
     inkscape:window-height="1377"
     id="namedview4"
     showgrid="false"
     inkscape:zoom="1.0429825"
     inkscape:cx="235.85438"
     inkscape:cy="270.40585"
     inkscape:window-x="84"
     inkscape:window-y="-8"
     inkscape:window-maximized="1"
     inkscape:current-layer="svg2" />
  <path
     style="fill:#16461e;fill-opacity:1"
     d="m 311.04964,593.89442 0.6444,-17.81711 -6.1134,-0.70954 c -5.07703,-0.58924 -6.1134,-1.03957 -6.1134,-2.65637 0,-1.79923 0.88283,-1.94683 11.64429,-1.94683 14.46744,0 18.04225,0.63382 18.04225,3.19898 0,1.66347 -0.81894,1.91939 -6.14204,1.91939 l -6.14205,0 0,5.46949 c 0,3.00821 -0.30111,11.06965 -0.66915,17.91429 -0.66776,12.41888 -0.67449,12.4448 -3.23223,12.4448 l -2.56309,0 0.64442,-17.8171 z m 32.92838,16.39054 c -9.88908,-4.30894 -14.75498,-20.57732 -9.30625,-31.114 5.00433,-9.67732 16.44792,-13.01719 24.47938,-7.14445 1.55754,1.1389 1.61524,1.58361 0.41799,3.22098 -1.31934,1.8043 -1.55606,1.81328 -4.71651,0.17894 -5.85462,-3.02754 -12.27581,-0.34285 -15.09156,6.30975 -3.06866,7.25015 -0.51581,19.41709 4.86481,23.18582 3.49215,2.446 9.02654,2.09105 13.36524,-0.85717 3.24578,-2.20555 3.88221,-2.33379 4.98545,-1.00447 1.02467,1.23465 0.89835,1.92863 -0.66561,3.6568 -4.41695,4.88067 -11.9537,6.34741 -18.33294,3.5678 z m -59.87678,-2.92405 c -0.006,-1.2668 1.00272,-10.47986 2.24157,-20.47348 1.8392,-14.83646 2.54551,-18.16733 3.84966,-18.15454 3.79915,0.0373 3.94998,1.14638 2.08615,15.33944 -0.99813,7.60078 -2.12543,16.46835 -2.50511,19.70572 -0.62863,5.36003 -0.91249,5.88612 -3.17586,5.88612 -1.8919,0 -2.48812,-0.55009 -2.49641,-2.30326 z m 90.73663,-1.53551 c -0.28557,-0.98529 -2.42657,-9.8028 -4.7578,-19.59445 -3.42169,-14.37183 -3.97613,-17.97219 -2.87672,-18.68077 2.91107,-1.87621 4.2514,-0.28957 5.98264,7.08209 0.96236,4.09782 1.97079,7.67162 2.24096,7.94178 0.65974,0.65973 15.41435,-2.62887 16.57823,-3.69506 0.53753,-0.49241 0.17718,-3.89465 -0.86794,-8.19465 -1.48331,-6.10292 -1.55254,-7.5013 -0.40729,-8.22708 3.85573,-2.44351 3.80072,-2.57206 9.64085,22.53041 2.95856,12.71674 3.40429,15.92469 2.30912,16.61901 -2.87879,1.82515 -3.76059,0.59476 -5.96366,-8.32129 -1.25206,-5.06718 -2.80074,-9.21049 -3.4415,-9.20735 -0.64077,0.003 -2.77732,0.4343 -4.7479,0.95814 -1.97057,0.52383 -5.4897,1.44661 -7.8203,2.05062 l -4.23746,1.09819 1.95214,8.76096 c 1.07367,4.81852 1.68654,9.19068 1.36192,9.71591 -1.00463,1.62554 -4.3981,1.05155 -4.94529,-0.83646 z m -120.92412,-1.81711 c -0.56302,-0.20673 -3.02924,-0.89196 -5.48048,-1.52274 -4.06761,-1.04672 -4.41568,-1.38677 -3.98574,-3.89392 0.61602,-3.59227 8.223,-36.42536 8.54275,-36.87204 0.55932,-0.78134 14.83851,3.29038 17.75142,5.06182 4.81412,2.92765 7.2201,7.66552 7.22456,14.22665 0.007,10.3484 -3.7317,18.06355 -10.44805,21.56035 -3.36806,1.75355 -10.65096,2.52436 -13.60446,1.43988 z m 11.55818,-6.18401 c 2.92516,-2.04885 5.90912,-7.93446 6.83167,-13.47481 1.402,-8.41977 -3.10492,-15.02482 -11.14205,-16.32907 -3.37741,-0.54807 -3.56329,-0.41056 -4.58198,3.38973 -1.27595,4.76003 -6.24868,25.76795 -6.24868,26.39831 0,1.93819 12.37802,1.95114 15.14104,0.0159 z m -52.41191,-8.10129 c -3.88987,-1.37256 -7.4461,-2.86917 -7.90274,-3.32581 -0.6585,-0.6585 13.39109,-36.39868 14.90263,-37.91022 0.2164,-0.21641 3.78306,1.17265 7.92593,3.08676 12.33304,5.69822 15.98258,12.43364 12.73534,23.50374 -2.19878,7.49582 -5.90213,12.48724 -11.1495,15.02745 -5.65413,2.73713 -7.81371,2.68717 -16.51166,-0.38192 z m 14.45818,-4.5939 c 4.20645,-2.5648 8.48126,-10.86911 8.48126,-16.47581 0,-5.67831 -2.44471,-9.46055 -7.79518,-12.06 -4.15178,-2.01709 -4.50464,-2.04277 -5.38277,-0.39162 -1.39802,2.62872 -11.39023,26.79726 -11.39023,27.55 0,0.17314 1.49713,0.96952 3.32694,1.76974 4.71383,2.06145 8.94919,1.93123 12.75998,-0.39231 z m 205.85415,-8.52116 c -3.08489,-6.31046 -6.43829,-13.66167 -7.45198,-16.33602 -1.01368,-2.67435 -2.20295,-4.86245 -2.6428,-4.86245 -0.43985,0 -3.01236,0.94844 -5.71668,2.10765 -4.72502,2.02538 -4.97028,2.03537 -6.28276,0.25592 -1.46491,-1.9861 -2.06654,-1.63522 19.97655,-11.65045 6.18552,-2.81038 6.42075,-2.83978 7.44271,-0.93023 0.92574,1.72976 0.39285,2.30464 -4.34004,4.68212 -2.96746,1.49065 -5.52442,2.82229 -5.68216,2.95922 -0.15775,0.13693 2.94821,7.10647 6.90211,15.48788 3.95391,8.3814 7.19237,15.79853 7.1966,16.4825 0.004,0.68397 -0.84739,1.70119 -1.89248,2.26051 -1.68655,0.90261 -2.53072,-0.27292 -7.50907,-10.45665 z m -244.40714,0.8765 c -1.07838,-1.29938 -0.28516,-3.29903 4.7887,-12.07207 3.34464,-5.7831 7.79155,-13.62415 9.88202,-17.42454 2.09047,-3.80039 4.1238,-6.89515 4.51851,-6.87724 0.39471,0.0179 1.51453,0.63773 2.48847,1.37737 1.6258,1.23468 0.97528,2.76193 -7.94362,18.6495 -5.34294,9.51756 -10.32804,17.43959 -11.07801,17.60449 -0.74998,0.16491 -1.9452,-0.40098 -2.65607,-1.25751 z m 271.82046,-6.57761 c -1.37229,-2.17385 -6.2301,-9.83623 -10.79513,-17.02752 -4.56504,-7.19129 -8.16973,-13.18182 -8.01042,-13.31227 0.15929,-0.13047 2.25416,-1.46087 4.65524,-2.95645 2.40109,-1.49557 6.87474,-4.32429 9.94145,-6.28604 5.40505,-3.45757 5.60946,-3.50398 6.67376,-1.5153 0.98261,1.83601 0.29917,2.57294 -6.50617,7.01551 l -7.60411,4.96402 2.96457,4.76299 c 1.63051,2.61966 3.54568,4.763 4.25594,4.763 0.71026,0 3.76044,-1.66276 6.77818,-3.69503 4.33524,-2.91952 5.67188,-3.40293 6.36863,-2.30327 1.60927,2.53991 0.96166,3.44404 -4.97296,6.94266 -3.23737,1.90853 -6.03475,3.58512 -6.2164,3.72578 -0.50275,0.38927 7.17707,11.70865 7.94391,11.70865 0.36845,0 4.0642,-2.09273 8.21279,-4.6505 5.71714,-3.52486 7.74613,-4.33014 8.38256,-3.32694 0.46182,0.72795 0.84434,1.78421 0.85003,2.34723 0.009,0.93819 -18.33017,12.79592 -19.79071,12.79592 -0.34985,0 -1.75887,-1.7786 -3.13116,-3.95244 z m -293.37184,-6.41067 c -5.40026,-2.15338 -10.23726,-8.61481 -10.23726,-13.67527 0,-1.4536 0.63252,-4.12522 1.40558,-5.93696 2.12242,-4.97398 17.08039,-24.84014 18.41019,-24.45116 3.84048,1.1234 3.50352,2.48233 -2.73653,11.03602 -9.04102,12.39317 -10.90133,15.78719 -10.92036,19.92346 -0.0319,6.93346 7.57018,10.75427 13.57237,6.82149 1.93909,-1.27054 11.13637,-13.15793 18.3669,-23.73905 0.47023,-0.68813 1.45628,-0.33838 2.74357,0.97314 2.00056,2.03821 1.98231,2.08385 -4.09468,10.23674 -14.64969,19.65403 -18.1565,22.14249 -26.50978,18.81159 z m 320.48562,-8.31894 c -10.61738,-27.26931 -13.38398,-34.8194 -13.38398,-36.52501 0,-2.31408 3.48693,-4.61918 5.39545,-3.56674 8.77625,4.83958 34.46106,21.61002 34.21723,22.34152 -0.1777,0.53309 -1.05091,1.42836 -1.94046,1.98947 -1.21491,0.76636 -2.92171,0.18321 -6.85939,-2.3436 l -5.24204,-3.36381 -3.70978,2.92858 c -8.54714,6.74726 -7.909,5.33774 -5.39308,11.91226 1.81813,4.75105 1.99346,6.11915 0.94597,7.3813 -1.7913,2.15838 -2.98279,1.93546 -4.02992,-0.75397 z m 6.87839,-24.38396 c -0.33968,-0.96276 -14.43423,-10.19235 -14.8816,-9.74498 -0.15891,0.15891 0.91895,3.00848 2.39522,6.33239 1.47628,3.32392 3.09709,7.11664 3.60179,8.42829 l 0.91763,2.3848 4.13384,-3.27407 c 2.27361,-1.80072 3.99851,-3.65763 3.83312,-4.12643 z m -362.00935,17.96362 c -4.72293,-3.97407 -6.43929,-7.88937 -6.18744,-14.1145 0.11885,-2.93769 -0.31898,-6.34107 -0.97298,-7.56306 -1.48408,-2.77303 -1.53777,-9.49535 -0.10592,-13.2614 3.55097,-9.33975 15.41247,-17.44882 24.09215,-16.47049 9.11477,1.02737 15.40259,8.94229 14.50717,18.2612 -0.608,6.32747 -3.89445,11.37643 -10.79999,16.59194 -5.23462,3.95352 -6.18053,4.29391 -11.91007,4.2859 -3.4231,-0.005 -7.02997,-0.39956 -8.01526,-0.87727 -3.33717,-1.61803 -2.14013,4.07696 1.76564,8.40019 3.06704,3.39484 3.37621,4.18461 2.2442,5.73271 -1.22671,1.67764 -1.52971,1.61298 -4.6175,-0.98522 z m 16.4169,-20.46076 c 5.92656,-3.92201 10.31396,-11.25635 9.68645,-16.19266 -0.90526,-7.12118 -7.01039,-11.08658 -13.89377,-9.02428 -5.18118,1.55233 -8.94761,4.64032 -12.50868,10.25556 -3.49587,5.5124 -3.74043,10.08434 -0.74328,13.89461 4.22897,5.37626 10.37934,5.75205 17.45928,1.06677 z m 364.11466,-5.28452 c -4.72241,-4.31935 -11.5159,-10.56975 -15.09665,-13.88979 l -6.51046,-6.03643 2.24212,-2.38663 2.24212,-2.38662 9.38671,3.86878 c 5.16268,2.12783 11.5748,4.82932 14.24915,6.00331 2.67435,1.17398 4.86245,1.94045 4.86245,1.70327 0,-0.23719 -3.22303,-6.59111 -7.16229,-14.11985 l -7.16227,-13.68858 2.29982,-2.13683 2.29984,-2.13682 15.10896,13.89836 c 14.31534,13.16831 15.02035,13.9963 13.4218,15.76268 -1.6202,1.7903 -1.83392,1.738 -5.38406,-1.31746 -2.03329,-1.74997 -7.49729,-6.86843 -12.14221,-11.37435 -4.64492,-4.50593 -8.44531,-7.76446 -8.44531,-7.24118 0,0.52328 0.39309,1.38903 0.87355,1.9239 1.71222,1.90619 12.43421,22.98483 12.43421,24.44476 0,0.8178 -0.41112,1.741 -0.9136,2.05155 -0.50249,0.31056 -7.06679,-1.96503 -14.58736,-5.05685 -13.37646,-5.49929 -13.59585,-5.55133 -10.09088,-2.3937 1.97057,1.7753 7.1601,6.62852 11.5323,10.78495 6.89929,6.5588 7.80734,7.82264 6.87378,9.56701 -0.59161,1.10544 -1.22638,2.00989 -1.41059,2.00989 -0.18422,0 -4.19872,-3.53402 -8.92113,-7.85337 z M 117.05927,491.19811 C 108.14211,480.94332 91.249996,454.2176 81.858014,435.50474 62.111864,396.16193 53.337933,359.82975 53.337933,317.40528 c 0,-43.8343 9.626288,-82.90975 30.576023,-124.11554 9.368819,-18.42742 19.804244,-34.67887 21.304644,-33.17847 0.7142,0.71421 -1.13479,4.40767 -5.811215,11.60828 -13.771681,21.20514 -28.675834,55.1782 -34.75894,79.23075 -6.569139,25.97432 -9.374398,50.68263 -8.474751,74.64437 2.078318,55.35522 20.284762,104.84749 57.375696,155.96967 4.18281,5.76513 6.58215,9.9559 6.02121,10.51684 -0.56095,0.56095 -1.56167,0.20906 -2.51133,-0.88307 z m 270.86026,-7.47722 c -5.9094,-1.17159 -11.67675,-3.73662 -11.67675,-5.19324 0,-1.95965 7.72341,-8.77905 10.55615,-9.32056 1.41509,-0.27051 4.89872,-0.0154 7.74142,0.56693 4.56803,0.93575 5.42362,0.82807 7.36401,-0.92679 7.04799,-6.37412 8.81688,-20.10094 3.82392,-29.67429 -3.42765,-6.57208 -14.65482,-17.19171 -24.44887,-23.12586 -7.63493,-4.62594 -20.65835,-11.11768 -22.30377,-11.11768 -2.61757,0 -6.20748,-4.45844 -6.82289,-8.47361 -1.22473,-7.99054 -3.49127,-11.18679 -10.59726,-14.94411 -10.74512,-5.68153 -21.93708,-7.78749 -27.05636,-5.09112 -1.22978,0.64773 -4.78864,3.52681 -7.90857,6.39796 -7.50911,6.91031 -19.25281,12.60647 -30.91799,14.99642 -5.11364,1.04768 -9.68147,2.5012 -10.15072,3.23007 -0.46926,0.72886 -0.58218,3.8588 -0.25094,6.95541 0.33125,3.09661 0.075,9.54576 -0.56936,14.33143 -0.98625,7.32457 -2.31018,11.10653 -8.36796,23.90396 -4.74101,10.01566 -7.0071,15.95678 -6.64167,17.41277 0.85878,3.42165 5.82203,5.77227 12.18791,5.77227 5.84119,0 8.65464,1.67755 7.56698,4.51192 -1.002,2.61116 -11.32499,3.19885 -17.76117,1.01113 l -5.60309,-1.90455 -8.18558,2.89942 c -7.79323,2.76045 -8.50348,2.83943 -14.81781,1.648 -3.64773,-0.68828 -8.27494,-0.98483 -10.28269,-0.65902 -3.59015,0.5826 -3.64044,0.54241 -3.04524,-2.43358 0.50279,-2.51395 0.2717,-3.02597 -1.36569,-3.02597 -1.08399,0 -2.41989,0.8023 -2.96866,1.7829 -1.39054,2.48476 -2.4147,1.06413 -1.59303,-2.20968 0.98035,-3.90602 5.81677,-6.1486 11.10098,-5.14737 2.3012,0.43603 6.79614,0.83212 9.98874,0.8802 4.84054,0.0729 6.26526,-0.33767 8.57724,-2.47177 5.79126,-5.34567 6.9585,-13.58716 3.9706,-28.03514 -2.28548,-11.05138 -5.52253,-18.66767 -12.32199,-28.9918 -3.26006,-4.95001 -6.91171,-10.73263 -8.11476,-12.85026 l -2.18737,-3.85025 -0.008,10.50413 c -0.006,8.20381 -0.51074,11.96126 -2.30269,17.158 -3.48057,10.0938 -11.82479,21.74133 -24.02986,33.54282 -8.93333,8.63783 -10.84651,11.01768 -10.84651,13.49207 0,3.85897 0.92112,4.35268 8.2497,4.4217 5.14863,0.0485 6.14645,0.36565 6.70698,2.13176 0.45964,1.44818 -0.0334,2.63501 -1.63228,3.92976 -2.78513,2.25526 -4.60595,2.31199 -10.25337,0.31946 -5.83641,-2.0592 -10.51154,-1.93578 -21.76391,0.57453 -5.43932,1.21346 -10.86569,1.84735 -12.77075,1.49182 -1.82192,-0.34002 -4.30362,-0.0878 -5.51488,0.56041 -2.03009,1.08647 -2.16238,0.96981 -1.69182,-1.49182 0.58522,-3.06138 -0.75547,-3.43797 -3.47561,-0.97628 -1.7597,1.59251 -1.87203,1.55901 -1.87203,-0.55837 0,-1.23889 1.18119,-3.43373 2.62487,-4.87741 2.45991,-2.4599 3.04036,-2.58037 9.23585,-1.9169 5.98478,0.64092 7.04505,0.45359 11.19368,-1.97767 13.04885,-7.64713 21.70701,-29.12586 24.12977,-59.85996 1.11108,-14.09473 1.05911,-15.80777 -0.61233,-20.18438 -1.58886,-4.16036 -1.98833,-4.56113 -3.07077,-3.0808 -1.75627,2.40184 -2.13839,2.20829 -4.72447,-2.393 -2.35217,-4.18512 -3.36586,-4.87946 -4.48353,-3.07102 -0.34796,0.56302 -1.00626,1.02367 -1.46289,1.02367 -1.02647,0 -11.00914,-15.7355 -15.26143,-24.05634 -2.71019,-5.30326 -4.07602,-5.82363 -3.35854,-1.27959 0.0666,0.42227 -0.30555,0.76776 -0.82716,0.76776 -0.52161,0 -2.18695,-2.53153 -3.70075,-5.62561 -3.87394,-7.91806 -3.91395,-16.75559 -0.1067,-23.56748 1.5061,-2.69472 2.54129,-5.09657 2.30041,-5.33745 -0.24088,-0.24088 -1.62957,0.34281 -3.08597,1.29708 -2.52208,1.65252 -2.64712,1.64424 -2.62945,-0.17413 0.0102,-1.05004 1.39216,-4.40119 3.07102,-7.447 3.53838,-6.41937 3.49084,-6.23441 1.60227,-6.23441 -5.90986,0 1.8365,-12.80227 10.5238,-17.39251 2.95717,-1.56251 3.27134,-1.97611 1.52836,-2.01205 -2.07623,-0.0428 -1.96634,-0.48131 2.04735,-8.17018 2.33271,-4.46873 5.50266,-9.61815 7.04431,-11.44315 3.032,-3.58928 4.4486,-8.66993 3.36729,-12.07681 -1.02606,-3.23285 -7.33899,-2.79928 -16.20721,1.1131 -6.30182,2.78015 -8.62214,3.26062 -16.06676,3.32694 -4.78568,0.0426 -9.80581,-0.32065 -11.15585,-0.80728 -2.32231,-0.83708 -2.42027,-0.71292 -1.81703,2.30326 0.73301,3.66505 0.60425,3.72627 -3.43941,1.63521 -6.2287,-3.22098 -7.61142,-10.76818 -4.07218,-22.2269 2.28323,-7.39226 7.03498,-14.63276 10.69856,-16.30201 2.01787,-0.9194 2.42045,-1.84106 2.36638,-5.41753 -0.0882,-5.83882 3.72798,-13.13805 9.59305,-18.34834 2.61682,-2.32468 9.6901,-6.99061 15.7184,-10.36874 16.80424,-9.41672 31.37223,-21.79711 41.89112,-35.60053 1.62061,-2.12665 3.09989,-3.7133 3.2873,-3.5259 0.36317,0.36317 -3.05423,15.21736 -4.29136,18.65296 -0.5411,1.50264 0.24197,1.12326 2.94323,-1.42591 l 3.68047,-3.47325 0.69116,2.75382 c 0.81516,3.24787 -0.21576,10.7113 -1.73189,12.53811 -0.79467,0.95752 -0.20129,1.64253 2.34816,2.71077 5.61425,2.35243 9.68575,6.50848 12.02687,12.27664 2.20555,5.43412 6.0485,8.91289 9.84596,8.91289 1.49182,0 1.68474,0.72648 1.24021,4.67028 -0.31156,2.76418 -1.40979,5.61059 -2.69089,6.97426 l -2.16448,2.30398 3.17849,2.34997 c 1.96911,1.45581 4.45876,5.1593 6.54328,9.73349 3.03033,6.64961 8.26245,12.86763 10.82741,12.86763 1.99337,0 0.83059,1.92184 -1.35814,2.24473 -1.99024,0.2936 -1.66498,0.72066 2.3932,3.14222 2.58306,1.54135 6.15312,2.80244 7.93348,2.80244 1.78035,0 3.237,0.42484 3.237,0.94409 0,2.16792 -6.97504,9.86259 -9.77039,10.77842 -3.97656,1.30283 -3.82212,1.1228 -3.05002,3.55545 0.96523,3.04117 2.43814,2.68494 9.64989,-2.33388 11.26889,-7.84228 18.9734,-19.12866 24.20969,-35.46491 6.09975,-19.03012 10.33592,-24.94583 19.90778,-27.80075 7.31747,-2.18252 44.42751,-1.55153 67.56248,1.14877 37.78893,4.41071 50.69547,4.08717 81.95058,-2.05437 18.6463,-3.66395 25.84833,-6.2567 47.17258,-16.98226 9.36698,-4.71135 17.57462,-8.5661 18.2392,-8.5661 1.67466,0 0.47464,3.58312 -3.08551,9.21306 -4.46013,7.05313 -12.85922,14.72389 -22.36713,20.42759 l -8.6087,5.16426 5.1215,0 c 2.81683,0 7.83639,-0.93406 11.15459,-2.07568 3.31819,-1.14163 6.62457,-1.94778 7.34752,-1.79143 0.79791,0.17255 -0.64634,2.69786 -3.67528,6.4263 -5.17657,6.37207 -12.67607,10.99006 -22.63854,13.94019 -4.13077,1.22323 -4.32043,1.41289 -2.04735,2.04724 1.37783,0.3845 5.84489,0.74503 9.92679,0.80114 4.86978,0.0669 7.42163,0.50852 7.42163,1.28422 0,2.24012 -8.10432,8.8844 -14.94343,12.25128 -5.19419,2.55709 -8.74042,3.52254 -14.63777,3.9851 -7.24169,0.56801 -7.58046,0.69622 -4.87188,1.84381 1.60106,0.67835 4.73043,1.30466 6.95417,1.39179 2.22374,0.0871 4.25892,0.50752 4.52262,0.9342 0.73152,1.18363 -7.81644,7.79699 -13.09699,10.13283 -6.1819,2.73454 -12.02786,3.3773 -20.65105,2.27052 -7.05822,-0.90591 -7.07006,-0.90327 -4.66988,1.04028 1.32345,1.07167 3.72364,2.21196 5.33375,2.53398 l 2.92746,0.58549 -2.25061,2.39566 c -4.07716,4.33995 -9.80207,5.74763 -21.79316,5.35868 -10.43401,-0.33844 -14.22463,0.5613 -7.78816,1.84859 4.15271,0.83054 3.86444,1.95925 -1.15429,4.51962 -5.86388,2.99153 -13.76073,3.64388 -19.94695,1.64781 -2.75134,-0.88776 -6.84505,-1.89317 -9.09714,-2.23425 l -4.09469,-0.62014 3.83266,3.48828 3.83267,3.48827 -3.83267,1.61498 c -2.10797,0.88824 -5.75399,1.82954 -8.10227,2.09179 -2.60771,0.29122 -5.70407,1.61471 -7.95488,3.40019 l -3.68526,2.92338 4.88386,1.34925 c 10.04704,2.7757 21.58361,6.62185 31.78924,10.59814 20.2289,7.88154 38.93038,24.90488 73.41464,66.82691 11.13524,13.53695 15.91694,18.29123 20.66081,20.54235 4.85615,2.30439 9.8431,1.30432 12.56627,-2.52003 2.45731,-3.45096 2.56121,-4.98014 0.52161,-7.67673 -1.82922,-2.41844 -1.8928,-5.22718 -0.2568,-11.34402 0.99745,-3.72933 0.98369,-5.07955 -0.0689,-6.76505 -1.2436,-1.99132 -1.14441,-2.0683 1.82486,-1.41614 2.79774,0.61449 3.1435,0.42977 3.1725,-1.69495 0.0376,-2.75009 1.47717,-4.82627 5.05767,-7.29403 3.65318,-2.51786 4.3895,-2.15845 2.61362,1.27573 -2.16265,4.1821 -2.06331,6.62571 0.22963,5.64826 0.98528,-0.42003 4.32502,-0.97156 7.42163,-1.22565 5.04716,-0.41413 6.0787,-0.13519 9.96109,2.69362 2.38198,1.73558 5.55969,5.11691 7.06159,7.51409 1.50189,2.39717 4.25441,6.6471 6.11671,9.44429 3.67824,5.52475 3.19556,7.05023 -1.77932,5.62345 -1.6137,-0.46279 -2.93397,-0.49912 -2.93397,-0.0807 0,1.5153 5.71957,6.19083 9.51025,7.7743 4.59139,1.91794 4.19955,3.14337 -1.49549,4.67688 -3.37266,0.90817 -5.17076,0.80323 -9.28274,-0.54173 -2.80492,-0.91744 -5.33097,-1.43696 -5.61345,-1.15448 -0.28247,0.28248 -2.90527,-0.83618 -5.82842,-2.4859 -4.31034,-2.43261 -6.36849,-2.95884 -10.88984,-2.78432 -3.06625,0.11835 -6.28917,-0.13297 -7.16202,-0.55848 -1.17554,-0.57307 -2.04084,0.17802 -3.33737,2.89686 -3.09829,6.49719 -12.80968,8.39729 -21.07451,4.12338 -1.61201,-0.83361 -7.46102,-6.71465 -12.99779,-13.06901 -14.85802,-17.05198 -40.50436,-42.34865 -51.55909,-50.8561 -12.35129,-9.50526 -16.38529,-11.5671 -21.85168,-11.16873 -6.81701,0.4968 -6.09531,2.82753 2.87971,9.29999 8.63451,6.2269 10.93581,8.94752 17.07494,20.18617 11.60503,21.24485 29.12967,41.31921 43.78903,50.16002 11.83141,7.13533 14.69646,10.52769 17.41902,20.625 2.45463,9.10358 4.33319,14.24652 8.61428,23.5833 1.58397,3.45453 2.66883,7.64329 2.66883,10.30465 0,9.39981 -3.33845,21.40783 -6.5408,23.52651 -2.2745,1.50481 -27.22501,0.83999 -34.51561,-0.9197 -6.26345,-1.51176 -7.05627,-1.97587 -7.05627,-4.1307 0,-6.60488 6.01189,-10.11627 15.76145,-9.20583 8.67129,0.80973 10.85438,-0.65528 10.85327,-7.28329 -0.002,-10.61755 -9.76286,-24.30099 -24.39361,-34.19589 -4.50785,-3.04868 -8.79931,-6.97068 -10.74858,-9.82321 -5.70656,-8.35086 -11.17631,-13.22143 -21.92427,-19.52254 -10.46274,-6.13388 -10.48394,-6.14086 -8.12767,-2.67328 2.8832,4.243 10.601,10.4253 17.93052,14.36311 5.97197,3.20846 7.75073,5.77356 8.84444,12.75433 0.39695,2.53359 2.29835,10.85487 4.22534,18.49174 3.07526,12.1876 3.38094,14.53207 2.50021,19.17612 -1.89643,9.99983 -7.74779,18.02203 -15.90641,21.80765 -3.22105,1.49459 -6.38801,1.88082 -14.84327,1.81028 -5.91172,-0.0493 -12.63416,-0.46351 -14.93877,-0.92043 z m 150.43268,-8.66663 c 0.3234,-0.84277 2.84084,-4.87348 5.59432,-8.95714 22.76236,-33.75869 38.3168,-74.23719 43.76264,-113.88693 2.2278,-16.21998 2.20271,-48.79109 -0.0505,-65.51513 -3.18626,-23.64991 -10.33571,-50.44097 -19.25898,-72.169 -5.36736,-13.06947 -14.52019,-31.51339 -18.75384,-37.79102 -2.23059,-3.30749 -2.38776,-5.20329 -0.4314,-5.20329 0.48051,0 2.92785,3.57007 5.43853,7.93348 17.0781,29.68072 28.99568,63.91029 35.19534,101.08779 1.52735,9.15905 1.86658,16.70487 1.81783,40.43512 -0.0561,27.29445 -0.23547,30.06884 -2.78362,43.04847 -5.37128,27.35982 -13.02842,49.77743 -25.36232,74.25256 -7.76185,15.40246 -22.31751,38.27384 -24.36693,38.28788 -0.81441,0.005 -1.14585,-0.62442 -0.80111,-1.52279 z M 519.56443,166.83004 c -5.10504,-2.21384 -8.11799,-5.30538 -10.88137,-11.16523 -3.16223,-6.70565 -3.15013,-9.50608 0.0445,-10.30789 4.42238,-1.10995 5.87789,-0.10839 7.95835,5.47624 2.30917,6.19855 6.0373,9.43585 8.50653,7.38658 2.05702,-1.70719 1.92712,-4.66411 -0.51697,-11.768 -2.44758,-7.11403 -2.55114,-9.87602 -0.51768,-13.80829 2.23405,-4.32019 5.46003,-6.15335 10.82861,-6.15335 8.30686,0 15.42312,7.08269 17.02321,16.94292 l 0.57293,3.53056 -4.74047,0 c -4.36603,0 -4.74048,-0.20088 -4.74048,-2.54303 0,-1.39868 -1.29396,-3.99123 -2.87548,-5.76126 -2.21903,-2.48352 -3.38751,-3.05571 -5.11837,-2.50635 -2.879,0.91376 -2.82387,2.79789 0.3163,10.81064 1.40755,3.59163 2.55746,7.7097 2.55535,9.15125 -0.006,3.9664 -3.70858,9.21962 -7.66326,10.872 -4.38482,1.83209 -6.22739,1.80521 -10.75173,-0.15679 z M 112.89299,144.1392 c -8.29923,-8.31308 -15.089508,-15.59875 -15.089508,-16.19038 0,-0.59162 1.393241,-2.41049 3.096088,-4.04193 l 3.09611,-2.96625 12.53839,12.50831 12.5384,12.50829 6.09268,-6.15692 6.09267,-6.15693 3.0838,3.0838 3.0838,3.0838 -9.72146,9.72146 -9.72147,9.72146 -15.0895,-15.11471 z m 380.89765,-2.28283 -3.71214,-3.05985 2.47355,-11.5275 c 1.36046,-6.34012 3.12143,-13.83076 3.91327,-16.64586 1.37111,-4.8745 1.35804,-4.99815 -0.27425,-2.59519 -2.77048,4.07854 -10.06987,13.53571 -13.80846,17.89041 l -3.46397,4.03481 -3.44963,-3.22396 -3.44964,-3.22396 2.4784,-3.37003 c 1.92603,-2.61896 21.06256,-25.816118 24.53858,-29.745489 0.38126,-0.430982 2.4404,0.726731 4.57586,2.572697 l 3.88266,3.3563 -2.77359,13.755732 c -1.52548,7.56565 -3.17962,14.93003 -3.67587,16.36527 l -0.90226,2.60954 1.77351,-2.53673 c 3.1097,-4.4479 15.74362,-19.97386 16.4774,-20.24923 0.38857,-0.14582 2.26556,1.03644 4.17109,2.62725 l 3.4646,2.89237 -9.63428,11.71491 c -15.25938,18.55483 -17.70855,21.41837 -18.31904,21.41837 -0.31552,0 -2.24412,-1.37693 -4.28579,-3.05986 z m -355.52229,-23.1448 c -15.09344,-19.609115 -15.02258,-16.31723 -0.59,-27.407466 4.75904,-3.656933 8.99864,-6.435236 9.42131,-6.174007 0.42269,0.26123 1.69203,1.771916 2.82076,3.35708 l 2.05225,2.882116 -6.61111,4.99379 c -3.63612,2.746589 -6.61112,5.325567 -6.61112,5.731077 0,0.4055 1.09813,2.01393 2.44029,3.57428 l 2.44029,2.83701 4.46951,-3.62006 c 6.66403,-5.397481 6.76754,-5.421916 9.55365,-2.25497 1.3908,1.5809 2.54327,3.13932 2.56106,3.46313 0.0178,0.32382 -2.49131,2.39676 -5.57578,4.60654 -3.08447,2.20977 -5.61806,4.35598 -5.6302,4.76936 -0.0122,0.41339 1.29836,2.22945 2.91225,4.0357 l 2.93433,3.28408 6.88061,-5.47507 6.88062,-5.47508 2.43233,2.9749 c 1.33777,1.6362 2.44889,3.29209 2.46914,3.67978 0.0322,0.6168 -21.0424,17.20941 -21.85803,17.20941 -0.17241,0 -6.19889,-7.64622 -13.39216,-16.9916 z m 321.91569,-2.665 c -1.97058,-1.2208 -3.75743,-2.3473 -3.97079,-2.50333 -0.21336,-0.15603 3.74827,-6.63505 8.80363,-14.397811 5.05535,-7.762765 10.41925,-16.073808 11.91978,-18.468983 l 2.72823,-4.354865 4.07917,2.699468 c 2.24354,1.484707 4.07917,2.924719 4.07917,3.200027 0,0.942358 -22.85399,36.079664 -23.45568,36.062384 -0.33036,-0.009 -2.21294,-1.01609 -4.18351,-2.23689 z M 168.89103,96.649129 c -5.47035,-9.656293 -9.99848,-18.153977 -10.06251,-18.883748 -0.0641,-0.729771 5.05458,-4.287593 11.37471,-7.906271 l 11.49114,-6.579415 2.07254,3.512686 c 1.13989,1.931976 2.07253,3.677034 2.07253,3.877905 0,0.200871 -3.10941,2.084858 -6.9098,4.186638 -3.80039,2.101779 -7.09899,3.981285 -7.33021,4.17668 -0.53789,0.454532 3.2502,7.533217 4.03132,7.533217 0.32238,0 1.02377,-0.384843 1.55864,-0.855207 0.53487,-0.470362 3.1242,-2.080741 5.75407,-3.578617 l 4.78158,-2.723412 2.24499,3.632463 c 1.23475,1.997854 2.07727,3.781762 1.8723,3.96424 -0.20498,0.182479 -3.02144,1.814507 -6.25881,3.626733 -3.23737,1.812225 -5.88441,3.596471 -5.8823,3.964991 0.006,1.128909 4.01678,7.323918 4.74115,7.323918 0.3742,0 3.87633,-1.84261 7.78252,-4.094696 3.90618,-2.252083 7.24651,-4.094696 7.42295,-4.094696 0.17645,0 1.26431,1.599132 2.41748,3.553613 l 2.09669,3.553619 -9.41721,5.51376 c -11.57544,6.7774 -13.61519,7.85249 -14.89842,7.85249 -0.55511,0 -5.48501,-7.90061 -10.95535,-17.556891 z m 261.86238,3.195121 c -2.39284,-1.063188 -4.35061,-2.208167 -4.35061,-2.544413 0,-0.965468 18.40109,-36.709291 19.42547,-37.733678 0.54376,-0.543759 5.65303,1.489542 12.50016,4.9746 6.36928,3.241841 11.70172,5.998284 11.84987,6.12543 0.42452,0.36435 -2.79546,7.711241 -3.37967,7.711241 -0.28801,0 -3.72523,-1.612286 -7.63827,-3.582858 -3.91303,-1.970573 -7.34707,-3.582859 -7.63119,-3.582859 -0.28412,0 -1.45201,1.833581 -2.59531,4.074625 l -2.07871,4.074627 6.40852,3.212415 c 3.5247,1.76683 6.57624,3.363918 6.78122,3.549085 0.20497,0.185167 -0.63293,1.963782 -1.86201,3.952478 l -2.23469,3.615812 -6.04228,-3.05013 c -3.32324,-1.677572 -6.27994,-3.05013 -6.57043,-3.05013 -0.29049,0 -2.15203,3.224573 -4.13676,7.165717 -1.98473,3.941145 -3.71797,7.133178 -3.85164,7.093408 -0.13368,-0.0397 -2.20083,-0.94219 -4.59367,-2.00537 z M 209.43797,96.475124 c -0.47509,-1.226914 -2.33837,-5.915975 -4.14062,-10.42014 -3.64506,-9.109733 -10.24407,-27.303857 -10.24454,-28.245224 -1.8e-4,-0.333315 3.33943,-1.945602 7.42133,-3.582858 10.59034,-4.247806 18.53116,-4.18326 23.96132,0.194766 9.24775,7.455947 12.80485,22.366072 7.27668,30.501488 -3.33736,4.911377 -4.90227,5.977008 -15.08242,10.270452 l -8.32793,3.512276 -0.86382,-2.23076 z m 13.33247,-12.90058 c 3.63539,-3.63539 4.00368,-9.524374 1.00822,-16.121806 -2.59646,-5.718684 -6.09276,-7.923414 -11.42985,-7.207559 -2.2867,0.306711 -4.39348,0.793507 -4.68175,1.081768 -0.4396,0.439603 2.13131,7.883245 7.74514,22.424771 1.39695,3.61854 3.61595,3.56511 7.35824,-0.177174 z m 176.24908,3.763362 c -1.82982,-0.58699 -3.32694,-1.656937 -3.32694,-2.377661 0,-1.459857 12.84231,-39.216151 13.59482,-39.968658 0.35133,-0.351332 24.62287,7.353963 26.0393,8.266492 0.76626,0.493665 -2.32749,7.716895 -3.30519,7.716895 -1.07328,0 -9.5369,-2.770681 -13.94202,-4.564115 -1.2113,-0.49315 -1.95509,0.110068 -2.7104,2.198143 -0.57253,1.582795 -1.34266,3.618718 -1.7114,4.524272 -0.52714,1.294549 0.70858,2.149042 5.78141,3.997822 3.54853,1.293248 6.76411,2.625279 7.14575,2.96007 0.38163,0.33479 0.0373,2.156053 -0.76527,4.04725 -1.58908,3.74474 -1.18974,3.717908 -10.88348,0.731276 l -4.8128,-1.482825 -1.96648,5.310384 c -1.08156,2.920712 -2.28657,6.346855 -2.6778,7.613652 -0.77613,2.513076 -1.47875,2.624784 -6.4595,1.027003 z M 248.96349,81.832407 c -3.06038,-0.940192 -4.75153,-1.987704 -4.4297,-2.743802 2.52866,-5.940828 3.32551,-6.900163 5.28526,-6.362991 6.51183,1.784902 10.31156,1.727332 12.68202,-0.192148 4.03335,-3.266004 2.22498,-6.081107 -4.79773,-7.468665 -9.52469,-1.881905 -12.28394,-3.036587 -15.0165,-6.284048 -9.16424,-10.891087 6.61387,-25.556972 21.64689,-20.12096 3.85888,1.395388 3.99233,1.820864 1.86284,5.938854 -1.45325,2.810263 -1.80608,2.939911 -6.49083,2.385071 -7.98294,-0.94546 -12.3433,2.864621 -7.07158,6.17914 1.26679,0.796481 4.60653,1.768234 7.42163,2.159451 11.03645,1.533747 15.5216,6.091507 14.54252,14.777906 -0.42662,3.784908 -1.24791,5.312921 -4.25099,7.908877 -3.48874,3.015774 -10.38653,5.577169 -14.58361,5.415407 -1.01748,-0.03922 -4.07758,-0.755657 -6.80022,-1.592092 z m 130.55107,0.503834 c -2.49502,-0.719206 -3.2481,-1.433356 -2.87124,-2.72278 0.28098,-0.961327 2.6358,-10.560468 5.23295,-21.331426 l 4.72208,-19.583558 4.26199,0.957604 c 2.34409,0.526682 4.48206,1.177689 4.75105,1.44668 0.43992,0.439914 -5.97069,30.595618 -8.28908,38.992184 -1.00643,3.644968 -1.97433,3.922816 -7.80775,2.241296 z M 362.42318,78.46176 c -1.26973,-0.493321 -3.24864,-3.673655 -5.21016,-8.373359 -2.63553,-6.314566 -3.59389,-7.629703 -5.74847,-7.888546 -2.49409,-0.29963 -2.61084,-0.05496 -3.29712,6.909799 l -0.71149,7.220428 -5.05638,0 c -3.35728,0 -5.05979,-0.429986 -5.06649,-1.279592 -0.0303,-3.841176 4.5232,-41.326699 5.10103,-41.992445 1.02778,-1.184199 20.64997,1.820226 24.33554,3.726101 4.49369,2.32378 6.40212,5.498421 6.40212,10.64984 0,5.210476 -1.96572,9.45194 -5.7659,12.441159 l -2.73578,2.151965 2.67724,6.895568 c 1.47247,3.792562 2.97399,7.701711 3.33668,8.686997 0.54801,1.488675 0.0787,1.77927 -2.77701,1.71948 -1.89006,-0.03957 -4.35777,-0.4299 -5.48381,-0.867395 z m -1.09679,-26.261134 c 1.92465,-1.924649 2.1214,-6.939685 0.32903,-8.387023 -0.70377,-0.568301 -3.17383,-1.345443 -5.48902,-1.72698 -4.10838,-0.677051 -4.22511,-0.615323 -4.86245,2.571402 -0.35916,1.79581 -0.65302,4.589485 -0.65302,6.20817 0,2.798592 0.22254,2.943062 4.53341,2.943062 2.75639,0 5.16398,-0.630558 6.14205,-1.608631 z M 305.63973,74.70912 c -1.95381,-0.847453 -4.42126,-2.326545 -5.48321,-3.286871 -5.29629,-4.789463 -8.07687,-16.397688 -5.87728,-24.536232 3.13924,-11.615358 17.17514,-18.744517 27.99762,-14.220646 5.32427,2.225581 6.13653,3.874939 3.50048,7.108036 -2.18324,2.677745 -2.37944,2.7202 -6.26968,1.356595 -9.58786,-3.360748 -17.15901,4.091332 -15.48669,15.243153 1.20534,8.037826 8.0124,13.166429 14.30168,10.775246 2.34378,-0.8911 2.72204,-1.567341 2.45073,-4.381338 -0.26464,-2.744762 -0.76908,-3.347041 -2.88001,-3.438598 -5.19773,-0.225438 -5.25257,-0.272657 -4.92425,-4.239616 l 0.31771,-3.838777 7.77955,-0.296207 7.77955,-0.296208 0.69048,9.822943 c 0.37977,5.402619 0.39221,10.305575 0.0276,10.895457 -2.65298,4.292607 -17.07859,6.30234 -23.92432,3.333063 z"
     id="path4138"
     inkscape:connector-curvature="0" />
</svg>
