<?xml version="1.0" encoding="UTF-8" standalone="no"?>
<!-- Created with Inkscape (http://www.inkscape.org/) -->

<svg
   xmlns:dc="http://purl.org/dc/elements/1.1/"
   xmlns:cc="http://creativecommons.org/ns#"
   xmlns:rdf="http://www.w3.org/1999/02/22-rdf-syntax-ns#"
   xmlns:svg="http://www.w3.org/2000/svg"
   xmlns="http://www.w3.org/2000/svg"
   xmlns:sodipodi="http://sodipodi.sourceforge.net/DTD/sodipodi-0.dtd"
   xmlns:inkscape="http://www.inkscape.org/namespaces/inkscape"
   id="svg2"
   version="1.1"
   inkscape:version="0.91 r13725"
   width="2048"
   height="2048"
   viewBox="0 0 2048 2048"
   sodipodi:docname="york.svg"
   inkscape:export-filename="C:\Users\domay\Documents\GitHub\brizzlepuffs\media\teams\york.png"
   inkscape:export-xdpi="21.969999"
   inkscape:export-ydpi="21.969999">
  <metadata
     id="metadata8">
    <rdf:RDF>
      <cc:Work
         rdf:about="">
        <dc:format>image/svg+xml</dc:format>
        <dc:type
           rdf:resource="http://purl.org/dc/dcmitype/StillImage" />
        <dc:title></dc:title>
      </cc:Work>
    </rdf:RDF>
  </metadata>
  <defs
     id="defs6" />
  <sodipodi:namedview
     pagecolor="#ffffff"
     bordercolor="#666666"
     borderopacity="1"
     objecttolerance="10"
     gridtolerance="10"
     guidetolerance="10"
     inkscape:pageopacity="0"
     inkscape:pageshadow="2"
     inkscape:window-width="2560"
     inkscape:window-height="1377"
     id="namedview4"
     showgrid="false"
     inkscape:zoom="0.2706422"
     inkscape:cx="914.07077"
     inkscape:cy="1191.0975"
     inkscape:window-x="84"
     inkscape:window-y="-8"
     inkscape:window-maximized="1"
     inkscape:current-layer="svg2" />
  <g
     id="g4144"
     transform="matrix(1.0189329,0,0,1.0189329,-19.359504,-162.17018)">
    <path
       sodipodi:nodetypes="cccsssc"
       inkscape:connector-curvature="0"
       id="path4142"
       d="m 515.44068,533.08474 1154.66102,0 c 67.9569,1172.85596 -576.4068,1348.64406 -576.4068,1348.64406 0,0 -99.08222,-34.4039 -219.38649,-137.2236 -82.93549,-70.882 -178.69873,-170.1652 -247.90596,-329.805 -73.76565,-170.1546 -113.76524,-405.27 -110.41304,-710.92004 0.59686,-54.42032 -4.87455,-111.28373 -0.54873,-170.69542 z"
       style="fill:#000000;fill-opacity:1;fill-rule:evenodd;stroke:#000000;stroke-width:1px;stroke-linecap:butt;stroke-linejoin:miter;stroke-opacity:1" />
    <path
       inkscape:connector-curvature="0"
       id="path4138"
       d="m 1109,1992.9216 c -12.5157,-10.0544 -33.1397,-28.2826 -41.9724,-37.0965 -7.5626,-7.5467 -27.5369,-30.1847 -34.1991,-38.7599 l -2.6685,-3.4348 -0.5527,3.4348 c -1.9869,12.3476 -5.5768,52.1941 -5.595,62.1019 l -0.012,6.6672 4.9769,1.0673 c 2.7373,0.5871 6.7972,1.3585 9.0221,1.7142 3.585,0.5733 5.8519,1.9038 4.8511,2.8474 -0.1925,0.1816 -5.7501,-0.5247 -12.3501,-1.5695 -6.6,-1.0448 -16.5,-2.3655 -22,-2.9351 -11.34995,-1.1752 -13.5,-1.6708 -13.5,-3.1113 0,-0.6612 2.58817,-0.7754 7.3842,-0.326 l 7.3842,0.692 1.5417,-4.8567 c 3.4867,-10.9839 15.4749,-71.9049 14.3676,-73.0122 -0.2674,-0.2674 -3.765,-1.2739 -7.7724,-2.2366 -4.0074,-0.9627 -7.4841,-2.3443 -7.7261,-3.0702 -0.3128,-0.9384 0.248,-1.1593 1.9404,-0.7642 1.3092,0.3056 7.3304,1.0795 13.3804,1.7198 6.05,0.6403 12.4348,1.3689 14.1883,1.6192 2.6111,0.3727 4.5033,2.1237 10.451,9.6713 9.981,12.6658 20.5203,24.3297 32.3607,35.8135 11.7832,11.4285 27.3637,24.9028 28.7952,24.9028 1.7199,0 -0.6634,-48.2215 -2.9407,-59.5 -0.7469,-3.699 -1.8539,-4.4651 -6.4795,-4.4847 -4.9797,-0.021 -9.875,-1.0845 -9.875,-2.1453 0,-0.484 5.5125,-0.8175 12.25,-0.741 6.7375,0.076 15.85,-0.1961 20.25,-0.6055 9.1009,-0.8468 9.5243,0.6184 0.7791,2.6958 -5.062,1.2024 -5.1246,1.2645 -5.7976,5.7481 -0.3742,2.4929 -0.674,21.5056 -0.6661,42.2503 0.014,35.8872 -0.2253,41.817 -1.682,41.7556 -0.3484,-0.015 -4.0084,-2.7379 -8.1334,-6.0517 z m 66,-4.8542 c 0,-1.0988 0.6514,-1.3082 12.75,-4.0998 6.4759,-1.4942 9.25,-2.5727 9.25,-3.5964 0,-5.3045 -12.4118,-74.1163 -13.5791,-75.2837 -0.7012,-0.7011 -21.3887,3.9382 -29.7568,6.6732 -8.3242,2.7207 -9.6641,4.138 -9.6641,10.2226 0,3.7719 -0.9237,6.0167 -2.4757,6.0167 -0.9586,0 -1.2783,-3.7385 -1.3307,-15.5626 -0.049,-11.019 0.2562,-15.4541 1.0449,-15.1912 0.6127,0.2042 1.6131,2.1449 2.2232,4.3125 l 1.1092,3.9413 5.4646,-0.2993 c 25.1618,-1.3779 50.9426,-6.1544 77.2145,-14.3057 l 12.75,-3.956 0,-4.4695 c 0,-2.9903 0.4283,-4.4695 1.2942,-4.4695 0.8886,0 1.9892,4.3089 3.512,13.75 2.6016,16.1288 2.6514,17.25 0.7655,17.25 -0.9168,0 -1.8727,-1.9859 -2.6693,-5.5456 -0.6826,-3.0501 -1.7274,-5.8502 -2.3217,-6.2223 -2.509,-1.5708 -36.6493,2.4365 -38.7627,4.5499 -1.018,1.018 6.9269,40.4461 13.3935,66.468 l 2.1744,8.75 4.557,-0.021 c 2.5064,-0.012 7.4821,-0.6378 11.0571,-1.3917 6.3104,-1.3309 8,-1.2725 8,0.2768 0,0.7272 -5.4993,1.8937 -38.5,8.1665 -8.8,1.6727 -18.1596,3.475 -20.7992,4.0052 -5.9536,1.1959 -6.7008,1.1994 -6.7008,0.031 z m -192.9221,-1.7957 c -5.23572,-0.9855 -22.11633,-20.8474 -37.28715,-43.8724 l -9.29075,-14.1007 -7.2972,-2.0042 -7.2972,-2.0042 -1.43416,3.4324 c -2.06476,4.9417 -9.47385,28.7477 -9.45839,30.3906 0.007,0.7812 3.50075,2.8523 8,4.7428 4.39282,1.8458 7.98695,3.7583 7.98695,4.25 0,0.4917 -0.31211,0.894 -0.69358,0.894 -0.75659,0 -53.58565,-19.0929 -54.15656,-19.5727 -0.19257,-0.1618 -0.0985,-0.7013 0.20896,-1.1989 0.30751,-0.4975 3.78647,0.1475 7.73104,1.4335 11.73664,3.8262 10.22516,5.2846 20.12387,-19.4172 C 909.51263,1903.5443 918,1880.6165 918,1878.4956 c 0,-0.8683 -2.77284,-2.8816 -6.5,-4.7196 -3.575,-1.7629 -6.5,-3.7837 -6.5,-4.4906 0,-1.6801 -0.27757,-1.7399 7.72153,1.664 3.81203,1.6221 14.77165,5.6951 24.35471,9.0509 31.45668,11.0157 36.33998,13.2929 41.77216,19.4798 3.89745,4.439 4.73284,7.6365 3.27039,12.5177 -1.92741,6.4332 -12.82664,14.0515 -22.36879,15.6354 -2.35397,0.3907 -3.75,1.1707 -3.75,2.0951 0,2.2735 11.23353,25.225 17.09952,34.9365 2.88661,4.7789 7.42011,11.5582 10.07444,15.065 2.65432,3.5069 4.82604,6.5773 4.82604,6.8232 0,0.5049 -2.33447,0.394 -5.9221,-0.2813 z m -27.79398,-64.1671 c 4.61528,-2.2342 9.06613,-7.6668 10.29601,-12.5671 1.02085,-4.0673 -2.15792,-11.0178 -6.90859,-15.1058 -5.05459,-4.3496 -20.47528,-12.0315 -21.68906,-10.8047 -1.73808,1.7569 -14.0846,36.6707 -13.25956,37.4957 0.46817,0.4682 3.75958,1.5135 7.31425,2.3229 8.64671,1.9688 18.54007,1.4217 24.24695,-1.341 z M 1256,1971.1125 c 0,-0.4881 2.9513,-2.1418 6.5584,-3.6748 3.6071,-1.5331 6.9425,-3.5051 7.412,-4.3824 1.5424,-2.8819 4.047,-16.9309 6.4898,-36.4017 2.7643,-22.034 5.1432,-49.3835 4.3633,-50.1634 -0.2924,-0.2924 -2.8907,-0.026 -5.774,0.5926 -8.9423,1.9178 -7.8017,-0.427 1.7051,-3.5053 4.81,-1.5575 14.0329,-5.4081 20.4954,-8.557 7.4416,-3.6259 11.75,-5.2448 11.75,-4.415 0,0.7206 -2.0565,2.5154 -4.5701,3.9884 l -4.57,2.6783 3.82,3.9579 c 17.5815,18.2161 60.0859,49.7699 67.0423,49.7699 0.681,0 4.1687,-1.2035 7.7503,-2.6743 3.5817,-1.4709 6.8156,-2.3709 7.1865,-2 0.9165,0.9165 1.9742,0.2957 -18.159,10.6569 -9.9,5.0949 -21.2054,11.0081 -25.1231,13.1404 -7.855,4.2753 -8.3823,4.4409 -8.365,2.627 0.01,-0.6875 2.594,-2.6795 5.75,-4.4266 10.795,-5.976 11.3589,-4.2929 -6.2713,-18.7195 l -15.659,-12.8135 -10.1658,4.6426 c -5.5912,2.5534 -13.4129,6.0881 -17.3815,7.8548 l -7.2157,3.2122 0.036,17 c 0.02,9.35 0.3418,17.7247 0.7157,18.6105 0.6226,1.4754 1.2905,1.466 7.9564,-0.1112 4.0022,-0.947 7.4971,-1.3653 7.7664,-0.9296 0.7008,1.134 0.1206,1.3758 -11.7386,4.8933 -5.8826,1.7448 -15.074,4.7169 -20.4254,6.6047 -10.482,3.6976 -11.3791,3.8983 -11.3791,2.5448 z m 49.5,-62.3651 c 4.4,-1.6986 8.3966,-3.4307 8.8813,-3.8491 0.4846,-0.4185 -1.9904,-3.3723 -5.5,-6.5642 -3.5097,-3.1919 -10.012,-9.2978 -14.4496,-13.5688 -4.4375,-4.2709 -8.375,-7.7653 -8.75,-7.7653 -0.3749,0 -0.7036,4.1625 -0.7303,9.25 -0.027,5.0875 -0.4205,13.75 -0.8751,19.25 -0.4546,5.5 -0.6463,10.313 -0.426,10.6956 0.3837,0.6664 4.1947,-0.6328 21.8497,-7.4482 z M 816,1919.3887 c -16.90843,-4.9828 -33.4454,-14.883 -46.53869,-27.8612 -13.35246,-13.2351 -18.93485,-24.8784 -18.95159,-39.5275 -0.008,-7.2755 0.38938,-9.3127 2.76075,-14.1415 4.73762,-9.6472 14.64242,-17.0322 26.63435,-19.8585 7.20623,-1.6983 22.42781,-0.728 32.09518,2.046 9.35745,2.685 24.99877,10.2098 35.5,17.0784 11.39221,7.4514 24.14914,20.5996 28.50137,29.3756 3.25921,6.572 3.4723,7.6114 3.48505,17 0.012,8.8007 -0.30857,10.6767 -2.67257,15.6425 -4.84804,10.1837 -12.58363,16.8217 -24.30113,20.8531 -8.7528,3.0114 -25.15979,2.7387 -36.51272,-0.6069 z m 23.24604,-6.5813 c 6.96471,-2.4827 13.5086,-8.0236 16.46349,-13.9402 9.65568,-19.3337 5.46221,-39.9367 -11.59557,-56.9704 -16.37735,-16.3543 -39.51698,-22.0325 -56.07255,-13.7596 -12.09244,6.0426 -19.04141,17.4634 -19.04141,31.295 0,13.1398 5.15297,25.2184 15.54932,36.4477 15.8079,17.0744 36.40358,23.4484 54.69672,16.9275 z M 1387,1915.1229 c 0,-0.4825 3.15,-3.1755 7,-5.9845 3.85,-2.8091 7,-5.5823 7,-6.1627 0,-0.5805 -0.8529,-2.7249 -1.8954,-4.7655 -3.432,-6.718 -36.0239,-58.2487 -38.6074,-61.0417 -1.0164,-1.0988 -2.298,-0.793 -7.3358,1.75 -5.9729,3.0151 -9.1784,3.8324 -9.1444,2.3315 0.01,-0.4125 3.2701,-2.5063 7.2462,-4.653 9.898,-5.3437 22.0894,-13.3046 28.9727,-18.9187 6.0369,-4.9239 6.7641,-5.3157 6.7641,-3.6446 0,1.0945 -3.4421,4.6722 -8.8575,9.2065 -2.0518,1.7179 -2.9951,3.2102 -2.5287,4 0.4092,0.6929 5.528,8.4598 11.3752,17.2598 21.3638,32.1525 31.6654,46.5 33.3872,46.5 0.6687,0 4.5295,-2.0431 8.5796,-4.5401 4.102,-2.529 7.7443,-4.1598 8.2227,-3.6814 0.8142,0.8142 -47.2083,33.2215 -49.2289,33.2215 -0.5223,0 -0.9496,-0.3947 -0.9496,-0.8771 z m -316,-38.5082 c -82.39401,-39.1314 -146.54688,-80.138 -208.97693,-133.5784 -34.75078,-29.7468 -71.344,-66.6968 -100.10492,-101.081 -37.22881,-44.5077 -74.28571,-99.2447 -101.73392,-150.2718 l -8.50793,-15.8165 -4.08815,7.8267 c -5.29256,10.1325 -8.21187,14.1947 -24.05278,33.4692 -4.04312,4.9195 -14.29847,21.1773 -18.99404,30.1113 -6.20924,11.8139 -10.78346,24.286 -13.09995,35.7184 l -1.62574,8.0233 6.3,10.2421 c 12.35693,20.0888 16.387,28.6953 14.09906,30.1093 -0.49632,0.3067 -2.59324,0.091 -4.65983,-0.4798 -5.05639,-1.3961 -11.81567,-8.3432 -14.07008,-14.4611 -2.70913,-7.3519 -3.47153,-7.4842 -3.60979,-0.6264 -0.0688,3.41 -0.2375,6.65 -0.375,7.2 -0.1375,0.55 -0.30625,2.624 -0.375,4.6089 l -0.125,3.6089 -4.0492,-4.8589 c -4.91297,-5.8954 -12.68207,-18.44 -13.54191,-21.8659 -0.34414,-1.3711 -0.93835,-2.493 -1.32047,-2.493 -0.82323,0 -5.12779,17.4981 -5.10452,20.75 0.009,1.2375 -0.37765,2.25 -0.8589,2.25 -0.83054,0 -1.13716,-1.0063 -3.19935,-10.5 -2.07056,-9.5323 -2.9434,-28.1139 -1.9024,-40.5 1.11381,-13.2525 1.67266,-16.306 2.851,-15.5777 0.40164,0.2482 1.49117,-4.3665 2.42118,-10.255 3.31667,-20.9999 11.8286,-41.2326 27.51297,-65.3978 15.13941,-23.3255 24.21666,-44.8022 28.4917,-67.411 1.21463,-6.4237 1.16652,-7.3851 -0.57232,-11.4359 -29.29897,-68.2545 -57.97303,-162.5912 -73.27542,-241.0737 l -1.68678,-8.6511 -5.63279,-1.5635 c -3.09803,-0.8599 -9.80633,-2.1119 -14.90733,-2.7822 l -9.27453,-1.2188 -9.04805,6.2702 c -24.93833,17.2818 -59.24819,29.6273 -92.40288,33.2487 -12.90768,1.4099 -44.79203,0.4806 -53.5,-1.5593 -9.12861,-2.1384 -27.04618,-1.9956 -41,0.3269 -12.61731,2.1 -12.44085,2.0617 -39,8.4588 -33.71219,8.1201 -42.80198,9.614 -58.5201,9.6182 -13.4115,0 -23.14964,-2.0758 -31.93306,-6.8187 -9.28623,-5.0143 -25.96907,-24.1476 -32.72582,-37.5326 -3.73645,-7.4019 -4.80745,-15.5162 -2.36972,-17.9539 2.46346,-2.4635 7.22471,-2.137 9.84415,0.675 1.2125,1.3017 3.72519,3.9965 5.58375,5.9885 3.03748,3.2556 12.4038,8.6449 15.02443,8.6449 0.56512,0 1.32971,-2.2783 1.69909,-5.0628 0.77342,-5.8303 1.48334,-5.4964 3.85473,1.8128 1.2504,3.8541 2.20042,5.25 3.57301,5.25 1.57476,0 1.91705,-0.9071 2.16964,-5.75 l 0.2999,-5.75 3.48082,6.25 c 2.93258,5.2656 3.90638,6.25 6.18262,6.25 3.05657,0 3.62491,-1.1573 4.05113,-8.2492 0.15699,-2.612 0.52112,-4.7495 0.80918,-4.75 0.28807,-4e-4 2.53807,2.6977 5,5.9958 5.94769,7.9678 7.58672,7.6569 7.13045,-1.3527 l -0.3458,-6.8282 6.61232,5.1964 c 5.00278,3.9315 7.15598,5.0515 8.8458,4.601 4.8918,-1.3041 5.14689,-1.9025 3.93328,-9.2264 -0.6192,-3.7367 -0.98563,-6.9342 -0.8143,-7.1055 0.17132,-0.1714 1.98225,2.3953 4.02428,5.7036 2.04202,3.3084 4.10305,6.0152 4.58007,6.0152 2.21536,0 3.90815,-3.534 4.54607,-9.4909 0.38339,-3.58 1.01102,-6.5091 1.39472,-6.5091 0.38371,0 2.21492,2.025 4.06936,4.5 1.85444,2.475 3.62557,4.4983 3.93585,4.4963 0.31028,0 2.02665,-0.8955 3.81415,-1.9853 3.20969,-1.957 3.25056,-2.0779 3.29481,-9.7463 l 0.0448,-7.7647 4.34306,4.8452 c 3.77887,4.2158 4.60731,4.7038 6.37722,3.7565 3.72928,-1.9958 5.1898,-4.2112 5.22337,-7.9231 l 0.0333,-3.6786 2.06846,2.4864 2.06846,2.4864 7.14827,-7.4954 c 8.62623,-9.0452 11.92004,-15.2705 12.46169,-23.5527 0.84962,-12.9912 -7.93765,-22.3902 -25.26692,-27.0259 -2.72442,-0.7288 -5.03161,-1.2292 -5.12708,-1.112 -0.0955,0.1173 -1.13804,2.1257 -2.31682,4.4632 -1.17879,2.3375 -2.32294,4.25 -2.54256,4.25 -0.21962,0 -1.14664,-2.25 -2.06004,-5 -1.4535,-4.3761 -2.00195,-5 -4.39515,-5 -2.16855,0 -3.11223,0.776 -4.56008,3.75 l -1.82565,3.75 -1.31446,-3 c -0.72295,-1.65 -1.33475,-3.5625 -1.35956,-4.25 -0.0279,-0.7723 -1.49416,-1.25 -3.83678,-1.25 -3.62144,0 -3.91864,0.2582 -6.61941,5.75 l -2.82773,5.75 -2.13059,-5.9865 c -2.97901,-8.3704 -4.68309,-8.3382 -8.97212,0.1694 l -3.43406,6.8118 -1.98797,-6.4973 c -1.66047,-5.427 -2.38187,-6.5458 -4.37905,-6.7913 -1.93853,-0.2383 -2.95571,0.657 -5.37424,4.7301 -3.29768,5.5538 -4.48317,6.2648 -4.48317,2.6888 0,-1.3062 -0.28125,-3.7813 -0.625,-5.5 -0.52251,-2.6126 -1.08695,-3.125 -3.44209,-3.125 -2.41175,0 -3.32134,0.8948 -6.32161,6.2187 l -3.50451,6.2186 -0.3034,-6.4686 c -0.28454,-6.0667 -0.45875,-6.4856 -2.80339,-6.7409 -2.13555,-0.2326 -3.00188,0.6421 -5.94275,6 -3.19641,5.8234 -3.49338,6.0933 -4.15032,3.7722 -0.38916,-1.375 -0.75243,-3.9257 -0.80725,-5.6682 -0.27336,-8.6884 -3.54718,-8.5201 -8.13505,0.4182 L 174.5,1073.5 174,1066 c -0.44837,-6.7256 -0.7219,-7.5316 -2.64917,-7.8063 -1.68928,-0.2408 -3.0588,1.1002 -6.40002,6.2666 -2.33796,3.6152 -4.35403,6.453 -4.48016,6.3064 -0.12613,-0.1467 0.2233,-3.355 0.77652,-7.1295 0.81466,-5.5583 0.7442,-7.0285 -0.37066,-7.7347 -2.58544,-1.6376 -3.72382,-0.9002 -7.20741,4.6691 l -3.48504,5.5716 -0.70952,-7.5716 c -0.44296,-4.7271 -1.15064,-7.5716 -1.88371,-7.5716 -0.64581,0 -2.50544,2.5875 -4.13251,5.75 l -2.95832,5.75 -0.29723,-6.8176 c -0.35109,-8.053 -1.77004,-8.428 -4.24184,-1.121 l -1.67062,4.9386 -1.30428,-5.75 -1.30429,-5.75 -5.59087,0 C 114.89289,1048.01 111,1053.1834 111,1068.0652 c 0,12.2126 -1.65498,21.4182 -4.43072,24.6451 -1.91932,2.2314 -2.48297,2.4023 -4.45058,1.3492 -5.38734,-2.8832 -13.417927,-20.7626 -15.298544,-34.0608 -2.120738,-14.9962 1.903045,-25.9703 13.930154,-37.9918 6.77749,-6.7744 9.31783,-8.5115 20.24969,-13.847 6.875,-3.3555 16.325,-7.1898 21,-8.5206 7.01655,-1.9975 8.95952,-3.0065 11.13298,-5.7815 1.44814,-1.849 6.58034,-8.5368 11.4049,-14.8618 4.82455,-6.325 8.52819,-10.6 8.23031,-9.5 -0.29788,1.1 -2.84626,7.1206 -5.66306,13.3791 l -5.12147,11.3791 4.25817,-0.6937 c 5.65791,-0.9219 30.09043,-4.5172 30.87657,-4.5437 0.34012,-0.011 6.15446,-7.5583 12.92076,-16.7708 17.77875,-24.2063 19.31026,-26.2339 19.59772,-25.9464 0.21665,0.2166 -11.85863,34.3281 -14.1532,39.9813 -0.67936,1.6738 0.0458,1.7491 11.64592,1.2092 6.80372,-0.3167 14.73291,-0.8148 17.62042,-1.1069 6.01607,-0.6086 3.93699,2.163 19.04351,-25.3872 17.4216,-31.7723 22.37101,-40.4839 21.87356,-38.5 -0.27582,1.1 -4.55785,15.0434 -9.51562,30.9853 -4.95776,15.942 -8.82109,29.1784 -8.58516,29.4144 1.03646,1.0364 43.28595,-10.3983 45.13911,-12.2168 1.17231,-1.1504 5.64694,-10.0757 17.85354,-35.6113 8.89758,-18.6133 22.57062,-45.8502 21.87317,-43.5716 -0.33671,1.1 -5.58813,18.0961 -11.66983,37.769 -6.08171,19.6729 -10.86489,35.9617 -10.6293,36.1973 0.2356,0.2356 4.23955,-0.6856 8.89768,-2.0471 9.08261,-2.6547 26.84812,-6.8322 33.59986,-7.9009 3.74315,-0.5924 4.54151,-1.2805 8.51234,-7.336 5.57451,-8.5012 65.94764,-98.573 66.36123,-99.0056 0.42416,-0.4436 -36.72872,81.5055 -41.17611,90.8233 -1.96887,4.125 -4.19296,8.9357 -4.94242,10.6905 l -1.36265,3.1904 4.73853,0.6185 c 9.27981,1.2112 20.82084,5.43 30.01133,10.9705 5.04527,3.0416 9.39724,5.5301 9.67103,5.5301 0.27378,0 7.74287,-8.8875 16.59797,-19.75 8.85509,-10.8625 19.47131,-23.8672 23.59159,-28.8994 4.12028,-5.0322 8.90038,-10.9826 10.62245,-13.2232 4.37065,-5.6868 4.62593,-4.36 0.49335,2.564 -1.90678,3.1947 -6.62498,11.6586 -10.48488,18.8086 -3.8599,7.15 -11.40691,21.0539 -16.77114,30.8976 l -9.75315,17.8977 2.1763,1.6416 c 1.19696,0.9028 8.75195,4.9508 16.78887,8.9955 l 14.61258,7.354 2.59112,-3.0755 c 1.42512,-1.6915 7.03542,-8.2998 12.46734,-14.6851 l 9.87622,-11.6095 -1.66883,-22.7082 c -4.98742,-67.861 -6.78403,-170.7823 -4.70807,-269.7041 0.62328,-29.7 1.14871,-74.1375 1.16762,-98.75 l 0.0344,-44.75 581.21124,0 581.2112,0 0,35.25 c 0,19.3875 0.45,58.875 1,87.75 1.16,60.9008 1.2907,183.3627 0.22,206.121 l -0.735,15.621 4.2575,0.6723 c 3.9277,0.6203 25.7484,6.0226 35.3773,8.7587 4.0034,1.1376 4.4331,1.0105 15.2179,-4.5012 6.104,-3.1195 11.346,-5.6718 11.649,-5.6718 0.3029,0 -2.6259,2.9967 -6.5085,6.6594 -3.8827,3.6627 -6.7036,6.9879 -6.2688,7.3894 0.4348,0.4015 5.0656,2.1982 10.2906,3.9927 5.225,1.7944 10.2119,3.6195 11.082,4.0558 0.9789,0.4908 7.1739,-0.8429 16.25,-3.4984 8.0674,-2.3604 14.668,-4.2008 14.668,-4.0898 0,0.1111 -3.6056,3.0364 -8.0124,6.5007 -4.4068,3.4643 -7.7887,6.5224 -7.5153,6.7958 1.4414,1.4415 20.0162,9.1944 22.0283,9.1944 1.9617,0 9.7313,-1.871 22.6541,-5.4552 l 2.3453,-0.6505 -2.1384,1.8028 c -1.1761,0.9916 -3.3972,2.7029 -4.9359,3.8029 -1.5387,1.1 -4.0766,3.0632 -5.6398,4.3626 l -2.8423,2.3626 7.2782,4.1814 c 4.003,2.2998 9.2612,5.4493 11.6849,6.9989 l 4.4067,2.8174 12.5298,-1.5916 c 6.8914,-0.8754 12.6872,-1.4342 12.8796,-1.2418 0.1924,0.1924 -3.3008,2.2491 -7.7628,4.5705 -4.462,2.3214 -7.9658,4.3611 -7.7863,4.5328 0.1795,0.1717 4.3763,3.318 9.3263,6.9918 l 9,6.6797 10.5,-0.6464 c 5.775,-0.3555 11.625,-0.8606 13,-1.1224 1.375,-0.2618 -1.5013,1.604 -6.3917,4.1462 l -8.8917,4.6223 10.1742,10.019 10.1743,10.019 6.7174,0.8663 c 3.6946,0.4764 7.505,0.881 8.4675,0.899 3.0277,0.057 1.9049,1.6684 -2,2.8711 -6.9856,2.1514 -6.9857,2.1917 -0.021,11.1941 6.2479,8.0753 6.6448,8.3845 14.845,11.5686 l 8.4255,3.2716 -5.75,0.064 c -3.1625,0.035 -5.75,0.3399 -5.75,0.6776 0,0.3377 2.0488,3.9011 4.5528,7.9186 l 4.5528,7.3047 7.1972,2.1342 c 13.269,3.9346 12.7736,3.6312 7.1972,4.4079 -2.75,0.383 -6.1891,0.9295 -7.6424,1.2143 l -2.6424,0.518 3.5069,7.1941 c 1.9288,3.9568 3.8698,8.1425 4.3134,9.3015 0.5365,1.4019 3.0924,2.9733 7.6355,4.6946 l 6.829,2.5873 -5.25,0.055 c -6.0883,0.064 -6.1158,0.1423 -3.054,8.6804 2.1877,6.1006 2.2286,6.1413 10.2502,10.1911 l 8.0538,4.0659 -6.857,0.059 c -5.3744,0.046 -6.7435,0.3548 -6.3319,1.4272 0.2887,0.7525 1.0991,3.8377 1.8009,6.856 1.1671,5.0202 1.7245,5.777 6.5415,8.8818 2.8961,1.8667 5.2839,3.692 5.3061,4.0561 0.022,0.3642 -1.8055,0.974 -4.0617,1.3551 l -4.1021,0.6931 0.6762,5.6448 c 1.0715,8.9447 1.3609,9.5199 6.5814,13.0824 2.7206,1.8565 4.9466,3.5086 4.9466,3.6712 0,0.1626 -2.0807,-0.3306 -4.6238,-1.0959 l -4.6239,-1.3916 0.6983,8.1894 c 0.6502,7.625 0.9158,8.3617 3.8549,10.6894 1.7362,1.375 4.2902,3.5356 5.6756,4.8013 l 2.5189,2.3013 -3.5,-0.7178 c -7.5841,-1.5553 -7.2742,-1.9258 -7.2055,8.6152 l 0.062,9.5 7.1138,5.3747 c 3.9125,2.9561 6.9759,5.5125 6.8074,5.681 -0.1685,0.1685 -3.3298,-0.532 -7.025,-1.5566 -3.6953,-1.0247 -6.9004,-1.5562 -7.1226,-1.1811 -0.2222,0.3751 -0.725,5.2469 -1.1173,10.8262 -0.5927,8.4289 -0.4632,10.2889 0.7655,11 2.7047,1.5652 13.7795,11.6314 13.3117,12.0992 -0.2532,0.2532 -2.627,-0.2288 -5.2751,-1.0711 -2.6481,-0.8423 -6.1869,-1.8041 -7.8639,-2.1372 l -3.049,-0.6057 -1.2808,7.6221 c -0.7044,4.1922 -1.1323,7.7528 -0.9509,7.9124 0.1814,0.1597 2.1298,1.2282 4.3298,2.3745 7.4805,3.8978 7.5324,4.2786 0.5401,3.9579 l -6.4599,-0.2963 -1.8199,7.9781 -1.8198,7.9781 5.5935,5.3749 c 3.0764,2.9561 5.4136,5.5546 5.1938,5.7744 -0.2198,0.2198 -3.0223,-0.5026 -6.2278,-1.6055 -3.2055,-1.1028 -6.0587,-1.7747 -6.3404,-1.493 -0.8569,0.857 -5.1319,14.8644 -5.1462,16.8622 -0.012,1.6133 3.0934,7.3944 8.92,16.6081 l 1.5666,2.4772 -4,-2.403 c -2.2,-1.3216 -5.1945,-3.2239 -6.6544,-4.2272 -1.4599,-1.0034 -3.0349,-1.8239 -3.5,-1.8234 -0.4651,5e-4 -1.8157,2.6678 -3.0013,5.9274 l -2.1557,5.9266 4.4014,7.0725 c 2.4208,3.8899 4.1851,7.0726 3.9207,7.0726 -0.2643,0 -2.6747,-1.35 -5.3563,-3 -2.6816,-1.65 -5.2758,-2.9976 -5.765,-2.9948 -0.4892,0 -2.307,3.1336 -4.0397,6.9572 l -3.1503,6.9518 5.4434,7.0057 5.4433,7.0056 -7.3706,-3.359 -7.3707,-3.3589 -2.3939,4.3823 -2.3939,4.3822 3.2703,6.6318 c 1.7986,3.6475 3.1066,6.7955 2.9065,6.9956 -0.2001,0.2001 -2.1133,-1.428 -4.2517,-3.6179 -2.1384,-2.1899 -4.2081,-3.9816 -4.5993,-3.9816 -0.3912,0 -2.0671,2.2036 -3.7243,4.8968 l -3.013,4.8968 1.8417,5.8532 c 1.013,3.2193 2.165,6.7532 2.56,7.8532 0.395,1.1 -1.3609,-0.25 -3.902,-3 -3.7646,-4.0739 -4.7953,-4.7222 -5.5651,-3.5 -0.5196,0.825 -2.1002,3.0499 -3.5125,4.9443 -3.1348,4.2051 -3.1346,4.1939 -0.1738,13.5176 1.3166,4.146 2.2914,7.5381 2.1662,7.5381 -0.1252,0 -1.9322,-2.475 -4.0156,-5.5 -3.2863,-4.7716 -6.5176,-7.1124 -6.5569,-4.75 -0.01,0.4125 -1.8068,2.6821 -4,5.0435 -2.1931,2.3614 -3.9875,5.0704 -3.9875,6.0201 0,0.9496 0.9175,5.0375 2.0389,9.0843 1.1214,4.0467 1.8966,7.5 1.7226,7.6739 -0.174,0.174 -2.0922,-2.5874 -4.2627,-6.1365 -2.1705,-3.549 -4.2352,-6.3364 -4.5883,-6.194 -0.3531,0.1423 -3.1774,2.5881 -6.2762,5.435 l -5.6343,5.1764 -0.065,7.8236 -0.065,7.8237 -2.0691,-5.25 c -1.138,-2.8875 -2.4955,-5.25 -3.0168,-5.25 -0.8977,0 -9.6582,6.6615 -10.8381,8.2413 -0.3045,0.4077 -0.2553,3.3327 0.1093,6.5 0.3646,3.1673 0.5626,5.8849 0.4399,6.0391 -0.1227,0.1543 -1.1968,-1.9832 -2.3871,-4.75 -1.1902,-2.7667 -2.3697,-5.0304 -2.6212,-5.0304 -0.2514,0 -2.7139,1.3886 -5.4722,3.0858 l -5.015,3.0857 -0.083,5.6643 -0.083,5.6642 -2.1667,-4.6052 -2.1668,-4.6051 -5.7879,2.7484 c -3.1833,1.5116 -6.566,2.9519 -7.5171,3.2007 -1.1902,0.3112 -2.3373,2.7604 -3.6796,7.8567 l -1.9503,7.4045 -0.7652,-5.8994 c -0.4209,-3.2446 -0.8969,-6.031 -1.0578,-6.1919 -0.1609,-0.1609 -4.2126,0.4688 -9.0038,1.3994 l -8.7112,1.6919 -2.6753,7.5 c -1.4715,4.125 -2.9401,7.8171 -3.2636,8.2047 -0.3235,0.3875 -0.4368,-2.4761 -0.2517,-6.3635 0.1851,-3.8875 -0.04,-7.433 -0.5,-7.879 -0.4601,-0.4459 -5.3365,-0.9386 -10.8365,-1.0949 l -10,-0.2842 -3.1139,4.739 c -3.9617,6.0293 -4.8073,6.7888 -4.0951,3.6779 0.3149,-1.375 0.8595,-4.0877 1.2104,-6.0283 l 0.638,-3.5282 -6.3197,-1.3654 c -3.4758,-0.7509 -7.04,-1.7305 -7.9203,-2.1769 -1.1648,-0.5907 -3.1143,0.5374 -7.1603,4.1436 -3.0578,2.7253 -5.7818,4.9552 -6.0533,4.9552 -0.2715,0 0.3631,-2.2548 1.4103,-5.0107 1.0471,-2.7559 1.9039,-5.5923 1.9039,-6.3031 0,-0.7108 -2.9997,-2.6894 -6.6659,-4.397 l -6.666,-3.1048 -3.8142,2.4078 c -2.0978,1.3243 -4.0572,2.4078 -4.3544,2.4078 -0.2971,0 0.3477,-1.7403 1.4328,-3.8673 l 1.973,-3.8673 -7.1699,-4.6624 -7.1698,-4.6624 -4.7182,2.0297 c -2.595,1.1163 -5.0101,2.0297 -5.3668,2.0297 -0.3568,0 0.729,-1.7394 2.4128,-3.8654 l 3.0615,-3.8655 -2.0359,-1.8424 c -2.9934,-2.709 -11.933,-17.895 -12.442,-21.1356 -0.2412,-1.5351 -1.3182,-6.3987 -2.3936,-10.8081 -1.0753,-4.4093 -3.6069,-19.7093 -5.6257,-34 -2.9983,-21.2235 -3.5494,-27.54 -3.009,-34.483 2.8387,-36.4686 28.0411,-78.2293 67.7889,-112.3273 11.9081,-10.2155 27.1585,-31.8612 40.4117,-57.3585 3.6633,-7.0478 6.7034,-12.8854 6.7557,-12.9725 0.052,-0.087 0.1698,6.4379 0.2613,14.5 0.1711,15.0815 1.7398,35.1115 5.4164,69.1583 6.7706,62.6998 -7.9423,98.4499 -55.0983,133.88 -6.8664,5.159 -13.2719,10.2714 -14.2344,11.3608 -4.0607,4.5962 -1.1591,21.0319 4.7189,26.729 l 3.211,3.1123 2.6742,-4.0411 c 1.4709,-2.2225 2.9313,-4.041 3.2454,-4.041 0.3141,0 0.2635,3.2832 -0.1125,7.2959 -0.9189,9.8054 0.068,10.671 8.1235,7.1246 l 5.8895,-2.5929 -3,3.3266 c -1.65,1.8296 -3.3375,3.4809 -3.75,3.6695 -1.8277,0.8357 -0.3801,3.0474 4.3615,6.6634 5.952,4.5391 5.7441,4.5962 15.861,-4.3527 6.6067,-5.8439 6.5972,-5.8905 1.2177,5.9982 l -3.0012,6.6325 2.2752,1.0366 c 1.2513,0.5702 4.2463,1.3002 6.6555,1.6222 l 4.3803,0.5856 5.3815,-8.2548 c 4.5913,-7.0426 5.2797,-7.7408 4.688,-4.7547 -0.3815,1.925 -0.9484,5.8116 -1.2598,8.6368 l -0.5661,5.1368 5.3559,-0.9735 c 8.2035,-1.491 8.8773,-2.0926 9.056,-8.0853 0.086,-2.8681 0.1049,-6.3398 0.043,-7.7148 -0.084,-1.8642 0.4967,-1.2284 2.2832,2.5 1.3176,2.75 2.4233,5.5625 2.457,6.25 0.034,0.6875 0.6239,1.2483 1.3114,1.2463 1.9004,-0.01 7.75,-3.8201 7.75,-5.0535 0,-0.5977 -1.1678,-3.0793 -2.595,-5.5147 -1.4273,-2.4355 -2.2685,-4.4281 -1.8695,-4.4281 0.3991,0 2.8962,1.5594 5.5491,3.4653 l 4.8235,3.4654 6.046,-5.0519 c 3.3252,-2.7786 6.0459,-5.3716 6.0459,-5.7624 0,-0.3908 -1.8,-2.4682 -4,-4.6164 -2.2,-2.1482 -4,-4.2035 -4,-4.5672 0,-0.3638 2.7572,0.7384 6.1272,2.4492 l 6.1271,3.1105 6.3729,-6.8602 c 5.7283,-6.1665 7.7327,-9.6053 5.6228,-9.6472 -0.4125,-0.01 -2.55,-1.5683 -4.75,-3.467 l -4,-3.4521 5.725,1.967 c 3.1488,1.0818 6.2988,1.9601 7,1.9516 1.4698,-0.018 10.3312,-12.2616 9.8402,-13.5963 -0.1797,-0.4886 -2.8554,-1.943 -5.946,-3.2321 -7.9744,-3.3262 -8.0406,-3.8624 -0.3713,-3.0097 10.6234,1.1813 10.5455,1.1998 13.0021,-3.1023 1.2375,-2.1672 2.25,-4.1337 2.25,-4.3698 0,-0.2362 -2.5267,-2.5096 -5.6149,-5.0519 -3.0882,-2.5424 -5.2193,-4.6225 -4.7359,-4.6225 0.4835,0 3.3413,0.9 6.3508,2 3.0095,1.1 5.9469,2 6.5276,2 1.0494,0 6.4724,-10.1115 6.4724,-12.0683 0,-0.5633 -2.8125,-2.3219 -6.25,-3.9081 l -6.25,-2.8839 7.7405,0.5761 7.7405,0.5761 2.5095,-5.6745 c 1.3802,-3.1209 2.5095,-6.2276 2.5095,-6.9037 0,-0.676 -3.0375,-2.4601 -6.75,-3.9646 l -6.75,-2.7354 7,0.6078 c 3.85,0.3344 7.3899,0.6688 7.8665,0.7432 0.8556,0.1336 5.6335,-12.5874 5.6335,-14.9989 0,-0.8087 -2.4521,-1.4863 -7,-1.9345 -3.85,-0.3793 -7,-1.0196 -7,-1.4228 0,-0.4032 2.5687,-1.035 5.7082,-1.404 10.6582,-1.2527 10.8021,-1.3803 12.7998,-11.3545 l 0.6509,-3.25 -5.3294,-0.1 c -2.9312,-0.055 -6.4394,-0.409 -7.7959,-0.7871 -2.1001,-0.5854 -1.2833,-1.1105 5.5,-3.5362 4.3815,-1.5669 8.4676,-3.3501 9.0802,-3.9629 0.927,-0.9273 3.3862,-12.9513 3.3862,-16.5567 0,-0.6457 -3.0176,-1.087 -7.75,-1.1335 l -7.75,-0.076 8.1496,-3.8285 c 6.8906,-3.237 8.2367,-4.268 8.7137,-6.6739 0.5322,-2.6839 0.9465,-9.4616 0.7336,-12.0016 -0.053,-0.6359 -2.4456,-1.4792 -5.3162,-1.874 l -5.2194,-0.7178 5.7194,-2.8921 5.7193,-2.892 0,-7.984 c 0,-4.3911 -0.1957,-7.9839 -0.4349,-7.9839 -0.2392,0 -1.5892,0.4388 -3,0.9752 -3.3509,1.274 -3.2054,0.2076 0.4627,-3.3919 2.7823,-2.7303 2.9712,-3.4013 2.9569,-10.5 -0.019,-9.6472 -0.5693,-10.5277 -6.1335,-9.822 l -4.3512,0.5518 2.8888,-2.1566 c 6.9965,-5.223 6.6326,-4.3233 5.5233,-13.6565 -1.4166,-11.9189 -1.0399,-11.4757 -7.1308,-8.3892 l -5.2605,2.6657 4.85,-5.677 c 4.8334,-5.6575 4.8476,-5.6956 4.1696,-11.1225 -0.3742,-2.995 -1.0199,-5.6554 -1.4349,-5.9119 -0.415,-0.2564 -3.3086,0.1274 -6.4301,0.853 -3.1214,0.7256 -5.6754,1.197 -5.6754,1.0476 0,-0.1495 2.3466,-2.5338 5.2146,-5.2985 l 5.2146,-5.0267 -1.3029,-6.3203 c -0.7166,-3.4761 -1.4928,-6.5124 -1.725,-6.7473 -0.2322,-0.2349 -1.655,0.6876 -3.1617,2.05 -6.2973,5.694 -6.4447,5.521 -2.7487,-3.2272 l 3.547,-8.3957 -2.692,-7.75 c -1.4807,-4.2625 -2.9517,-7.7492 -3.269,-7.7482 -0.3173,9e-4 -1.8688,2.0466 -3.4477,4.5458 -1.579,2.4992 -3.0235,4.3914 -3.2101,4.2048 -0.1866,-0.1866 0.3783,-4.6548 1.2554,-9.9294 l 1.5947,-9.59 -4.8713,-9.1165 c -2.6792,-5.0141 -5.3273,-9.1091 -5.8846,-9.1001 -0.5573,0.01 -2.3405,2.6943 -3.9627,5.9673 -1.6221,3.273 -3.0967,5.8035 -3.2768,5.6234 -0.1801,-0.1801 0.4348,-4.6296 1.3665,-9.8878 1.6233,-9.1617 1.6177,-9.6783 -0.1332,-12.3898 -3.299,-5.1087 -10.9863,-14.2157 -12.0071,-14.2247 -0.55,0 -2.5473,2.4348 -4.4385,5.4214 -1.8912,2.9866 -3.5674,5.3012 -3.7249,5.1437 -0.1576,-0.1576 0.3556,-4.0853 1.1404,-8.7282 l 1.4269,-8.4417 -7.6675,-7.2345 c -4.2171,-3.9789 -7.9861,-6.9039 -8.3754,-6.5 -0.3894,0.404 -2.3042,4.3345 -4.2552,8.7345 l -3.5472,8 -0.08,-12 -0.08,-12 -6.6054,-4.2938 c -3.633,-2.3615 -6.9197,-3.9365 -7.3038,-3.5 -0.3841,0.4366 -2.0013,4.6122 -3.5937,9.2792 l -2.8954,8.4853 -0.2803,-11.5718 -0.2803,-11.5718 -7.2197,-3.269 c -3.9708,-1.798 -7.7253,-3.4729 -8.3433,-3.7221 -0.6997,-0.2821 -1.9774,3.059 -3.3864,8.8555 -2.733,11.2431 -3.878,13.73 -4.0553,8.8085 -0.069,-1.925 -0.8705,-7.7078 -1.7804,-12.8507 l -1.6543,-9.3506 -8.9069,-2.9461 c -4.8989,-1.6204 -9.4172,-2.7504 -10.0409,-2.511 -0.6236,0.2393 -1.9406,3.857 -2.9266,8.0393 -0.986,4.1824 -2.1204,7.8068 -2.5209,8.0544 -0.4006,0.2475 -1.7367,-4.0215 -2.9692,-9.4868 -2.0795,-9.2205 -2.4355,-9.9804 -4.9383,-10.5398 -1.4834,-0.3315 -4.1562,-0.9719 -5.9393,-1.423 -1.7832,-0.4511 -3.4464,-0.4898 -3.6959,-0.086 -0.4292,0.6944 -2.5012,15.8068 -2.6153,19.0741 -0.029,0.8394 -1.9986,-3.6488 -4.3762,-9.9738 l -4.323,-11.5 -6.6318,-0.9087 c -3.6474,-0.4997 -6.8076,-0.7247 -7.0226,-0.5 -0.215,0.2248 0.1471,4.1212 0.8047,8.6587 0.6576,4.5375 0.9496,8.2365 0.6489,8.22 -0.3007,-0.016 -3.0217,-4.0618 -6.0467,-8.9896 -3.9388,-6.4164 -6.0677,-8.9658 -7.5,-8.9811 -1.1,-0.012 -3.6199,-0.2893 -5.5997,-0.6168 l -3.5997,-0.5954 -0.6614,10.3564 c -3.0274,47.4047 -12.7137,124.5686 -22.2635,177.3565 -15.6598,86.562 -40.2126,175.2642 -66.9624,241.9168 -3.5728,8.9022 -4.1536,11.1932 -3.1473,12.4143 2.2171,2.6906 25.2992,23.7062 34.2305,31.1659 11.9285,9.9633 28.6847,21.8417 36.5987,25.945 l 6.5635,3.403 3.6202,10.5775 c 11.5869,33.8552 18.2601,64.3834 27.2316,124.5775 0.9017,6.05 2.2807,14.5372 3.0645,18.8605 3.0564,16.8595 2.0103,20.1777 -13.36,42.3779 -13.3106,19.2252 -21.8911,35.3091 -25.2716,47.3711 -3.5234,12.5716 -3.2153,32.0294 0.7262,45.8648 0.239,0.8391 -1.5407,-2.5456 -3.9551,-7.5217 -5.1352,-10.5841 -10.7286,-20.4391 -18.7026,-32.9526 -7.5074,-11.7811 -8.5545,-15.0691 -7.1181,-22.3498 0.6131,-3.1076 2.4501,-9.2254 4.0822,-13.5952 1.6321,-4.3697 2.8106,-8.1017 2.6189,-8.2934 -0.7697,-0.7697 -12.2708,19.7635 -15.3435,27.3932 -5.7376,14.2471 -6.5343,25.9008 -2.6897,39.3452 0.8651,3.025 1.802,6.4 2.0821,7.5 0.786,3.0866 -6.4276,-8.1568 -10.2654,-16 -6.5657,-13.4183 -7.871,-19.3367 -7.8291,-35.5 0.032,-12.1975 0.3762,-15.4513 2.1702,-20.4906 1.1729,-3.2949 1.9999,-6.1234 1.8377,-6.2855 -0.3656,-0.3656 -12.6969,19.0366 -15.0264,23.6426 -0.9365,1.8516 -1.9577,6.7393 -2.2695,10.8617 l -0.5669,7.4952 -1.8582,-4.8617 c -5.8465,-15.2958 -6.288,-17.0016 -6.3119,-24.3827 -0.021,-6.5293 0.4148,-8.413 3.3056,-14.2851 6.1001,-12.391 21.2045,-29.2331 44.3091,-49.4069 l 9.639,-8.4162 0.6957,-15.6854 c 1.8676,-42.1059 -5.0992,-82.7817 -15.4737,-90.3443 -2.8509,-2.0782 -18.3059,-4.7784 -42,-7.3379 -8.525,-0.9209 -19.325,-2.3094 -24,-3.0856 -4.675,-0.7762 -9.0238,-1.4126 -9.6639,-1.4144 -0.6402,0 -4.1995,5.7343 -7.9095,12.7468 -26.2104,49.5415 -55.0713,94.0705 -90.2529,139.25 -5.7819,7.425 -10.7808,13.725 -11.1086,14 -0.3279,0.275 -4.4003,5 -9.0498,10.5 -40.9097,48.3928 -91.8477,96.1584 -142.0153,133.1705 -38.0044,28.0385 -71.2418,49.1519 -111.7764,71.0042 -22.8206,12.3026 -73.0591,36.7461 -74.4799,36.2382 -0.134,-0.048 -9.9187,-4.6821 -21.7437,-10.2982 z m 13,-23.8819 0,-19.2671 -13.75,-6.8241 C 912.52959,1748.3655 794.48495,1637.0378 706.93542,1484 c -9.11501,-15.9332 -29.85399,-56.255 -34.9005,-67.8555 -1.75991,-4.0455 -4.67842,-10.5705 -6.4856,-14.5 -12.96627,-28.1937 -30.24218,-73.7149 -42.18079,-111.1445 -24.05639,-75.4209 -43.52849,-166.0569 -53.81705,-250.5 -5.00963,-41.1164 -9.3813,-91.8967 -12.05257,-140 -3.07173,-55.3145 -3.56125,-174.2673 -1.07819,-262 0.30355,-10.725 0.55806,-29.0625 0.56559,-40.75 L 557,576 l 530.25,-0.01 530.25,-0.01 17.4151,-17.4903 17.4151,-17.4902 -565.531,0 -565.53098,0 -0.63561,64.25 c -2.34301,236.8385 -2.09888,255.9578 4.42751,346.75 2.18209,30.3564 2.59478,34.6585 7.00249,73 14.21783,123.677 39.23047,231.8064 76.91436,332.5 17.13144,45.7762 43.2234,102.0824 65.80197,142 34.33909,60.7095 76.81643,119.6123 119.34905,165.5 53.92427,58.1779 103.79079,99.8201 173.87201,145.1957 15.45396,10.006 43.4945,26.1681 66.5,38.3296 13.1855,6.9703 47.3761,23.4208 48.75,23.4557 0.4125,0.01 0.75,-8.6512 0.75,-19.2482 z m 30.4165,-59.154 c 11.184,-5.7316 22.978,-11.9191 26.209,-13.75 5.7053,-3.2329 5.7881,-3.339 2.8745,-3.6841 -1.65,-0.1955 -25.2021,-0.029 -52.3379,0.37 l -49.3379,0.7254 4.3379,2.503 c 6.8545,3.9552 46.2517,24.2167 47.1289,24.2378 0.435,0.011 9.9415,-4.6704 21.1255,-10.4021 z m 23.7365,-69.09 89.6531,-0.2772 13.0646,-9.8048 c 7.1855,-5.3927 12.8831,-9.9864 12.6612,-10.2082 -0.2218,-0.2219 -34.2948,0.2052 -75.7176,0.949 -75.1627,1.3497 -235.89853,1.5952 -239.77055,0.3663 -3.80969,-1.2092 -2.06871,1.324 4.20625,6.1201 3.4375,2.6274 9.175,7.0029 12.75,9.7233 l 6.5,4.9463 43.5,-0.7688 c 23.925,-0.4228 83.8439,-0.8935 133.153,-1.046 z M 973.5,1655.8258 c 58.989,-1.3412 267.9897,-1.7014 308.5,-0.5318 l 27.5,0.794 12,-12.1508 12,-12.1509 -32.5,0.6685 c -17.875,0.3677 -51.4,1.0918 -74.5,1.6092 -107.9241,2.4172 -307.43299,2.1571 -366.25,-0.4775 -2.3375,-0.1047 -4.25,0.051 -4.25,0.3466 0,0.2953 5.2875,5.8742 11.75,12.3976 l 11.75,11.8607 21.5,-0.603 c 11.825,-0.3317 44.45,-1.1249 72.5,-1.7626 z m 630.4682,-19.2669 c -0.017,-0.5824 -0.6925,-0.1854 -1.5,0.8822 -0.8075,1.0677 -1.4539,2.4177 -1.4364,3 0.017,0.5824 0.6925,0.1854 1.5,-0.8822 0.8075,-1.0677 1.4539,-2.4177 1.4364,-3 z M 889.5,1587.4833 c 103.45164,-3.3688 355.4644,-4.0828 437.5,-1.2395 25.025,0.8673 45.5471,1.5048 45.6046,1.4166 0.058,-0.088 4.9206,-6.2354 10.8068,-13.6604 l 10.7023,-13.5 -3.236,-0.3267 c -1.7798,-0.1797 -29.5928,0.3746 -61.8068,1.2317 -32.214,0.8572 -75.2209,1.8295 -95.5709,2.1608 -20.35,0.3312 -40.825,0.7539 -45.5,0.9392 -4.675,0.1853 -50.8,0.6546 -102.5,1.0427 -101.02045,0.7584 -187.8044,-0.416 -266.90164,-3.612 -13.14589,-0.5312 -24.09893,-0.7685 -24.34007,-0.5273 -0.24115,0.2411 4.43959,6.607 10.40163,14.1464 l 10.84008,13.708 29.5,-0.6455 c 16.225,-0.3551 36.25,-0.8654 44.5,-1.134 z M 836,1518.6138 c 10.175,-0.3185 30.65,-0.8181 45.5,-1.1102 14.85,-0.2922 33.525,-0.7423 41.5,-1.0003 52.91872,-1.7119 163.7142,-2.6675 258.5,-2.2295 101.8025,0.4705 135.2364,1.1193 209.311,4.0618 16.1211,0.6404 30.1042,0.8708 31.0736,0.5119 1.767,-0.6542 14.1154,-19.3457 14.1154,-21.3662 0,-0.5915 -1.8027,-2.8357 -4.0059,-4.9871 l -4.0059,-3.9116 -8.2441,0.2289 c -299.0149,8.3035 -456.67595,8.7679 -632.03232,1.8617 l -29.78822,-1.1732 -3.87902,4 -3.87902,4 6.16724,9.7292 c 3.39198,5.3511 6.85337,10.5261 7.69197,11.5 1.6107,1.8706 8.8867,1.859 71.97527,-0.1154 z m -71.5158,-69.1749 c 6.5913,-7.1164 16.52746,-17.6639 22.08034,-23.4389 5.55288,-5.775 16.76902,-17.7 24.92474,-26.5 15.14305,-16.3393 33.13703,-35.5307 60.00684,-64 8.30558,-8.8 18.42571,-19.6 22.48917,-24 4.06346,-4.4 14.41659,-15.425 23.00695,-24.5 8.59037,-9.075 18.70778,-19.875 22.48313,-24 3.77535,-4.125 10.73737,-11.55 15.47114,-16.5 4.73377,-4.95 14.88188,-15.75 22.55135,-24 7.66947,-8.25 17.60224,-18.825 22.07283,-23.5 4.47061,-4.675 14.58071,-15.475 22.46701,-24 7.8863,-8.525 18.2343,-19.55 22.9955,-24.5 8.3856,-8.718 17.5792,-18.5277 28.9668,-30.908 3.025,-3.2886 8.5953,-9.2484 12.3784,-13.2438 l 6.8783,-7.2644 11.6687,12.2081 c 6.4178,6.7145 14.7715,15.5831 18.5637,19.7081 3.7922,4.125 14.121,15.1372 22.9529,24.4715 8.8319,9.3343 18.758,19.9017 22.058,23.4832 9.7619,10.5947 18.6644,20.07 24,25.5443 14.9623,15.3513 30.5,32.6662 30.5,33.9886 0,0.8318 0.6183,1.5124 1.374,1.5124 1.227,0 8.3856,7.3423 35.0735,35.9737 4.3712,4.6895 11.8395,12.5763 16.5962,17.5263 4.7568,4.95 11.7243,12.375 15.4833,16.5 3.759,4.125 13.8539,14.925 22.4331,24 8.5791,9.075 21.862,23.25 29.5173,31.5 7.6554,8.25 18.0354,19.275 23.0667,24.5 5.0313,5.225 12.2339,12.875 16.0057,17 3.7719,4.125 9.6372,10.425 13.0339,14 11.8652,12.4878 19.4645,20.6292 35.6309,38.1721 8.957,9.7197 16.5439,17.7072 16.8598,17.75 0.5739,0.078 7.1188,-11.4354 16.1572,-28.4221 9.1462,-17.1894 24.9059,-49.9783 31.9351,-66.4427 3.8879,-9.1065 7.9501,-18.5823 9.0273,-21.0573 12.96,-29.7796 35.9559,-98.5271 44.8228,-134 0.4811,-1.925 2.9242,-11.5599 5.429,-21.4109 2.5048,-9.851 4.5443,-18.401 4.5323,-19 -0.012,-0.599 -2.3745,-3.5957 -5.25,-6.6593 -2.8755,-3.0637 -10.8221,-11.6137 -17.6592,-19 -6.837,-7.3864 -16.3303,-17.4798 -21.0962,-22.4298 -4.7658,-4.95 -11.7425,-12.375 -15.5038,-16.5 -3.7613,-4.125 -13.8636,-14.925 -22.4494,-24 -8.5859,-9.075 -21.6652,-23.0182 -29.0651,-30.985 -7.3999,-7.9668 -17.9544,-19.226 -23.4544,-25.0205 -5.5,-5.7946 -15.6897,-16.6013 -22.6437,-24.015 -6.954,-7.4137 -14.154,-15.0762 -16,-17.0277 -1.846,-1.9515 -8.98,-9.6015 -15.8534,-17 -6.8734,-7.3985 -17.2234,-18.4114 -23,-24.4732 -10.5662,-11.0877 -40.1254,-42.6237 -66.9681,-71.4464 -7.9558,-8.5427 -18.3481,-19.5822 -23.0938,-24.5322 -4.7458,-4.95 -14.8664,-15.75 -22.4901,-24 -7.6238,-8.25 -14.608,-15.675 -15.5205,-16.5 -0.9125,-0.825 -9.0326,-9.4468 -18.0448,-19.1596 -9.0121,-9.7128 -28.9856,-31.0367 -44.3856,-47.3865 -15.4,-16.3498 -35.1399,-37.4279 -43.8665,-46.8404 C 1095.7628,690.3384 1094.4363,689 1093.2024,689 c -0.4846,0 -2.6086,1.9125 -4.72,4.25 -6.3396,7.0185 -14.1393,15.3784 -31.0316,33.2605 -8.8271,9.3442 -19.3878,20.5895 -23.4682,24.9895 -9.6843,10.4428 -17.7425,19.0186 -21.5082,22.8897 -1.6641,1.7107 -9.0848,9.6353 -16.49034,17.6103 -7.40558,7.975 -17.33707,18.55 -22.06997,23.5 -4.7329,4.95 -15.31225,16.2395 -23.50968,25.0877 -8.19743,8.8482 -22.30137,23.9232 -31.3421,33.5 -34.55671,36.6056 -45.9078,48.6719 -53.06867,56.4123 -4.07058,4.4 -14.44018,15.425 -23.04356,24.5 -8.60338,9.075 -19.42421,20.6103 -24.04629,25.6341 -4.62209,5.0237 -20.82698,22.3487 -36.01088,38.5 -15.1839,16.1512 -32.0268,34.0909 -37.42867,39.8659 -5.40186,5.775 -16.40107,17.475 -24.44269,26 -8.04162,8.525 -20.44872,21.7939 -27.57134,29.4864 -7.12261,7.6926 -14.53364,15.5676 -16.46894,17.5 -1.9353,1.9325 -9.1145,9.5886 -15.95378,17.0136 -6.83928,7.425 -17.33709,18.5377 -23.32847,24.695 l -10.89341,11.1949 0.70012,4.3051 c 0.86645,5.3277 4.7678,21.3311 8.11921,33.305 1.38546,4.95 3.4054,12.375 4.48873,16.5 1.08334,4.125 2.58036,9.525 3.3267,12 0.74634,2.475 2.78465,9.225 4.52958,15 17.66046,58.4489 39.73765,113.7493 66.47061,166.5 6.68949,13.2 14.82972,28.6244 18.0894,34.2765 l 5.92669,10.2766 7.02168,-7.3377 c 3.86192,-4.0357 12.41456,-13.1601 19.00587,-20.2765 z m 99.33619,-276.4195 C 859.80901,1171.8087 852,1167.7539 852,1166.8818 c 0,-0.4201 0.45856,-1.0472 1.01902,-1.3936 0.56045,-0.3463 2.13545,-2.8329 3.5,-5.5257 3.47527,-6.8581 3.40226,-14.6129 -0.20469,-21.7419 -2.51339,-4.9677 -8.5804,-11.5912 -12.75937,-13.9299 -1.71397,-0.9592 -1.62165,-1.3334 1.41944,-5.7535 3.92675,-5.7073 13.07846,-11.8706 20.14284,-13.5653 12.27265,-2.9442 25.08361,1.0908 33.82291,10.653 2.78292,3.0449 5.05985,5.9938 5.05985,6.5529 0,0.5592 -2.26156,3.05 -5.02569,5.5352 -5.42966,4.8817 -9.52451,11.0741 -11.10272,16.7899 -1.38158,5.0036 0.51156,13.3455 4.17706,18.4056 l 2.93721,4.0547 -2.42414,1.5883 c -7.3143,4.7925 -20.747,6.8806 -28.74133,4.4679 z m 435.32931,-1.0163 c -2.9427,-1.0586 -6.0927,-2.49 -7,-3.1809 -0.9073,-0.691 -1.7795,-1.3259 -1.9381,-1.411 -0.1586,-0.085 1.1728,-2.5053 2.9587,-5.3782 4.624,-7.4385 5.1356,-15.8436 1.4258,-23.426 -2.4614,-5.031 -8.7441,-11.9116 -13.105,-14.352 -1.8113,-1.0137 -1.7648,-1.2526 1.0273,-5.2816 3.8146,-5.5044 10.2899,-10.3778 17.3291,-13.0421 7.715,-2.9201 18.5216,-2.2982 26.0111,1.497 6.1506,3.1168 12.6761,8.7712 14.7494,12.7806 1.4628,2.8287 1.4216,2.9113 -3.8571,7.7358 -12.4374,11.3671 -14.4258,23.3098 -6.0555,36.3712 1.7508,2.732 1.7468,2.8586 -0.1356,4.2493 -7.262,5.3651 -21.6694,6.9421 -31.4101,3.4379 z m -452.54367,-10.3084 c -5.98032,-7.2982 -8.03728,-13.0265 -7.96977,-22.1947 0.0343,-4.6542 0.67286,-9.4559 1.52687,-11.4811 l 1.46796,-3.481 5.64944,5.343 c 7.12655,6.74 9.71947,11.938 9.71947,19.4845 0,5.6721 -1.43474,9.7622 -5.05448,14.409 l -1.77169,2.2743 -3.5678,-4.354 z m 438.34997,0.6024 c -5.8073,-6.6141 -8.405,-13.6972 -8.3608,-22.7971 0.023,-4.7112 0.6382,-9.3903 1.4969,-11.3819 l 1.4581,-3.3819 5.8837,5.3774 c 7.0897,6.4796 9.5145,11.3539 9.5441,19.1861 0.022,5.7434 -1.3815,9.7875 -5.0145,14.4518 l -1.7537,2.2515 -3.2538,-3.7059 z M 892.44077,1159.75 c -3.46723,-6.3269 -3.88083,-14.2279 -1.03387,-19.75 1.74531,-3.3853 12.34804,-15 13.69308,-15 1.19525,0 2.90002,8.7621 2.90002,14.9053 0,7.5293 -2.85054,15.3918 -7.58592,20.924 -1.96346,2.2939 -3.91334,4.1707 -4.33307,4.1707 -0.41974,0 -2.05784,-2.3625 -3.64024,-5.25 z m 439.47213,2.9686 c -0.873,-1.2202 -2.394,-4.3494 -3.3802,-6.9537 -3.2105,-8.4785 -0.279,-17.1475 8.7374,-25.8383 4.6529,-4.4847 5.3249,-4.8334 6.4222,-3.3327 3.4244,4.6831 2.8422,19.7664 -1.0695,27.7126 -2.4793,5.0363 -6.969,10.726 -8.4133,10.6621 -0.3902,-0.017 -1.4237,-1.0298 -2.2966,-2.25 z m -572.28908,-9.3562 c -13.40244,-2.8741 -31.02051,-11.0752 -41.37459,-19.2596 -7.65235,-6.0489 -17.0982,-16.1829 -14.99923,-16.092 0.1375,0.01 2.45902,0.681 5.15893,1.5 6.53293,1.9819 27.91706,1.9722 36.35134,-0.016 3.44314,-0.8118 8.84314,-2.7672 12,-4.3453 18.12235,-9.0595 40.75452,-11.8619 57.92132,-7.172 7.40761,2.0237 18.10153,7.1339 23.01206,10.9966 2.21721,1.744 2.16469,1.7748 -5.01183,2.9324 -14.90558,2.4046 -26.73984,7.331 -33.06231,13.7633 -2.07088,2.1068 -5.60724,6.9077 -7.85858,10.6685 -2.39029,3.993 -5.09143,7.2175 -6.49224,7.75 -3.57013,1.3574 -17.8106,0.9545 -25.64487,-0.7255 z M 963,1154.3587 c -2.88447,-1.1916 -5.11664,-3.7976 -8.18674,-9.5577 -3.60557,-6.7647 -9.64092,-12.6704 -16.47305,-16.1191 -4.7557,-2.4006 -17.59723,-5.9784 -26.21916,-7.305 l -4.37896,-0.6738 2.37896,-1.8814 c 8.24248,-6.5187 20.27601,-11.182 32.96048,-12.773 14.20126,-1.7813 31.1097,1.323 46.91847,8.614 4.125,1.9025 10.2,4.1 13.5,4.8834 8.2992,1.9702 28.6191,1.9047 35.4171,-0.1141 2.9041,-0.8624 5.4469,-1.4013 5.6507,-1.1976 0.9465,0.9466 -9.8677,11.7404 -17.0586,17.0265 -16.0018,11.7629 -34.68227,18.6348 -52.5092,19.3161 -5.775,0.2208 -11.175,0.1225 -12,-0.2183 z m 234.5156,-1.0182 c -14.9001,-3.1924 -31.934,-11.5471 -44.4953,-21.8239 -6.4631,-5.2876 -12.7008,-12.1694 -11.8246,-13.0456 0.2187,-0.2187 2.6266,0.2911 5.351,1.1329 6.1299,1.8942 27.8096,2.0817 34.9892,0.3026 2.7303,-0.6765 8.3005,-2.7403 12.3783,-4.5862 4.0779,-1.8459 11.2779,-4.5856 16,-6.0882 7.8229,-2.4893 9.9631,-2.7321 24.0858,-2.7321 12.4699,0 16.5752,0.3635 21,1.8592 5.8716,1.9848 16.9676,7.6836 20.7429,10.6532 2.2838,1.7964 2.2701,1.8045 -4.9764,2.9633 -21.9313,3.5071 -32.3532,9.6187 -40.6619,23.8452 -2.3358,3.9994 -5.0454,7.2867 -6.584,7.9878 -3.5426,1.6141 -17.4555,1.3636 -26.005,-0.4682 z M 1401,1154.3587 c -2.837,-1.172 -5.2212,-3.8686 -7.6431,-8.6446 -6.5978,-13.0106 -18.6135,-20.0899 -40.2333,-23.7043 l -7.3764,-1.2331 2.8764,-2.3433 c 11.8171,-9.6268 31.158,-14.5046 49.1227,-12.3889 9.8123,1.1556 24.1208,5.3343 32.0856,9.3703 2.646,1.3408 7.5437,3.146 10.8838,4.0115 7.8974,2.0465 28.7059,2.1031 36.2378,0.099 2.9994,-0.7982 5.573,-1.3317 5.7191,-1.1856 0.7659,0.7659 -9.532,11.1033 -15.8768,15.9378 -15.8252,12.0582 -35.8484,19.614 -53.7958,20.2999 -5.775,0.2208 -11.175,0.1225 -12,-0.2183 z M 1086.3551,968.9605 c -2.2798,-0.4512 -6.4796,-2.0034 -9.3329,-3.4493 -5.0395,-2.5536 -5.1427,-2.6916 -3.6076,-4.8201 6.6399,-9.2061 7.6827,-17.6641 3.2524,-26.3785 -2.5605,-5.0364 -7.8351,-11.0057 -12.4088,-14.0431 -2.1889,-1.4536 -2.2007,-1.5595 -0.5,-4.4877 2.8853,-4.9678 10.9839,-11.5403 17.0402,-13.8291 15.1182,-5.7136 34.2405,0.3891 41.5803,13.27 l 2.1213,3.7227 -2.5,1.7045 c -14.4058,9.8217 -18.2283,26.3902 -9.0593,39.2669 l 1.9943,2.8007 -4.7175,2.5328 c -4.741,2.5455 -13.4187,4.8442 -17.5167,4.6401 -1.2104,-0.06 -4.066,-0.4787 -6.3457,-0.9299 z m -19.6129,-11.4288 c -1.5168,-1.8282 -3.9468,-5.9211 -5.4,-9.0954 -2.1716,-4.7435 -2.6385,-7.2108 -2.6214,-13.8538 0.012,-4.669 0.6217,-9.5299 1.4436,-11.5096 l 1.4227,-3.4271 6.2192,6.0855 c 7.3915,7.2326 9.1937,11.063 9.1937,19.5408 0,5.3121 -0.4814,7.0954 -2.978,11.0321 -1.6379,2.5827 -3.3254,4.6633 -3.75,4.6236 -0.4246,-0.04 -2.013,-1.568 -3.5298,-3.3962 z m 46.9168,-0.1755 c -5.6849,-8.7342 -5.5574,-17.2832 0.3867,-25.9226 2.8105,-4.085 9.5912,-10.4336 11.1436,-10.4336 1.5745,0 3.0092,8.8671 2.5887,16 -0.4958,8.4104 -3.9716,16.8952 -8.8266,21.5466 l -2.7825,2.6658 -2.5099,-3.8562 z m -127.59842,-7.3875 c -17.73892,-2.4488 -37.82286,-11.7435 -52.29253,-24.2006 -6.98238,-6.0112 -13.28391,-13.5936 -10.2605,-12.346 6.29656,2.5982 15.55513,3.727 26.49245,3.23 12.30929,-0.5592 18.46126,-2.0143 27.68887,-6.549 3.19612,-1.5707 10.08613,-4.1476 15.31113,-5.7266 8.4355,-2.549 11.0128,-2.8711 23,-2.8736 10.506,0 14.8307,0.419 19.5,1.8995 7.2971,2.3137 20.6869,9.0416 22.9322,11.5227 1.5577,1.7212 1.3464,1.8416 -4.3633,2.4876 -20.2419,2.2901 -35.4179,10.895 -41.9496,23.7858 -3.6622,7.2276 -5.6595,8.6239 -13.12777,9.1777 -3.57034,0.2648 -9.38927,0.081 -12.93095,-0.4075 z M 1187,950.3339 c -6.4303,-1.0129 -6.9656,-1.4267 -11.1164,-8.5933 -2.3066,-3.9823 -5.9135,-8.9001 -8.0154,-10.9284 -6.6377,-6.4052 -20.3469,-11.7944 -34.1182,-13.4121 -3.1625,-0.3715 -5.75,-0.974 -5.75,-1.3388 0,-1.545 16.0996,-10.1176 23,-12.2469 6.2381,-1.925 9.6873,-2.3099 20.5,-2.2877 15.0916,0.031 19.9467,1.1104 38.2707,8.5079 6.8265,2.7558 15.4782,5.4549 19.5,6.0834 8.844,1.3819 24.6546,0.6204 30.6903,-1.4783 2.4535,-0.8531 4.5954,-1.4166 4.7599,-1.2522 1.0355,1.0355 -8.0583,10.4828 -15.38,15.9778 -14.8686,11.1591 -30.3984,17.7955 -47.3409,20.2305 -9.6587,1.3881 -10.5839,1.4336 -15,0.7381 z m -223.5,495.0709 c 140.6851,-2.9556 286.7541,-2.3558 397.9143,1.634 14.8028,0.5313 27.123,0.7572 27.3781,0.5021 0.2552,-0.2551 -5.1063,-6.551 -11.9143,-13.9907 l -12.3781,-13.5269 -12.5,0.4756 c -6.875,0.2616 -36.8,0.9563 -66.5,1.5439 -29.7,0.5875 -69.975,1.4721 -89.5,1.9657 -49.9779,1.2635 -287.94969,0.5781 -334.2625,-0.9627 -20.76937,-0.691 -38.76937,-0.9554 -40,-0.5875 -2.20891,0.6602 -25.8718,25.5146 -25.25039,26.5217 0.17644,0.286 19.15153,-0.01 42.16685,-0.6557 23.01532,-0.6467 79.19604,-1.9605 124.84604,-2.9195 z M 948,1375.45 c 97.8101,-2.1922 259.3887,-2.8164 321.7508,-1.243 33.9081,0.8554 51.144,0.9546 50.9353,0.293 -0.4128,-1.3089 -19.8857,-22.1429 -21.1861,-22.667 -0.55,-0.2217 -14.275,-0.081 -30.5,0.3132 -112.5165,2.7321 -274.51111,3.6188 -349.5,1.9131 l -34,-0.7733 -2.83057,3.107 c -1.55681,1.7088 -6.09051,6.482 -10.07489,10.607 -3.98438,4.125 -7.57468,8.0625 -7.97845,8.75 -0.92965,1.5829 -0.57058,1.5816 83.38391,-0.3 z m 76,-71.5275 c 47.025,-0.6382 118.0126,-0.9944 157.7503,-0.7915 39.7377,0.203 72.1377,0.096 72,-0.2366 -0.1377,-0.3331 -4.3794,-4.9913 -9.426,-10.3515 l -9.1757,-9.7458 -78.8243,1.1677 c -43.3534,0.6422 -107.5314,1.0586 -142.6179,0.9254 l -63.79364,-0.2423 -9.41805,10.0477 c -5.17992,5.5263 -9.12997,10.3358 -8.77788,10.6879 0.35209,0.3521 2.02234,0.4285 3.71166,0.1698 1.68933,-0.2587 41.54651,-0.9925 88.57151,-1.6308 z m 112.747,-71.322 c 27.6359,-0.055 50.2443,-0.3255 50.2409,-0.6005 0,-0.275 -3.9396,-4.6392 -8.7471,-9.6981 -8.157,-8.5839 -8.9746,-9.1756 -12.2408,-8.8593 -1.925,0.1864 -36.6786,0.6851 -77.2302,1.1082 l -73.7302,0.7692 -8.5198,8.9439 c -4.6859,4.9191 -8.5198,9.1451 -8.5198,9.3911 0,0.246 19.9125,0.132 44.25,-0.2533 24.3375,-0.3853 66.8612,-0.7459 94.497,-0.8012 z M 1121.7773,1162 c 0.2858,0 -3.5132,-4.1625 -8.4422,-9.25 -4.9289,-5.0875 -11.4153,-11.8678 -14.414,-15.0674 l -5.4524,-5.8174 -6.9843,7.3478 c -17.7612,18.6855 -21.4844,22.7331 -21.4844,23.3564 0,0.3679 12.658,0.3903 28.1289,0.05 15.4708,-0.3406 28.3626,-0.6192 28.6484,-0.6192 z M 622,1158.2459 c 0,-0.4148 2.5875,-3.4717 5.75,-6.7932 3.1625,-3.3214 11.6,-12.3196 18.75,-19.9958 7.15,-7.6763 13.85965,-14.7473 14.91032,-15.7132 3.50823,-3.2255 3.46039,-3.2329 -29.91032,-4.6582 -11,-0.4698 -20.12183,-0.7469 -20.27074,-0.6158 -0.14891,0.1311 0.16836,2.4416 0.70504,5.1344 0.53667,2.6927 2.62588,13.5584 4.64268,24.1459 2.01679,10.5875 4.06203,19.25 4.54496,19.25 0.48293,0 0.87806,-0.3393 0.87806,-0.7541 z m 945.2404,-1.9959 c 1.2844,-7.5567 7.9281,-41.9946 8.4186,-43.6381 0.5461,-1.8301 -0.2455,-1.8655 -25.7978,-1.1529 -14.4987,0.4043 -26.5498,0.9175 -26.7802,1.1404 -0.2305,0.2229 2.2747,3.1242 5.5671,6.4473 3.2924,3.3231 12.931,13.6443 21.419,22.936 8.4881,9.2917 15.7193,16.9217 16.0694,16.9556 0.3501,0.034 0.8468,-1.1758 1.1039,-2.6883 z m -909.15722,-75.4005 36.94651,-1.2555 8.73516,-9.0477 c 16.22769,-16.8085 22.41171,-23.7031 21.80461,-24.3102 -0.3325,-0.3325 -13.30915,-1.1789 -28.837,-1.8809 -66.82705,-3.0214 -95.24441,-4.1568 -95.77801,-3.8271 -0.56753,0.3508 4.60888,38.7113 5.58183,41.365 0.39966,1.09 2.04302,1.2646 7.55556,0.8024 3.87465,-0.3248 23.67075,-1.1555 43.99134,-1.846 z M 1583.1825,1064 c 1.4754,-10.175 2.7129,-19.5829 2.75,-20.9064 l 0.068,-2.4063 -21.75,0.6561 c -88.6914,2.6756 -104.517,3.3893 -104.051,4.6923 0.1656,0.4627 3.676,4.3701 7.801,8.6829 4.125,4.3129 11.0018,11.5506 15.2818,16.0838 l 7.7819,8.2424 24.7181,1.0538 c 13.595,0.5796 30.1182,1.3817 36.7182,1.7825 6.6,0.4007 15.6,0.7039 20,0.6737 l 8,-0.055 2.6825,-18.5 z m -931.69956,-52.5356 c 24.19061,-0.8281 59.06561,-1.9527 77.5,-2.4992 l 33.51706,-0.9937 4.88875,-5.2357 c 2.68882,-2.8797 8.87789,-9.3983 13.75351,-14.4858 4.87561,-5.0875 8.52568,-9.281 8.11125,-9.3189 -0.41443,-0.038 -1.87851,-0.2073 -3.25351,-0.3764 -1.375,-0.1691 -10.825,-0.6039 -21,-0.9663 -42.24587,-1.5045 -116.83784,-4.8383 -160.75,-7.1846 -10.49388,-0.5607 -11.24977,-0.4768 -11.24655,1.2476 0.0121,6.4601 3.71909,39.8821 4.59796,41.4547 0.1863,0.3333 2.4897,0.4391 5.11866,0.235 2.62896,-0.2042 24.57225,-1.0487 48.76287,-1.8767 z M 1591.3488,997.75 c 0.9269,-8.9375 1.9424,-18.8 2.2568,-21.9167 l 0.5714,-5.6667 -3.8385,0.397 c -3.6386,0.3764 -25.0966,1.1727 -92.3385,3.4265 -16.225,0.5438 -35.575,1.2091 -43,1.4784 -7.425,0.2693 -23.7375,0.7834 -36.25,1.1424 -12.5125,0.3591 -22.75,0.8825 -22.75,1.1633 0,0.2807 3.5436,4.1589 7.8747,8.6181 4.3311,4.4592 10.3917,10.8433 13.4681,14.1868 l 5.5934,6.079 30.2819,1.1844 c 16.6551,0.6514 40.1819,1.6736 52.2819,2.2717 12.1,0.5981 33.475,1.6551 47.5,2.349 14.025,0.6938 28.0118,1.3235 31.0817,1.3992 l 5.5818,0.1376 1.6853,-16.25 z M 519.94416,996.3639 c -0.63875,-7.0751 -1.44999,-14.5606 -1.80276,-16.6344 l -0.6414,-3.7705 -6.79382,13.1433 c -3.7366,7.2289 -6.62403,13.3132 -6.4165,13.5207 0.76044,0.7605 16.18432,7.2363 16.49503,6.9256 0.17645,-0.1764 -0.2018,-6.1095 -0.84055,-13.1847 z M 1596.4198,939.75 c 1.1013,-10.2574 2.6332,-38.0303 2.1257,-38.5378 -0.4731,-0.4731 -22.1592,0.205 -90.5455,2.8313 -30.4783,1.1705 -111.8374,3.6985 -148.6339,4.6183 -14.5014,0.3624 -26.3661,0.9786 -26.3661,1.3693 0,0.3906 3.7408,4.7059 8.313,9.5896 4.5721,4.8836 9.5965,10.3418 11.1653,12.1293 2.8442,3.2408 2.8794,3.25 12.437,3.2583 9.5192,0.01 84.6177,2.9151 130.5847,5.0546 29.0174,1.3506 96.3398,4.6319 98.678,4.8096 1.3099,0.1 1.8018,-1.0245 2.2418,-5.1225 z M 638,942.5373 c 43.91669,-1.6706 89.56222,-3.2442 118,-4.068 10.725,-0.3107 31.71006,-0.9546 46.63347,-1.4309 l 27.13346,-0.866 8.47091,-8.8362 c 4.65899,-4.8599 9.87313,-10.4554 11.58696,-12.4345 l 3.11607,-3.5984 -16.72044,-0.651 C 827.02419,910.2942 806.9,909.5515 791.5,909.0019 c -52.65445,-1.8793 -125.20845,-5.0283 -173.89639,-7.5474 -15.89302,-0.8223 -29.11213,-1.2793 -29.37582,-1.0156 -0.51677,0.5167 1.48409,34.9419 2.34296,40.3111 0.62841,3.9285 -4.13684,3.7489 47.42925,1.7873 z m -23,-69.0239 c 10.175,-0.3117 30.65,-1.0045 45.5,-1.5395 33.01181,-1.1895 112.59981,-3.7005 140.5,-4.4328 11.275,-0.2959 37.375,-1.0102 58,-1.5873 l 37.5,-1.0493 9.74913,-10.2022 c 5.36202,-5.6113 9.74952,-10.5398 9.75,-10.9523 4.8e-4,-0.4125 -2.58663,-0.7538 -5.74913,-0.7583 -16.45013,-0.024 -135.65293,-4.0084 -178.75,-5.9751 -11.55,-0.5271 -27.975,-1.2159 -36.5,-1.5307 -8.525,-0.3149 -23.6,-0.9916 -33.5,-1.5039 -9.9,-0.5122 -29.475,-1.4141 -43.5,-2.0041 -14.025,-0.5901 -27.075,-1.164 -29,-1.2754 l -3.5,-0.2025 0.29778,18 c 0.16377,9.9 0.55754,19.947 0.87503,22.3266 l 0.57726,4.3267 4.62497,-0.5367 C 594.41877,874.3215 604.825,873.825 615,873.5134 Z m 985.3575,-4.6601 c 0.3534,-3.3807 0.6425,-13.3152 0.6425,-22.0767 l 0,-15.93 -12.25,0.6016 c -17.5048,0.8596 -60.9583,2.4128 -98.75,3.5297 -17.875,0.5282 -37.9,1.2132 -44.5,1.5222 -6.6,0.3089 -27.975,0.9807 -47.5,1.4929 -19.525,0.5121 -56.5375,1.4831 -82.25,2.1577 -25.7125,0.6747 -46.75,1.5214 -46.75,1.8816 0,0.3603 4.2731,5.1779 9.4957,10.7059 l 9.4958,10.0508 15.2542,0.642 c 8.3899,0.353 31.2293,1.0741 50.7543,1.6024 19.525,0.5282 46.525,1.4143 60,1.969 38.268,1.5753 115.8424,5.0303 144.5,6.4356 14.3,0.7013 29.4234,1.3397 33.6075,1.4186 l 7.6076,0.1434 0.6424,-6.1467 z m 1.6425,-85.1671 0,-22.3138 -5.75,0.2944 c -3.1625,0.1619 -19.7,0.7588 -36.75,1.3265 -17.05,0.5676 -36.4,1.254 -43,1.5254 -38.7459,1.5928 -163.6181,5.2471 -224,6.5552 -28.6,0.6196 -60.1539,1.4189 -70.1199,1.7763 l -18.1199,0.6498 8.6364,9.2264 8.6364,9.2265 43.4835,0.9938 c 68.6481,1.5688 106.9225,2.8239 200.4835,6.5738 12.7131,0.5096 53.5079,2.346 100.5,4.5241 12.925,0.5991 24.85,1.2121 26.5,1.3623 1.65,0.1502 4.4625,0.345 6.25,0.4331 l 3.25,0.16 0,-22.3138 z M 618.99151,804.0225 C 697.04798,800.777 805.00262,797.5073 917.5,794.9813 l 46,-1.0329 8.0998,-8.7242 c 4.45489,-4.7983 8.27989,-9.1742 8.5,-9.7242 0.26116,-0.6526 -20.61941,-1.3993 -60.0998,-2.1493 -74.65416,-1.4181 -137.39321,-3.4975 -222,-7.3576 -46.38995,-2.1165 -86.92616,-3.993 -99.75,-4.6176 l -13.25,-0.6454 0,22.135 0,22.1349 5.24151,0 c 2.88283,0 15.82033,-0.4399 28.75,-0.9775 z M 609,734.5486 c 10.175,-0.3009 44.15,-1.4308 75.5,-2.5108 31.35,-1.08 65.325,-2.2163 75.5,-2.5252 10.175,-0.3088 32.45,-0.9849 49.5,-1.5023 17.05,-0.5174 44.725,-1.1941 61.5,-1.5037 16.775,-0.3096 34.775,-0.7607 40,-1.0024 5.225,-0.2417 29.075,-0.6982 53,-1.0145 23.925,-0.3163 48.5604,-0.7836 54.7453,-1.0385 l 11.2453,-0.4633 7.7547,-8.0955 c 4.2651,-4.4525 7.9047,-8.4998 8.088,-8.9939 0.1937,-0.5221 -16.7747,-0.9001 -40.5,-0.9023 -86.30403,-0.01 -275.79916,-6.1438 -400.20434,-12.9583 -10.10408,-0.5535 -18.70457,-0.8002 -19.1122,-0.5483 -0.40763,0.252 -0.83007,10.364 -0.93875,22.4712 l -0.1976,22.0131 2.8098,-0.439 C 589.23559,735.2934 598.825,734.8496 609,734.5486 Z m 993,-5.3896 c 0,-3.7626 -0.2982,-13.7297 -0.6626,-22.1491 l -0.6626,-15.3081 -15.0874,0.6692 c -28.8127,1.2779 -104.3941,3.7728 -215.0874,7.0999 -9.9,0.2975 -36.675,0.9808 -59.5,1.5183 -22.825,0.5376 -50.05,1.2032 -60.5,1.4791 -10.45,0.276 -39.6026,0.8008 -64.7835,1.1663 -25.1809,0.3654 -45.6559,1.006 -45.5,1.4234 0.1559,0.4175 3.7201,4.3369 7.9204,8.7099 l 7.6369,7.9509 42.8631,0.6518 c 88.6961,1.349 97.9516,1.5473 147.3631,3.1581 63.1775,2.0595 129.3063,4.5808 155.5,5.9288 5.5,0.2831 15.175,0.7394 21.5,1.0142 6.325,0.2747 21.4,0.9707 33.5,1.5467 31.2332,1.4867 33.3402,1.5817 39.75,1.7925 L 1602,736 l 0,-6.841 z m -1.6346,-84.4639 c -0.3416,-11.6573 -0.9011,-21.4757 -1.2432,-21.8187 -0.3422,-0.343 -16.1472,-0.04 -35.1222,0.6728 -18.975,0.7131 -49.575,1.7821 -68,2.3755 -18.425,0.5934 -46.775,1.5312 -63,2.0839 -25.6242,0.8728 -97.0497,2.7532 -169.5,4.4623 -120.2793,2.8374 -328.24707,3.1909 -397.5,0.6757 -15.125,-0.5494 -37.625,-1.2738 -50,-1.6099 -12.375,-0.336 -24.3,-0.8043 -26.5,-1.0406 -2.2,-0.2362 -13,-0.681 -24,-0.9884 -11,-0.3074 -29.675,-1.0057 -41.5,-1.5518 -11.825,-0.5462 -36.125,-1.6484 -54,-2.4494 -17.875,-0.8011 -43.65104,-1.9792 -57.28009,-2.6181 -13.62904,-0.6388 -24.93236,-0.9876 -25.11847,-0.775 -0.18611,0.2126 -0.65339,10.1943 -1.03839,22.1815 l -0.7,21.7948 11.31848,-0.5613 c 44.76373,-2.2203 203.29377,-7.046 328.31847,-9.9942 160.6186,-3.7874 372.0358,-2.9117 468.5,1.9406 6.325,0.3182 23.65,1.0141 38.5,1.5465 14.85,0.5324 46.575,1.8545 70.5,2.9381 23.925,1.0836 54.525,2.4515 68,3.0399 13.475,0.5883 25.4,1.1897 26.5,1.3364 1.1,0.1468 2.3345,0.1066 2.7433,-0.089 0.4088,-0.1958 0.4637,-9.8939 0.1221,-21.5512 z M 1452,1871.0831 c 0,-0.5043 2.925,-3.7256 6.5,-7.1585 3.575,-3.4329 6.5,-6.5584 6.5,-6.9456 0,-0.3872 -1.3689,-2.4534 -3.0421,-4.5915 -9.0937,-11.621 -32.5888,-39.5195 -43.4698,-51.617 l -4.254,-4.7295 -6.8201,4.4795 c -3.7511,2.4637 -7.1788,4.4795 -7.6171,4.4795 -2.2471,0 0.1027,-2.3973 8.9262,-9.1066 5.3477,-4.0664 14.4309,-12.0059 20.1849,-17.6434 5.7541,-5.6375 10.6037,-10.25 10.777,-10.25 1.4378,0 -0.5919,3.3112 -5.3565,8.7381 -5.3558,6.1004 -5.5924,6.589 -4.25,8.7774 2.0274,3.3053 26.616,30.8189 40.2021,44.9845 l 11.509,12 3.2021,-3 c 9.2989,-8.712 23.0083,-27.9997 23.0083,-32.3703 0,-1.1598 -1.1849,-5.0685 -2.6331,-8.6861 -1.9385,-4.8423 -2.3386,-6.8719 -1.5167,-7.6938 0.6141,-0.6141 1.2572,-0.9215 1.4292,-0.6831 0.172,0.2383 2.9682,4.7083 6.2138,9.9333 3.2456,5.225 8.0623,12.3796 10.7039,15.8991 5.2512,6.9964 5.5721,7.8685 3.2268,8.7685 -1.0653,0.4088 -2.9681,-0.9772 -5.8717,-4.277 l -4.2957,-4.8817 -4.8783,4.4561 c -2.683,2.4509 -8.9282,8.3424 -13.8782,13.0923 -9.3322,8.9549 -13.5503,12.7719 -32.2596,29.1927 -11.086,9.7299 -12.2404,10.563 -12.2404,8.8331 z m -755.46506,-39.9858 c -11.53079,-11.4882 -21.13079,-21.3848 -21.33334,-21.9925 -0.72919,-2.1876 1.14542,-1.0031 7.92481,5.0073 l 6.89408,6.112 4.23975,-3.5636 c 2.33187,-1.96 9.10549,-8.2169 15.05249,-13.9043 l 10.81274,-10.3406 -10.15083,-10.4578 c -10.3011,-10.6126 -32.6208,-35.1441 -36.71815,-40.3568 l -2.24352,-2.8542 -5.75648,4.3658 c -10.29804,7.8101 -22.39284,18.0792 -22.92408,19.4635 -0.28544,0.7439 1.60548,4.7611 4.20206,8.9271 2.59657,4.166 4.43105,7.8646 4.07662,8.219 -0.35443,0.3545 -1.03351,0.2245 -1.50906,-0.2889 C 647.54438,1777.7519 613,1729.019 613,1728.503 c 0,-0.2767 0.5625,-0.4933 1.25,-0.4814 0.6875,0.012 3.00592,2.4727 5.15204,5.4685 6.06908,8.472 7.9309,9.9338 10.75361,8.4435 6.62081,-3.4957 62.84435,-42.3161 62.84435,-43.3918 0,-0.2135 -1.83325,-3.787 -4.07389,-7.941 -5.63751,-10.4515 -3.89089,-11.5201 2.263,-1.3845 6.28397,10.3499 14.11817,21.3404 21.23037,29.7837 3.01138,3.575 5.00288,6.6653 4.42556,6.8674 -0.57733,0.2021 -3.61472,-2.1708 -6.74977,-5.2731 l -5.70008,-5.6406 -10.44759,7.159 c -5.74618,3.9374 -12.13748,8.4875 -14.20288,10.1113 l -3.75528,2.9524 2.24273,3.1618 c 9.77084,13.7749 42.15059,50.6618 44.47149,50.6618 0.77623,0 17.11581,-16.3296 22.06749,-22.054 l 2.20926,-2.5541 -4.88248,-6.4459 c -2.68537,-3.5453 -4.66655,-6.8043 -4.40264,-7.2422 0.26392,-0.4379 6.06363,5.0285 12.88825,12.1476 6.82462,7.1191 15.38022,15.3524 19.01245,18.2962 8.30914,6.7343 6.12148,7.8527 -2.74318,1.4024 l -6.28162,-4.5708 -6.88452,6.7604 C 736.75778,1801.3633 707,1834.0256 707,1835.9832 c 0,0.3267 2.7,3.6357 6,7.3532 5.61582,6.3264 7.03968,8.674 5.25,8.6561 -0.4125,0 -10.18428,-9.407 -21.71506,-20.8952 z m 842.00256,-31.7504 c -1.5663,-2.1158 -7.5809,-8.4714 -13.3659,-14.1236 -7.7352,-7.5576 -10.2232,-10.5717 -9.4032,-11.3917 0.8199,-0.8199 2.4655,-0.2483 6.2194,2.1606 4.5125,2.8956 5.665,3.2091 9.9389,2.7029 14.1389,-1.6746 28.3795,-16.2174 30.6398,-31.2901 1.5482,-10.3238 -5.1073,-17.5336 -14.7606,-15.9899 -2.3501,0.3757 -10.5804,3.9976 -18.2894,8.0486 -21.3899,11.2398 -29.9419,13.4745 -38.262,9.9982 -11.6438,-4.8651 -14.523,-17.7322 -7.337,-32.789 3.099,-6.4933 17.4586,-25.6729 19.2212,-25.6729 1.685,0 0.8182,-2.1545 -2.1341,-5.3042 -2.9668,-3.1653 -3.5992,-4.7678 -2.3676,-5.9995 0.3503,-0.3503 4.2627,2.5632 8.6942,6.4745 4.4314,3.9114 10.2608,8.6947 12.9541,10.6296 4.1935,3.0127 4.6511,3.6557 3.1859,4.4756 -1.234,0.6906 -2.7609,0.3674 -5.4772,-1.1592 -4.9988,-2.8095 -9.6467,-2.6703 -15.5951,0.467 -6.7614,3.5662 -9.9609,6.852 -13.4285,13.7914 -5.6226,11.2518 -3.0147,20.6248 5.7385,20.6248 6.0362,0 9.4792,-1.3814 23.9552,-9.6115 17.0262,-9.68 25.1207,-12.7714 31.5175,-12.0366 11.1671,1.2826 17.9431,8.2428 18.6372,19.1438 1.0032,15.7543 -7.6241,32.9602 -24.9418,49.7427 l -6.9533,6.7384 3.4663,5.4187 c 2.9024,4.5372 3.2653,5.6936 2.2307,7.1085 -1.11,1.5181 -1.5249,1.2989 -4.0832,-2.1571 z M 1378.4283,464.222 c -6.0928,-4.8436 -29.0041,-28.3864 -40.4283,-41.5425 l -8.5,-9.7886 -6.5,0.2078 c -3.575,0.1142 -7.0625,0.4119 -7.75,0.6615 -1.4391,0.5224 -1.6006,8.9167 -0.5945,30.9088 l 0.6482,14.169 8.3764,1.2462 c 4.607,0.6855 8.2481,1.6313 8.0912,2.102 -0.443,1.3288 -51.7721,1.5517 -51.7716,0.2248 10e-5,-0.5991 3.7548,-1.6475 8.3459,-2.3306 l 8.3457,-1.2416 0.6513,-17.1694 c 0.8289,-21.8505 0.8289,-45.8737 10e-5,-65.8563 l -0.6506,-15.6869 -6.5961,-0.6435 c -7.9449,-0.7751 -10.096,-1.3184 -10.096,-2.5501 0,-1.2311 51.9456,-1.2112 62.6872,0.024 22.4442,2.5809 31.3237,13.7373 23.799,29.9014 -2.5949,5.5741 -12.7303,16.4499 -16.422,17.6216 -1.1353,0.3603 -2.0642,1.1961 -2.0642,1.8573 0,3.0681 26.0196,41.5353 36.7755,54.3686 2.9016,3.462 4.7016,6.3006 4,6.3081 -0.7015,0.01 -2.2077,0.264 -3.3472,0.57 -1.4443,0.3879 -3.5641,-0.6301 -7,-3.3616 z m -44.9764,-57.9 c 6.934,-2.5513 14.8804,-10.6133 16.3967,-16.6352 3.1487,-12.5044 -1.1721,-21.4357 -12.8486,-26.5587 -5.0175,-2.2014 -19.9387,-4.5894 -21.1442,-3.3839 -0.4264,0.4264 -1.091,11.7538 -1.4768,25.1721 l -0.7016,24.3968 7.4113,-0.5846 c 4.0762,-0.3215 9.6396,-1.4044 12.3632,-2.4065 z m 164.8863,54.428 c -10.4635,-8.4052 -17.5306,-14.9483 -39.13,-36.2285 -10.0605,-9.9118 -18.6437,-18.1451 -19.0739,-18.2961 -0.4302,-0.1511 -2.8864,1.332 -5.4582,3.2958 l -4.6761,3.5704 0,20.8724 c 0,11.4798 0.2713,21.5793 0.6028,22.4434 0.6351,1.6549 4.7542,2.978 12.6472,4.0625 2.6371,0.3623 4.7498,1.1814 4.7496,1.8414 -3e-4,0.8884 -6.6958,1.1887 -26.5003,1.1887 -27.8312,0 -32.5928,-0.8791 -17.9426,-3.3125 4.3459,-0.7218 8.136,-1.5467 8.4224,-1.8331 0.8328,-0.8324 1.3029,-78.7649 0.5368,-88.9838 l -0.6954,-9.275 -4.6602,-0.6008 c -10.6055,-1.3672 -12.2477,-1.7327 -11.9394,-2.6576 0.3216,-0.9648 50.6872,-1.2624 51.6444,-0.3052 1.0038,1.0038 -0.9515,1.6439 -8.011,2.6221 -4.0383,0.5597 -7.6756,1.5414 -8.083,2.1817 -0.8808,1.3845 -1.043,44.6642 -0.1674,44.6642 1.0221,0 31.1457,-26.8109 40.7891,-36.3034 l 9.107,-8.9646 -3,-0.8561 c -2.6451,-0.7548 -6.5208,-1.5493 -8.75,-1.7937 -0.4125,-0.045 -0.7502,-0.6447 -0.7505,-1.3322 -3e-4,-0.9573 4.5659,-1.25 19.4994,-1.25 13.9593,0 19.5,0.3248 19.5005,1.143 8e-4,1.4161 -2.3203,2.3558 -5.8312,2.3607 -1.4675,0 -4.1509,0.9078 -5.9632,2.0127 -5.9727,3.6415 -22.4791,16.7948 -36.6481,29.2033 l -3.9431,3.4532 7.4431,9.912 c 11.5704,15.4082 38.0053,48.1924 44.8004,55.5608 4.7679,5.1701 5.7791,6.7799 4.5539,7.25 -3.4101,1.3086 -5.5851,0.3693 -13.073,-5.6457 z m -690.35675,4.1382 c -15.73389,-1.2802 -28.44628,-7.2224 -38.36055,-17.931 -9.31543,-10.0617 -13.63432,-20.9866 -13.60612,-34.4173 0.0567,-27.0177 18.47824,-49.3769 46.60846,-56.5714 9.79186,-2.5044 31.88531,-2.7492 40.91666,-0.4535 19.74644,5.0195 34.43015,18.5338 39.09875,35.985 3.18638,11.9107 0.66702,30.518 -5.76628,42.5881 -3.57201,6.7018 -11.12728,14.9786 -17.89505,19.6041 -4.85418,3.3177 -15.27883,8.0296 -20.97732,9.4818 -5.67541,1.4463 -21.91424,2.3737 -30.01855,1.7142 z m 23.80802,-5.8483 C 851.4955,455.3028 866,436.1767 866,413.9289 c 0,-18.1984 -10.67023,-38.7762 -24.76226,-47.7547 -17.57037,-11.1947 -40.5423,-8.9004 -55.00979,5.494 -23.32921,23.2115 -13.55455,67.5688 18.27205,82.9185 9.66814,4.6628 18.54548,6.1115 27.28947,4.4532 z M 961,464.9401 c -19.28834,-1.3989 -33.16617,-7.0373 -44.00964,-17.8808 -11.23474,-11.2347 -15.80621,-23.6877 -14.60022,-39.772 1.06628,-14.2207 7.44743,-27.4605 17.661,-36.6434 6.79619,-6.1103 19.08449,-12.2358 29.58614,-14.748 7.86727,-1.8821 10.88445,-2.0639 26.86272,-1.6189 9.9,0.2758 20.39355,1.0452 23.319,1.7099 2.9255,0.6646 5.5462,0.9813 5.8238,0.7036 0.2776,-0.2776 1.013,-3.4716 1.6341,-7.0976 0.8394,-4.9002 1.5393,-6.5929 2.7263,-6.5929 1.3875,0 1.5022,1.0168 0.874,7.75 -0.3977,4.2625 -0.9742,14.5 -1.2812,22.75 -0.307,8.25 -0.5667,15.1676 -0.5771,15.3725 -0.01,0.2048 -0.6365,-0.1402 -1.3913,-0.7666 -0.7705,-0.6395 -1.6734,-4.1936 -2.0587,-8.1036 -0.6554,-6.6515 -0.8747,-7.1174 -4.8776,-10.3629 -10.00813,-8.1145 -20.15131,-10.9719 -37.21444,-10.4835 -11.2586,0.3222 -12.45338,0.556 -18.78926,3.6761 -29.40775,14.4819 -33.08862,52.9834 -7.70338,80.5765 12.44694,13.5295 30.9727,19.4589 49.01578,15.6879 8.75853,-1.8305 8.45468,-1.2589 8.85025,-16.6478 0.19264,-7.4942 0.0627,-15.5434 -0.28875,-17.8871 l -0.639,-4.2611 -7.6362,-0.9002 c -4.5266,-0.5336 -7.80251,-1.4092 -8.04459,-2.1502 -0.31912,-0.9768 4.87382,-1.25 23.75829,-1.25 18.6801,0 24.0736,0.2793 23.7566,1.2301 -0.2255,0.6765 -3.3005,1.689 -6.8333,2.25 l -6.4233,1.0199 -0.2703,20.1177 -0.2703,20.1176 -5.7297,1.0923 c -15.88659,3.0287 -31.53577,4.1056 -45.2297,3.1125 z m 219.7059,-1.4123 c -15.7557,-3.446 -30.0946,-14.7015 -37.2958,-29.2755 -3.5628,-7.2105 -3.8242,-8.3711 -4.2211,-18.7385 -0.7244,-18.9263 3.4222,-30.09 15.811,-42.5675 9.0022,-9.0667 17.863,-13.9972 30.6258,-17.0417 7.5891,-1.8103 11.0463,-2.0536 23.8742,-1.68 12.8156,0.3733 16.045,0.8073 22.1761,2.9803 8.7963,3.1175 19.7504,10.2536 24.1572,15.7372 16.9732,21.121 13.6139,55.3031 -7.3646,74.9359 -7.3624,6.8901 -17.798,12.5208 -28.0782,15.15 -9.063,2.3179 -30.1572,2.5836 -39.6846,0.4998 z m 43.0162,-7.6661 c 8.6075,-4.0633 15.1105,-10.7206 19.8607,-20.332 l 3.9172,-7.926 -0.013,-13.5518 c -0.013,-14.3068 -0.7246,-17.6661 -5.9059,-27.8909 -10.0944,-19.9202 -30.9471,-30.4115 -51.7824,-26.0523 -28.7441,6.0139 -42.3324,38.8889 -28.2683,68.3913 12.08,25.3403 40.234,37.7269 62.1912,27.3617 z m -614.72213,6.5105 c 2e-5,-0.6376 3.41742,-1.6593 7.86418,-2.3511 l 7.86416,-1.2233 0.65892,-8.7287 c 0.7401,-9.8039 0.66398,-80.5663 -0.0928,-86.2119 l -0.48822,-3.6429 -7.63091,-1.135 C 602.17944,356.849 606.81807,356 634,356 c 18.5154,0 26.08496,0.315 25.34513,1.0549 -0.58017,0.5801 -4.13041,1.4904 -7.88942,2.0227 -3.75901,0.5324 -7.06731,1.2007 -7.35179,1.4852 -0.28448,0.2844 -0.70462,10.1853 -0.93364,22.002 l -0.41641,21.4848 32.12306,-0.077 32.12307,-0.077 -0.0153,-20.6978 c -0.008,-11.3838 -0.34696,-21.219 -0.75229,-21.856 -0.67396,-1.0592 -2.2104,-1.4354 -11.9824,-2.934 -1.7875,-0.2742 -3.24981,-1.0405 -3.24958,-1.7031 3e-4,-0.9081 6.27883,-1.2047 25.50032,-1.2047 14.02495,0 25.49976,0.3109 25.49958,0.6909 -3.8e-4,0.7962 -2.03182,2.1862 -3.50033,2.3951 -0.55,0.078 -3.58041,0.4599 -6.73424,0.8481 -3.15383,0.3882 -6.00212,1.1393 -6.32953,1.6691 -1.66259,2.6901 -1.06553,95.618 0.62512,97.2958 0.30874,0.3064 4.02124,1.0716 8.25,1.7006 4.36692,0.6495 7.68865,1.631 7.68865,2.272 0,0.8084 -7.23173,1.1284 -25.5,1.1284 -27.27385,0 -32.01667,-0.9561 -17.75,-3.5782 l 7.75,-1.4244 0.26701,-25.1729 0.26701,-25.1728 -7.26701,0.4155 c -3.99685,0.2286 -16.26701,0.8827 -27.26701,1.4537 -11,0.5709 -22.1375,1.292 -24.75,1.6024 l -4.75,0.5644 0.006,15.1561 c 0.003,8.3359 0.29225,18.8331 0.64212,23.3271 l 0.63612,8.1709 7.60789,1.3291 c 4.18433,0.731 7.49538,1.6825 7.35789,2.1144 -0.41918,1.3166 -50.25008,1.4029 -50.25004,0.087 z M 1062,462.3403 c 0,-0.6566 3.0363,-1.6717 7,-2.3403 l 7,-1.1807 0,-21.9593 c 0,-18.42 -0.2652,-22.4751 -1.6456,-25.1597 -2.6187,-5.0925 -18.8681,-29.2474 -27.2161,-40.4568 -7.8681,-10.565 -8.244,-10.8399 -17.3883,-12.7171 -1.5125,-0.3105 -2.75,-0.9901 -2.75,-1.5102 0,-1.0532 46.9439,-1.9208 47.5856,-0.8795 0.8212,1.3326 -2.2985,2.6423 -7.9113,3.3213 -4.6081,0.5575 -5.7052,1.0191 -5.2488,2.2085 0.3174,0.827 6.927,11.3908 14.688,23.4752 l 14.1111,21.9717 3.4069,-5.1732 c 10.1834,-15.4626 23.3685,-38.47 23.3685,-40.7768 0,-0.4968 -2.7,-1.4344 -6,-2.0836 -3.3431,-0.6577 -6,-1.7117 -6,-2.3801 0,-0.8897 4.7805,-1.1997 18.5,-1.1997 13.5711,0 18.5,0.3151 18.5,1.1826 0,1.2825 -1.4196,1.8415 -7.3504,2.8942 -3.3057,0.5868 -4.7652,1.8322 -10.3165,8.8033 -3.5564,4.466 -11.8444,16.153 -18.4178,25.9712 l -11.9517,17.8514 0.2682,23.1486 0.2682,23.1487 5,0.8361 c 8.8423,1.4785 9.5,1.6815 9.5,2.9329 0,0.9397 -5.5607,1.231 -23.5,1.231 -17.1568,0 -23.5,-0.313 -23.5,-1.1597 z"
       style="fill:#f1b41b;fill-opacity:1" />
  </g>
</svg>
