<?xml version="1.0" standalone="no"?>
<!DOCTYPE svg PUBLIC "-//W3C//DTD SVG 20010904//EN"
 "http://www.w3.org/TR/2001/REC-SVG-20010904/DTD/svg10.dtd">
<svg version="1.0" xmlns="http://www.w3.org/2000/svg"
 width="700.000000pt" height="700.000000pt" viewBox="0 0 700.000000 700.000000"
 preserveAspectRatio="xMidYMid meet">
<metadata>
Created by potrace 1.11, written by Peter Selinger 2001-2013
</metadata>
<g transform="translate(0.000000,700.000000) scale(0.100000,-0.100000)"
fill="#000000" stroke="none">
<path d="M2690 6568 c-817 -4 -1504 -11 -1527 -14 l-43 -5 0 -390 0 -389 195
0 194 0 5 -32 c3 -18 10 -742 16 -1608 5 -866 13 -1875 17 -2242 l6 -668 -60
0 c-33 0 -121 -3 -196 -7 l-137 -6 0 -394 0 -394 1052 6 c579 4 1419 10 1867
14 l814 6 279 285 c396 405 596 616 615 653 16 30 17 93 15 822 l-3 790 -315
316 c-173 174 -314 323 -314 331 0 8 140 157 311 331 l311 317 -8 691 -7 690
-406 398 c-223 218 -433 423 -467 454 l-61 57 -334 -2 c-184 -1 -1002 -5
-1819 -10z m1035 -493 c382 -39 694 -108 855 -190 25 -13 77 -46 115 -73 211
-149 268 -270 301 -635 19 -212 14 -538 -10 -652 -28 -136 -77 -238 -102 -213
-7 8 -19 104 -39 336 -8 96 -20 183 -26 194 -10 19 -16 20 -88 12 -42 -5 -141
-9 -221 -8 -182 0 -259 16 -677 135 -171 49 -330 91 -352 95 -37 6 -41 5 -41
-15 0 -11 14 -60 30 -108 17 -47 30 -87 30 -89 0 -1 -45 0 -100 3 l-100 6 0
-25 c0 -13 11 -58 25 -98 32 -93 31 -100 -3 -100 -53 0 -97 42 -132 127 -57
136 -100 268 -89 272 10 3 94 -11 157 -26 17 -4 22 -1 22 14 0 27 -47 143 -66
165 -23 24 -163 68 -220 68 -87 0 -119 -31 -179 -174 -43 -107 -83 -165 -138
-203 -37 -25 -50 -28 -151 -33 l-111 -5 -7 -50 c-5 -30 -2 -115 7 -210 23
-246 22 -345 -5 -345 -16 0 -81 84 -111 142 -16 31 -40 92 -55 134 -34 102
-48 316 -41 649 7 347 18 390 140 541 118 146 123 150 394 237 254 82 366 111
478 126 110 14 356 12 510 -4z m-478 -1525 c50 -22 175 -145 203 -200 24 -46
31 -48 210 -52 l134 -3 36 64 c50 89 89 132 147 163 73 40 155 58 263 58 79 0
104 -4 145 -24 61 -28 173 -136 199 -190 24 -51 39 -174 32 -256 -11 -121
-103 -253 -210 -301 -55 -24 -240 -41 -315 -28 -124 20 -266 168 -287 299 -15
91 -81 136 -189 127 -93 -8 -100 -14 -134 -125 -56 -181 -138 -265 -298 -307
-158 -41 -328 8 -437 125 -69 75 -81 118 -81 280 0 118 2 128 29 183 51 99
158 180 270 204 81 16 227 8 283 -17z m1175 -1517 l218 -218 2 -570 c3 -522 1
-573 -14 -601 -10 -18 -103 -115 -208 -216 l-191 -185 -257 -7 c-141 -3 -482
-9 -758 -12 l-501 -7 -6 519 c-4 285 -7 741 -7 1011 l0 493 643 3 c353 1 691
3 752 5 l109 2 218 -217z"/>
<path d="M4147 4430 c-119 -21 -181 -81 -195 -188 -16 -118 16 -227 82 -277
47 -35 87 -45 185 -46 102 0 160 24 208 88 73 98 64 294 -18 370 -53 49 -163
71 -262 53z"/>
<path d="M2973 4421 c-72 -7 -107 -29 -137 -87 -17 -32 -22 -61 -24 -159 -3
-109 -1 -124 20 -165 34 -66 88 -93 198 -98 177 -9 252 29 286 143 37 130 -7
308 -86 346 -40 19 -164 29 -257 20z"/>
</g>
</svg>
